<?xml version="1.0" encoding="UTF-8"?>
<svg width="66px" height="10px" viewBox="0 0 66 10" version="1.1" xmlns="http://www.w3.org/2000/svg" xmlns:xlink="http://www.w3.org/1999/xlink">
    <!-- Generator: Sketch 47 (45396) - http://www.bohemiancoding.com/sketch -->
    <title>Group 8</title>
    <desc>Created with Sketch.</desc>
    <defs></defs>
    <g id="ADMIN-DR." stroke="none" stroke-width="1" fill="none" fill-rule="evenodd">
        <g id="1.-DASHBOARD" transform="translate(-452.000000, -624.000000)" fill="#A0DEF9">
            <g id="Group-8" transform="translate(452.000000, 624.000000)">
                <path d="M9.75987736,3.42102076 L6.37859821,3.42102076 L5.22633147,0.160167118 C5.19223292,0.0642349387 5.10158361,0 4.9998883,0 C4.89831305,0 4.80754368,0.0641148734 4.7735652,0.160167118 L3.62117839,3.42102076 L0.240259439,3.42102076 C0.138083864,3.42102076 0.0470743617,3.48573596 0.0132159454,3.58226847 C-0.0201622097,3.67880098 0.0110547699,3.78613936 0.0913784596,3.84953384 L2.73113428,5.93975075 L1.54969167,9.28308927 C1.51595332,9.37854118 1.54596964,9.48503911 1.62413216,9.54903392 C1.70265487,9.61338892 1.81299488,9.6214333 1.89992216,9.56908483 L4.99976824,7.70951337 L8.09961431,9.56908483 C8.13767501,9.5920173 8.18089852,9.60330344 8.2235217,9.60330344 C8.27719089,9.60330344 8.33134035,9.58505351 8.37552438,9.54903392 C8.45368689,9.48503911 8.48370322,9.37854118 8.44996487,9.28308927 L7.26852226,5.93975075 L9.90899847,3.84953384 C9.98908203,3.78613936 10.020299,3.67880098 9.98656066,3.58226847 C9.9531825,3.48573596 9.862173,3.42102076 9.75987736,3.42102076 Z" id="Shape"></path>
                <path d="M23.7598774,3.42102076 L20.3785982,3.42102076 L19.2263315,0.160167118 C19.1922329,0.0642349387 19.1015836,0 18.9998883,0 C18.8983131,0 18.8075437,0.0641148734 18.7735652,0.160167118 L17.6211784,3.42102076 L14.2402594,3.42102076 C14.1380839,3.42102076 14.0470744,3.48573596 14.0132159,3.58226847 C13.9798378,3.67880098 14.0110548,3.78613936 14.0913785,3.84953384 L16.7311343,5.93975075 L15.5496917,9.28308927 C15.5159533,9.37854118 15.5459696,9.48503911 15.6241322,9.54903392 C15.7026549,9.61338892 15.8129949,9.6214333 15.8999222,9.56908483 L18.9997682,7.70951337 L22.0996143,9.56908483 C22.137675,9.5920173 22.1808985,9.60330344 22.2235217,9.60330344 C22.2771909,9.60330344 22.3313403,9.58505351 22.3755244,9.54903392 C22.4536869,9.48503911 22.4837032,9.37854118 22.4499649,9.28308927 L21.2685223,5.93975075 L23.9089985,3.84953384 C23.989082,3.78613936 24.020299,3.67880098 23.9865607,3.58226847 C23.9531825,3.48573596 23.862173,3.42102076 23.7598774,3.42102076 Z" id="Shape"></path>
                <path d="M37.7598774,3.42102076 L34.3785982,3.42102076 L33.2263315,0.160167118 C33.1922329,0.0642349387 33.1015836,0 32.9998883,0 C32.8983131,0 32.8075437,0.0641148734 32.7735652,0.160167118 L31.6211784,3.42102076 L28.2402594,3.42102076 C28.1380839,3.42102076 28.0470744,3.48573596 28.0132159,3.58226847 C27.9798378,3.67880098 28.0110548,3.78613936 28.0913785,3.84953384 L30.7311343,5.93975075 L29.5496917,9.28308927 C29.5159533,9.37854118 29.5459696,9.48503911 29.6241322,9.54903392 C29.7026549,9.61338892 29.8129949,9.6214333 29.8999222,9.56908483 L32.9997682,7.70951337 L36.0996143,9.56908483 C36.137675,9.5920173 36.1808985,9.60330344 36.2235217,9.60330344 C36.2771909,9.60330344 36.3313403,9.58505351 36.3755244,9.54903392 C36.4536869,9.48503911 36.4837032,9.37854118 36.4499649,9.28308927 L35.2685223,5.93975075 L37.9089985,3.84953384 C37.989082,3.78613936 38.020299,3.67880098 37.9865607,3.58226847 C37.9531825,3.48573596 37.862173,3.42102076 37.7598774,3.42102076 Z" id="Shape"></path>
                <path d="M51.7598774,3.42102076 L48.3785982,3.42102076 L47.2263315,0.160167118 C47.1922329,0.0642349387 47.1015836,0 46.9998883,0 C46.8983131,0 46.8075437,0.0641148734 46.7735652,0.160167118 L45.6211784,3.42102076 L42.2402594,3.42102076 C42.1380839,3.42102076 42.0470744,3.48573596 42.0132159,3.58226847 C41.9798378,3.67880098 42.0110548,3.78613936 42.0913785,3.84953384 L44.7311343,5.93975075 L43.5496917,9.28308927 C43.5159533,9.37854118 43.5459696,9.48503911 43.6241322,9.54903392 C43.7026549,9.61338892 43.8129949,9.6214333 43.8999222,9.56908483 L46.9997682,7.70951337 L50.0996143,9.56908483 C50.137675,9.5920173 50.1808985,9.60330344 50.2235217,9.60330344 C50.2771909,9.60330344 50.3313403,9.58505351 50.3755244,9.54903392 C50.4536869,9.48503911 50.4837032,9.37854118 50.4499649,9.28308927 L49.2685223,5.93975075 L51.9089985,3.84953384 C51.989082,3.78613936 52.020299,3.67880098 51.9865607,3.58226847 C51.9531825,3.48573596 51.862173,3.42102076 51.7598774,3.42102076 Z" id="Shape"></path>
                <path d="M65.7598774,3.42102076 L62.3785982,3.42102076 L61.2263315,0.160167118 C61.1922329,0.0642349387 61.1015836,0 60.9998883,0 C60.8983131,0 60.8075437,0.0641148734 60.7735652,0.160167118 L59.6211784,3.42102076 L56.2402594,3.42102076 C56.1380839,3.42102076 56.0470744,3.48573596 56.0132159,3.58226847 C55.9798378,3.67880098 56.0110548,3.78613936 56.0913785,3.84953384 L58.7311343,5.93975075 L57.5496917,9.28308927 C57.5159533,9.37854118 57.5459696,9.48503911 57.6241322,9.54903392 C57.7026549,9.61338892 57.8129949,9.6214333 57.8999222,9.56908483 L60.9997682,7.70951337 L64.0996143,9.56908483 C64.137675,9.5920173 64.1808985,9.60330344 64.2235217,9.60330344 C64.2771909,9.60330344 64.3313403,9.58505351 64.3755244,9.54903392 C64.4536869,9.48503911 64.4837032,9.37854118 64.4499649,9.28308927 L63.2685223,5.93975075 L65.9089985,3.84953384 C65.989082,3.78613936 66.020299,3.67880098 65.9865607,3.58226847 C65.9531825,3.48573596 65.862173,3.42102076 65.7598774,3.42102076 Z" id="Shape"></path>
            </g>
        </g>
    </g>
</svg>