<?xml version="1.0" encoding="UTF-8"?>
<svg width="100px" height="124px" viewBox="0 0 100 124" version="1.1" xmlns="http://www.w3.org/2000/svg" xmlns:xlink="http://www.w3.org/1999/xlink">
    <!-- Generator: Sketch 47 (45396) - http://www.bohemiancoding.com/sketch -->
    <title>Page 1</title>
    <desc>Created with Sketch.</desc>
    <defs>
        <filter x="-2.6%" y="-2.1%" width="110.5%" height="108.4%" filterUnits="objectBoundingBox" id="filter-1">
            <feOffset dx="5" dy="5" in="SourceAlpha" result="shadowOffsetOuter1"></feOffset>
            <feColorMatrix values="0 0 0 0 0   0 0 0 0 0   0 0 0 0 0  0 0 0 0.3 0" type="matrix" in="shadowOffsetOuter1" result="shadowMatrixOuter1"></feColorMatrix>
            <feMerge>
                <feMergeNode in="shadowMatrixOuter1"></feMergeNode>
                <feMergeNode in="SourceGraphic"></feMergeNode>
            </feMerge>
        </filter>
        <polygon id="path-2" points="0 118.1194 94.7677778 118.1194 94.7677778 0.000602531646 0 0.000602531646"></polygon>
    </defs>
    <g id="ADMIN-DR." stroke="none" stroke-width="1" fill="none" fill-rule="evenodd">
        <g id="1.-DASHBOARD" transform="translate(-565.000000, -238.000000)">
            <g id="Page-1" filter="url(#filter-1)" transform="translate(565.000000, 238.000000)">
                <path d="M88.1034524,2.25904177 L6.6643254,2.25904177 C4.23202381,2.25904177 2.26115079,4.22932025 2.26115079,6.65752278 L2.26115079,111.461877 C2.26115079,113.89008 4.23202381,115.860358 6.6643254,115.860358 L88.1034524,115.860358 C90.534246,115.860358 92.505119,113.89008 92.505119,111.461877 L92.505119,66.1846367 L92.505119,52.3294215 L92.505119,35.9767127 L92.505119,20.6814468 L92.505119,6.65752278 C92.505119,4.22932025 90.534246,2.25904177 88.1034524,2.25904177 Z" id="Stroke-1" stroke="#0F50A4" stroke-width="4.29"></path>
                <path d="M73.7420159,66.0088481 L73.7420159,3.6528481 L7.66273016,3.6528481 C5.29074603,3.6528481 3.36963492,5.57341772 3.36963492,7.94287342 L3.36963492,110.175924 C3.36963492,112.546886 5.29074603,114.465949 7.66273016,114.465949 L87.1038413,114.465949 C89.4758254,114.465949 91.3984444,112.546886 91.3984444,110.175924 L91.3984444,66.0088481 L73.7420159,66.0088481 Z" id="Fill-3" fill="#53BBEC"></path>
                <mask id="mask-3" fill="white">
                    <use xlink:href="#path-2"></use>
                </mask>
                <g id="Clip-6"></g>
                <polygon id="Fill-5" fill="#108CB2" mask="url(#mask-3)" points="73.7456349 17.2435519 76.7464286 17.2435519 76.7464286 3.65345063 73.7456349 3.65345063"></polygon>
                <path d="M87.1042937,3.65360127 L76.7432619,3.65360127 L76.7432619,17.2452089 L87.1042937,17.2452089 C89.4762778,17.2452089 91.3988968,19.204943 91.3988968,21.6241076 L91.3988968,7.94362658 C91.3988968,5.57266456 89.4762778,3.65360127 87.1042937,3.65360127" id="Fill-7" fill="#2AA3D3" mask="url(#mask-3)"></path>
                <path d="M87.1042937,17.2458114 L76.7432619,17.2458114 L76.7432619,32.2548747 L87.1042937,32.2548747 C89.4762778,32.2548747 91.3988968,34.173938 91.3988968,36.5449 L91.3988968,21.6232038 C91.3988968,19.2055456 89.4762778,17.2458114 87.1042937,17.2458114" id="Fill-8" fill="#EBF0F3" mask="url(#mask-3)"></path>
                <polygon id="Fill-9" fill="#E1E6E9" mask="url(#mask-3)" points="73.7456349 32.2601468 76.7464286 32.2601468 76.7464286 17.2525899 73.7456349 17.2525899"></polygon>
                <polygon id="Fill-10" fill="#2EA4BF" mask="url(#mask-3)" points="73.7456349 48.2061468 76.7464286 48.2061468 76.7464286 32.2541215 73.7456349 32.2541215"></polygon>
                <path d="M87.1042937,32.2547241 L76.7432619,32.2547241 L76.7432619,48.205243 L87.1042937,48.205243 C89.4762778,48.205243 91.3988968,50.1258127 91.3988968,52.4952684 L91.3988968,36.5447494 C91.3988968,34.1737873 89.4762778,32.2547241 87.1042937,32.2547241" id="Fill-11" fill="#53BBEC" mask="url(#mask-3)"></path>
                <path d="M87.1042937,48.2049418 L76.7432619,48.2049418 L76.7432619,66.0082456 L91.3988968,66.0082456 L91.3988968,52.4949671 C91.3988968,50.1255114 89.4762778,48.2049418 87.1042937,48.2049418" id="Fill-12" fill="#B0E2F6" mask="url(#mask-3)"></path>
                <polygon id="Fill-13" fill="#75C0D8" mask="url(#mask-3)" points="73.7456349 66.0079443 76.7464286 66.0079443 76.7464286 48.2061468 73.7456349 48.2061468"></polygon>
                <path d="M82.1682143,81.8194291 L15.6154365,81.8194291 C14.6201984,81.8194291 13.8119444,82.6238089 13.8119444,83.6179861 C13.8119444,84.6121633 14.6201984,85.4195557 15.6154365,85.4195557 L82.1682143,85.4195557 C83.1634524,85.4195557 83.9701984,84.6121633 83.9701984,83.6179861 C83.9701984,82.6238089 83.1634524,81.8194291 82.1682143,81.8194291" id="Fill-14" fill="#B0E2F6" mask="url(#mask-3)"></path>
                <path d="M82.1682143,91.6590722 L15.6154365,91.6590722 C14.6201984,91.6590722 13.8119444,92.4649582 13.8119444,93.4591354 C13.8119444,94.4518063 14.6201984,95.2591987 15.6154365,95.2591987 L82.1682143,95.2591987 C83.1634524,95.2591987 83.9701984,94.4518063 83.9701984,93.4591354 C83.9701984,92.4649582 83.1634524,91.6590722 82.1682143,91.6590722" id="Fill-15" fill="#B0E2F6" mask="url(#mask-3)"></path>
                <path d="M82.1682143,101.498715 L15.6154365,101.498715 C14.6201984,101.498715 13.8119444,102.304601 13.8119444,103.298778 C13.8119444,104.292956 14.6201984,105.100348 15.6154365,105.100348 L82.1682143,105.100348 C83.1634524,105.100348 83.9701984,104.292956 83.9701984,103.298778 C83.9701984,102.304601 83.1634524,101.498715 82.1682143,101.498715" id="Fill-16" fill="#B0E2F6" mask="url(#mask-3)"></path>
                <path d="M60.3237937,41.7177848 C60.3237937,52.9248734 51.2294286,62.0110506 40.008873,62.0110506 C28.7898254,62.0110506 19.6954603,52.9248734 19.6954603,41.7177848 C19.6954603,30.5106962 28.7898254,21.424519 40.008873,21.424519 C51.2294286,21.424519 60.3237937,30.5106962 60.3237937,41.7177848" id="Fill-17" fill="#FFFFFF" mask="url(#mask-3)"></path>
                <path d="M57.2895238,40.2305861 C57.2895238,50.3229911 49.0984127,58.5053709 38.9952381,58.5053709 C28.8905556,58.5053709 20.7009524,50.3229911 20.7009524,40.2305861 C20.7009524,30.138181 28.8905556,21.9542949 38.9952381,21.9542949 C49.0984127,21.9542949 57.2895238,30.138181 57.2895238,40.2305861" id="Fill-18" fill="#FFFFF6" mask="url(#mask-3)"></path>
                <path d="M38.9953889,20.951381 C28.3357857,20.951381 19.6953095,29.5811405 19.6953095,40.2308873 C19.6953095,50.8776215 28.3357857,59.5103937 38.9953889,59.5103937 L38.9953889,20.951381 Z" id="Fill-19" fill="#8FD3F7" mask="url(#mask-3)"></path>
                <path d="M54.4517381,40.2305861 C54.4517381,50.8773203 47.779119,59.5100924 39.5488016,59.5100924 C31.3169762,59.5100924 24.6443571,50.8773203 24.6443571,40.2305861 C24.6443571,29.5823456 31.3169762,20.9510797 39.5488016,20.9510797 C47.779119,20.9510797 54.4517381,29.5823456 54.4517381,40.2305861" id="Fill-20" fill="#53BBEC" mask="url(#mask-3)"></path>
                <path d="M35.8941667,50.0334747 C35.5609127,50.0334747 35.2909921,49.7638418 35.2909921,49.430943 L35.2909921,43.9298291 L29.7840079,43.9298291 C29.450754,43.9298291 29.1808333,43.6601962 29.1808333,43.3272975 L29.1808333,37.1332722 C29.1808333,36.8003734 29.450754,36.5292342 29.7840079,36.5292342 L35.2909921,36.5292342 L35.2909921,31.0296266 C35.2909921,30.6967278 35.5609127,30.4255886 35.8941667,30.4255886 L42.0978175,30.4255886 C42.4310714,30.4255886 42.7009921,30.6967278 42.7009921,31.0296266 L42.7009921,36.5292342 L48.2064683,36.5292342 C48.5397222,36.5292342 48.8096429,36.8003734 48.8096429,37.1332722 L48.8096429,43.3272975 C48.8096429,43.6601962 48.5397222,43.9298291 48.2064683,43.9298291 L42.7009921,43.9298291 L42.7009921,49.430943 C42.7009921,49.7638418 42.4310714,50.0334747 42.0978175,50.0334747 L35.8941667,50.0334747 Z" id="Fill-21" fill="#B0E2F6" mask="url(#mask-3)"></path>
                <path d="M38.9953889,57.5018544 C29.4622143,57.5018544 21.7053889,49.7532975 21.7053889,40.2302848 C21.7053889,30.7072722 29.4622143,22.9587152 38.9953889,22.9587152 C48.5285635,22.9587152 56.2853889,30.7072722 56.2853889,40.2302848 C56.2853889,49.7532975 48.5285635,57.5018544 38.9953889,57.5018544 M38.9953889,20.9507785 C28.3357857,20.9507785 19.6953095,29.5820443 19.6953095,40.2302848 C19.6953095,50.8785253 28.3357857,59.5097911 38.9953889,59.5097911 C49.6534841,59.5097911 58.2954683,50.8785253 58.2954683,40.2302848 C58.2954683,29.5820443 49.6534841,20.9507785 38.9953889,20.9507785" id="Fill-22" fill="#0F50A4" mask="url(#mask-3)"></path>
                <path d="M48.2064683,43.3271468 L42.0978175,43.3271468 L42.0978175,49.4307924 L35.8941667,49.4307924 L35.8941667,43.3271468 L29.7840079,43.3271468 L29.7840079,37.1331215 L35.8941667,37.1331215 L35.8941667,31.0294759 L42.0978175,31.0294759 L42.0978175,37.1331215 L48.2064683,37.1331215 L48.2064683,43.3271468 Z M48.2064683,35.9280582 L43.3041667,35.9280582 L43.3041667,31.0294759 C43.3041667,30.3651848 42.7643254,29.8244127 42.0978175,29.8244127 L35.8941667,29.8244127 C35.2291667,29.8244127 34.6878175,30.3651848 34.6878175,31.0294759 L34.6878175,35.9280582 L29.7840079,35.9280582 C29.1175,35.9280582 28.5776587,36.4658177 28.5776587,37.1331215 L28.5776587,43.3271468 C28.5776587,43.9929443 29.1175,44.5337165 29.7840079,44.5337165 L34.6878175,44.5337165 L34.6878175,49.4307924 C34.6878175,50.0965899 35.2291667,50.6358557 35.8941667,50.6358557 L42.0978175,50.6358557 C42.7643254,50.6358557 43.3041667,50.0965899 43.3041667,49.4307924 L43.3041667,44.5337165 L48.2064683,44.5337165 C48.8729762,44.5337165 49.4128175,43.9929443 49.4128175,43.3271468 L49.4128175,37.1331215 C49.4128175,36.4658177 48.8729762,35.9280582 48.2064683,35.9280582 L48.2064683,35.9280582 Z" id="Fill-23" fill="#0F50A4" mask="url(#mask-3)"></path>
                <path d="M6.38475397,10.9556823 C6.38475397,8.58622658 8.30737302,6.66565696 10.6793571,6.66565696 L73.7412619,6.66565696 L73.7412619,3.65299873 L7.66348413,3.65299873 C5.2915,3.65299873 3.36888095,5.57356835 3.36888095,7.94302405 L3.36888095,110.176075 C3.36888095,112.158404 4.7215,113.809341 6.54911905,114.30191 C6.45261111,113.94491 6.38475397,113.577366 6.38475397,113.188733 L6.38475397,10.9556823 Z" id="Fill-24" fill="#FFFFFF" mask="url(#mask-3)"></path>
                <path d="M80.6602778,80.3131 L14.1075,80.3131 C13.1122619,80.3131 12.3040079,81.1174797 12.3040079,82.111657 C12.3040079,83.1058342 13.1122619,83.9132266 14.1075,83.9132266 L80.6602778,83.9132266 C81.6555159,83.9132266 82.4622619,83.1058342 82.4622619,82.111657 C82.4622619,81.1174797 81.6555159,80.3131 80.6602778,80.3131" id="Fill-25" fill="#0F50A4" mask="url(#mask-3)"></path>
                <path d="M80.6602778,90.152743 L14.1075,90.152743 C13.1122619,90.152743 12.3040079,90.9586291 12.3040079,91.9528063 C12.3040079,92.9454772 13.1122619,93.7528696 14.1075,93.7528696 L80.6602778,93.7528696 C81.6555159,93.7528696 82.4622619,92.9454772 82.4622619,91.9528063 C82.4622619,90.9586291 81.6555159,90.152743 80.6602778,90.152743" id="Fill-26" fill="#0F50A4" mask="url(#mask-3)"></path>
                <path d="M80.6602778,99.9923861 L14.1075,99.9923861 C13.1122619,99.9923861 12.3040079,100.798272 12.3040079,101.792449 C12.3040079,102.786627 13.1122619,103.594019 14.1075,103.594019 L80.6602778,103.594019 C81.6555159,103.594019 82.4622619,102.786627 82.4622619,101.792449 C82.4622619,100.798272 81.6555159,99.9923861 80.6602778,99.9923861" id="Fill-27" fill="#0F50A4" mask="url(#mask-3)"></path>
            </g>
        </g>
    </g>
</svg>