<?xml version="1.0" encoding="UTF-8"?>
<svg width="22px" height="22px" viewBox="0 0 22 22" version="1.1" xmlns="http://www.w3.org/2000/svg" xmlns:xlink="http://www.w3.org/1999/xlink">
    <!-- Generator: Sketch 48 (47235) - http://www.bohemiancoding.com/sketch -->
    <title>Page 1</title>
    <desc>Created with Sketch.</desc>
    <defs>
        <polygon id="path-1" points="1.92139737e-05 2.7304699e-15 21.9850131 2.7304699e-15 21.9850131 21.9849843 1.92139737e-05 21.9849843 1.92139737e-05 0"></polygon>
    </defs>
    <g id="3.1-NUEVO-PACIENTE" stroke="none" stroke-width="1" fill="none" fill-rule="evenodd" transform="translate(-596.000000, -298.000000)">
        <g id="Page-1" transform="translate(596.000000, 298.000000)">
            <mask id="mask-2" fill="white">
                <use xlink:href="#path-1"></use>
            </mask>
            <g id="Clip-2"></g>
            <path d="M10.9932943,14.4277441 C10.2367441,14.4277441 9.62122445,15.0431677 9.62122445,15.8001022 C9.62122445,16.5558838 10.2367441,17.1716917 10.9932943,17.1716917 C11.7494603,17.1716917 12.3644996,16.5558838 12.3644996,15.8001022 C12.3644996,15.0431677 11.7494603,14.4277441 10.9932943,14.4277441 M10.9932943,4.82075721 C10.2059057,4.82075721 9.60998428,5.23164803 9.60998428,5.89549083 L9.60998428,11.9823817 C9.60998428,12.6466087 10.2059057,13.0561546 10.9932943,13.0561546 C11.761469,13.0561546 12.376124,12.6297965 12.376124,11.9823817 L12.376124,5.89549083 C12.376124,5.24740349 11.761469,4.82075721 10.9932943,4.82075721 M10.9925258,20.7829581 C5.58504105,20.7829581 1.20194934,16.3998664 1.20194934,10.9924777 C1.20194934,5.58508908 5.58504105,1.20190131 10.9925258,1.20190131 C16.4000105,1.20190131 20.7831022,5.58508908 20.7831022,10.9924777 C20.7831022,16.3998664 16.4000105,20.7829581 10.9925258,20.7829581 M10.9925258,-2.88209608e-05 C4.9216786,-2.88209608e-05 1.92139737e-05,4.92163057 1.92139737e-05,10.9924777 C1.92139737e-05,17.0636131 4.9216786,21.9849843 10.9925258,21.9849843 C17.0636611,21.9849843 21.9850323,17.0643817 21.9850323,10.9924777 C21.9850323,4.92163057 17.0636611,-2.88209608e-05 10.9925258,-2.88209608e-05" id="Fill-1" fill="#FFFFFF" mask="url(#mask-2)"></path>
        </g>
    </g>
</svg>