<?xml version="1.0" encoding="UTF-8"?>
<svg width="65px" height="76px" viewBox="0 0 65 76" version="1.1" xmlns="http://www.w3.org/2000/svg" xmlns:xlink="http://www.w3.org/1999/xlink">
    <!-- Generator: Sketch 48 (47235) - http://www.bohemiancoding.com/sketch -->
    <title>Page 1</title>
    <desc>Created with Sketch.</desc>
    <defs></defs>
    <g id="3.-PACIENTES.-CONSULTAS-DETALLE" stroke="none" stroke-width="1" fill="none" fill-rule="evenodd" transform="translate(-614.000000, -1201.000000)">
        <g id="Page-1" transform="translate(614.000000, 1201.000000)" fill="#959699">
            <path d="M49.0716353,60.7110353 L3.35316471,60.7110353 L3.35316471,20.3103294 L17.8892824,20.3103294 C18.8146941,20.3103294 19.5657529,19.5592706 19.5657529,18.6338588 L19.5657529,3.35338824 L49.0716353,3.35338824 L49.0716353,60.7110353 Z M16.2128118,5.36291765 L16.2128118,16.9573882 L5.23304706,16.9573882 L16.2128118,5.36291765 Z M52.4245765,62.3875059 L52.4245765,1.67691765 C52.4245765,0.751505882 51.6735176,0.000447058824 50.7481059,0.000447058824 L17.3952824,0.000447058824 C16.9348118,0.000447058824 16.4944588,0.190447059 16.1770471,0.523505882 L0.458458824,17.1228 C0.1634,17.4335059 0.000223529412,17.8470353 0.000223529412,18.2762118 L0.000223529412,62.3875059 C0.000223529412,63.3129176 0.751282353,64.0639765 1.67669412,64.0639765 L50.7481059,64.0639765 C51.6735176,64.0639765 52.4245765,63.3129176 52.4245765,62.3875059 L52.4245765,62.3875059 Z" id="Fill-1"></path>
            <g id="Group-5" transform="translate(12.176471, 10.416918)">
                <path d="M51.1451647,0.759552941 L45.0159882,0.759552941 C44.0905765,0.759552941 43.3395176,1.51061176 43.3395176,2.43602353 C43.3395176,3.36143529 44.0905765,4.11249412 45.0159882,4.11249412 L49.4686941,4.11249412 L49.4686941,61.4701412 L3.75022353,61.4701412 L3.75022353,57.8601412 C3.75022353,56.9347294 2.99916471,56.1836706 2.07375294,56.1836706 C1.14834118,56.1836706 0.397282353,56.9347294 0.397282353,57.8601412 L0.397282353,63.1466118 C0.397282353,64.0720235 1.14834118,64.8230824 2.07375294,64.8230824 L51.1451647,64.8230824 C52.0705765,64.8230824 52.8216353,64.0720235 52.8216353,63.1466118 L52.8216353,2.43602353 C52.8216353,1.51061176 52.0705765,0.759552941 51.1451647,0.759552941" id="Fill-3"></path>
            </g>
            <path d="M10.6241294,28.9584588 C9.69871765,28.9584588 8.94765882,29.7095176 8.94765882,30.6349294 C8.94765882,31.5603412 9.69871765,32.3114 10.6241294,32.3114 L41.1738941,32.3114 C42.0993059,32.3114 42.8503647,31.5603412 42.8503647,30.6349294 C42.8503647,29.7095176 42.0993059,28.9584588 41.1738941,28.9584588 L10.6241294,28.9584588 Z" id="Fill-6"></path>
            <path d="M41.1738941,37.9805529 L10.6241294,37.9805529 C9.69871765,37.9805529 8.94765882,38.7316118 8.94765882,39.6570235 C8.94765882,40.5824353 9.69871765,41.3334941 10.6241294,41.3334941 L41.1738941,41.3334941 C42.0993059,41.3334941 42.8503647,40.5824353 42.8503647,39.6570235 C42.8503647,38.7316118 42.0993059,37.9805529 41.1738941,37.9805529" id="Fill-8"></path>
            <path d="M41.1738941,47.0035412 L10.6241294,47.0035412 C9.69871765,47.0035412 8.94765882,47.7546 8.94765882,48.6800118 C8.94765882,49.6054235 9.69871765,50.3564824 10.6241294,50.3564824 L41.1738941,50.3564824 C42.0993059,50.3564824 42.8503647,49.6054235 42.8503647,48.6800118 C42.8503647,47.7546 42.0993059,47.0035412 41.1738941,47.0035412" id="Fill-10"></path>
        </g>
    </g>
</svg>