<?xml version="1.0" encoding="UTF-8"?>
<svg width="105px" height="124px" viewBox="0 0 105 124" version="1.1" xmlns="http://www.w3.org/2000/svg" xmlns:xlink="http://www.w3.org/1999/xlink">
    <!-- Generator: Sketch 47 (45396) - http://www.bohemiancoding.com/sketch -->
    <title>rBusquedaIcon</title>
    <desc>Created with Sketch.</desc>
    <defs>
        <polygon id="path-1" points="0.482929293 123.705273 76.2785522 123.705273 76.2785522 0.167608286 0.482929293 0.167608286"></polygon>
        <polygon id="path-3" points="0 123.77307 104.561616 123.77307 104.561616 0.234934087 0 0.234934087"></polygon>
    </defs>
    <g id="Symbols" stroke="none" stroke-width="1" fill="none" fill-rule="evenodd">
        <g id="rBusquedaIcon">
            <g>
                <g id="Group-3" transform="translate(28.282828, 0.067797)">
                    <mask id="mask-2" fill="white">
                        <use xlink:href="#path-1"></use>
                    </mask>
                    <g id="Clip-2"></g>
                    <path d="M56.3910101,121.728343 C46.7913468,121.728343 39.1738384,113.724576 39.1738384,103.444444 L39.1738384,74.6873823 L39.3718182,74.6873823 C39.9657576,74.6873823 40.4607071,74.5885122 41.0546465,74.4896422 L41.0546465,84.0753296 L41.0546465,87.9289077 L41.0546465,103.444444 C41.0546465,112.439266 47.9792256,119.355461 56.7869697,119.355461 L56.9849495,119.355461 C65.5923569,119.157721 72.6182828,112.043785 72.6182828,103.345574 C72.6182828,94.1553672 65.5923569,86.9402072 56.5889899,86.9402072 L43.0320875,86.9402072 L43.0320875,85.0640301 L56.49,85.0640301 C66.2852862,85.0640301 74.2021212,93.3644068 74.2021212,103.642185 C74.3011111,113.625706 66.2852862,121.728343 56.3910101,121.728343 L56.3910101,121.728343 Z M15.0297306,87.0390772 L37.1940404,87.0390772 L37.1940404,85.1629002 L15.0297306,85.1629002 L15.0297306,87.0390772 Z M13.0499327,90.5960452 L8.30077441,94.5508475 L8.30077441,83.1854991 C8.30077441,82.5922787 7.90481481,82.1967985 7.31087542,82.1967985 C6.71693603,82.1967985 6.32097643,82.5922787 6.32097643,83.1854991 L6.32097643,95.7372881 L2.46272727,95.7372881 L2.46272727,76.4623352 L6.91491582,76.4623352 L13.0499327,81.0103578 L13.0499327,90.5960452 Z M33.1378114,67.7664783 L45.7048148,67.7664783 C45.1108754,70.63371 42.537138,72.7099812 39.3718182,72.7099812 C39.0748485,72.7099812 38.8768687,72.7099812 38.579899,72.6111111 C38.4809091,72.5122411 38.2829293,72.5122411 38.0849495,72.5122411 L37.9859596,72.5122411 C35.6125589,72.0178908 33.7317508,70.1393597 33.1378114,67.7664783 L33.1378114,67.7664783 Z M15.5246801,53.0419021 L15.5246801,53.0419021 C15.4256902,52.6464218 15.3267003,52.1520716 15.2277104,51.7565913 L15.1287205,51.2622411 L17.9970707,51.2622411 L18.7889899,51.2622411 L60.3482492,51.2622411 L60.7442088,51.2622411 L63.6125589,51.2622411 L63.513569,51.6577213 C61.437138,59.8615819 54.9061616,65.6925612 47.4842761,65.6925612 L46.7913468,65.6925612 L32.3458923,65.6925612 L32.1479125,65.6925612 L31.8509428,65.6925612 L31.2570034,65.6925612 C24.3300673,65.7890772 17.4031313,60.1581921 15.5246801,53.0419021 L15.5246801,53.0419021 Z M11.9610438,6.69067797 C13.9408418,4.31779661 16.8115488,2.93361582 20.0758586,2.63700565 C19.9768687,2.93361582 19.9768687,3.23022599 19.9768687,3.52683616 C19.9768687,3.82344633 20.0758586,4.1200565 20.1748485,4.51553672 C17.4031313,4.71327684 15.1287205,5.89971751 13.4458923,7.77824859 C11.5650842,10.0522599 10.7755219,12.8182674 11.3671044,15.8808851 L16.9105387,49.287194 L14.8317508,49.287194 L9.4886532,16.4741055 C8.8947138,12.8182674 9.7856229,9.36016949 11.9610438,6.69067797 L11.9610438,6.69067797 Z M23.3425253,2.14500942 C24.1320875,2.14500942 24.7260269,2.73587571 24.7260269,3.52683616 C24.7260269,4.31779661 24.1320875,4.91101695 23.3425253,4.91101695 C22.5506061,4.91101695 21.9566667,4.31779661 21.9566667,3.52683616 C21.9566667,2.73587571 22.649596,2.14500942 23.3425253,2.14500942 L23.3425253,2.14500942 Z M67.473165,15.8808851 C67.9681145,12.8182674 67.2751852,10.1511299 65.3943771,7.87711864 C63.7115488,5.99858757 61.437138,4.81214689 58.7644108,4.51553672 C58.8634007,4.21892655 58.9623906,3.82344633 58.9623906,3.52683616 C58.9623906,3.23022599 58.8634007,2.93361582 58.8634007,2.63700565 C62.1300673,2.93361582 64.8994276,4.31779661 66.9782155,6.69067797 C69.2549832,9.36016949 70.1435354,12.8182674 69.549596,16.4741055 L64.1075084,49.386064 L61.9320875,49.386064 L67.473165,15.8808851 Z M55.500101,4.91101695 C54.7081818,4.91101695 54.1142424,4.31779661 54.1142424,3.52683616 C54.1142424,2.73587571 54.7081818,2.14500942 55.500101,2.14500942 C56.2920202,2.14500942 56.8859596,2.73587571 56.8859596,3.52683616 C56.8859596,4.31779661 56.2920202,4.91101695 55.500101,4.91101695 L55.500101,4.91101695 Z M56.5889899,89.0164783 C64.4044781,89.0164783 70.6384848,95.3418079 70.6384848,103.444444 C70.6384848,111.153955 64.3054882,117.479284 56.5889899,117.479284 L56.49,117.479284 C48.9691246,117.281544 43.1310774,111.252825 43.1310774,103.543315 L43.1310774,89.0164783 L56.5889899,89.0164783 Z M56.5889899,83.1854991 L56.5889899,83.1854991 L43.1310774,83.1854991 L43.1310774,73.8964218 C45.6058249,72.8088512 47.3852862,70.5348399 47.7812458,67.7664783 L47.8802357,67.7664783 L47.9792256,67.7664783 C56.1930303,67.5687382 63.3155892,61.2457627 65.5923569,52.2509416 L65.5923569,52.1520716 L71.430404,16.8695857 C72.1233333,12.6205273 71.0344444,8.56920904 68.463064,5.40536723 C65.6913468,2.34274953 61.9320875,0.661958569 57.576532,0.661958569 C57.4775421,0.661958569 57.3785522,0.661958569 57.2795623,0.760828625 C56.7869697,0.464218456 56.1930303,0.266478343 55.500101,0.266478343 C53.6192929,0.266478343 52.1344444,1.74952919 52.1344444,3.62570621 C52.1344444,5.50423729 53.6192929,6.98728814 55.500101,6.98728814 C56.1930303,6.98728814 56.7869697,6.78954802 57.2795623,6.49293785 C57.3785522,6.49293785 57.4775421,6.59180791 57.576532,6.59180791 C60.1502694,6.59180791 62.427037,7.58050847 63.9095286,9.36016949 C65.3943771,11.1374765 65.9883165,13.2113936 65.5923569,15.7820151 L59.9522896,49.386064 L18.8879798,49.386064 L13.2479125,15.584275 C12.8519529,13.1125235 13.4458923,10.8432203 14.9307407,9.06355932 C16.4155892,7.38276836 18.5910101,6.3940678 21.2637374,6.3940678 L21.4617172,6.3940678 C21.9566667,6.78954802 22.649596,6.98728814 23.3425253,6.98728814 C25.2209764,6.98728814 26.7058249,5.50423729 26.7058249,3.62570621 C26.7058249,1.74952919 25.2209764,0.167608286 23.3425253,0.167608286 C22.649596,0.167608286 22.0556566,0.365348399 21.5607071,0.661958569 L21.2637374,0.661958569 C16.9105387,0.661958569 13.1489226,2.34274953 10.4785522,5.40536723 C7.80582492,8.47033898 6.81592593,12.5216573 7.50885522,16.8695857 L13.3469024,52.1520716 L13.6438721,53.6351224 C15.7226599,61.5423729 23.3425253,67.6676083 31.1580135,67.7664783 C31.652963,71.0291902 34.1277104,73.5998117 37.1940404,74.3907721 L37.1940404,83.1854991 L15.0297306,83.1854991 L15.0297306,80.5160075 C15.0297306,80.2193974 14.9307407,79.9227872 14.633771,79.7250471 L7.90481481,74.6873823 C7.70683502,74.5885122 7.50885522,74.4896422 7.31087542,74.4896422 L1.47282828,74.4896422 C0.878888889,74.4896422 0.482929293,74.8851224 0.482929293,75.4783427 L0.482929293,96.7259887 C0.482929293,97.319209 0.878888889,97.7123352 1.47282828,97.7123352 L7.31087542,97.7123352 C7.40986532,97.7123352 7.50885522,97.7123352 7.70683502,97.6134652 C7.70683502,97.6134652 7.80582492,97.6134652 7.80582492,97.5145951 C7.90481481,97.5145951 7.90481481,97.415725 8.00380471,97.415725 L14.7327609,91.7824859 C14.9307407,91.5847458 15.1287205,91.2881356 15.1287205,90.9915254 L15.1287205,88.9176083 L37.1940404,88.9176083 L37.1940404,103.444444 C37.1940404,114.812147 45.6058249,123.705744 56.3910101,123.705744 C67.3741751,123.705744 76.2785522,114.713277 76.2785522,103.642185 C76.2785522,92.3757062 67.3741751,83.1854991 56.5889899,83.1854991 L56.5889899,83.1854991 Z" id="Fill-1" fill="#0F50A4" mask="url(#mask-2)"></path>
                </g>
                <path d="M40.2448148,6.75800377 C42.2246128,4.38512241 45.092963,3.00094162 48.3596296,2.70433145 C48.2606397,3.00094162 48.2606397,3.29755179 48.2606397,3.59416196 C48.2606397,3.89077213 48.3596296,4.1873823 48.4586195,4.58286252 C45.6869024,4.78060264 43.4101347,5.96704331 41.7296633,7.84557439 C39.8488552,10.1195857 39.056936,12.8879473 39.6508754,15.9482109 L45.1919529,49.3545198 L43.1155219,49.3545198 L37.7724242,16.5414313 C37.1784848,12.8879473 38.067037,9.42749529 40.2448148,6.75800377" id="Fill-4" fill="#FFFFFF"></path>
                <path d="M89.0275084,51.3309793 L88.6315488,51.3309793 L88.1271717,51.3309793 C85.3648822,57.8870056 79.5834007,62.3079096 73.1231313,62.3079096 L72.430202,62.3079096 L57.9847475,62.3079096 L57.7867677,62.3079096 L57.489798,62.3079096 L56.8958586,62.3079096 C52.7477104,62.3667608 48.6113468,60.3634652 45.5450168,57.2255179 C48.5123569,62.2725989 54.0204377,65.8389831 59.540303,65.7589454 L60.1342424,65.7589454 L60.4312121,65.7589454 L60.6291919,65.7589454 L75.0770034,65.7589454 L75.7675758,65.7589454 C83.1894613,65.7589454 89.7204377,59.9279661 91.7968687,51.7264595 L91.8958586,51.3309793 L89.0275084,51.3309793 Z" id="Fill-6" fill="#FFFFF6"></path>
                <path d="M56.8951515,62.3079096 L57.4890909,62.3079096 L57.7860606,62.3079096 L57.9840404,62.3079096 L72.4294949,62.3079096 L73.1224242,62.3079096 C79.5826936,62.3079096 85.366532,57.8870056 88.1264646,51.3309793 L47.0739394,51.3309793 L46.2820202,51.3309793 L43.4113131,51.3309793 L43.510303,51.8253296 C43.6092929,52.2208098 43.7082828,52.7151601 43.8072727,53.1106403 C44.1890909,54.5560264 44.7877441,55.9354991 45.5466667,57.2255179 C48.6106397,60.3634652 52.7470034,62.3667608 56.8951515,62.3079096" id="Fill-8" fill="#B0E2F6"></path>
                <path d="M51.6241751,2.21304143 C52.4160943,2.21304143 53.0100337,2.80390772 53.0100337,3.59486817 C53.0100337,4.38582863 52.4160943,4.97904896 51.6241751,4.97904896 C50.8322559,4.97904896 50.2383165,4.38582863 50.2383165,3.59486817 C50.2383165,2.80390772 50.9312458,2.21304143 51.6241751,2.21304143" id="Fill-10" fill="#53BBEC"></path>
                <path d="M95.756229,15.9489171 C96.2488215,12.8862994 95.5582492,10.2168079 93.6774411,7.94515066 C91.9946128,6.06661959 89.720202,4.88017891 87.0474747,4.58356874 C87.1464646,4.28695857 87.2454545,3.89147834 87.2454545,3.59486817 C87.2454545,3.298258 87.1464646,3.00164783 87.1464646,2.70503766 C90.4131313,3.00164783 93.1824916,4.38582863 95.2612795,6.75870998 C97.5356902,9.42584746 98.4265993,12.8862994 97.8326599,16.5421375 L92.3905724,49.451742 L90.2151515,49.451742 L95.756229,15.9489171 Z" id="Fill-12" fill="#FFFFFF"></path>
                <path d="M83.783165,4.97857815 C82.9912458,4.97857815 82.3973064,4.38535782 82.3973064,3.59439736 C82.3973064,2.80343691 82.9912458,2.21257062 83.783165,2.21257062 C84.5750842,2.21257062 85.1690236,2.80343691 85.1690236,3.59439736 C85.1690236,4.38535782 84.5750842,4.97857815 83.783165,4.97857815" id="Fill-14" fill="#53BBEC"></path>
                <path d="M61.4201684,67.8345104 L73.9871717,67.8345104 C73.3932323,70.701742 70.8194949,72.7780132 67.6541751,72.7780132 C67.3572054,72.7780132 67.1592256,72.7780132 66.8622559,72.6791431 C66.763266,72.5802731 66.5652862,72.5802731 66.3673064,72.5802731 L66.2683165,72.5802731 C63.8949158,72.0859228 62.0141077,70.2073917 61.4201684,67.8345104" id="Fill-16" fill="#269BD7"></path>
                <path d="M84.6738384,121.796139 C75.0741751,121.796139 67.4566667,113.792373 67.4566667,103.512241 L67.4566667,74.7551789 L67.6546465,74.7551789 C68.2485859,74.7551789 68.7435354,74.6563089 69.3374747,74.5574388 L69.3374747,84.1431262 L69.3374747,87.9967043 L69.3374747,103.512241 C69.3374747,112.507062 76.2620539,119.423258 85.069798,119.423258 L85.2677778,119.423258 C93.8751852,119.225518 100.901111,112.111582 100.901111,103.413371 C100.901111,94.2231638 93.8751852,87.0080038 84.8718182,87.0080038 L71.3149158,87.0080038 L71.3149158,85.1318267 L84.7728283,85.1318267 C94.5681145,85.1318267 102.484949,93.4322034 102.484949,103.709981 C102.583939,113.693503 94.5681145,121.796139 84.6738384,121.796139" id="Fill-18" fill="#B0E2F6"></path>
                <mask id="mask-4" fill="white">
                    <use xlink:href="#path-3"></use>
                </mask>
                <g id="Clip-21"></g>
                <polygon id="Fill-20" fill="#B0E2F6" mask="url(#mask-4)" points="43.3127946 87.106403 65.4771044 87.106403 65.4771044 85.230226 43.3127946 85.230226"></polygon>
                <path d="M35.1984512,76.5310734 L30.7462626,76.5310734 L30.7462626,95.8060264 L34.6045118,95.8060264 L34.6045118,83.2518832 C34.6045118,82.6610169 35.0004714,82.2655367 35.5944108,82.2655367 L35.5944108,76.8253296 L35.1984512,76.5310734 Z" id="Fill-22" fill="#B0E2F6" mask="url(#mask-4)"></path>
                <path d="M35.5944108,76.8253296 L35.5944108,82.2655367 C36.1883502,82.2655367 36.5843098,82.6610169 36.5843098,83.2518832 L36.5843098,94.6195857 L41.333468,90.6647834 L41.333468,81.079096 L35.5944108,76.8253296 Z" id="Fill-23" fill="#53BBEC" mask="url(#mask-4)"></path>
                <path d="M20.7452189,41.7330508 L14.8741751,37.8841808 L1.96777778,57.5193032 C1.49875421,58.2561205 1.32670034,59.1812618 1.51760943,60.106403 C1.90885522,61.9849341 3.75195286,63.1925612 5.63040404,62.8017891 C6.55430976,62.6111111 7.34858586,62.0908663 7.83882155,61.3681733 L20.7452189,41.7330508 Z" id="Fill-24" fill="#B0E2F6" mask="url(#mask-4)"></path>
                <path d="M20.9924579,42.9260829 L17.5254545,39.6233522 L4.61905724,59.2584746 C4.15003367,59.9952919 3.9779798,60.9227872 4.16888889,61.8432203 C4.56013468,63.7241055 4.74632997,63.2415254 6.63185185,62.8531073 C7.55340067,62.6624294 8.01771044,62.6671375 8.01771044,62.6671375 L20.9924579,42.9260829 Z" id="Fill-25" fill="#FFFFFF" mask="url(#mask-4)"></path>
                <path d="M12.2589562,13.751177 C6.51754209,22.4870527 8.95222222,34.2149247 17.69633,39.9493879 C26.4404377,45.6814972 38.1848822,43.2521186 43.9262963,34.518597 C49.6700673,25.7827213 47.2330303,14.0548493 38.4865657,8.32038606 C29.7424579,2.58592279 18.0003704,5.01765537 12.2589562,13.751177" id="Fill-26" fill="#FFFFF6" mask="url(#mask-4)"></path>
                <path d="M42.5130976,21.1028719 C41.7353199,17.4164313 39.5504714,14.0266008 36.1423906,11.8067326 C29.3238721,7.36464218 20.1932323,9.28319209 15.7457576,16.0911017 C13.5231987,19.4974105 12.8915488,23.4804614 13.6693266,27.1669021 L42.5130976,21.1028719 Z" id="Fill-27" fill="#B0E2F6" mask="url(#mask-4)"></path>
                <path d="M40.1722222,30.9284369 C44.9143098,25.5306026 43.4742424,18.6991525 36.9574074,15.6694915 C30.4358586,12.6374765 21.302862,14.5583804 16.5607744,19.9562147 C11.81633,25.354049 13.2563973,32.183145 19.7755892,35.2151601 C26.2947811,38.242467 35.4254209,36.3239171 40.1722222,30.9284369" id="Fill-28" fill="#FFFFF6" mask="url(#mask-4)"></path>
                <path d="M18.1189226,17.5925141 C14.5034343,23.0962806 16.0354209,30.4856403 21.5458586,34.0967514 C27.0539394,37.7078625 34.449899,36.1777307 38.0677441,30.6763183 C41.6832323,25.1749058 40.1512458,17.7855461 34.6408081,14.172081 C29.1327273,10.5609699 21.7367677,12.0934557 18.1189226,17.5925141" id="Fill-29" fill="#269BD7" mask="url(#mask-4)"></path>
                <path d="M2.9279798,59.8114407 C2.81720539,59.2747175 2.90912458,58.719162 3.17074074,58.3072034 L15.2451515,39.9409134 C15.7754545,40.3669962 16.3293266,40.7718927 16.9067677,41.1508945 C17.4936364,41.5346045 18.0970034,41.8877119 18.7121549,42.2055085 L6.64717172,60.5623823 C6.36670034,60.979049 5.88824916,61.2803672 5.33909091,61.3957156 C4.23841751,61.6240584 3.15659933,60.9131356 2.9279798,59.8114407 M13.4609764,14.540725 C18.7592929,6.48281544 29.6316835,4.23234463 37.6993603,9.52189266 C41.6071044,12.085452 44.2798316,16.0143597 45.2296633,20.5859228 C46.1794949,25.1574859 45.2909428,29.825565 42.7242761,33.7285782 C40.1576094,37.6315913 36.2239394,40.3034369 31.646835,41.2497646 C27.0673737,42.2008004 22.3936364,41.3109699 18.4858923,38.7497646 C14.5781481,36.1862053 11.9054209,32.2549435 10.9555892,27.6857345 C10.0057576,23.1118173 10.8966667,18.4437382 13.4609764,14.540725 M9.04178451,62.1584275 L21.3919529,43.3684087 C24.840101,44.5713277 28.5616498,44.827919 32.2313468,44.0675612 C37.560303,42.9635122 42.1444781,39.8514595 45.1306734,35.308145 C48.1168687,30.7624765 49.1562626,25.3269774 48.0508754,20.0021186 C46.9454882,14.6772599 43.8296633,10.1033427 39.2784848,7.11605461 C29.886229,0.957862524 17.2225926,3.58027307 11.0545791,12.9635122 C8.06602694,17.5068267 7.0313468,22.9446798 8.1343771,28.2695386 C8.89801347,31.944209 10.6209091,35.261064 13.1121549,37.9470339 L0.754915825,56.7464689 C0.0714141414,57.8175612 -0.15956229,59.1122881 0.109124579,60.3975989 C0.658282828,63.0506121 3.26737374,64.7620056 5.92360269,64.2111582 C7.20104377,63.9451507 8.3347138,63.2036252 9.04178451,62.1584275" id="Fill-30" fill="#0F50A4" mask="url(#mask-4)"></path>
                <path d="M20.4770034,35.719162 C17.3800337,33.6876177 15.2611785,30.5708569 14.5069697,26.9479755 C13.7551178,23.3227401 14.4598316,19.6221751 16.4938384,16.5289548 C20.6938384,10.14242 29.3130303,8.35805085 35.7073064,12.548258 C38.806633,14.5821563 40.9254882,17.6965631 41.679697,21.3217985 C42.4291919,24.9470339 41.7244781,28.6452448 39.6904714,31.7408192 C35.4928283,38.127354 26.8712795,39.9117232 20.4770034,35.719162 M41.1352525,32.6871469 C43.4214478,29.2078625 44.2157239,25.048258 43.369596,20.9710452 C42.523468,16.8961864 40.1382828,13.3933616 36.6547811,11.1099341 C29.4638721,6.39477401 19.7722896,8.40277778 15.0514141,15.5826271 C12.762862,19.0619115 11.9709428,23.221516 12.8170707,27.2987288 C13.6631987,31.3735876 16.0460269,34.8787665 19.5295286,37.1598399 C26.7204377,41.875 36.4143771,39.8693503 41.1352525,32.6871469" id="Fill-31" fill="#0F50A4" mask="url(#mask-4)"></path>
                <path d="M37.0443771,27.8524011 L26.9309091,21.2186911 C26.5325926,20.9573917 25.9975758,21.068032 25.7359596,21.4658663 C25.6039731,21.6659605 25.5662626,21.8990113 25.6110438,22.1132298 C25.6558249,22.3321563 25.7854545,22.5298964 25.9834343,22.6617232 L36.0969024,29.2930791 C36.4952189,29.5567326 37.0302357,29.4437382 37.2918519,29.045904 C37.5558249,28.6480697 37.4426936,28.1113465 37.0443771,27.8524011" id="Fill-32" fill="#0F50A4" mask="url(#mask-4)"></path>
                <path d="M28.9114141,27.1167608 L21.6026599,22.3215631 C21.2019865,22.0626177 20.6669697,22.170904 20.4053535,22.5687382 C20.273367,22.7688324 20.2380135,23.0018832 20.2827946,23.2208098 C20.3275758,23.4373823 20.4548485,23.6351224 20.6528283,23.7645951 L27.9639394,28.5574388 C28.3622559,28.8210923 28.8972727,28.710452 29.1588889,28.3102637 C29.4205051,27.9124294 29.3097306,27.3757062 28.9114141,27.1167608" id="Fill-33" fill="#0F50A4" mask="url(#mask-4)"></path>
                <path d="M23.7707744,19.1466573 L21.6589899,17.7624765 C21.2606734,17.501177 20.7256566,17.6118173 20.4640404,18.0120056 C20.3344108,18.2097458 20.2943434,18.4427966 20.3391246,18.6593691 C20.3839057,18.8759416 20.5135354,19.0760358 20.7138721,19.2031544 L22.8232997,20.5873352 C23.2216162,20.8509887 23.756633,20.7379944 24.0182492,20.3401601 C24.2822222,19.9423258 24.1690909,19.4056026 23.7707744,19.1466573" id="Fill-34" fill="#0F50A4" mask="url(#mask-4)"></path>
            </g>
        </g>
    </g>
</svg>