<?xml version="1.0" encoding="UTF-8"?>
<svg width="124px" height="125px" viewBox="0 0 124 125" version="1.1" xmlns="http://www.w3.org/2000/svg" xmlns:xlink="http://www.w3.org/1999/xlink">
    <!-- Generator: Sketch 47 (45396) - http://www.bohemiancoding.com/sketch -->
    <title>Group 12</title>
    <desc>Created with Sketch.</desc>
    <defs>
        <filter x="-2.1%" y="-2.1%" width="108.3%" height="108.3%" filterUnits="objectBoundingBox" id="filter-1">
            <feOffset dx="5" dy="5" in="SourceAlpha" result="shadowOffsetOuter1"></feOffset>
            <feColorMatrix values="0 0 0 0 0   0 0 0 0 0   0 0 0 0 0  0 0 0 0.3 0" type="matrix" in="shadowOffsetOuter1" result="shadowMatrixOuter1"></feColorMatrix>
            <feMerge>
                <feMergeNode in="shadowMatrixOuter1"></feMergeNode>
                <feMergeNode in="SourceGraphic"></feMergeNode>
            </feMerge>
        </filter>
    </defs>
    <g id="ADMIN-DR." stroke="none" stroke-width="1" fill="none" fill-rule="evenodd">
        <g id="1.-DASHBOARD" transform="translate(-305.000000, -240.000000)">
            <g id="Group-12" transform="translate(304.000000, 240.000000)">
                <g id="Page-1" filter="url(#filter-1)">
                    <path d="M93.2244331,10.2183365 C93.2244331,9.17543425 94.0736935,8.32870493 95.1197133,8.32870493 C96.165733,8.32870493 97.0149935,9.17543425 97.0149935,10.2183365 L100.805554,10.2183365 C100.805554,9.17543425 101.654814,8.32870493 102.700834,8.32870493 C103.746854,8.32870493 104.596114,9.17543425 104.596114,10.2183365 L104.596114,34.783547 L108.386675,34.783547 L108.386675,4.54944177 L95.1197133,4.54944177 C94.0736935,4.54944177 93.2244331,3.70271245 93.2244331,2.65981019 L89.4338727,2.65981019 L89.4338727,10.2183365 L93.2244331,10.2183365 Z" id="Fill-10" fill="#1988BF"></path>
                    <path d="M89.4340408,115.409449 L108.386843,115.409449 L108.386843,99.6569297 C107.283645,100.485215 105.99546,101.077088 104.596282,101.362125 L104.596282,109.740554 C104.596282,110.783456 103.747022,111.630185 102.701002,111.630185 C101.654982,111.630185 100.805722,110.783456 100.805722,109.740554 L97.0151616,109.740554 C97.0151616,110.783456 96.1659012,111.630185 95.1198814,111.630185 C94.0738617,111.630185 93.2246012,110.783456 93.2246012,109.740554 L89.4340408,109.740554 L89.4340408,115.409449 Z" id="Fill-12" fill="#1988BF"></path>
                    <path d="M104.59561,70.2485952 C105.994787,70.5336327 107.284654,71.1255049 108.38617,71.9537906 L108.38617,66.2781891 L104.59561,66.2781891 L104.59561,70.2485952 Z" id="Fill-14" fill="#1988BF"></path>
                    <polygon id="Fill-16" fill="#B0E2F6" points="97.0151616 109.741057 100.805722 109.741057 100.805722 101.552094 97.0151616 101.552094"></polygon>
                    <path d="M97.0148253,70.058626 L100.805386,70.058626 L100.805386,64.3880546 C100.805386,63.3451523 101.654646,62.498423 102.700666,62.498423 L110.281787,62.498423 C113.418164,62.498423 115.969309,59.9565583 115.969309,56.8295282 L115.969309,44.2325433 C115.969309,41.1055132 113.418164,38.5636485 110.281787,38.5636485 L102.700666,38.5636485 C101.654646,38.5636485 100.805386,37.7169192 100.805386,36.674017 L100.805386,10.2191749 L97.0148253,10.2191749 L97.0148253,70.058626 Z" id="Fill-18" fill="#96E8FF"></path>
                    <path d="M4.7757252,14.6278681 C4.7757252,13.5849658 5.62666734,12.7382365 6.67100541,12.7382365 L19.3073279,12.7382365 C20.351666,12.7382365 21.2026081,13.5849658 21.2026081,14.6278681 C21.2026081,15.6690937 20.351666,16.5174997 19.3073279,16.5174997 L6.67100541,16.5174997 C5.62666734,16.5174997 4.7757252,15.6690937 4.7757252,14.6278681 L4.7757252,14.6278681 Z M4.7757252,44.8619734 C4.7757252,43.8190711 5.62666734,42.9723418 6.67100541,42.9723418 L19.3073279,42.9723418 C20.351666,42.9723418 21.2026081,43.8190711 21.2026081,44.8619734 C21.2026081,45.9031989 20.351666,46.7516049 19.3073279,46.7516049 L6.67100541,46.7516049 C5.62666734,46.7516049 4.7757252,45.9031989 4.7757252,44.8619734 L4.7757252,44.8619734 Z M4.7757252,75.0960786 C4.7757252,74.054853 5.62666734,73.2081237 6.67100541,73.2081237 L19.3073279,73.2081237 C20.351666,73.2081237 21.2026081,74.054853 21.2026081,75.0960786 C21.2026081,76.1406576 20.351666,76.9857102 19.3073279,76.9857102 L6.67100541,76.9857102 C5.62666734,76.9857102 4.7757252,76.1406576 4.7757252,75.0960786 L4.7757252,75.0960786 Z M14.8844469,111.000755 L19.3073279,111.000755 C22.4420238,111.000755 24.9914868,108.457214 24.9914868,105.331861 C24.9914868,102.20483 22.4420238,99.6629658 19.3073279,99.6629658 L14.8844469,99.6629658 L14.8844469,80.7649734 L19.3073279,80.7649734 C22.4420238,80.7649734 24.9914868,78.2231087 24.9914868,75.0960786 C24.9914868,71.9707252 22.4420238,69.4288606 19.3073279,69.4288606 L14.8844469,69.4288606 L14.8844469,50.5308681 L19.3073279,50.5308681 C22.4420238,50.5308681 24.9914868,47.9873267 24.9914868,44.8619734 C24.9914868,41.73662 22.4420238,39.1930786 19.3073279,39.1930786 L14.8844469,39.1930786 L14.8844469,20.2967628 L19.3073279,20.2967628 C22.4420238,20.2967628 24.9914868,17.7532215 24.9914868,14.6278681 C24.9914868,11.5025147 22.4420238,8.95897335 19.3073279,8.95897335 L14.8844469,8.95897335 L14.8844469,4.5492741 L85.6438168,4.5492741 L85.6438168,115.408778 L14.8844469,115.408778 L14.8844469,111.000755 Z M4.7757252,105.331861 C4.7757252,104.290635 5.62666734,103.442229 6.67100541,103.442229 L19.3073279,103.442229 C20.351666,103.442229 21.2026081,104.290635 21.2026081,105.331861 C21.2026081,106.374763 20.351666,107.221492 19.3073279,107.221492 L6.67100541,107.221492 C5.62666734,107.221492 4.7757252,106.374763 4.7757252,105.331861 L4.7757252,105.331861 Z M108.385497,71.9522816 C107.283981,71.1256726 105.994115,70.5338004 104.594937,70.2487628 L104.594937,66.2783568 L108.385497,66.2783568 L108.385497,71.9522816 Z M112.17774,34.9745222 L112.17774,2.65964252 C112.17774,1.61674027 111.328479,0.770010944 110.280778,0.770010944 L95.1202178,0.770010944 C94.074198,0.770010944 93.2249376,1.61674027 93.2249376,2.65964252 C93.2249376,3.70254478 94.074198,4.5492741 95.1202178,4.5492741 L108.385497,4.5492741 L108.385497,34.7833794 L104.594937,34.7833794 L104.594937,10.2181688 C104.594937,9.17526658 103.747358,8.32853726 102.699657,8.32853726 C101.653637,8.32853726 100.806058,9.17526658 100.806058,10.2181688 L100.806058,36.6730109 C100.806058,37.7175899 101.653637,38.5626425 102.699657,38.5626425 L110.280778,38.5626425 C113.418837,38.5626425 115.9683,41.1061839 115.9683,44.2315373 L115.9683,56.8301989 C115.9683,59.9555523 113.418837,62.4990937 110.280778,62.4990937 L102.699657,62.4990937 C101.653637,62.4990937 100.806058,63.345823 100.806058,64.3887252 L100.806058,70.0592967 L97.015498,70.0592967 L97.015498,10.2181688 C97.015498,9.17526658 96.1662375,8.32853726 95.1202178,8.32853726 C94.074198,8.32853726 93.2249376,9.17526658 93.2249376,10.2181688 L93.2249376,71.9489282 C93.2249376,72.9918305 94.074198,73.8368831 95.1202178,73.8368831 L102.699657,73.8368831 C105.836035,73.8368831 108.385497,76.3804245 108.385497,79.5057779 L108.385497,92.1044395 C108.385497,95.2297929 105.836035,97.7733343 102.699657,97.7733343 L95.1202178,97.7733343 C94.074198,97.7733343 93.2249376,98.6200636 93.2249376,99.6629658 L93.2249376,109.74156 C93.2249376,110.784462 94.074198,111.631191 95.1202178,111.631191 C96.1662375,111.631191 97.015498,110.784462 97.015498,109.74156 L97.015498,101.552597 L100.806058,101.552597 L100.806058,109.74156 C100.806058,110.784462 101.653637,111.631191 102.699657,111.631191 C103.747358,111.631191 104.594937,110.784462 104.594937,109.74156 L104.594937,101.361455 C105.994115,101.078094 107.283981,100.484545 108.385497,99.6579358 L108.385497,115.408778 L89.4343772,115.408778 L89.4343772,2.65964252 C89.4343772,1.61674027 88.5851167,0.770010944 87.539097,0.770010944 L12.9891667,0.770010944 C11.9431469,0.770010944 11.0938865,1.61674027 11.0938865,2.65964252 L11.0938865,8.95897335 L6.67100541,8.95897335 C3.53630949,8.95897335 0.985164797,11.5025147 0.985164797,14.6278681 C0.985164797,17.7532215 3.53630949,20.2967628 6.67100541,20.2967628 L11.0938865,20.2967628 L11.0938865,39.1930786 L6.67100541,39.1930786 C3.53630949,39.1930786 0.985164797,41.73662 0.985164797,44.8619734 C0.985164797,47.9873267 3.53630949,50.5308681 6.67100541,50.5308681 L11.0938865,50.5308681 L11.0938865,69.4288606 L6.67100541,69.4288606 C3.53630949,69.4288606 0.985164797,71.9707252 0.985164797,75.0960786 C0.985164797,78.2231087 3.53630949,80.7649734 6.67100541,80.7649734 L11.0938865,80.7649734 L11.0938865,99.6629658 L6.67100541,99.6629658 C3.53630949,99.6629658 0.985164797,102.20483 0.985164797,105.331861 C0.985164797,108.457214 3.53630949,111.000755 6.67100541,111.000755 L11.0938865,111.000755 L11.0938865,117.298409 C11.0938865,118.341312 11.9431469,119.188041 12.9891667,119.188041 L110.280778,119.188041 C111.328479,119.188041 112.17774,118.341312 112.17774,117.298409 L112.17774,66.087214 C116.498037,65.2103042 119.75886,61.3941538 119.75886,56.8301989 L119.75886,44.2315373 C119.75886,39.6709358 116.498037,35.851432 112.17774,34.9745222 L112.17774,34.9745222 Z" id="Fill-19" fill="#0F50A4"></path>
                    <path d="M89.4340408,109.740889 L93.2246012,109.740889 L93.2246012,99.6622952 C93.2246012,98.6193929 94.0738617,97.7726636 95.1198814,97.7726636 L102.701002,97.7726636 C105.835698,97.7726636 108.386843,95.2307989 108.386843,92.1037688 L108.386843,79.5067839 C108.386843,76.3814305 105.835698,73.8378891 102.701002,73.8378891 L95.1198814,73.8378891 C94.0738617,73.8378891 93.2246012,72.9911598 93.2246012,71.9482576 L93.2246012,10.2191749 L89.4340408,10.2191749 L89.4340408,109.740889 Z" id="Fill-20" fill="#FFFFFF"></path>
                    <path d="M85.6436486,4.54977711 L14.8842787,4.54977711 L14.8842787,8.95947636 L19.3071597,8.95947636 C22.4418557,8.95947636 24.9930003,11.501341 24.9930003,14.6283711 C24.9930003,17.7537245 22.4418557,20.2972658 19.3071597,20.2972658 L14.8842787,20.2972658 L14.8842787,39.1935816 L19.3071597,39.1935816 C22.4418557,39.1935816 24.9930003,41.737123 24.9930003,44.8624764 C24.9930003,47.9878297 22.4418557,50.5313711 19.3071597,50.5313711 L14.8842787,50.5313711 L14.8842787,69.4276869 L19.3071597,69.4276869 C22.4418557,69.4276869 24.9930003,71.9712282 24.9930003,75.0965816 C24.9930003,78.221935 22.4418557,80.7654764 19.3071597,80.7654764 L14.8842787,80.7654764 L14.8842787,99.6634688 L19.3071597,99.6634688 C22.4418557,99.6634688 24.9930003,102.205334 24.9930003,105.330687 C24.9930003,108.457717 22.4418557,110.999582 19.3071597,110.999582 L14.8842787,110.999582 L14.8842787,115.409281 L85.6436486,115.409281 L85.6436486,4.54977711 Z" id="Fill-21" fill="#D8F3FF"></path>
                    <path d="M19.3066552,107.220821 C20.3509933,107.220821 21.2019354,106.374092 21.2019354,105.33119 C21.2019354,104.289964 20.3509933,103.441558 19.3066552,103.441558 L6.67033273,103.441558 C5.62599466,103.441558 4.77505252,104.289964 4.77505252,105.33119 C4.77505252,106.374092 5.62599466,107.220821 6.67033273,107.220821 L19.3066552,107.220821 Z" id="Fill-22" fill="#FFFFFF"></path>
                    <path d="M19.3066552,76.9863809 C20.3509933,76.9863809 21.2019354,76.1396515 21.2019354,75.0967493 C21.2019354,74.0555237 20.3509933,73.2071177 19.3066552,73.2071177 L6.67033273,73.2071177 C5.62599466,73.2071177 4.77505252,74.0555237 4.77505252,75.0967493 C4.77505252,76.1396515 5.62599466,76.9863809 6.67033273,76.9863809 L19.3066552,76.9863809 Z" id="Fill-23" fill="#FFFFFF"></path>
                    <path d="M19.3066552,46.7519403 C20.3509933,46.7519403 21.2019354,45.9035343 21.2019354,44.8623087 C21.2019354,43.8194064 20.3509933,42.9726771 19.3066552,42.9726771 L6.67033273,42.9726771 C5.62599466,42.9726771 4.77505252,43.8194064 4.77505252,44.8623087 C4.77505252,45.9035343 5.62599466,46.7519403 6.67033273,46.7519403 L19.3066552,46.7519403 Z" id="Fill-24" fill="#FFFFFF"></path>
                    <path d="M19.3066552,16.5174997 C20.3509933,16.5174997 21.2019354,15.6690937 21.2019354,14.6278681 C21.2019354,13.5849658 20.3509933,12.7382365 19.3066552,12.7382365 L6.67033273,12.7382365 C5.62599466,12.7382365 4.77505252,13.5849658 4.77505252,14.6278681 C4.77505252,15.6690937 5.62599466,16.5174997 6.67033273,16.5174997 L19.3066552,16.5174997 Z" id="Fill-25" fill="#FFFFFF"></path>
                    <path d="M80.5854198,4.54977711 L14.884615,4.54977711 L14.884615,8.95947636 L19.3074961,8.95947636 C22.442192,8.95947636 24.991655,11.501341 24.991655,14.6283711 C24.991655,17.7537245 22.442192,20.2972658 19.3074961,20.2972658 L14.884615,20.2972658 L14.884615,39.1935816 L19.3074961,39.1935816 C22.442192,39.1935816 24.991655,41.737123 24.991655,44.8624764 C24.991655,47.9878297 22.442192,50.5313711 19.3074961,50.5313711 L14.884615,50.5313711 L14.884615,69.4276869 L19.3074961,69.4276869 C22.442192,69.4276869 24.991655,71.9712282 24.991655,75.0965816 C24.991655,78.221935 22.442192,80.7654764 19.3074961,80.7654764 L14.884615,80.7654764 L14.884615,99.6634688 L19.3074961,99.6634688 C22.442192,99.6634688 24.991655,102.205334 24.991655,105.330687 C24.991655,108.457717 22.442192,110.999582 19.3074961,110.999582 L14.884615,110.999582 L14.884615,112.887537 L80.5854198,112.887537 L80.5854198,4.54977711 Z" id="Fill-26" fill="#A0DEF9"></path>
                    <path d="M69.6213836,43.1562749 C69.6213836,51.8398613 62.561591,58.8786132 53.8520469,58.8786132 C45.1408211,58.8786132 38.0810285,51.8398613 38.0810285,43.1562749 C38.0810285,34.4726884 45.1408211,27.4322598 53.8520469,27.4322598 C62.561591,27.4322598 69.6213836,34.4726884 69.6213836,43.1562749" id="Fill-27" fill="#FFFFFF"></path>
                    <path d="M67.2663256,42.0035493 C67.2663256,49.8236395 60.9078034,56.1632109 53.0643368,56.1632109 C45.2208702,56.1632109 38.8606664,49.8236395 38.8606664,42.0035493 C38.8606664,34.1834591 45.2208702,27.8438876 53.0643368,27.8438876 C60.9078034,27.8438876 67.2663256,34.1834591 67.2663256,42.0035493" id="Fill-28" fill="#FFFFF6"></path>
                    <path d="M53.0638323,27.0655673 C44.7898495,27.0655673 38.081533,33.7538906 38.081533,42.003214 C38.081533,50.254214 44.7898495,56.9408606 53.0638323,56.9408606 L53.0638323,27.0655673 Z" id="Fill-29" fill="#8FD3F7"></path>
                    <path d="M65.0641344,42.0035493 C65.0641344,50.2545493 59.882805,56.9411959 53.4940122,56.9411959 C47.1035377,56.9411959 41.9238899,50.2545493 41.9238899,42.0035493 C41.9238899,33.754226 47.1035377,27.0659027 53.4940122,27.0659027 C59.882805,27.0659027 65.0641344,33.754226 65.0641344,42.0035493" id="Fill-30" fill="#53BBEC"></path>
                    <path d="M50.6563051,49.5992982 C50.3990045,49.5992982 50.1887915,49.3897117 50.1887915,49.1331779 L50.1887915,44.8710275 L45.9139004,44.8710275 C45.654918,44.8710275 45.444705,44.661441 45.444705,44.4032305 L45.444705,39.6028621 C45.444705,39.3463282 45.654918,39.1367418 45.9139004,39.1367418 L50.1887915,39.1367418 L50.1887915,34.8745914 C50.1887915,34.6163809 50.3990045,34.4067944 50.6563051,34.4067944 L55.4727049,34.4067944 C55.7316873,34.4067944 55.9419002,34.6163809 55.9419002,34.8745914 L55.9419002,39.1367418 L60.2151096,39.1367418 C60.474092,39.1367418 60.6826233,39.3463282 60.6826233,39.6028621 L60.6826233,44.4032305 C60.6826233,44.661441 60.474092,44.8710275 60.2151096,44.8710275 L55.9419002,44.8710275 L55.9419002,49.1331779 C55.9419002,49.3897117 55.7316873,49.5992982 55.4727049,49.5992982 L50.6563051,49.5992982 Z" id="Fill-31" fill="#B0E2F6"></path>
                    <path d="M53.0638323,55.3858967 C45.6643355,55.3858967 39.6421541,49.3833403 39.6421541,42.00422 C39.6421541,34.6250997 45.6643355,28.6225433 53.0638323,28.6225433 C60.4650108,28.6225433 66.4855105,34.6250997 66.4855105,42.00422 C66.4855105,49.3833403 60.4650108,55.3858967 53.0638323,55.3858967 M53.0638323,27.0648967 C44.7898495,27.0648967 38.081533,33.7548967 38.081533,42.00422 C38.081533,50.2535433 44.7898495,56.9418666 53.0638323,56.9418666 C61.3394968,56.9418666 68.0461317,50.2535433 68.0461317,42.00422 C68.0461317,33.7548967 61.3394968,27.0648967 53.0638323,27.0648967" id="Fill-32" fill="#0F50A4"></path>
                    <path d="M60.214437,44.4039012 L55.4737139,44.4039012 L55.4737139,49.1321718 L50.6556325,49.1321718 L50.6556325,44.4039012 L45.9132277,44.4039012 L45.9132277,39.6035327 L50.6556325,39.6035327 L50.6556325,34.8735854 L55.4737139,34.8735854 L55.4737139,39.6035327 L60.214437,39.6035327 L60.214437,44.4039012 Z M60.214437,38.6696155 L56.4087412,38.6696155 L56.4087412,34.8735854 C56.4087412,34.358841 55.9883153,33.9413448 55.4737139,33.9413448 L50.6556325,33.9413448 C50.1410311,33.9413448 49.7206051,34.358841 49.7206051,34.8735854 L49.7206051,38.6696155 L45.9132277,38.6696155 C45.3952629,38.6696155 44.9765187,39.0871117 44.9765187,39.6035327 L44.9765187,44.4039012 C44.9765187,44.9203222 45.3952629,45.3378185 45.9132277,45.3378185 L49.7206051,45.3378185 L49.7206051,49.1321718 C49.7206051,49.6485929 50.1410311,50.0660891 50.6556325,50.0660891 L55.4737139,50.0660891 C55.9883153,50.0660891 56.4087412,49.6485929 56.4087412,49.1321718 L56.4087412,45.3378185 L60.214437,45.3378185 C60.7324017,45.3378185 61.151146,44.9203222 61.151146,44.4039012 L61.151146,39.6035327 C61.151146,39.0871117 60.7324017,38.6696155 60.214437,38.6696155 L60.214437,38.6696155 Z" id="Fill-33" fill="#0F50A4"></path>
                </g>
            </g>
        </g>
    </g>
</svg>