<?xml version="1.0" encoding="UTF-8"?>
<svg width="20px" height="21px" viewBox="0 0 20 21" version="1.1" xmlns="http://www.w3.org/2000/svg" xmlns:xlink="http://www.w3.org/1999/xlink">
    <!-- Generator: Sketch 47 (45396) - http://www.bohemiancoding.com/sketch -->
    <title>Fill 1</title>
    <desc>Created with Sketch.</desc>
    <defs></defs>
    <g id="ADMIN-DR." stroke="none" stroke-width="1" fill="none" fill-rule="evenodd">
        <g id="1.-DASHBOARD" transform="translate(-176.000000, -286.000000)" fill="#FFFFFF">
            <path d="M187.214243,305.998098 C188.433266,304.838561 189.396242,303.469531 190.066532,301.966013 C190.973902,302.290597 191.842908,302.726824 192.659326,303.269091 C191.233397,304.729073 189.335894,305.720499 187.214243,305.998098 L187.214243,305.998098 Z M179.342322,303.269091 C180.157446,302.726824 181.026021,302.290597 181.933823,301.966013 C182.605406,303.467807 183.567089,304.838561 184.786112,305.998098 C182.66446,305.720499 180.766957,304.729073 179.342322,303.269091 L179.342322,303.269091 Z M191.162704,297.114923 L195.302985,297.114923 C195.224102,299.256403 194.420616,301.214684 193.127451,302.752256 C192.248531,302.157832 191.310987,301.68281 190.330768,301.32719 C190.839413,299.996955 191.123909,298.576198 191.162704,297.114923 L191.162704,297.114923 Z M186.345237,300.576723 L186.345237,297.114923 L190.473879,297.114923 C190.435084,298.500333 190.162226,299.847379 189.675996,301.108645 C188.603101,300.78363 187.485376,300.606897 186.345237,300.576723 L186.345237,300.576723 Z M186.345237,305.858868 L186.345237,301.265549 C187.392699,301.295723 188.419472,301.457368 189.40788,301.748761 C188.704399,303.304006 187.66685,304.704934 186.345237,305.858868 L186.345237,305.858868 Z M185.654687,301.265549 L185.654687,305.858868 C184.333073,304.704934 183.29768,303.304006 182.592043,301.748761 C183.580452,301.457368 184.607655,301.295723 185.654687,301.265549 L185.654687,301.265549 Z M181.527769,297.114923 L185.654687,297.114923 L185.654687,300.576723 C184.514978,300.606897 183.398547,300.78363 182.324358,301.106921 C181.839422,299.847379 181.566564,298.500333 181.527769,297.114923 L181.527769,297.114923 Z M182.066587,291.277149 C181.187667,290.974117 180.344093,290.567633 179.550952,290.064592 C180.950156,288.717546 182.767051,287.805003 184.786112,287.540767 C183.647696,288.624869 182.728256,289.889584 182.066587,291.277149 L182.066587,291.277149 Z M189.93506,291.277149 C189.271667,289.889584 188.352227,288.624869 187.214243,287.540767 C189.234596,287.805003 191.051492,288.717546 192.450695,290.064592 C191.655831,290.567633 190.812257,290.974117 189.93506,291.277149 L189.93506,291.277149 Z M186.345237,291.928473 L186.345237,287.680428 C187.58107,288.758065 188.567755,290.052954 189.266494,291.487504 C188.320329,291.75174 187.341835,291.901747 186.345237,291.928473 L186.345237,291.928473 Z M186.345237,292.619022 C187.441409,292.590573 188.517321,292.423754 189.554439,292.12374 C190.116965,293.470786 190.431635,294.925596 190.473879,296.423942 L186.345237,296.423942 L186.345237,292.619022 Z M185.654687,292.619022 L185.654687,296.423942 L181.527769,296.423942 C181.570012,294.925596 181.884682,293.470786 182.447209,292.12374 C183.482602,292.423754 184.558515,292.590573 185.654687,292.619022 L185.654687,292.619022 Z M185.654687,291.928473 C184.658088,291.901747 183.679594,291.75174 182.735153,291.487504 C183.433893,290.052954 184.420577,288.758065 185.654687,287.680428 L185.654687,291.928473 Z M195.302985,296.423942 L191.162704,296.423942 C191.120461,294.85361 190.798894,293.326383 190.214815,291.909937 C191.167877,291.574577 192.082144,291.128866 192.93908,290.571512 C194.341733,292.137534 195.220653,294.181596 195.302985,296.423942 L195.302985,296.423942 Z M179.061274,290.571512 C179.919935,291.128866 180.832478,291.574577 181.78554,291.909937 C181.202754,293.326383 180.879463,294.85361 180.83765,296.423942 L176.698663,296.423942 C176.780995,294.181596 177.658622,292.137534 179.061274,290.571512 L179.061274,290.571512 Z M176.698663,297.114923 L180.83765,297.114923 C180.876014,298.576198 181.162666,299.996955 181.670879,301.32719 C180.689368,301.68281 179.751393,302.157832 178.872472,302.752256 C177.581032,301.214684 176.776253,299.256403 176.698663,297.114923 L176.698663,297.114923 Z M193.479623,303.398839 C195.047369,301.631945 196,299.310285 196,296.769648 C196,294.125558 194.968055,291.719411 193.28608,289.930103 C193.284355,289.928379 193.282631,289.926654 193.282631,289.92493 C191.529532,288.064498 189.076399,286.872201 186.346961,286.7778 L186.151693,286.772627 C186.10126,286.771334 186.050395,286.76961 185.999962,286.76961 C185.949528,286.76961 185.899095,286.771334 185.848661,286.772627 L185.654687,286.7778 C182.925248,286.872201 180.470392,288.064498 178.719448,289.92493 C178.717723,289.926654 178.715999,289.928379 178.715999,289.930103 L178.714275,289.930103 C177.033593,291.719411 175.999923,294.125558 175.999923,296.769648 C175.999923,299.310285 176.95471,301.631945 178.520731,303.398839 C178.523749,303.402287 178.523749,303.405304 178.525473,303.408753 C178.53237,303.417374 178.540991,303.420822 178.547457,303.428581 C180.308746,305.397208 182.834296,306.665371 185.654687,306.761496 L185.848661,306.767962 C185.899095,306.767962 185.949528,306.769255 185.999962,306.769255 C186.050395,306.769255 186.10126,306.767962 186.151693,306.766238 L186.345237,306.761496 L186.346961,306.761496 C189.169076,306.665371 191.698074,305.394191 193.459364,303.422115 C193.462812,303.41565 193.471002,303.413925 193.47445,303.407029 C193.477899,303.405304 193.477899,303.402287 193.479623,303.398839 L193.479623,303.398839 Z" id="Fill-1"></path>
        </g>
    </g>
</svg>