<?xml version="1.0" encoding="UTF-8"?>
<svg width="20px" height="21px" viewBox="0 0 20 21" version="1.1" xmlns="http://www.w3.org/2000/svg" xmlns:xlink="http://www.w3.org/1999/xlink">
    <!-- Generator: Sketch 47 (45396) - http://www.bohemiancoding.com/sketch -->
    <title>Page 1</title>
    <desc>Created with Sketch.</desc>
    <defs></defs>
    <g id="ADMIN-DR." stroke="none" stroke-width="1" fill="none" fill-rule="evenodd">
        <g id="1.-DASHBOARD" transform="translate(-175.000000, -542.000000)" fill="#D6D6D6">
            <g id="Page-1" transform="translate(175.000000, 542.000000)">
                <path d="M0.713615023,20.3 L19.2676056,20.3 L19.2676056,5.95 L0.713615023,5.95 L0.713615023,20.3 Z M0.713615023,2.1 L2.85446009,2.1 L2.85446009,3.15 C2.85446009,3.34355 3.01395305,3.5 3.21126761,3.5 L5.70892019,3.5 C5.90623474,3.5 6.0657277,3.34355 6.0657277,3.15 L6.0657277,2.1 L13.915493,2.1 L13.915493,3.15 C13.915493,3.34355 14.0749859,3.5 14.2723005,3.5 L16.7699531,3.5 C16.9672676,3.5 17.1267606,3.34355 17.1267606,3.15 L17.1267606,2.1 L19.2676056,2.1 L19.2676056,5.25 L0.713615023,5.25 L0.713615023,2.1 Z M3.56807512,0.7 L5.35211268,0.7 L5.35211268,1.75 L5.35211268,2.8 L3.56807512,2.8 L3.56807512,1.75 L3.56807512,0.7 Z M14.629108,0.7 L16.4131455,0.7 L16.4131455,1.75 L16.4131455,2.8 L14.629108,2.8 L14.629108,1.75 L14.629108,0.7 Z M19.6244131,1.4 L17.1267606,1.4 L17.1267606,0.35 C17.1267606,0.15645 16.9672676,0 16.7699531,0 L14.2723005,0 C14.0749859,0 13.915493,0.15645 13.915493,0.35 L13.915493,1.4 L6.0657277,1.4 L6.0657277,0.35 C6.0657277,0.15645 5.90623474,0 5.70892019,0 L3.21126761,0 C3.01395305,0 2.85446009,0.15645 2.85446009,0.35 L2.85446009,1.4 L0.356807512,1.4 C0.159492958,1.4 0,1.55645 0,1.75 L0,5.6 L0,20.65 C0,20.84355 0.159492958,21 0.356807512,21 L19.6244131,21 C19.8217277,21 19.9812207,20.84355 19.9812207,20.65 L19.9812207,5.6 L19.9812207,1.75 C19.9812207,1.55645 19.8217277,1.4 19.6244131,1.4 L19.6244131,1.4 Z" id="Fill-1"></path>
                <path d="M13.5586854,11.2 L16.056338,11.2 L16.056338,8.75 L13.5586854,8.75 L13.5586854,11.2 Z M13.5586854,14.35 L16.056338,14.35 L16.056338,11.9 L13.5586854,11.9 L13.5586854,14.35 Z M13.5586854,17.5 L16.056338,17.5 L16.056338,15.05 L13.5586854,15.05 L13.5586854,17.5 Z M10.3474178,17.5 L12.8450704,17.5 L12.8450704,15.05 L10.3474178,15.05 L10.3474178,17.5 Z M7.13615023,17.5 L9.63380282,17.5 L9.63380282,15.05 L7.13615023,15.05 L7.13615023,17.5 Z M3.92488263,17.5 L6.42253521,17.5 L6.42253521,15.05 L3.92488263,15.05 L3.92488263,17.5 Z M3.92488263,14.35 L6.42253521,14.35 L6.42253521,11.9 L3.92488263,11.9 L3.92488263,14.35 Z M3.92488263,11.2 L6.42253521,11.2 L6.42253521,8.75 L3.92488263,8.75 L3.92488263,11.2 Z M7.13615023,11.2 L9.63380282,11.2 L9.63380282,8.75 L7.13615023,8.75 L7.13615023,11.2 Z M7.13615023,14.35 L9.63380282,14.35 L9.63380282,11.9 L7.13615023,11.9 L7.13615023,14.35 Z M10.3474178,14.35 L12.8450704,14.35 L12.8450704,11.9 L10.3474178,11.9 L10.3474178,14.35 Z M10.3474178,11.2 L12.8450704,11.2 L12.8450704,8.75 L10.3474178,8.75 L10.3474178,11.2 Z M12.8450704,8.05 L10.3474178,8.05 L9.63380282,8.05 L7.13615023,8.05 L6.42253521,8.05 L3.72542723,8.05 C3.44176526,8.05 3.21126761,8.2761 3.21126761,8.55435 L3.21126761,11.2 L3.21126761,11.9 L3.21126761,14.35 L3.21126761,15.05 L3.21126761,17.69565 C3.21126761,17.9739 3.44176526,18.2 3.72542723,18.2 L6.42253521,18.2 L7.13615023,18.2 L9.63380282,18.2 L10.3474178,18.2 L12.8450704,18.2 L13.5586854,18.2 L16.2557934,18.2 C16.5394554,18.2 16.7699531,17.9739 16.7699531,17.69565 L16.7699531,15.05 L16.7699531,14.35 L16.7699531,11.9 L16.7699531,11.2 L16.7699531,8.55435 C16.7699531,8.2761 16.5394554,8.05 16.2557934,8.05 L13.5586854,8.05 L12.8450704,8.05 Z" id="Fill-3"></path>
            </g>
        </g>
    </g>
</svg>