<?xml version="1.0" encoding="UTF-8"?>
<svg width="23px" height="22px" viewBox="0 0 23 22" version="1.1" xmlns="http://www.w3.org/2000/svg" xmlns:xlink="http://www.w3.org/1999/xlink">
    <!-- Generator: Sketch 47 (45396) - http://www.bohemiancoding.com/sketch -->
    <title>Fill 1</title>
    <desc>Created with Sketch.</desc>
    <defs></defs>
    <g id="ADMIN-DR." stroke="none" stroke-width="1" fill="none" fill-rule="evenodd">
        <g id="1.-DASHBOARD" transform="translate(-173.000000, -336.000000)" fill="#D6D6D6">
            <path d="M194.841183,356.316667 L191.025483,356.316667 C190.8089,356.316667 190.633333,356.1411 190.633333,355.924517 L190.633333,355.533517 C190.633333,354.215233 189.900783,353.03035 188.722033,352.440783 C188.722033,352.440783 186.47455,351.362083 185.266667,350.758333 C184.5,350.375 184.5,349.794633 184.5,349.7034 L184.5,348.54305 C184.5,348.455267 184.529133,348.372467 184.5828,348.303467 C184.645283,348.222967 184.709683,348.13595 184.775617,348.0428 C185.222583,347.41145 185.585983,346.713017 185.857767,345.961683 C185.890733,345.870833 185.957817,345.79915 186.041,345.75085 C186.5056,345.4806 186.8,344.985717 186.8,344.433333 L186.8,342.9 C186.8,342.5757 186.693433,342.260217 186.501,341.998783 C186.44925,341.928633 186.416667,341.846217 186.416667,341.7592 L186.416667,339.8548 C186.42395,339.784267 186.43775,339.595667 186.418967,339.338067 C186.405933,339.158667 186.508667,338.98425 186.6804,338.931733 C187.095933,338.805233 187.548267,338.739683 188.028967,338.73585 C191.80135,338.7669 191.938967,342.496733 191.9428,342.6539 C191.99915,345.560717 193.7621,348.375917 194.51765,349.451167 C194.582433,349.543167 194.601983,349.658933 194.570933,349.768183 C194.5533,349.83105 194.5027,349.945283 194.36585,350.003933 C193.72185,350.281083 190.57545,350.21975 190.57545,350.21975 C190.328967,350.21975 190.1051,350.3451 189.974383,350.554783 C189.6152,351.131317 189.75895,351.596683 190.22585,351.992283 C190.693133,352.3875 192.796867,353.022683 193.679683,353.4478 C194.5625,353.872917 195.233333,354.869583 195.233333,355.924517 C195.233333,356.1411 195.057767,356.316667 194.841183,356.316667 M189.474517,356.316667 L174.158817,356.316667 C173.942233,356.316667 173.766667,356.1411 173.766667,355.924517 L173.766667,355.69145 C173.766667,354.562917 174.383067,353.52485 175.3736,352.98435 L178.3843,351.34215 C179.08235,350.9615 179.516667,350.2301 179.516667,349.435067 L179.516667,348.127133 L179.42735,348.020567 C179.41815,348.00945 178.4786,346.872867 178.120183,345.312317 L178.0853,345.160517 L177.954583,345.076183 C177.732633,344.932817 177.6,344.692467 177.6,344.433333 L177.6,342.9 C177.6,342.68495 177.691233,342.484467 177.856833,342.334583 L177.983333,342.220733 L177.983333,339.833333 L177.979883,339.783117 C177.978733,339.772767 177.8484,338.710167 178.595133,337.8584 C179.230317,337.1339 180.314383,336.766667 181.816667,336.766667 C183.313583,336.766667 184.39535,337.131217 185.0313,337.850733 C185.34755,338.208 185.506633,338.60705 185.585983,338.94975 C185.592117,338.976583 185.597867,339.003033 185.603233,339.029483 C185.6086,339.0567 185.61435,339.083917 185.618567,339.109983 C185.62355,339.139883 185.627767,339.16825 185.631983,339.196617 C185.63505,339.216933 185.638117,339.237633 185.640417,339.257183 C185.646167,339.304717 185.650767,339.350717 185.653833,339.393267 C185.654217,339.396717 185.654217,339.399783 185.654217,339.403233 C185.6569,339.444633 185.658817,339.483733 185.659967,339.519383 C185.659967,339.526283 185.659967,339.532033 185.66035,339.538933 C185.661117,339.57075 185.661117,339.601033 185.660733,339.627483 L185.660733,339.638983 C185.6592,339.729067 185.653067,339.782733 185.653067,339.783883 L185.65,342.220733 L185.7765,342.334967 C185.9421,342.484467 186.033333,342.68495 186.033333,342.9 L186.033333,344.433333 C186.033333,344.767983 185.814067,345.06085 185.488233,345.161283 L185.297333,345.219933 L185.236,345.409683 C184.97955,346.2074 184.614233,346.944167 184.149633,347.599667 C184.035783,347.76105 183.925,347.904033 183.828783,348.013283 L183.733333,348.12215 L183.733333,349.7034 C183.733333,349.800383 183.742917,349.89545 183.757867,349.988983 C183.760933,350.008917 183.7663,350.028083 183.770133,350.048017 C183.785083,350.125067 183.805017,350.200583 183.82955,350.274183 C183.8353,350.291433 183.841433,350.307917 183.84795,350.325167 C183.87785,350.405283 183.912733,350.482717 183.953367,350.557083 C183.957967,350.565517 183.962183,350.574333 183.966783,350.582767 C184.022367,350.6809 184.086383,350.77405 184.159983,350.859917 L184.247383,350.967633 L184.262333,350.967633 C184.393817,351.0972 184.54485,351.2099 184.716583,351.295767 L188.378567,353.126567 C189.29665,353.585033 189.866667,354.507333 189.866667,355.533517 L189.866667,355.924517 C189.866667,356.1411 189.6911,356.316667 189.474517,356.316667 M194.13125,352.7946 C193.591133,352.53585 191.232867,351.764967 190.7813,351.548767 C190.403333,351.368217 190.473483,350.874867 190.892467,350.873333 C192.009883,350.8695 194.158467,350.927767 194.6683,350.708883 C194.981483,350.57395 195.21455,350.307533 195.308083,349.977867 C195.402383,349.645133 195.342583,349.29285 195.144783,349.010717 C194.429867,347.99335 192.761217,345.334933 192.709083,342.638567 C192.707933,342.592183 192.5569,338.00675 188.028583,337.969567 C187.491533,337.973783 186.987067,338.04815 186.517867,338.185767 C186.331567,338.240583 186.135683,338.163533 186.04675,337.99065 C185.936733,337.776367 185.795667,337.560933 185.61435,337.353933 C184.827367,336.4554 183.549717,336 181.816667,336 C180.083617,336 178.805967,336.4554 178.0186,337.353167 C177.12965,338.367083 177.192133,339.591833 177.215133,339.83985 C177.216283,339.85135 177.216667,339.860167 177.216667,339.871667 L177.216667,341.758817 C177.216667,341.845833 177.1837,341.92825 177.132333,341.9984 C176.9399,342.259833 176.833333,342.575317 176.833333,342.899617 L176.833333,344.43295 C176.833333,344.861133 177.011583,345.262483 177.32055,345.549983 C177.375367,345.600583 177.416767,345.664217 177.436317,345.736283 C177.76675,346.9572 178.382767,347.89905 178.676783,348.300783 C178.725083,348.367483 178.75,348.44645 178.75,348.528867 L178.75,349.434683 C178.75,349.948733 178.469017,350.42215 178.01745,350.66825 L174.802433,352.422 C173.690383,353.0292 173,354.192233 173,355.458767 L173,356.691183 C173,356.907767 173.175567,357.083333 173.39215,357.083333 L189.866667,357.083333 L190.633333,357.083333 L195.60785,357.083333 C195.824433,357.083333 196,356.907767 196,356.691183 L196,355.909183 C196,354.609683 195.3031,353.356567 194.13125,352.7946" id="Fill-1"></path>
        </g>
    </g>
</svg>