<?xml version="1.0" encoding="UTF-8"?>
<svg width="18px" height="21px" viewBox="0 0 18 21" version="1.1" xmlns="http://www.w3.org/2000/svg" xmlns:xlink="http://www.w3.org/1999/xlink">
    <!-- Generator: Sketch 47 (45396) - http://www.bohemiancoding.com/sketch -->
    <title>Group 5</title>
    <desc>Created with Sketch.</desc>
    <defs>
        <polygon id="path-1" points="17.9896849 21 0 21 0 10.5000021 0 4.10156235e-06 17.9896849 4.10156235e-06 17.9896849 10.5000021"></polygon>
    </defs>
    <g id="ADMIN-DR." stroke="none" stroke-width="1" fill="none" fill-rule="evenodd">
        <g id="1.-DASHBOARD" transform="translate(-176.000000, -389.000000)">
            <g id="Group-5" transform="translate(176.000000, 389.000000)">
                <mask id="mask-2" fill="white">
                    <use xlink:href="#path-1"></use>
                </mask>
                <g id="Clip-4"></g>
                <path d="M17.1676438,4.63202168 C17.1676438,6.16026387 15.845589,7.42366816 14.1460685,7.60126582 L14.1460685,2.63369941 L16.2632466,2.63369941 C16.7619452,2.63369941 17.1676438,2.97195527 17.1676438,3.38768965 L17.1676438,4.63202168 Z M10.4917808,10.6477834 L10.4506438,10.6477834 L7.56217808,10.6477834 L7.5210411,10.6477834 C5.95927397,10.6477834 4.68867123,9.37970332 4.68867123,7.82098652 C4.68867123,7.59445723 4.50468493,7.41083027 4.27771233,7.41083027 C4.12836986,7.41083027 3.99805479,7.49056465 3.92609589,7.60946895 C2.18687671,7.46492988 0.821876712,6.18495527 0.821876712,4.63202168 L0.821876712,3.38768965 C0.821876712,2.97195527 1.22757534,2.63369941 1.72627397,2.63369941 L3.86675342,2.63369941 L3.86675342,4.73439668 C3.86675342,4.96092598 4.05073973,5.14455293 4.27771233,5.14455293 C4.50468493,5.14455293 4.68867123,4.96092598 4.68867123,4.73439668 L4.68867123,0.820316602 L13.3241096,0.820316602 L13.3241096,7.82098652 C13.3241507,9.37970332 12.0535479,10.6477834 10.4917808,10.6477834 L10.4917808,10.6477834 Z M8.07883562,14.9720197 C8.18971233,14.4193342 8.24806849,13.8567229 8.25267123,13.2931682 C8.25772603,12.6804357 8.19932877,12.0686467 8.07883562,11.4680549 L9.91434247,11.4680549 C9.77515068,12.0662678 9.70775342,12.6781389 9.71358904,13.2937014 C9.7189726,13.8594299 9.78636986,14.4218771 9.91434247,14.9719787 L8.07883562,14.9719787 L8.07883562,14.9720197 Z M11.4373562,15.7925373 L11.4373562,18.6452971 L9.00645205,18.6452971 C8.77947945,18.6452971 8.59549315,18.828924 8.59549315,19.0554533 C8.59549315,19.2819826 8.77947945,19.4656096 9.00645205,19.4656096 L12.6163973,19.4656096 C12.9938219,19.4656096 13.3008904,19.7720783 13.3008904,20.1487658 L13.3008904,20.1796916 L4.7120137,20.1796916 L4.7120137,20.1487658 C4.7120137,19.7720783 5.01908219,19.4656096 5.39650685,19.4656096 L6.67705479,19.4656096 C6.9040274,19.4656096 7.0880137,19.2819826 7.0880137,19.0554533 C7.0880137,18.828924 6.9040274,18.6452971 6.67705479,18.6452971 L6.57554795,18.6452971 L6.57571233,15.7923322 L11.4373562,15.7925373 Z M16.2632466,1.81338691 L14.1460685,1.81338691 L14.1460685,0.81957832 C14.3660548,0.811662305 14.5420685,0.631644727 14.5420685,0.410160352 C14.5420685,0.183631055 14.3580822,4.10156235e-06 14.1311096,4.10156235e-06 L13.7351096,4.10156235e-06 L4.27775342,4.10156235e-06 L3.78858904,4.10156235e-06 C3.56161644,4.10156235e-06 3.37763014,0.183631055 3.37763014,0.410160352 C3.37763014,0.636689648 3.56161644,0.820316602 3.78858904,0.820316602 L3.86679452,0.820316602 L3.86679452,1.81338691 L1.72631507,1.81338691 C0.774410959,1.81338691 0,2.51959395 0,3.38768965 L0,4.63202168 C0,6.63247676 1.72894521,8.27785957 3.91832877,8.43191426 C4.19490411,10.0616701 5.55826027,11.3272482 7.23591781,11.4570627 C7.37005479,12.0574494 7.43584932,12.6713713 7.43079452,13.2864006 C7.42615068,13.8530725 7.36093151,14.4185549 7.23813699,14.9720197 L6.57571233,14.9720197 C6.12242466,14.9720197 5.75363014,15.3400939 5.75363014,15.7924963 L5.75363014,18.6452561 L5.39654795,18.6452561 C4.56591781,18.6452561 3.89013699,19.319717 3.89013699,20.1487248 L3.89013699,20.5898479 C3.89013699,20.8163771 4.07412329,21.0000041 4.30109589,21.0000041 L13.7118904,21.0000041 C13.938863,21.0000041 14.1228493,20.8163771 14.1228493,20.5898479 L14.1228493,20.1487658 C14.1228493,19.319758 13.4470685,18.6452971 12.6164384,18.6452971 L12.2593562,18.6452971 L12.2593562,15.7925373 C12.2593562,15.340135 11.8905616,14.9720607 11.4372329,14.9720607 L10.7616986,14.9720607 C10.6174521,14.4213439 10.5410137,13.8555744 10.535589,13.2859494 C10.5297123,12.6683361 10.6065205,12.0548244 10.7637945,11.4580471 C12.4481507,11.3338107 13.8183699,10.0649924 14.0949041,8.43002754 C16.2731096,8.26584199 17.9896849,6.62525801 17.9896849,4.63202168 L17.9896849,3.38768965 C17.9895616,2.51959395 17.2151507,1.81338691 16.2632466,1.81338691 L16.2632466,1.81338691 Z" id="Fill-3" fill="#D6D6D6" mask="url(#mask-2)"></path>
            </g>
        </g>
    </g>
</svg>