<?xml version="1.0" encoding="UTF-8"?>
<svg width="20px" height="21px" viewBox="0 0 20 21" version="1.1" xmlns="http://www.w3.org/2000/svg" xmlns:xlink="http://www.w3.org/1999/xlink">
    <!-- Generator: Sketch 47 (45396) - http://www.bohemiancoding.com/sketch -->
    <title>Page 1</title>
    <desc>Created with Sketch.</desc>
    <defs>
        <polygon id="path-1" points="19.9916701 0.0268169732 19.9916701 15.0076639 0 15.0076639 0 0.0268169732 19.9916701 0.0268169732"></polygon>
    </defs>
    <g id="ADMIN-DR." stroke="none" stroke-width="1" fill="none" fill-rule="evenodd">
        <g id="1.-DASHBOARD" transform="translate(-174.000000, -490.000000)">
            <g id="Page-1" transform="translate(174.000000, 490.000000)">
                <g id="Group-3" transform="translate(0.000000, 5.986664)">
                    <mask id="mask-2" fill="white">
                        <use xlink:href="#path-1"></use>
                    </mask>
                    <g id="Clip-2"></g>
                    <path d="M15.2608948,14.187573 L15.2608948,1.12910118 C15.2608948,0.973488932 15.3881938,0.846907897 15.5446887,0.846907897 L17.5662969,0.846907897 C17.7227918,0.846907897 17.8500907,0.973488932 17.8500907,1.12910118 L17.8500907,14.187573 L15.2608948,14.187573 Z M8.72559588,14.187573 L8.72559588,7.04560615 C8.72559588,6.8899939 8.85289485,6.76341287 9.00938969,6.76341287 L11.0309979,6.76341287 C11.1874928,6.76341287 11.314833,6.8899939 11.314833,7.04560615 L11.314833,14.187573 L8.72559588,14.187573 Z M2.19029691,14.187573 L2.19029691,10.4887989 C2.19029691,10.3331867 2.31759588,10.2066056 2.47409072,10.2066056 L4.49569897,10.2066056 C4.65219381,10.2066056 4.77949278,10.3331867 4.77949278,10.4887989 L4.77949278,14.187573 L2.19029691,14.187573 Z M19.5793278,14.187573 L18.674833,14.187573 L18.674833,1.12910118 C18.674833,0.521290796 18.1775546,0.0268169732 17.5662969,0.0268169732 L15.5446887,0.0268169732 C14.9334722,0.0268169732 14.4361526,0.521331801 14.4361526,1.12910118 L14.4361526,14.187573 L12.1396165,14.187573 L12.1396165,7.04560615 C12.1396165,6.43779576 11.6422969,5.94332194 11.0310804,5.94332194 L9.00943093,5.94332194 C8.3981732,5.94332194 7.90093608,6.43783677 7.90093608,7.04560615 L7.90093608,14.187573 L5.60431753,14.187573 L5.60431753,10.4887989 C5.60431753,9.88098851 5.10699794,9.38651469 4.49578144,9.38651469 L2.47413196,9.38651469 C1.86287423,9.38651469 1.36559588,9.88102952 1.36559588,10.4887989 L1.36559588,14.187573 L0.412358763,14.187573 C0.184606186,14.187573 -1.23711341e-05,14.3711503 -1.23711341e-05,14.5976185 C-1.23711341e-05,14.8240866 0.184606186,15.0076639 0.412358763,15.0076639 L19.5793278,15.0076639 C19.8070392,15.0076639 19.991699,14.8240866 19.991699,14.5976185 C19.991699,14.3711503 19.8070392,14.187573 19.5793278,14.187573 L19.5793278,14.187573 Z" id="Fill-1" fill="#D6D6D6" mask="url(#mask-2)"></path>
                </g>
                <path d="M3.94825567,11.4164037 C4.05378144,11.4164037 4.15934845,11.3763833 4.2398433,11.2963014 L11.3614103,4.21485731 L12.8986887,5.74350679 C13.0597608,5.90362954 13.3208742,5.90362954 13.4819464,5.74350679 L17.8501113,1.40001822 L17.8501113,2.78638193 C17.8501113,3.01285004 18.0347299,3.19642739 18.2624825,3.19642739 C18.4902351,3.19642739 18.6748536,3.01285004 18.6748536,2.78638193 L18.6748536,0.451050008 C18.6748536,0.444366267 18.6741526,0.437846544 18.6738639,0.431203808 C18.6796371,0.319302401 18.6400495,0.205514786 18.5541113,0.120061311 C18.4681732,0.034607837 18.3537402,-0.00479753191 18.2412041,0.000984109109 C18.2345649,0.000697077286 18.2280082,0 18.2212454,0 L15.7264,0 C15.4986474,0 15.3140289,0.183577353 15.3140289,0.410045462 C15.3140289,0.636513571 15.4986474,0.820090924 15.7264,0.820090924 L17.2668948,0.820090924 L13.1903175,4.87371835 L11.6529567,3.34506887 C11.5756371,3.26818535 11.4707299,3.22496656 11.3614103,3.22496656 C11.2520495,3.22496656 11.1471423,3.26818535 11.0698227,3.34506887 L3.65666804,10.7164561 C3.49563711,10.8765789 3.49563711,11.1362197 3.65666804,11.2963834 C3.73720412,11.3763833 3.8427299,11.4164037 3.94825567,11.4164037" id="Fill-4" fill="#D6D6D6"></path>
                <path d="M2.5583134,12.027027 C2.78606598,12.027027 2.97068454,12.2106454 2.97068454,12.4370725 C2.97068454,12.6635406 2.78606598,12.847118 2.5583134,12.847118 C2.33056082,12.847118 2.14594227,12.6635406 2.14594227,12.4370725 C2.14594227,12.2106454 2.33056082,12.027027 2.5583134,12.027027" id="Fill-6" fill="#D6D6D6"></path>
            </g>
        </g>
    </g>
</svg>