<?xml version="1.0" encoding="UTF-8"?>
<svg width="20px" height="18px" viewBox="0 0 20 18" version="1.1" xmlns="http://www.w3.org/2000/svg" xmlns:xlink="http://www.w3.org/1999/xlink">
    <!-- Generator: Sketch 47 (45396) - http://www.bohemiancoding.com/sketch -->
    <title>Stroke 215</title>
    <desc>Created with Sketch.</desc>
    <defs></defs>
    <g id="ADMIN-DR." stroke="none" stroke-width="1" fill="none" fill-rule="evenodd">
        <g id="1.-DASHBOARD" transform="translate(-175.000000, -443.000000)" stroke="#D6D6D6">
            <path d="M184.97323,445.899174 C184.035472,444.708742 182.592214,444 181.016854,444 C178.261097,444 176.010615,446.192348 176.000055,448.886966 C175.989721,451.786963 177.428709,453.496744 178.585291,454.871093 L178.833323,455.166457 C180.202664,456.811868 184.448185,459.767256 184.627917,459.892276 C184.730814,459.964094 184.852585,460 184.973454,460 C185.094549,460 185.216093,459.963874 185.319217,459.892276 C185.498948,459.767256 189.74447,456.811868 191.11381,455.166457 L191.361617,454.871093 C192.517974,453.496744 193.957189,451.786963 193.946853,448.886966 C193.93607,446.192348 191.685363,444 188.928931,444 C187.354243,444 185.910986,444.708961 184.97323,445.899174 Z" id="Stroke-215"></path>
        </g>
    </g>
</svg>