<?xml version="1.0" encoding="UTF-8"?>
<svg width="54px" height="65px" viewBox="0 0 54 65" version="1.1" xmlns="http://www.w3.org/2000/svg" xmlns:xlink="http://www.w3.org/1999/xlink">
    <!-- Generator: Sketch 47 (45396) - http://www.bohemiancoding.com/sketch -->
    <title>Page 1</title>
    <desc>Created with Sketch.</desc>
    <defs></defs>
    <g id="HOME-DOCTORES" stroke="none" stroke-width="1" fill="none" fill-rule="evenodd">
        <g id="4.-PERFIL-DOCTOR-SECCIONES" transform="translate(-118.000000, -2034.000000)">
            <g id="Group-9" transform="translate(118.000000, 2034.000000)">
                <g id="Page-1">
                    <path d="M12.8439648,64.9892384 C10.8204768,64.9892384 8.8807968,64.1321854 7.5217248,62.6376159 C6.1648128,61.1430464 5.5016928,59.1375166 5.7012768,57.1324172 L6.1168608,52.9741391 C2.4729408,51.1877152 0.0001728,47.4611921 0.0001728,43.1350331 L0.0001728,10.9647682 C0.0001728,4.91890728 4.9362048,0 11.0040768,0 L42.8325408,0 C48.8995488,0 53.8351488,4.91890728 53.8351488,10.9647682 L53.8351488,43.135894 C53.8351488,49.1813245 48.8995488,54.0993709 42.8325408,54.0993709 L26.5457088,54.0993709 L17.9718048,62.8369205 C16.6148928,64.2234437 14.7922848,64.9892384 12.8439648,64.9892384" id="Fill-1" fill="#A0DEF9"></path>
                    <path d="M46.9221984,26.7843477 L46.9221984,43.1359371 C46.9221984,45.3773609 45.0818784,47.2111358 42.8324544,47.2111358 L24.1856064,47.2111358 C23.8343904,47.2111358 23.4978624,47.3518974 23.2524864,47.6024272 L13.0287744,58.0209371 C12.8559744,58.1978576 12.5561664,58.0583874 12.5807904,57.8125927 L13.5627264,47.9808046 C13.6037664,47.568851 13.2789024,47.2111358 12.8633184,47.2111358 L11.0039904,47.2111358 C8.7537024,47.2111358 6.9129504,45.3769305 6.9129504,43.1346457 L6.9129504,26.7830563 L6.9129504,10.9648113 C6.9129504,8.72295695 8.7537024,6.88875166 11.0039904,6.88875166 L42.8324544,6.88875166 C45.0823104,6.88875166 46.9221984,8.72295695 46.9221984,10.9648113 L46.9221984,26.7843477 Z M42.8324544,4.30467881 L11.0039904,4.30467881 C7.3185984,4.30467881 4.3200864,7.29295695 4.3200864,10.9648113 L4.3200864,26.7830563 L4.3200864,43.1350762 C4.3200864,46.7311689 7.1954784,49.6708046 10.7758944,49.790904 L10.0004544,57.5573278 C9.9209664,58.3562682 10.1840544,59.1534868 10.7231904,59.747096 C11.2644864,60.3424272 12.0377664,60.6846457 12.8438784,60.6846457 C13.6175904,60.6846457 14.3420544,60.3798775 14.8829184,59.8275927 L24.7281984,49.7947781 L42.8324544,49.7947781 C46.5174144,49.7947781 49.5150624,46.8077914 49.5150624,43.1359371 L49.5150624,26.7847781 L49.5150624,10.9648113 C49.5150624,7.29295695 46.5174144,4.30467881 42.8324544,4.30467881 L42.8324544,4.30467881 Z" id="Fill-3" fill="#FFFFFF"></path>
                    <path d="M40.2960096,22.2884139 L31.7234016,22.2884139 L31.7234016,13.7471556 C31.7234016,13.4471225 31.4793216,13.2047715 31.1786496,13.2047715 L22.6557216,13.2047715 C22.3559136,13.2047715 22.1118336,13.4471225 22.1118336,13.7471556 L22.1118336,22.2884139 L13.5392256,22.2884139 C13.2394176,22.2884139 12.9966336,22.5303344 12.9966336,22.8312285 L12.9966336,31.3234139 C12.9966336,31.6221556 13.2394176,31.8645066 13.5392256,31.8645066 L22.1118336,31.8645066 L22.1118336,40.4074868 C22.1118336,40.7066589 22.3559136,40.948149 22.6557216,40.948149 L31.1786496,40.948149 C31.4793216,40.948149 31.7234016,40.7066589 31.7234016,40.4074868 L31.7234016,31.8645066 L40.2960096,31.8645066 C40.5945216,31.8645066 40.8386016,31.6221556 40.8386016,31.3234139 L40.8386016,22.8312285 C40.8386016,22.5303344 40.5945216,22.2884139 40.2960096,22.2884139" id="Fill-5" fill="#FFFFFF"></path>
                </g>
            </g>
        </g>
    </g>
</svg>