<?xml version="1.0" encoding="UTF-8"?>
<svg width="18px" height="19px" viewBox="0 0 18 19" version="1.1" xmlns="http://www.w3.org/2000/svg" xmlns:xlink="http://www.w3.org/1999/xlink">
    <!-- Generator: Sketch 47 (45396) - http://www.bohemiancoding.com/sketch -->
    <title>fi-social-facebook</title>
    <desc>Created with Sketch.</desc>
    <defs></defs>
    <g id="HOME-DOCTORES" stroke="none" stroke-width="1" fill="none" fill-rule="evenodd">
        <g id="1.2--REGISTRO" transform="translate(-654.000000, -436.000000)" fill="#FFFFFF">
            <g id="Group-5" transform="translate(428.000000, 35.000000)">
                <g id="Group">
                    <g id="LOGIN">
                        <g id="Group-2" transform="translate(46.000000, 391.000000)">
                            <g id="Group-3" transform="translate(53.000000, 10.103448)">
                                <g id="fi-social-facebook" transform="translate(127.000000, 0.000000)">
                                    <path d="M16.6433515,0 L0.972285283,0 C0.435253024,0 0,0.456115837 0,1.01888945 L0,17.4413671 C0,18.0038843 0.435253024,18.4600001 0.972285283,18.4600001 L9.40895197,18.4600001 L9.40895197,11.3113651 L7.11329198,11.3113651 L7.11329198,8.5254434 L9.40895197,8.5254434 L9.40895197,6.47074283 C9.40895197,4.08632614 10.79863,2.78822919 12.8283428,2.78822919 C13.8006281,2.78822919 14.6361475,2.86386391 14.8798305,2.89796363 L14.8798305,5.38980726 L13.4720475,5.39057643 C12.3681343,5.39057643 12.1545447,5.94027421 12.1545447,6.74687366 L12.1545447,8.52569979 L14.7871037,8.52569979 L14.4443328,11.3116215 L12.1545447,11.3116215 L12.1545447,18.4600001 L16.6435961,18.4600001 C17.1803837,18.4600001 17.6156367,18.0038843 17.6156367,17.4411107 L17.6156367,1.01888945 C17.6156367,0.456115837 17.1803837,0 16.6433515,0 L16.6433515,0 Z" id="Shape"></path>
                                </g>
                            </g>
                        </g>
                    </g>
                </g>
            </g>
        </g>
    </g>
</svg>