<?xml version="1.0" encoding="utf-8"?>
<!-- Generator: Adobe Illustrator 21.1.0, SVG Export Plug-In . SVG Version: 6.00 Build 0)  -->
<svg version="1.1" id="Layer_1" xmlns="http://www.w3.org/2000/svg" xmlns:xlink="http://www.w3.org/1999/xlink" x="0px" y="0px"
	 viewBox="0 0 12 12" style="enable-background:new 0 0 12 12;" xml:space="preserve">
<style type="text/css">
	.st0{fill:none;stroke:#959699;stroke-width:0.6;}
</style>
<g id="Page-1">
	<g id="faceboookicon" transform="translate(0.000000, 1.000000)">
		<path id="Shape" class="st0" d="M1.2,0C0.9,0,0.6,0.2,0.6,0.6v8.9c0,0.3,0.2,0.6,0.6,0.6H6V6.1H4.7V4.6H6V3.5c0-1.3,0.8-2,2-2
			c0.6,0,1,0,1.2,0.1v1.3l-0.8,0c-0.6,0-0.8,0.3-0.8,0.7v1h1.5L8.9,6.1H7.6V10h2.6c0.3,0,0.6-0.2,0.6-0.6V0.6c0-0.3-0.2-0.6-0.6-0.6
			H1.2z"/>
	</g>
</g>
</svg>
