<?xml version="1.0" encoding="UTF-8"?>
<svg width="14px" height="14px" viewBox="0 0 14 14" version="1.1" xmlns="http://www.w3.org/2000/svg" xmlns:xlink="http://www.w3.org/1999/xlink">
    <!-- Generator: Sketch 47 (45396) - http://www.bohemiancoding.com/sketch -->
    <title>Shape</title>
    <desc>Created with Sketch.</desc>
    <defs></defs>
    <g id="Page-1" stroke="none" stroke-width="1" fill="none" fill-rule="evenodd">
        <g id="Mobile-Dr-Profile" transform="translate(-354.000000, -622.000000)" stroke="#FFFFFF" stroke-width="0.6">
            <g id="Group" transform="translate(354.000000, 623.000000)">
                <path d="M1.66233333,0 C1.2965,0 1,0.2965 1,0.662333333 L1,11.3378333 C1,11.7035 1.2965,12 1.66233333,12 L7.4095,12 L7.4095,7.353 L5.84566667,7.353 L5.84566667,5.542 L7.4095,5.542 L7.4095,4.20633333 C7.4095,2.65633333 8.35616667,1.8125 9.73883333,1.8125 C10.4011667,1.8125 10.9703333,1.86166667 11.1363333,1.88383333 L11.1363333,3.50366667 L10.1773333,3.50416667 C9.42533333,3.50416667 9.27983333,3.8615 9.27983333,4.38583333 L9.27983333,5.54216667 L11.0731667,5.54216667 L10.8396667,7.35316667 L9.27983333,7.35316667 L9.27983333,12 L12.3378333,12 C12.7035,12 13,11.7035 13,11.3376667 L13,0.662333333 C13,0.2965 12.7035,0 12.3376667,0 L1.66233333,0 Z" id="Shape"></path>
            </g>
        </g>
    </g>
</svg>