<?xml version="1.0" encoding="UTF-8"?>
<svg width="27px" height="25px" viewBox="0 0 27 25" version="1.1" xmlns="http://www.w3.org/2000/svg" xmlns:xlink="http://www.w3.org/1999/xlink">
    <!-- Generator: Sketch 47 (45396) - http://www.bohemiancoding.com/sketch -->
    <title>Page 1</title>
    <desc>Created with Sketch.</desc>
    <defs></defs>
    <g id="HOME-DOCTORES" stroke="none" stroke-width="1" fill="none" fill-rule="evenodd">
        <g id="4.-PERFIL-DOCTOR-SECCIONES" transform="translate(-746.000000, -4493.000000)">
            <g id="Group-15" transform="translate(723.000000, 4375.000000)">
                <g id="Group-2">
                    <g id="Page-1" transform="translate(23.000000, 118.000000)">
                        <path d="M23.6420055,10.8639561 C22.8914872,10.8639561 22.284011,11.4721113 22.284011,12.2219506 L22.284011,22.284011 L2.71598903,22.284011 L2.71598903,2.71598903 L18.2100274,2.71598903 C18.9598667,2.71598903 19.5680219,2.10760749 19.5680219,1.35799451 C19.5680219,0.60815521 18.9598667,0 18.2100274,0 L1.35799451,0 C0.608381542,0 0,0.60815521 0,1.35799451 L0,23.6420055 C0,24.3918448 0.608381542,25 1.35799451,25 L23.6420055,25 C24.3918448,25 25,24.3918448 25,23.6420055 L25,12.2219506 C25,11.4721113 24.3918448,10.8639561 23.6420055,10.8639561" id="Fill-4" fill="#D6D6D6"></path>
                        <path d="M24.6236337,2.4012668 L12.1312674,14.6937716 L6.3762502,9.03221205 C5.83264991,8.49718965 4.95077849,8.49718965 4.40787423,9.03221205 C3.86404192,9.56609318 3.86404192,10.4336786 4.40787423,10.968701 L11.1470794,17.5987332 C11.4080911,17.8555166 11.7623709,18 12.1312674,18 C12.5001639,18 12.8544437,17.8555166 13.1154554,17.5987332 L26.5929377,4.33775571 C27.135842,3.80364632 27.135842,2.9362892 26.5920097,2.4012668 C26.0481774,1.8662444 25.167234,1.8662444 24.6236337,2.4012668 Z" id="Fill-1" fill="#929292"></path>
                    </g>
                </g>
            </g>
        </g>
    </g>
</svg>