<?xml version="1.0" encoding="UTF-8"?>
<svg width="13px" height="14px" viewBox="0 0 13 14" version="1.1" xmlns="http://www.w3.org/2000/svg" xmlns:xlink="http://www.w3.org/1999/xlink">
    <!-- Generator: Sketch 47 (45396) - http://www.bohemiancoding.com/sketch -->
    <title>In Icon</title>
    <desc>Created with Sketch.</desc>
    <defs></defs>
    <g id="Page-1" stroke="none" stroke-width="1" fill="none" fill-rule="evenodd">
        <g id="Mobile-Dr-Profile" transform="translate(-354.000000, -637.000000)" stroke-width="0.5" stroke="#FFFFFF">
            <g id="Group" transform="translate(354.000000, 623.000000)">
                <g id="In-Icon" transform="translate(1.000000, 15.000000)">
                    <g id="Group-3">
                        <path d="M0.857967914,0 C0.384532759,0 -3.23163928e-05,0.387333333 -3.23163928e-05,0.865333333 L-3.23163928e-05,11.134 C-3.23163928e-05,11.612 0.384532759,12 0.857967914,12 L10.7729604,12 C11.2473651,12 11.633546,11.612 11.633546,11.134 L11.633546,0.865333333 C11.633546,0.387333333 11.2473651,0 10.7729604,0 L0.857967914,0 Z" id="Fill-1"></path>
                    </g>
                    <path d="M2.78725156,1.65203333 C3.44916017,1.65203333 3.98667026,2.11436667 3.98667026,2.68403333 C3.98667026,3.25403333 3.44916017,3.71636667 2.78725156,3.71636667 C2.12263021,3.71636667 1.58667026,3.25403333 1.58667026,2.68403333 C1.58667026,2.11436667 2.12263021,1.65203333 2.78725156,1.65203333 L2.78725156,1.65203333 Z M1.75098481,10.2253667 L3.82235571,10.2253667 L3.82235571,4.4987 L1.75098481,4.4987 L1.75098481,10.2253667 Z" id="Fill-4"></path>
                    <path d="M4.53344054,4.4987 L6.18739353,4.4987 L6.18739353,5.2817 L6.2109845,5.2817 C6.44107721,4.83136667 7.00435194,4.3567 7.84360866,4.3567 C9.59063286,4.3567 9.91347363,5.54236667 9.91347363,7.0847 L9.91347363,10.2253667 L8.18842458,10.2253667 L8.18842458,7.44036667 C8.18842458,6.77636667 8.17711384,5.92203333 7.29164467,5.92203333 C6.39389528,5.92203333 6.25687377,6.6457 6.25687377,7.39303333 L6.25687377,10.2253667 L4.53344054,10.2253667 L4.53344054,4.4987 Z" id="Fill-6"></path>
                </g>
            </g>
        </g>
    </g>
</svg>