<?xml version="1.0" encoding="utf-8"?>
<!-- Generator: Adobe Illustrator 21.1.0, SVG Export Plug-In . SVG Version: 6.00 Build 0)  -->
<svg version="1.1" id="Layer_1" xmlns="http://www.w3.org/2000/svg" xmlns:xlink="http://www.w3.org/1999/xlink" x="0px" y="0px"
	 viewBox="0 0 12 12" style="enable-background:new 0 0 12 12;" xml:space="preserve">
<style type="text/css">
	.st0{fill:none;stroke:#959699;stroke-width:0.5;}
	.st1{fill:none;stroke:#979797;stroke-width:0.5;}
</style>
<g id="HOME-DOCTORES">
	<g id="_x34_.-PERFIL-DOCTOR-" transform="translate(-499.000000, -503.000000)">
		<g id="In-Icon" transform="translate(499.776978, 504.000000)">
			<g id="Group-3">
				<path id="Fill-1" class="st0" d="M0.7,0C0.3,0,0,0.3,0,0.7v8.6C0,9.7,0.3,10,0.7,10h8.6c0.4,0,0.7-0.3,0.7-0.7V0.7
					C10.1,0.3,9.7,0,9.3,0H0.7z"/>
			</g>
			<path id="Fill-4" class="st1" d="M2.2,1.4c0.5,0,0.9,0.4,0.9,0.9c0,0.5-0.4,0.9-0.9,0.9c-0.5,0-0.9-0.4-0.9-0.9
				C1.4,1.8,1.8,1.4,2.2,1.4L2.2,1.4z M1.5,8.5H3V3.7H1.5V8.5z"/>
			<path id="Fill-6" class="st1" d="M3.9,3.7h1.4v0.7h0C5.6,4,6.1,3.6,6.8,3.6c1.5,0,1.8,1,1.8,2.3v2.6H7.1V6.2c0-0.6,0-1.3-0.8-1.3
				c-0.8,0-0.9,0.6-0.9,1.2v2.4H3.9V3.7z"/>
		</g>
	</g>
</g>
</svg>
