<svg version="1.1" xmlns="http://www.w3.org/2000/svg" xmlns:xlink="http://www.w3.org/1999/xlink" x="0px" y="0px"
	 viewBox="0 0 1200 455.3" style="enable-background:new 0 0 1200 455.3;" xml:space="preserve">
<style type="text/css">
	.st0{fill:url(#SVGID_1_);}
	.st1{fill:url(#SVGID_2_);}
	.st2{opacity:0.7;}
	.st3{fill:#0F50A4;}
	.st4{fill:#FFFFFF;}
	.st5{fill:none;stroke:#0F50A4;stroke-width:1.0312;stroke-miterlimit:10;}
	.st6{fill:#FFFFF6;}
	.st7{fill:#8FD3F7;}
	.st8{fill:#53BBEC;}
	.st9{fill:#B0E2F6;}
	.st10{fill:url(#SVGID_3_);}
	.st11{fill:url(#SVGID_4_);}
	.st12{fill:url(#SVGID_5_);}
	.st13{fill:url(#SVGID_6_);}
	.st14{fill:url(#SVGID_7_);}
	.st15{fill:url(#SVGID_8_);}
	.st16{fill:#49BBE8;}
	.st17{fill:none;stroke:#0F50A4;stroke-width:0.6812;stroke-linecap:round;stroke-miterlimit:10;}
	.st18{fill:none;stroke:#0F50A4;stroke-width:1.1031;stroke-linecap:round;stroke-miterlimit:10;}
	.st19{fill:none;stroke:#0F50A4;stroke-width:0.9301;stroke-linecap:round;stroke-miterlimit:10;}
	.st20{fill:none;stroke:#0F50A4;stroke-width:0.7592;stroke-linecap:round;stroke-miterlimit:10;}
	.st21{fill:none;stroke:#BCBEC0;stroke-width:0.5316;stroke-miterlimit:10;}
	.st22{fill:none;stroke:#BCBEC0;stroke-width:0.5316;stroke-miterlimit:10;stroke-dasharray:1.3416,1.3416;}
	.st23{opacity:0.4;}
	.st24{fill:#DCF2F9;}
	.st25{fill:#1A77B5;}
	.st26{fill-rule:evenodd;clip-rule:evenodd;fill:#B9EDF9;}
	.st27{fill-rule:evenodd;clip-rule:evenodd;fill:#DCF2F9;}
	.st28{fill-rule:evenodd;clip-rule:evenodd;fill:#84D4F4;}
	.st29{fill-rule:evenodd;clip-rule:evenodd;fill:#269BD7;}
	.st30{fill-rule:evenodd;clip-rule:evenodd;fill:#BBD98A;}
	.st31{fill-rule:evenodd;clip-rule:evenodd;fill:#206BBC;}
	.st32{fill-rule:evenodd;clip-rule:evenodd;fill:#B0E2F6;}
	.st33{fill-rule:evenodd;clip-rule:evenodd;fill:#B1CF7F;}
	.st34{fill-rule:evenodd;clip-rule:evenodd;fill:#B1CF7F;stroke:#B1CF7F;stroke-width:6.028281e-02;stroke-miterlimit:22.9256;}
	.st35{fill-rule:evenodd;clip-rule:evenodd;fill:#CBE69C;}
	.st36{fill-rule:evenodd;clip-rule:evenodd;fill:#E1F5BC;}
	.st37{fill-rule:evenodd;clip-rule:evenodd;fill:#FFFFFF;}
	.st38{fill-rule:evenodd;clip-rule:evenodd;fill:#0F50A4;}
	.st39{fill-rule:evenodd;clip-rule:evenodd;fill:#7DE6DC;}
	.st40{fill-rule:evenodd;clip-rule:evenodd;fill:#6EE0FD;}
	.st41{fill-rule:evenodd;clip-rule:evenodd;fill:none;stroke:#ACDAEF;stroke-width:0.6698;stroke-miterlimit:22.9256;}
	.st42{fill-rule:evenodd;clip-rule:evenodd;fill:none;stroke:#31B7DB;stroke-width:0.6698;stroke-miterlimit:22.9256;}
	.st43{fill-rule:evenodd;clip-rule:evenodd;fill:none;stroke:#CBE69C;stroke-width:0.6698;stroke-miterlimit:22.9256;}
	.st44{fill-rule:evenodd;clip-rule:evenodd;fill:#8DBFD3;}
	.st45{fill:#1734AD;}
	.st46{fill:#269BD7;}
	.st47{fill:#52C3EF;}
	.st48{fill:#184896;}
	.st49{fill:#1447AD;}
	.st50{fill:#0D589B;}
	.st51{fill:#184A93;}
	.st52{fill-rule:evenodd;clip-rule:evenodd;fill:#1988BF;}
	.st53{fill-rule:evenodd;clip-rule:evenodd;fill:#2AA7D8;}
	.st54{fill-rule:evenodd;clip-rule:evenodd;fill:#2275B9;}
	.st55{fill-rule:evenodd;clip-rule:evenodd;fill:#8FD3F7;}
	.st56{fill-rule:evenodd;clip-rule:evenodd;fill:#53BBEC;}
	.st57{fill-rule:evenodd;clip-rule:evenodd;fill:#EDF4FF;}
	.st58{fill-rule:evenodd;clip-rule:evenodd;fill:#0D497A;}
	.st59{fill-rule:evenodd;clip-rule:evenodd;fill:#0E3F6B;}
	.st60{fill-rule:evenodd;clip-rule:evenodd;fill:#5C6C91;}
	.st61{fill-rule:evenodd;clip-rule:evenodd;fill:#13347D;}
	.st62{fill-rule:evenodd;clip-rule:evenodd;fill:#0A2766;}
	.st63{fill-rule:evenodd;clip-rule:evenodd;fill:#0A2766;stroke:#0A2766;stroke-width:0.1384;stroke-miterlimit:2.6131;}
	.st64{fill-rule:evenodd;clip-rule:evenodd;fill:#1A64A1;}
	.st65{fill-rule:evenodd;clip-rule:evenodd;fill:#1B69A8;}
	.st66{fill-rule:evenodd;clip-rule:evenodd;fill:#499BDE;}
	.st67{fill-rule:evenodd;clip-rule:evenodd;fill:#516287;}
	.st68{fill-rule:evenodd;clip-rule:evenodd;fill:#6F83AD;}
	.st69{fill-rule:evenodd;clip-rule:evenodd;fill:#2D3B57;}
	.st70{fill-rule:evenodd;clip-rule:evenodd;fill:#3E4D6E;}
	.st71{fill-rule:evenodd;clip-rule:evenodd;fill:#61ABE8;}
	.st72{fill-rule:evenodd;clip-rule:evenodd;fill:#77C0FC;}
	.st73{fill-rule:evenodd;clip-rule:evenodd;fill:#61DDFF;}
	.st74{fill:#96E8FF;}
	.st75{fill-rule:evenodd;clip-rule:evenodd;fill:#96E8FF;}
	.st76{fill-rule:evenodd;clip-rule:evenodd;fill:#E8F3FC;}
	.st77{fill-rule:evenodd;clip-rule:evenodd;fill:#3E96DE;}
	.st78{fill:none;stroke:#BCBEC0;stroke-width:0.5316;stroke-miterlimit:10;stroke-dasharray:1.3291;}
	.st79{fill:#E7F5F7;}
	.st80{fill:#7DE6DC;}
	.st81{fill:#EFEFEF;}
	.st82{fill:#B4E4EF;}
	.st83{fill:#E4EEF2;}
	.st84{fill:#0D4684;}
	.st85{fill:#83D3F2;}
	.st86{fill:#95D9EF;}
	.st87{fill:#CEE9F4;}
	.st88{fill:#BCCDDC;}
	.st89{fill:#122E47;}
	.st90{fill:#153559;}
	.st91{fill:#AAB7BF;}
	.st92{fill:#A8B6C1;}
	.st93{fill:#1261B5;}
	.st94{fill:#0E3F6B;}
	.st95{fill:#D1D3D4;}
	.st96{fill:#218BB5;}
	.st97{fill:#84D4F4;}
	.st98{display:none;opacity:0.47;}
	.st99{display:inline;fill:#FFFFFF;}
</style>
<g id="Background">

		<linearGradient id="SVGID_1_" gradientUnits="userSpaceOnUse" x1="640.25" y1="1729.6906" x2="640.25" y2="2155.8772" gradientTransform="matrix(-1 0 0 -1 1240 2155.8772)">
		<stop  offset="0" style="stop-color:#27AAE1"/>
		<stop  offset="1" style="stop-color:#8FD3F7"/>
	</linearGradient>
	<polygon class="st0" points="0,0 1199.5,0 1199.5,426.2 0,426.2 	"/>

		<linearGradient id="SVGID_2_" gradientUnits="userSpaceOnUse" x1="640" y1="1729.6906" x2="640" y2="2155.8772" gradientTransform="matrix(-1 0 0 -1 1240 2155.8772)">
		<stop  offset="0" style="stop-color:#27AAE1"/>
		<stop  offset="1" style="stop-color:#8FD3F7"/>
	</linearGradient>
	<polygon class="st1" points="0.2,0 1199.8,0 1199.8,426.2 0.2,426.2 	"/>
	<g class="st2">
		<g>
			<g>
				<path class="st3" d="M507.5,36.3c0.4,0,0.8,0,1.2,0c1.2,0,2,0.8,2,2c0,1.5,0,3.1,0,4.6c0,0.2,0.1,0.4,0.2,0.5
					c3.1,2.5,4.5,5.7,4.2,9.6c-0.4,5-4.3,8.9-9.3,9.6c-5.8,0.8-11.3-3.3-12.1-9.1c-0.6-4.1,0.9-7.5,4.1-10.1
					c0.2-0.2,0.3-0.3,0.3-0.6c0-1.5,0-3,0-4.6c0-1.2,0.8-2,2-2c0.4,0,0.8,0,1.3,0c0-0.8,0.3-1.5,0.9-2c0.6-0.5,1.4-0.8,2.2-0.8
					C506.1,33.5,507.3,34.5,507.5,36.3z M507.9,42.8c0.4,0.9,0.9,1.7,1.3,2.6c0.4,0.8,0.9,1.6,1.2,2.5c0.5,1.1,0.8,2.3,0.8,3.5
					c-0.1,1.7-1.1,2.7-2.7,2.9c-0.1,0-0.3,0.1-0.4,0.2c-0.5,0.7-1.2,1.2-2.1,1.5c-1.1,0.3-2.1,0.3-3.2,0c-0.7-0.2-1.4-0.6-1.9-1.2
					c-0.2-0.2-0.3-0.3-0.6-0.3c-1.3-0.1-2.3-1-2.6-2.3c-0.1-0.6-0.1-1.1-0.1-1.7c0.2-1.8,1-3.3,2.1-4.7c0.5-0.6,1-1.4,1.2-2.2
					c0.1-0.2,0.1-0.5,0.1-0.8c-0.6,0-1.1,0-1.6,0c-0.1,0-0.2,0.2-0.2,0.2c0,0.5-0.2,0.8-0.6,1.1c-3.2,2.5-4.5,5.8-3.6,9.8
					c1.3,6,8.2,9.6,14,6.2c3.3-1.9,5.6-5.8,4.7-10.1c-0.5-2.5-1.8-4.5-3.8-6c-0.3-0.3-0.5-0.6-0.5-1c0-0.1,0-0.2,0-0.3
					C509,42.8,508.5,42.8,507.9,42.8z M509,52.9c0.4-0.1,0.7-0.4,0.8-0.9c0.1-0.4,0.1-0.9,0-1.3c-0.2-1.4-0.8-2.7-1.5-4
					c-0.5-1-1-1.9-1.5-2.9c-0.1-0.3-0.2-0.7-0.4-0.8c-0.2-0.1-0.6,0-0.9,0c-1,0-1.9,0-2.9,0c-0.1,1.6-0.8,2.9-1.8,4
					c-0.5,0.6-0.8,1.3-1.1,1.9c-0.4,0.9-0.6,1.8-0.5,2.8c0.1,0.6,0.3,1.1,0.9,1.3c0-0.1,0-0.2,0-0.2c-0.1-0.7-0.1-1.4,0.3-2.1
					c0.4-0.7,1.1-1.1,1.9-0.9c1.3,0.2,2.1,1.5,1.8,2.9c-0.2,0.8-0.7,1.4-1.5,1.7c0.9,0.8,3.3,0.7,4-0.1c-0.1,0-0.2-0.1-0.3-0.1
					c-1.3-0.7-1.7-2.4-0.8-3.7c0.4-0.5,0.9-0.8,1.6-0.8c0.9,0.1,1.4,0.7,1.6,1.4C508.9,51.6,508.9,52.3,509,52.9z M509.5,40.2
					c-0.1,0-0.3,0-0.4,0c-3.1,0-6.3,0-9.4,0c-0.1,0-0.2,0-0.2,0c-0.1,0-0.1,0.1-0.1,0.1c0,0.4,0,0.9,0,1.3c3.4,0,6.8,0,10.2,0
					C509.5,41.2,509.5,40.8,509.5,40.2z M509.5,38.8c0.1-1,0-1.4-1.1-1.4c-2,0-4.1,0-6.1,0c-0.7,0-1.4,0-2.2,0
					c-0.4,0-0.7,0.2-0.7,0.5c0,0.3,0,0.5,0,0.8C502.8,38.8,506.2,38.8,509.5,38.8z M502.6,36.1c1.2,0,2.5,0,3.7,0
					c-0.1-0.9-1-1.5-2-1.5C503.4,34.7,502.6,35.4,502.6,36.1z M501.6,53.1c0.2-0.1,0.4-0.1,0.6-0.2c0.5-0.3,0.7-1.1,0.3-1.6
					c-0.1-0.1-0.4-0.2-0.6-0.2c-0.1,0-0.3,0.2-0.4,0.4C501.3,52,501.4,52.5,501.6,53.1z M507.4,52.9c0.2-0.5,0.1-1.3-0.1-1.7
					c-0.2-0.3-0.4-0.3-0.6,0C506.1,51.9,506.4,52.7,507.4,52.9z"/>
				<path class="st4" d="M521.9,57c0,0-0.2,0-0.3-0.1c-1.3-0.5-2.7-1-4-1.5c-0.4-0.2-0.6-0.4-0.6-0.8c0-0.3,0.3-0.6,0.6-0.7
					c0.2,0,0.4,0,0.5,0.1c1.3,0.5,2.7,1.1,4,1.6c0.4,0.2,0.6,0.5,0.5,0.9C522.6,56.7,522.3,57,521.9,57z"/>
				<path class="st4" d="M491.2,53.6c0.4,0,0.7,0.2,0.8,0.5c0.1,0.3,0,0.6-0.3,0.8c-0.1,0-0.1,0.1-0.2,0.1c-1.3,0.6-2.5,1.2-3.8,1.9
					c-0.5,0.2-0.9,0.1-1.1-0.4c-0.2-0.4,0-0.7,0.3-0.9c1.3-0.7,2.7-1.3,4-2C491,53.6,491.1,53.6,491.2,53.6z"/>
				<path class="st4" d="M515.3,65.9c-0.2-0.1-0.4-0.2-0.6-0.4c-0.8-1-1.6-2.1-2.4-3.1c-0.3-0.3-0.2-0.8,0.2-1.1
					c0.3-0.2,0.8-0.2,1,0.1c0.8,1.1,1.6,2.1,2.5,3.2c0.2,0.3,0.2,0.5,0.1,0.8C515.9,65.7,515.7,65.9,515.3,65.9z"/>
				<path class="st4" d="M503.8,67.4c0-0.6,0-1.3,0-1.9c0-0.6,0.5-1,1.1-0.8c0.3,0.1,0.5,0.3,0.5,0.6c0,1.3,0.1,2.6,0.1,3.9
					c0,0.5-0.3,0.8-0.7,0.8c-0.5,0-0.8-0.3-0.8-0.8C503.8,68.6,503.8,68,503.8,67.4C503.8,67.4,503.8,67.4,503.8,67.4z"/>
				<path class="st4" d="M495.4,61.5c0.4,0,0.7,0.2,0.8,0.4c0.1,0.3,0.1,0.6-0.1,0.8c-0.8,1-1.7,1.9-2.5,2.9
					c-0.3,0.3-0.8,0.3-1.1,0.1c-0.3-0.3-0.3-0.7,0-1.1c0.8-0.9,1.6-1.9,2.4-2.8C495,61.6,495.2,61.6,495.4,61.5z"/>
				<path class="st4" d="M507.9,42.8c0.6,0,1.1,0,1.6,0c0,0.1,0,0.2,0,0.3c0,0.4,0.2,0.7,0.5,1c2,1.5,3.3,3.5,3.8,6
					c0.8,4.3-1.4,8.2-4.7,10.1c-5.8,3.4-12.7-0.2-14-6.2c-0.8-4,0.5-7.2,3.6-9.8c0.4-0.3,0.6-0.6,0.6-1.1c0-0.1,0.1-0.2,0.2-0.2
					c0.5,0,1,0,1.6,0c0,0.3-0.1,0.5-0.1,0.8c-0.2,0.8-0.6,1.5-1.2,2.2c-1.1,1.4-2,2.9-2.1,4.7c-0.1,0.6,0,1.2,0.1,1.7
					c0.3,1.3,1.3,2.2,2.6,2.3c0.2,0,0.4,0.1,0.6,0.3c0.5,0.6,1.1,1,1.9,1.2c1.1,0.3,2.1,0.3,3.2,0c0.9-0.2,1.5-0.7,2.1-1.5
					c0.1-0.1,0.2-0.2,0.4-0.2c1.7-0.2,2.7-1.2,2.7-2.9c0-1.2-0.3-2.4-0.8-3.5c-0.4-0.9-0.8-1.7-1.2-2.5
					C508.8,44.5,508.4,43.7,507.9,42.8z"/>
				<path class="st4" d="M509,52.9c-0.1-0.6-0.1-1.3-0.3-1.8c-0.2-0.8-0.8-1.3-1.6-1.4c-0.7-0.1-1.2,0.2-1.6,0.8
					c-0.9,1.2-0.5,2.9,0.8,3.7c0.1,0,0.2,0.1,0.3,0.1c-0.7,0.9-3.1,0.9-4,0.1c0.8-0.4,1.3-0.9,1.5-1.7c0.3-1.3-0.5-2.7-1.8-2.9
					c-0.8-0.1-1.5,0.2-1.9,0.9c-0.4,0.7-0.4,1.4-0.3,2.1c0,0.1,0,0.1,0,0.2c-0.6-0.3-0.8-0.8-0.9-1.3c-0.1-1,0.1-1.9,0.5-2.8
					c0.3-0.7,0.7-1.4,1.1-1.9c1-1.2,1.7-2.5,1.8-4c1,0,1.9,0,2.9,0c0.3,0,0.7-0.1,0.9,0c0.2,0.1,0.3,0.6,0.4,0.8
					c0.5,1,1,1.9,1.5,2.9c0.7,1.3,1.3,2.6,1.5,4c0.1,0.4,0,0.9,0,1.3C509.7,52.4,509.4,52.8,509,52.9z"/>
				<path class="st3" d="M502.7,36.1c0-0.7,0.8-1.4,1.7-1.5c1-0.1,1.9,0.6,2,1.5C505.1,36.1,503.9,36.1,502.7,36.1z"/>
				<path class="st4" d="M501.6,53.1c-0.2-0.6-0.3-1.1-0.1-1.6c0.1-0.2,0.2-0.4,0.4-0.4c0.2,0,0.5,0.1,0.6,0.2
					c0.4,0.4,0.3,1.2-0.3,1.6C502,53,501.8,53,501.6,53.1z"/>
				<path class="st4" d="M507.4,52.9c-0.9-0.2-1.3-1-0.8-1.7c0.2-0.3,0.4-0.3,0.6,0C507.5,51.6,507.6,52.4,507.4,52.9z"/>
			</g>
			<line class="st5" x1="504.4" y1="-0.1" x2="504.4" y2="21.6"/>
			<rect x="503.3" y="20" class="st3" width="2.2" height="15.6"/>
		</g>
		<g>
			<g>
				<path class="st3" d="M698.3,39.2c0.4,0,0.8,0,1.2,0c1.2,0,2,0.8,2,2c0,1.5,0,3.1,0,4.6c0,0.2,0.1,0.4,0.2,0.5
					c3.1,2.5,4.5,5.7,4.2,9.6c-0.4,5-4.3,8.9-9.3,9.6c-5.8,0.8-11.3-3.3-12.1-9.1c-0.6-4.1,0.9-7.5,4.1-10.1
					c0.2-0.2,0.3-0.3,0.3-0.6c0-1.5,0-3,0-4.6c0-1.2,0.8-2,2-2c0.4,0,0.8,0,1.3,0c0-0.8,0.3-1.5,0.9-2c0.6-0.5,1.4-0.8,2.2-0.8
					C696.9,36.4,698.1,37.5,698.3,39.2z M698.7,45.8c0.4,0.9,0.9,1.7,1.3,2.6c0.4,0.8,0.9,1.6,1.2,2.5c0.5,1.1,0.8,2.3,0.8,3.5
					c-0.1,1.7-1.1,2.7-2.7,2.9c-0.1,0-0.3,0.1-0.4,0.2c-0.5,0.7-1.2,1.2-2.1,1.5c-1.1,0.3-2.1,0.3-3.2,0c-0.7-0.2-1.4-0.6-1.9-1.2
					c-0.2-0.2-0.3-0.3-0.6-0.3c-1.3-0.1-2.3-1-2.6-2.3c-0.1-0.6-0.1-1.1-0.1-1.7c0.2-1.8,1-3.3,2.1-4.7c0.5-0.6,1-1.4,1.2-2.2
					c0.1-0.2,0.1-0.5,0.1-0.8c-0.6,0-1.1,0-1.6,0c-0.1,0-0.2,0.2-0.2,0.2c0,0.5-0.2,0.8-0.6,1.1c-3.2,2.5-4.5,5.8-3.6,9.8
					c1.3,6,8.2,9.6,14,6.2c3.3-1.9,5.6-5.8,4.7-10.1c-0.5-2.5-1.8-4.5-3.8-6c-0.3-0.3-0.5-0.6-0.5-1c0-0.1,0-0.2,0-0.3
					C699.8,45.8,699.3,45.8,698.7,45.8z M699.8,55.9c0.4-0.1,0.7-0.4,0.8-0.9c0.1-0.4,0.1-0.9,0-1.3c-0.2-1.4-0.8-2.7-1.5-4
					c-0.5-1-1-1.9-1.5-2.9c-0.1-0.3-0.2-0.7-0.4-0.8c-0.2-0.1-0.6,0-0.9,0c-1,0-1.9,0-2.9,0c-0.1,1.6-0.8,2.9-1.8,4
					c-0.5,0.6-0.8,1.3-1.1,1.9c-0.4,0.9-0.6,1.8-0.5,2.8c0.1,0.6,0.3,1.1,0.9,1.3c0-0.1,0-0.2,0-0.2c-0.1-0.7-0.1-1.4,0.3-2.1
					c0.4-0.7,1.1-1.1,1.9-0.9c1.3,0.2,2.1,1.5,1.8,2.9c-0.2,0.8-0.7,1.4-1.5,1.7c0.9,0.8,3.3,0.7,4-0.1c-0.1,0-0.2-0.1-0.3-0.1
					c-1.3-0.7-1.7-2.4-0.8-3.7c0.4-0.5,0.9-0.8,1.6-0.8c0.9,0.1,1.4,0.7,1.6,1.4C699.7,54.6,699.7,55.3,699.8,55.9z M700.3,43.2
					c-0.1,0-0.3,0-0.4,0c-3.1,0-6.3,0-9.4,0c-0.1,0-0.2,0-0.2,0c-0.1,0-0.1,0.1-0.1,0.1c0,0.4,0,0.9,0,1.3c3.4,0,6.8,0,10.2,0
					C700.3,44.2,700.3,43.7,700.3,43.2z M700.3,41.8c0.1-1,0-1.4-1.1-1.4c-2,0-4.1,0-6.1,0c-0.7,0-1.4,0-2.2,0
					c-0.4,0-0.7,0.2-0.7,0.5c0,0.3,0,0.5,0,0.8C693.6,41.8,696.9,41.8,700.3,41.8z M692.4,56.1c0.2-0.1,0.4-0.1,0.6-0.2
					c0.5-0.3,0.7-1.1,0.3-1.6c-0.1-0.1-0.4-0.2-0.6-0.2c-0.1,0-0.3,0.2-0.4,0.4C692.1,55,692.1,55.5,692.4,56.1z M698.2,55.9
					c0.2-0.5,0.1-1.3-0.1-1.7c-0.2-0.3-0.4-0.3-0.6,0C696.9,54.9,697.2,55.7,698.2,55.9z"/>
				<path class="st4" d="M712.6,60c0,0-0.2,0-0.3-0.1c-1.3-0.5-2.7-1-4-1.5c-0.4-0.2-0.6-0.4-0.6-0.8c0-0.3,0.3-0.6,0.6-0.7
					c0.2,0,0.4,0,0.5,0.1c1.3,0.5,2.7,1.1,4,1.6c0.4,0.2,0.6,0.5,0.5,0.9C713.4,59.7,713,60,712.6,60z"/>
				<path class="st4" d="M681.9,56.6c0.4,0,0.7,0.2,0.8,0.5c0.1,0.3,0,0.6-0.3,0.8c-0.1,0-0.1,0.1-0.2,0.1c-1.3,0.6-2.5,1.2-3.8,1.9
					c-0.5,0.2-0.9,0.1-1.1-0.4c-0.2-0.4,0-0.7,0.3-0.9c1.3-0.7,2.7-1.3,4-2C681.7,56.6,681.8,56.6,681.9,56.6z"/>
				<path class="st4" d="M706,68.9c-0.2-0.1-0.4-0.2-0.6-0.4c-0.8-1-1.6-2.1-2.4-3.1c-0.3-0.3-0.2-0.8,0.2-1.1
					c0.3-0.2,0.8-0.2,1,0.1c0.8,1.1,1.6,2.1,2.5,3.2c0.2,0.3,0.2,0.5,0.1,0.8C706.6,68.7,706.4,68.8,706,68.9z"/>
				<path class="st4" d="M694.5,70.4c0-0.6,0-1.3,0-1.9c0-0.6,0.5-1,1.1-0.8c0.3,0.1,0.5,0.3,0.5,0.6c0,1.3,0.1,2.6,0.1,3.9
					c0,0.5-0.3,0.8-0.7,0.8c-0.5,0-0.8-0.3-0.8-0.8C694.5,71.6,694.6,71,694.5,70.4C694.5,70.4,694.5,70.4,694.5,70.4z"/>
				<path class="st4" d="M686.1,64.5c0.4,0,0.7,0.2,0.8,0.4c0.1,0.3,0.1,0.6-0.1,0.8c-0.8,1-1.7,1.9-2.5,2.9
					c-0.3,0.3-0.8,0.3-1.1,0.1c-0.3-0.3-0.3-0.7,0-1.1c0.8-0.9,1.6-1.9,2.4-2.8C685.7,64.6,685.9,64.6,686.1,64.5z"/>
				<path class="st4" d="M698.6,45.8c0.6,0,1.1,0,1.6,0c0,0.1,0,0.2,0,0.3c0,0.4,0.2,0.7,0.5,1c2,1.5,3.3,3.5,3.8,6
					c0.8,4.3-1.4,8.2-4.7,10.1c-5.8,3.4-12.7-0.2-14-6.2c-0.8-4,0.5-7.2,3.6-9.8c0.4-0.3,0.6-0.6,0.6-1.1c0-0.1,0.1-0.2,0.2-0.2
					c0.5,0,1,0,1.6,0c0,0.3-0.1,0.5-0.1,0.8c-0.2,0.8-0.6,1.5-1.2,2.2c-1.1,1.4-2,2.9-2.1,4.7c-0.1,0.6,0,1.2,0.1,1.7
					c0.3,1.3,1.3,2.2,2.6,2.3c0.2,0,0.4,0.1,0.6,0.3c0.5,0.6,1.1,1,1.9,1.2c1.1,0.3,2.1,0.3,3.2,0c0.9-0.2,1.5-0.7,2.1-1.5
					c0.1-0.1,0.2-0.2,0.4-0.2c1.7-0.2,2.7-1.2,2.7-2.9c0-1.2-0.3-2.4-0.8-3.5c-0.4-0.9-0.8-1.7-1.2-2.5
					C699.5,47.5,699.1,46.7,698.6,45.8z"/>
				<path class="st4" d="M699.7,55.9c-0.1-0.6-0.1-1.3-0.3-1.8c-0.2-0.8-0.8-1.3-1.6-1.4c-0.7-0.1-1.2,0.2-1.6,0.8
					c-0.9,1.2-0.5,2.9,0.8,3.7c0.1,0,0.2,0.1,0.3,0.1c-0.7,0.9-3.1,0.9-4,0.1c0.8-0.4,1.3-0.9,1.5-1.7c0.3-1.3-0.5-2.7-1.8-2.9
					c-0.8-0.1-1.5,0.2-1.9,0.9c-0.4,0.7-0.4,1.4-0.3,2.1c0,0.1,0,0.1,0,0.2c-0.6-0.3-0.8-0.8-0.9-1.3c-0.1-1,0.1-1.9,0.5-2.8
					c0.3-0.7,0.7-1.4,1.1-1.9c1-1.2,1.7-2.5,1.8-4c1,0,1.9,0,2.9,0c0.3,0,0.7-0.1,0.9,0c0.2,0.1,0.3,0.6,0.4,0.8
					c0.5,1,1,1.9,1.5,2.9c0.7,1.3,1.3,2.6,1.5,4c0.1,0.4,0,0.9,0,1.3C700.4,55.4,700.1,55.7,699.7,55.9z"/>
				<path class="st4" d="M692.3,56.1c-0.2-0.6-0.3-1.1-0.1-1.6c0.1-0.2,0.2-0.4,0.4-0.4c0.2,0,0.5,0.1,0.6,0.2
					c0.4,0.4,0.3,1.2-0.3,1.6C692.8,55.9,692.6,56,692.3,56.1z"/>
				<path class="st4" d="M698.1,55.9c-0.9-0.2-1.3-1-0.8-1.7c0.2-0.3,0.4-0.3,0.6,0C698.3,54.6,698.3,55.4,698.1,55.9z"/>
			</g>
			<line class="st5" x1="695.2" y1="-0.1" x2="695.2" y2="24.4"/>
			<rect x="694.1" y="22.2" class="st3" width="2.2" height="15.6"/>
		</g>
		<g>
			<line class="st5" x1="597.7" y1="-1.4" x2="597.7" y2="34.7"/>
			<g>
				<circle class="st6" cx="598.5" cy="50.4" r="24.3"/>
				<path class="st7" d="M598.5,24.8c-14.1,0-25.6,11.5-25.6,25.6c0,14.1,11.5,25.6,25.6,25.6V24.8z"/>
				<ellipse class="st8" cx="599.3" cy="50.4" rx="19.8" ry="25.6"/>
				<g>
					<g>
						<path class="st9" d="M594.4,63.4c-0.4,0-0.8-0.4-0.8-0.8v-7.3h-7.3c-0.4,0-0.8-0.4-0.8-0.8v-8.2c0-0.4,0.4-0.8,0.8-0.8h7.3
							v-7.3c0-0.4,0.4-0.8,0.8-0.8h8.2c0.4,0,0.8,0.4,0.8,0.8v7.3h7.3c0.4,0,0.8,0.4,0.8,0.8v8.2c0,0.4-0.4,0.8-0.8,0.8h-7.3v7.3
							c0,0.4-0.4,0.8-0.8,0.8H594.4z"/>
					</g>
				</g>
				<g>
					<path class="st3" d="M598.5,24.8c-14.1,0-25.6,11.5-25.6,25.6c0,14.1,11.5,25.6,25.6,25.6c14.1,0,25.6-11.5,25.6-25.6
						C624.1,36.2,612.7,24.8,598.5,24.8z M598.5,73.3c-12.6,0-22.9-10.3-22.9-22.9c0-12.6,10.3-22.9,22.9-22.9
						c12.6,0,22.9,10.3,22.9,22.9C621.5,63,611.2,73.3,598.5,73.3z"/>
					<path class="st3" d="M610.7,44.7h-6.5v-6.5c0-0.9-0.7-1.6-1.6-1.6h-8.2c-0.9,0-1.6,0.7-1.6,1.6v6.5h-6.5
						c-0.9,0-1.6,0.7-1.6,1.6v8.2c0,0.9,0.7,1.6,1.6,1.6h6.5v6.5c0,0.9,0.7,1.6,1.6,1.6h8.2c0.9,0,1.6-0.7,1.6-1.6v-6.5h6.5
						c0.9,0,1.6-0.7,1.6-1.6v-8.2C612.3,45.4,611.6,44.7,610.7,44.7z M610.7,54.5h-8.1v8.1h-8.2v-8.1h-8.1v-8.2h8.1v-8.1h8.2v8.1
						h8.1V54.5z"/>
				</g>
			</g>
		</g>
	</g>
	<g>
		<linearGradient id="SVGID_3_" gradientUnits="userSpaceOnUse" x1="169.9703" y1="254.769" x2="169.9703" y2="544.0637">
			<stop  offset="0" style="stop-color:#0097D9"/>
			<stop  offset="1" style="stop-color:#8FD3F7"/>
		</linearGradient>
		<path class="st10" d="M339.9,268.8C167.3,240.9,0,263.2,0,263.2V455h90.8C140.4,395.8,222.2,318.7,339.9,268.8z"/>

			<linearGradient id="SVGID_4_" gradientUnits="userSpaceOnUse" x1="377.2294" y1="245.9159" x2="377.2294" y2="552.886" gradientTransform="matrix(-1 0 0 1 1418.2888 0)">
			<stop  offset="0" style="stop-color:#0097D9"/>
			<stop  offset="1" style="stop-color:#8FD3F7"/>
		</linearGradient>
		<path class="st11" d="M1165.4,455h34.6V248.1c0,0-154.5-11.9-317.9,20.3C979.1,302.7,1079.7,360.2,1165.4,455z"/>
		<g>
			<linearGradient id="SVGID_5_" gradientUnits="userSpaceOnUse" x1="628.0759" y1="220.1346" x2="628.0759" y2="455">
				<stop  offset="0" style="stop-color:#27AAE1"/>
				<stop  offset="0.1548" style="stop-color:#3BB2E5"/>
				<stop  offset="0.5353" style="stop-color:#69C4EF"/>
				<stop  offset="0.8296" style="stop-color:#85CFF5"/>
				<stop  offset="1" style="stop-color:#8FD3F7"/>
			</linearGradient>
			<path class="st12" d="M882.1,268.3c-205.6-72.8-395.6-41.6-395.6-41.6c-54,8.7-102.8,23.5-146.6,42.1
				C222.2,318.7,140.4,395.8,90.8,455H550h123.7h491.6C1079.7,360.2,979.1,302.7,882.1,268.3z"/>
			<linearGradient id="SVGID_6_" gradientUnits="userSpaceOnUse" x1="628.0759" y1="220.1346" x2="628.0759" y2="455">
				<stop  offset="0" style="stop-color:#27AAE1"/>
				<stop  offset="0.1548" style="stop-color:#3BB2E5"/>
				<stop  offset="0.5353" style="stop-color:#69C4EF"/>
				<stop  offset="0.8296" style="stop-color:#85CFF5"/>
				<stop  offset="1" style="stop-color:#8FD3F7"/>
			</linearGradient>
			<path class="st13" d="M882.1,268.3c-205.6-72.8-395.6-41.6-395.6-41.6c-54,8.7-102.8,23.5-146.6,42.1
				C222.2,318.7,140.4,395.8,90.8,455H550h123.7h491.6C1079.7,360.2,979.1,302.7,882.1,268.3z"/>
			<linearGradient id="SVGID_7_" gradientUnits="userSpaceOnUse" x1="628.0759" y1="220.1346" x2="628.0759" y2="455">
				<stop  offset="0" style="stop-color:#27AAE1"/>
				<stop  offset="0.1548" style="stop-color:#3BB2E5"/>
				<stop  offset="0.5353" style="stop-color:#69C4EF"/>
				<stop  offset="0.8296" style="stop-color:#85CFF5"/>
				<stop  offset="1" style="stop-color:#8FD3F7"/>
			</linearGradient>
			<path class="st14" d="M882.1,268.3c-205.6-72.8-395.6-41.6-395.6-41.6c-54,8.7-102.8,23.5-146.6,42.1
				C222.2,318.7,140.4,395.8,90.8,455H550h123.7h491.6C1079.7,360.2,979.1,302.7,882.1,268.3z"/>
			<linearGradient id="SVGID_8_" gradientUnits="userSpaceOnUse" x1="628.0759" y1="220.1346" x2="628.0759" y2="455">
				<stop  offset="0" style="stop-color:#27AAE1"/>
				<stop  offset="0.1548" style="stop-color:#3BB2E5"/>
				<stop  offset="0.5353" style="stop-color:#69C4EF"/>
				<stop  offset="0.8296" style="stop-color:#85CFF5"/>
				<stop  offset="1" style="stop-color:#8FD3F7"/>
			</linearGradient>
			<path class="st15" d="M882.1,268.3c-205.6-72.8-395.6-41.6-395.6-41.6c-54,8.7-102.8,23.5-146.6,42.1
				C222.2,318.7,140.4,395.8,90.8,455H550h123.7h491.6C1079.7,360.2,979.1,302.7,882.1,268.3z"/>
		</g>
	</g>
</g>
<g id="Layer_2">
	<g>
		<g>
			<path class="st7" d="M85.6,270c0,7.8-6.3,14.1-14.1,14.1v-28.3C79.2,255.9,85.6,262.2,85.6,270z"/>
			<path class="st16" d="M71.4,255.9v28.3c-7.8,0-14.1-6.3-14.1-14.1S63.6,255.9,71.4,255.9z"/>
			<g>
				<g>
					<line class="st17" x1="71.6" y1="277" x2="71.6" y2="294.3"/>
					<line class="st17" x1="71.6" y1="284.1" x2="67.7" y2="280.6"/>
					<line class="st17" x1="71.6" y1="281" x2="75.2" y2="278.8"/>
				</g>
			</g>
		</g>
		<g>
			<path class="st7" d="M156.3,226.3c0,13.3-6.7,24.2-14.9,24.2v-48.3C149.6,202.2,156.3,213,156.3,226.3z"/>
			<g>
				<path class="st16" d="M141.4,202.2v48.3c-8.2,0-14.9-10.8-14.9-24.2S133.2,202.2,141.4,202.2z"/>
				<g>
					<g>
						<line class="st18" x1="141.7" y1="238.8" x2="141.7" y2="266.9"/>
						<line class="st18" x1="141.7" y1="250.3" x2="135.4" y2="244.7"/>
						<line class="st18" x1="141.7" y1="245.3" x2="147.5" y2="241.7"/>
					</g>
				</g>
			</g>
		</g>
		<g>
			<path class="st7" d="M64,233.8c0,10.7-8.6,19.3-19.3,19.3v-38.6C55.4,214.5,64,223.2,64,233.8z"/>
			<path class="st16" d="M44.7,214.5v38.6c-10.7,0-19.3-8.6-19.3-19.3C25.4,223.2,34.1,214.5,44.7,214.5z"/>
			<g>
				<g>
					<line class="st19" x1="45" y1="243.4" x2="45" y2="267"/>
					<line class="st19" x1="45" y1="253" x2="39.6" y2="248.4"/>
					<line class="st19" x1="45" y1="248.9" x2="49.8" y2="245.8"/>
				</g>
			</g>
		</g>
		<g>
			<path class="st7" d="M112.1,235c0,8.7-7,15.7-15.7,15.7v-31.5C105.1,219.2,112.1,226.3,112.1,235z"/>
			<path class="st16" d="M96.4,219.2v31.5c-8.7,0-15.7-7-15.7-15.7C80.6,226.3,87.7,219.2,96.4,219.2z"/>
			<g>
				<g>
					<line class="st20" x1="96.6" y1="242.7" x2="96.6" y2="262.1"/>
					<line class="st20" x1="96.6" y1="250.6" x2="92.2" y2="246.8"/>
					<line class="st20" x1="96.6" y1="247.2" x2="100.5" y2="244.7"/>
				</g>
			</g>
		</g>
	</g>
	<g>
		<g>
			<path class="st21" d="M203.1,352c0,0,0.2,0.2,0.4,0.5"/>
			<path class="st22" d="M204.5,353.5c4.3,4.2,17.6,15.2,25.8-0.5c0,0,1.3-7,7.9-5"/>
			<path class="st21" d="M238.9,348.1c0.2,0.1,0.4,0.2,0.6,0.2"/>
		</g>
	</g>
	<g class="st23">
		<g>
			<g>
				<path class="st4" d="M97.4,423.2c-0.6,0-1.1-0.5-1.1-1.1V311.1c0-17.7,13.7-32.1,30.5-32.1s30.5,14.4,30.5,32.1
					c0,0.6-0.5,1.1-1.1,1.1s-1.1-0.5-1.1-1.1c0-16.5-12.7-30-28.4-30s-28.4,13.4-28.4,30v111.1C98.5,422.7,98,423.2,97.4,423.2z"/>
			</g>
			<g>
				<path class="st4" d="M171.5,311.4c0,0.7-0.5,1.2-1.2,1.2H142c-0.6,0-1.2-0.6-1.2-1.2v0c0-0.7,0.5-1.2,1.2-1.2h28.4
					C171,310.2,171.5,310.7,171.5,311.4L171.5,311.4z"/>
			</g>
			<g>
				<ellipse class="st24" cx="156.3" cy="322.4" rx="3.5" ry="3.7"/>
			</g>
			<g>
				<rect x="142" y="312.7" class="st25" width="28.7" height="11.1"/>
			</g>
			<g>
				<rect x="144.3" y="312.7" class="st25" width="24" height="11.1"/>
			</g>
			<g>
				<rect x="147.4" y="312.7" class="st25" width="17.9" height="11.1"/>
			</g>
		</g>
		<g>
			<rect x="52.4" y="331.2" class="st26" width="36.4" height="91.2"/>
			<rect x="56.2" y="335.2" class="st27" width="28.8" height="57.1"/>
			<rect x="56.2" y="390.8" class="st27" width="28.8" height="11"/>
			<rect x="56.2" y="401.8" class="st27" width="28.8" height="11"/>
			<path class="st28" d="M70.6,394.9c2.6,0,4.7,1.3,4.7,2.8h-9.4C65.9,396.1,68,394.9,70.6,394.9z"/>
			<path class="st28" d="M70.6,405.9c2.6,0,4.7,1.3,4.7,2.8h-9.4C65.9,407.1,68,405.9,70.6,405.9z"/>
			<g>
				<path class="st29" d="M68.2,315.2c0.1-0.9-0.4-2.5-3.7-2.7C65.8,315.6,67.4,315.5,68.2,315.2z"/>
				<path class="st29" d="M70.3,316c0.8-0.4,1.9-1.7,0.2-4.6C68.6,314.1,69.6,315.5,70.3,316z"/>
				<path class="st30" d="M69.6,317.8c-0.2-0.8-1.2-2.2-4.4-1.3C67.4,319,68.9,318.4,69.6,317.8z"/>
				<path class="st31" d="M72.4,319.1c0.9-0.1,2.4-0.8,2.1-4.2C71.6,316.7,71.9,318.3,72.4,319.1z"/>
				<path class="st32" d="M71.7,320.9c-0.2-0.9-1.1-2.3-4.4-1.6C69.4,322,71,321.5,71.7,320.9z"/>
				<path class="st30" d="M72.7,324.8c0.1-0.9-0.4-2.5-3.8-2.7C70.3,325.3,71.9,325.2,72.7,324.8z"/>
				<path class="st33" d="M74.6,326.8c0.9,0.1,2.5-0.2,3-3.5C74.4,324.3,74.3,325.9,74.6,326.8z"/>
				<path class="st34" d="M73,328.4c0.1-0.9-0.3-2.5-3.6-2.9C70.5,328.6,72.2,328.7,73,328.4z"/>
				<path class="st30" d="M73.7,330.7c0.8,0.3,2.5,0.3,3.6-2.9C74,328.2,73.6,329.9,73.7,330.7z"/>
			</g>
			<g>
				<path class="st32" d="M73.2,316.7c0.3-0.6,0.6-1.8-1.6-3.1C71.4,316.1,72.5,316.7,73.2,316.7z"/>
				<path class="st32" d="M74.3,317.9c0.7,0,1.8-0.5,1.7-3C73.8,316.1,73.9,317.4,74.3,317.9z"/>
				<path class="st32" d="M73.2,318.9c0.1-0.6-0.1-1.9-2.5-2.4C71.3,319,72.5,319.1,73.2,318.9z"/>
				<path class="st32" d="M73.6,321.7c0.2-0.6,0-1.9-2.4-2.5C71.7,321.7,72.9,321.8,73.6,321.7z"/>
				<path class="st35" d="M74.7,323.6c0.6,0.2,1.9,0.3,2.8-2.1C75,321.7,74.7,322.9,74.7,323.6z"/>
				<path class="st35" d="M72.9,324.7c0.3-0.6,0.5-1.8-1.6-3C71.2,324.1,72.3,324.6,72.9,324.7z"/>
				<path class="st36" d="M73.5,326.5c0.5,0.4,1.7,0.7,3.2-1.3C74.2,324.8,73.6,325.9,73.5,326.5z"/>
				<path class="st35" d="M72,327.1c0.4-0.5,0.6-1.8-1.4-3.1C70.2,326.5,71.3,327,72,327.1z"/>
				<path class="st36" d="M71.6,328.9c0.5,0.5,1.6,1,3.4-0.7C72.7,327.3,71.9,328.3,71.6,328.9z"/>
			</g>
			<g>
				<path class="st37" d="M78.2,321.3c1,3.5,0.1,7.5-2.4,9.9H65.7c-2.5-2.4-3.5-6.4-2.4-9.9H78.2z"/>
				<path class="st27" d="M63,321.4h15.2c0.3,0,0.6-0.3,0.6-0.6v0c0-0.3-0.3-0.6-0.6-0.6H63c-0.3,0-0.6,0.3-0.6,0.6v0
					C62.4,321.1,62.7,321.4,63,321.4z"/>
			</g>
			<g>
				<path class="st31" d="M57.8,336.6c1.1-11.8,7.6-15.7,10.7-16.7c-0.8-0.5-5.8,2.3-8.2,6.6C58.9,329,57.2,335.2,57.8,336.6z"/>
				<path class="st29" d="M58.1,337.5c-0.9,0.7-1.9,2.5,0.7,5.7C60.6,339.4,59.1,337.9,58.1,337.5z"/>
				<path class="st29" d="M57.1,334.9c-1-0.3-3.1-0.2-4.4,3.8C56.8,338.1,57.2,336,57.1,334.9z"/>
				<path class="st31" d="M59.4,334c-0.6,0.9-1,3,2.6,5.2C62.3,335,60.4,334.1,59.4,334z"/>
				<path class="st31" d="M58.1,330.4c-0.8-0.7-2.8-1.5-5.5,1.7C56.6,333.1,57.8,331.4,58.1,330.4z"/>
				<path class="st29" d="M60.3,329.4c-0.6,0.9-1.1,2.9,2.3,5.3C63.2,330.5,61.4,329.6,60.3,329.4z"/>
				<path class="st29" d="M59.6,325.8c-0.8-0.7-2.8-1.5-5.5,1.7C58.1,328.6,59.3,326.9,59.6,325.8z"/>
				<path class="st29" d="M63,325.1c-0.8,0.7-1.9,2.5,0.8,5.7C65.5,327,64,325.5,63,325.1z"/>
				<path class="st29" d="M63.2,321.8c-0.6-0.9-2.3-2.1-5.8,0.3C61.1,324.1,62.6,322.8,63.2,321.8z"/>
				<path class="st29" d="M65.9,321.8c-0.9,0.6-2,2.4,0.5,5.8C68.3,323.9,66.9,322.3,65.9,321.8z"/>
				<path class="st29" d="M67.5,319.1c-0.4-1-1.9-2.5-5.7-0.8C65,321,66.8,320,67.5,319.1z"/>
			</g>
			<g>
				<path class="st31" d="M53,318c9.1-2.7,13.9,0.9,15.6,2.8c0.1-0.7-3.5-3.6-7.4-4.1C59,316.5,53.9,317.1,53,318z"/>
				<path class="st29" d="M52.5,318.4c-0.8-0.4-2.4-0.7-4,2.3C51.8,320.9,52.4,319.3,52.5,318.4z"/>
				<path class="st29" d="M54,316.9c-0.1-0.9-0.8-2.4-4.1-2.1C51.6,317.7,53.3,317.4,54,316.9z"/>
				<path class="st29" d="M55.4,318.3c-0.9-0.1-2.5,0.2-3,3.5C55.6,320.8,55.7,319.2,55.4,318.3z"/>
				<path class="st29" d="M57.7,316.3c0.3-0.8,0.2-2.5-2.9-3.6C55.2,316,56.9,316.4,57.7,316.3z"/>
				<path class="st29" d="M59.1,317.6c-0.9-0.2-2.5,0-3.2,3.3C59.2,320.2,59.3,318.5,59.1,317.6z"/>
				<path class="st29" d="M61.5,316c0.3-0.8,0.2-2.5-2.9-3.6C59.1,315.8,60.7,316.1,61.5,316z"/>
				<path class="st31" d="M63.1,318.3c-0.8-0.4-2.4-0.6-4,2.4C62.5,320.7,63.1,319.2,63.1,318.3z"/>
				<path class="st29" d="M65.6,317.4c0.5-0.7,0.8-2.4-2-4.2C63.2,316.6,64.7,317.3,65.6,317.4z"/>
				<path class="st29" d="M66.4,319.5c-0.7-0.5-2.4-0.8-4.1,2.1C65.7,321.9,66.4,320.4,66.4,319.5z"/>
				<path class="st31" d="M68.9,319.8c0.6-0.6,1.3-2.2-1.2-4.5C66.7,318.6,68.1,319.6,68.9,319.8z"/>
			</g>
			<g>
				<path class="st31" d="M51.3,332c6.2-11.3,14.4-12.5,17.9-12.2c-0.6-0.8-6.8-0.1-11.1,3.1C55.7,324.8,51.3,330.3,51.3,332z"/>
				<path class="st32" d="M51.2,333c-1.1,0.3-3,1.7-1.7,6.1C52.9,336,52,333.9,51.2,333z"/>
				<path class="st32" d="M51.3,330c-0.9-0.8-3-1.6-6,1.9C49.7,333.1,51,331.2,51.3,330z"/>
				<path class="st32" d="M54,330.1c-1,0.7-2.3,2.6,0.4,6.3C56.6,332.4,55,330.7,54,330.1z"/>
				<path class="st32" d="M54.2,325.9c-0.5-1.1-2.2-2.7-6.3-0.7C51.6,328,53.5,326.8,54.2,325.9z"/>
				<path class="st32" d="M56.9,325.9c-1,0.6-2.4,2.4,0.1,6.3C59.4,328.3,58,326.5,56.9,325.9z"/>
				<path class="st32" d="M57.7,322c-0.5-1.1-2.2-2.7-6.3-0.7C55.1,324.1,57,322.9,57.7,322z"/>
				<path class="st31" d="M61.5,322.7c-1.1,0.3-3,1.7-1.6,6.1C63.2,325.7,62.3,323.6,61.5,322.7z"/>
				<path class="st32" d="M63,319.4c-0.2-1.2-1.4-3.1-5.9-2.2C59.9,320.9,62.1,320.2,63,319.4z"/>
				<path class="st31" d="M65.8,320.7c-1.2,0.3-3.1,1.5-2,6C67.4,323.7,66.6,321.6,65.8,320.7z"/>
				<path class="st32" d="M68.5,318.6c0-1.2-0.8-3.3-5.4-3.2C65.2,319.5,67.5,319.2,68.5,318.6z"/>
			</g>
			<path class="st37" d="M57.9,383.7h11.8v2.5H57.9c-0.7,0-1.2-0.6-1.2-1.2v0C56.7,384.3,57.2,383.7,57.9,383.7z"/>
			<path class="st38" d="M57.9,383.2h12.5v0.5H57.9c-0.7,0-1.2,0.6-1.2,1.2v0c0,0.7,0.6,1.2,1.2,1.2h12.5v0.5H57.9
				c-1,0-1.7-0.8-1.7-1.7l0,0C56.1,384,56.9,383.2,57.9,383.2z"/>
			<path class="st37" d="M61.1,381.5h12v1.4h-12c-0.4,0-0.7-0.3-0.7-0.7l0,0C60.4,381.8,60.7,381.5,61.1,381.5z"/>
			<path class="st39" d="M61,381.3h12.4v0.3H61.1c-0.4,0-0.7,0.3-0.7,0.7l0,0c0,0.4,0.3,0.7,0.7,0.7h12.4v0.3H61c-0.5,0-1-0.4-1-1
				l0,0C60,381.7,60.5,381.3,61,381.3z"/>
			<path class="st37" d="M59.3,379h8.8v1.9h-8.8c-0.5,0-0.9-0.4-0.9-0.9l0,0C58.4,379.4,58.8,379,59.3,379z"/>
			<path class="st40" d="M59.3,378.6h9.4v0.4h-9.4c-0.5,0-0.9,0.4-0.9,0.9l0,0c0,0.5,0.4,0.9,0.9,0.9h9.4v0.4h-9.4
				c-0.7,0-1.3-0.6-1.3-1.3l0,0C58,379.2,58.6,378.6,59.3,378.6z"/>
			<polygon class="st40" points="62,381.9 63.1,381.9 63.1,382.6 62.6,382.3 62,382.6 			"/>
			<g>
				<rect x="56.2" y="352.3" class="st38" width="2.4" height="14.3"/>
				<rect x="57.1" y="354.2" class="st32" width="0.6" height="11.4"/>
			</g>
			<g>
				<rect x="58.6" y="360.5" class="st29" width="2.9" height="11.7"/>
				<g>
				</g>
			</g>
			<g>

					<rect x="63.4" y="360.6" transform="matrix(0.9481 -0.3181 0.3181 0.9481 -113.2396 39.4195)" class="st37" width="1.4" height="11.7"/>

					<ellipse transform="matrix(0.9481 -0.318 0.318 0.9481 -111.8792 38.7012)" class="st32" cx="62.6" cy="362" rx="0.4" ry="0.4"/>

					<rect x="64" y="362.9" transform="matrix(0.9481 -0.3181 0.3181 0.9481 -113.4995 39.5567)" class="st32" width="0.7" height="8.8"/>
			</g>
			<g>

					<rect x="65.3" y="363.3" transform="matrix(0.9481 -0.3181 0.3181 0.9481 -113.5626 40.0987)" class="st40" width="1.4" height="8.9"/>
				<line class="st42" x1="64.8" y1="364.3" x2="67.2" y2="371.2"/>
			</g>
			<g>

					<rect x="66.6" y="362.1" transform="matrix(0.9481 -0.3181 0.3181 0.9481 -113.3315 40.3745)" class="st32" width="0.8" height="10.3"/>
				<line class="st43" x1="65.9" y1="362.8" x2="65.1" y2="363.1"/>
				<line class="st43" x1="66.1" y1="363.2" x2="65.3" y2="363.5"/>
				<line class="st43" x1="68.8" y1="371.5" x2="68.1" y2="371.8"/>
			</g>
			<path class="st37" d="M68,364.9l2.2,6.6l-1,0.3l-2.2-6.6c-0.1-0.3,0.1-0.6,0.3-0.7l0,0C67.6,364.5,67.9,364.7,68,364.9z"/>
			<path class="st44" d="M68.2,364.8l2.3,6.9l-0.2,0.1l-2.3-6.9c-0.1-0.3-0.4-0.4-0.7-0.3l0,0c-0.3,0.1-0.4,0.4-0.3,0.7l2.3,6.9
				l-0.2,0.1l-2.3-6.9c-0.1-0.4,0.1-0.8,0.5-0.9l0,0C67.6,364.2,68,364.4,68.2,364.8z"/>
			<g>
				<g>
					<rect x="56.7" y="353.3" class="st29" width="27.9" height="2"/>
					<rect x="56.7" y="372.2" class="st29" width="27.9" height="2"/>
				</g>
			</g>
			<g>
				<rect x="73.3" y="368.6" class="st37" width="7.7" height="3.6"/>
				<rect x="72.7" y="367.3" class="st38" width="8.8" height="1.4"/>
				<path class="st38" d="M75.7,369h2.9v0.3c0,0.2-0.1,0.3-0.3,0.3H76c-0.2,0-0.3-0.1-0.3-0.3V369z"/>
			</g>
			<g>
				<path class="st37" d="M69.5,351.7h-9.2v1.4h9.2c0.4,0,0.7-0.3,0.7-0.7l0,0C70.2,352,69.9,351.7,69.5,351.7z"/>
				<path class="st29" d="M69.6,351.4h-9.7v0.3h9.6c0.4,0,0.7,0.3,0.7,0.7l0,0c0,0.4-0.3,0.7-0.7,0.7h-9.6v0.3h9.7c0.5,0,1-0.4,1-1
					l0,0C70.5,351.8,70.1,351.4,69.6,351.4z"/>
				<path class="st37" d="M58.7,349.4h8.7v1.6h-8.7c-0.4,0-0.8-0.4-0.8-0.8l0,0C57.9,349.8,58.2,349.4,58.7,349.4z"/>
				<path class="st29" d="M58.6,349.1h9.2v0.3h-9.2c-0.4,0-0.8,0.4-0.8,0.8l0,0c0,0.4,0.4,0.8,0.8,0.8h9.2v0.3h-9.2
					c-0.6,0-1.1-0.5-1.1-1.1l0,0C57.5,349.6,58,349.1,58.6,349.1z"/>
				<path class="st37" d="M69.3,347.4h-9.2v1.4h9.2c0.4,0,0.7-0.3,0.7-0.7l0,0C70,347.8,69.7,347.4,69.3,347.4z"/>
				<path class="st40" d="M69.4,347.2h-9.7v0.3h9.6c0.4,0,0.7,0.3,0.7,0.7l0,0c0,0.4-0.3,0.7-0.7,0.7h-9.6v0.3h9.7c0.5,0,1-0.4,1-1
					l0,0C70.3,347.6,69.9,347.2,69.4,347.2z"/>
				<path class="st37" d="M66.9,347h-8.5v-1h8.5c0.3,0,0.5,0.2,0.5,0.5l0,0C67.4,346.7,67.2,347,66.9,347z"/>
				<path class="st29" d="M66.9,347.2h-8.8V347h8.8c0.3,0,0.5-0.2,0.5-0.5l0,0c0-0.3-0.2-0.5-0.5-0.5h-8.8v-0.2h8.8
					c0.4,0,0.7,0.3,0.7,0.7l0,0C67.7,346.8,67.3,347.2,66.9,347.2z"/>
				<path class="st37" d="M67.4,345.4h-7.9v-1.4h7.9c0.4,0,0.7,0.3,0.7,0.7l0,0C68.1,345.1,67.8,345.4,67.4,345.4z"/>
				<path class="st38" d="M67.4,345.7h-8.3v-0.3h8.3c0.4,0,0.7-0.3,0.7-0.7l0,0c0-0.4-0.3-0.7-0.7-0.7h-8.3v-0.3h8.3
					c0.5,0,1,0.4,1,1l0,0C68.4,345.3,68,345.7,67.4,345.7z"/>
				<polygon class="st40" points="68.5,347.6 67.4,347.6 67.4,348.7 67.9,348.3 68.5,348.7 				"/>
			</g>
			<g>
				<rect x="81.8" y="339.3" class="st37" width="3.2" height="8.4"/>
				<rect x="82.3" y="340.1" class="st40" width="2.2" height="1.4"/>
				<rect x="78.6" y="339.3" class="st40" width="3.2" height="8.4"/>
				<rect x="79.1" y="340.1" class="st37" width="2.2" height="1.4"/>
			</g>
			<g>
				<g>
					<g>
						<path class="st45" d="M101,401.4l-0.5,0c0,0,0.1-3.1,1.2-6.8c1-3.5,2.9-8.4,6.8-11.7l0.3,0.4c-3.8,3.3-5.7,8.1-6.6,11.5
							C101.2,398.4,101,401.3,101,401.4z"/>
					</g>
					<g>
						<path class="st45" d="M96.3,400.9c-0.1-0.1-5.2-8.6-7.6-9.6l0.2-0.5c2.6,1,7.6,9.4,7.8,9.8L96.3,400.9z"/>
					</g>
					<g>
						<path class="st45" d="M98.7,400.8l-0.5,0c0,0,0-4.3-0.9-9.5c-0.9-4.8-2.8-11.5-6.9-16l0.4-0.3c4.2,4.6,6.2,11.4,7.1,16.2
							C98.7,396.5,98.7,400.7,98.7,400.8z"/>
					</g>
					<g>
						<path class="st45" d="M99.6,400.8c0-1.1-0.1-26.2,3.2-30.3l0.4,0.3c-3.2,4-3.1,29.8-3.1,30L99.6,400.8z"/>
					</g>
					<path class="st9" d="M104.1,387.9c0,0-1.6-11,13.4-10.8C132.6,377.2,104.1,387.9,104.1,387.9z"/>
					<path class="st9" d="M94.6,383.2c0,0,7.2-8.5-5.7-16.3C76.1,359.1,94.6,383.2,94.6,383.2z"/>
					<path class="st9" d="M101.8,372.6c0,0-2.5-6.9,5.1-12.6c7.6-5.8,2.5,5,1.5,6.3C107,368.1,101.8,372.6,101.8,372.6z"/>
					<path class="st9" d="M93.4,395.1c0,0-7.3-0.9-8.9-10.3c-1.7-9.4,5.6,0.1,6.3,1.6C91.7,388.4,93.4,395.1,93.4,395.1z"/>
					<path class="st46" d="M103.1,420.5c0,0.3-0.2,0.6-0.6,0.6c0,0-2.9,0.4-3.9,0.4c-1.1,0-4.4-0.4-4.4-0.4c-0.3,0-0.6-0.2-0.6-0.6
						l0.5-9c0-0.3,0-0.9-0.1-1.2l-1.8-9c-0.1-0.3,0.2-0.6,0.5-0.6H104c0.3,0,0.5,0.3,0.5,0.6l-1.8,9.1c-0.1,0.3-0.1,0.8-0.1,1.2
						L103.1,420.5z"/>
					<g>
						<g>
							<path class="st47" d="M97,421l0.5-9.4c0-0.3,0-0.9-0.1-1.2l-1.8-9.4c0,0,0-0.1,0-0.1h-2.7c-0.3,0-0.5,0.3-0.5,0.6l1.8,9
								c0.1,0.3,0.1,0.8,0.1,1.2l-0.5,9c0,0.3,0.2,0.6,0.6,0.6c0,0,1.5,0.2,2.8,0.3C97,421.4,96.9,421.2,97,421z"/>
						</g>
					</g>
				</g>
				<path class="st48" d="M92.3,394.2c-0.8-0.9-1.6-1.9-2.3-2.9c-0.4-0.5-0.7-1-1.1-1.5c-0.3-0.5-0.7-1-1-1.5
					c-0.3-0.5-0.6-1.1-0.9-1.6c-0.3-0.5-0.6-1.1-0.8-1.6c-0.3-0.6-0.5-1.1-0.7-1.7c-0.2-0.6-0.4-1.2-0.5-1.8
					c0.3,1.2,0.8,2.3,1.4,3.4c0.3,0.5,0.6,1.1,0.9,1.6c0.3,0.5,0.6,1.1,0.9,1.6c0.3,0.5,0.6,1,1,1.5c0.3,0.5,0.7,1,1,1.5
					C90.9,392.2,91.6,393.2,92.3,394.2z"/>
				<path class="st49" d="M102.3,370.8c0.4-1.1,1-2.2,1.5-3.3c0.3-0.5,0.6-1.1,0.9-1.6c0.3-0.5,0.6-1.1,0.9-1.6c0.3-0.5,0.7-1,1-1.5
					c0.4-0.5,0.7-1,1.1-1.5c0.4-0.5,0.8-0.9,1.2-1.4c0.4-0.4,0.9-0.9,1.4-1.2c-0.9,0.8-1.7,1.8-2.4,2.7c-0.4,0.5-0.7,1-1,1.5
					c-0.3,0.5-0.7,1-1,1.5c-0.3,0.5-0.6,1-0.9,1.6c-0.3,0.5-0.6,1.1-0.9,1.6C103.5,368.7,102.9,369.8,102.3,370.8z"/>
				<path class="st50" d="M105.6,385.3c0.9-0.8,1.9-1.5,2.9-2.2c0.5-0.3,1-0.7,1.5-1c0.5-0.3,1-0.6,1.6-0.9c0.5-0.3,1.1-0.6,1.6-0.9
					c0.6-0.3,1.1-0.5,1.7-0.8c0.6-0.2,1.1-0.4,1.7-0.6c0.6-0.2,1.2-0.3,1.8-0.4c-1.2,0.3-2.3,0.7-3.4,1.2c-0.6,0.3-1.1,0.5-1.6,0.8
					c-0.5,0.3-1.1,0.6-1.6,0.9c-0.5,0.3-1.1,0.6-1.6,0.9c-0.5,0.3-1,0.6-1.6,0.9C107.7,384,106.6,384.6,105.6,385.3z"/>
				<path class="st51" d="M86.4,367.9c0.9,0.8,1.8,1.6,2.7,2.5c0.4,0.4,0.9,0.9,1.3,1.3c0.4,0.4,0.8,0.9,1.2,1.4
					c0.4,0.5,0.8,0.9,1.2,1.4c0.4,0.5,0.7,1,1.1,1.5c0.3,0.5,0.7,1,0.9,1.6c0.3,0.5,0.5,1.1,0.7,1.7c-0.5-1.1-1.2-2.1-1.9-3.1
					c-0.4-0.5-0.7-1-1.1-1.5c-0.4-0.5-0.8-0.9-1.2-1.4c-0.4-0.5-0.8-0.9-1.2-1.4c-0.4-0.5-0.8-0.9-1.2-1.3
					C88.1,369.6,87.2,368.8,86.4,367.9z"/>
			</g>
		</g>
	</g>
	<g class="st23">
		<g>
			<path class="st32" d="M1085.1,327v51.3h-27.3V327H1085.1L1085.1,327z M1083.2,334.1v3.2h-23.6v-3.2H1083.2L1083.2,334.1z"/>
			<path class="st32" d="M1116.6,327v51.3h-27.3V327H1116.6L1116.6,327z M1114.7,334.1v3.2h-23.6v-3.2H1114.7L1114.7,334.1z"/>
			<polygon class="st52" points="1130.7,363.4 1148.3,363.4 1148.3,423.1 1130.7,423.1 1130.7,363.4 			"/>
			<polygon class="st53" points="1123,363.4 1140.5,363.4 1140.5,423.1 1123,423.1 1123,363.4 			"/>
			<path class="st54" d="M1112.8,342.9L1112.8,342.9c-0.7,0-1.3,0.6-1.3,1.3v75.1h2.6v-75.1C1114.1,343.5,1113.5,342.9,1112.8,342.9
				L1112.8,342.9z"/>
			<path class="st54" d="M1107.3,344l-26.2-7c-0.7-0.2-1.1-0.9-0.9-1.6l0,0c0.2-0.7,0.9-1.1,1.6-0.9l26.2,7c0.7,0.2,1.1,0.9,0.9,1.6
				l0,0C1108.6,343.8,1107.9,344.2,1107.3,344L1107.3,344z"/>
			<path class="st55" d="M1112.4,345.4l-26.2-7c-0.7-0.2-1.1-0.9-0.9-1.6l0,0c0.2-0.7,0.9-1.1,1.6-0.9l26.2,7
				c0.7,0.2,1.1,0.9,0.9,1.6l0,0C1113.8,345.2,1113.1,345.6,1112.4,345.4L1112.4,345.4z"/>
			<path class="st38" d="M1106.3,345.5l-36.5-9.8c-2.2-0.6-4.4,0.7-5,2.9l-1.1,3.9l44.3,11.9l1.1-3.9
				C1109.7,348.3,1108.5,346.1,1106.3,345.5L1106.3,345.5z"/>
			<path class="st56" d="M1106.3,345.5l-24.9-6.7c-2.2-0.6-4.4,0.7-5,2.9l-1.1,3.9l32.7,8.8l1.1-3.9
				C1109.7,348.3,1108.5,346.1,1106.3,345.5L1106.3,345.5z"/>
			<path class="st57" d="M1093.1,350.3l-23.3-6.2l-0.2,0.7c-0.1,0.4,0.1,0.8,0.5,0.9l21.8,5.9c0.4,0.1,0.8-0.1,0.9-0.5L1093.1,350.3
				L1093.1,350.3z"/>
			<path class="st37" d="M1103.4,353.1l-23.3-6.2l-0.2,0.7c-0.1,0.4,0.1,0.8,0.5,0.9l21.8,5.9c0.4,0.1,0.8-0.1,0.9-0.5L1103.4,353.1
				L1103.4,353.1z"/>
			<path class="st37" d="M1112.8,343.5c-0.4,0-0.7,0.3-0.7,0.7c0,0.4,0.3,0.7,0.7,0.7c0.4,0,0.7-0.3,0.7-0.7
				C1113.5,343.8,1113.2,343.5,1112.8,343.5L1112.8,343.5z"/>
			<polygon class="st58" points="1091.7,339.8 1089.1,339.1 1088.7,340.8 1091.3,341.5 1091.7,339.8 			"/>
			<polygon class="st54" points="1093.3,340.3 1090.7,339.6 1090.3,341.2 1092.9,341.9 1093.3,340.3 			"/>
			<path class="st38" d="M1106.2,352.6l-28.2-7.6c-0.3-0.1-0.4-0.3-0.3-0.6v0c0.1-0.3,0.4-0.4,0.6-0.3l28.2,7.6
				c0.3,0.1,0.4,0.3,0.3,0.6h0C1106.8,352.6,1106.5,352.7,1106.2,352.6L1106.2,352.6z"/>
			<path class="st59" d="M1139.2,388.4h-73.5c-2.3,0-4.1,1.9-4.1,4.1v1.2c0,1.6,1.3,3,3,3h73.4c2.3,0,4.1-1.9,4.1-4.1v-1.4
				C1142,389.7,1140.7,388.4,1139.2,388.4L1139.2,388.4z"/>
			<path class="st38" d="M1139.2,388.4h-73.5c-1.9,0-3.5,1.3-4,3.1c0.3,2,1.5,3.5,3,3.5h73c2,0,3.7-2,4.2-4.6
				C1141.5,389.3,1140.4,388.4,1139.2,388.4L1139.2,388.4z"/>
			<path class="st38" d="M1149.7,367.7h-15.6c-2.3,0-5.3,1.9-6.8,4.1l-8,12.5c-1.5,2.3-0.8,4.1,1.5,4.1h19.4c2.3,0,5.3-1.9,6.8-4.1
				l5.6-8.7C1155.3,371.2,1154.1,367.7,1149.7,367.7L1149.7,367.7z"/>
			<path class="st56" d="M1148.2,367.7h-14.1c-2.3,0-5.3,1.9-6.8,4.1l-8,12.5c-1.5,2.3-0.8,4.1,1.5,4.1h16.5c2.3,0,5.1-2,6.8-4.1
				l7-8.7C1154.3,371.6,1152.6,367.7,1148.2,367.7L1148.2,367.7z"/>
			<path class="st60" d="M1129.6,369.5c-0.9,0.7-1.7,1.5-2.2,2.3l-8,12.5c-0.2,0.4-0.4,0.8-0.6,1.1c0.3,0.6,1,0.9,2,0.9h14.4
				c2.3,0,5.3-1.9,6.8-4.1l6.6-10.3c1.1-1.6,0.6-3-1.1-3h-15.5C1131.2,368.9,1130.4,369.1,1129.6,369.5L1129.6,369.5z"/>
			<path class="st38" d="M1139.2,388.4h-54.8c-2.3,0-4.1,1.9-4.1,4.1v1.2c0,1.6,1.3,3,3,3h54.6c2.3,0,4.1-1.9,4.1-4.1v-1.4
				C1142,389.7,1140.7,388.4,1139.2,388.4L1139.2,388.4z"/>
			<path class="st56" d="M1139.2,388.4h-54.8c-2.3,0-4.1,1.9-4.1,4.1v0.1c0,1.3,1.1,2.4,2.4,2.4h56c1.8,0,3.3-1.5,3.3-3.3v-0.5
				C1142,389.7,1140.7,388.4,1139.2,388.4L1139.2,388.4z"/>
			<path class="st37" d="M1147.5,368.2h-15.5c-2.3,0-5.3,1.9-6.8,4.1l-5.9,9.1c-1.5,2.3-0.8,4.1,1.5,4.1h14.4c2.3,0,5.3-1.9,6.8-4.1
				l6.6-10.3C1149.6,369.5,1149.1,368.2,1147.5,368.2L1147.5,368.2z"/>
			<path class="st57" d="M1136,386.4h-69.4c-1.2,0-2.1,0.9-2.1,2.1v1.1c0,0.5,0.4,1,1,1h71.7c0.5,0,1-0.4,1-1v-1.1
				C1138.1,387.3,1137.2,386.4,1136,386.4L1136,386.4z"/>
			<path class="st37" d="M1136,386.4h-50.9c-1.2,0-2.1,0.9-2.1,2.1v1.1c0,0.5,0.4,1,1,1h53.1c0.5,0,1-0.4,1-1v-1.1
				C1138.1,387.3,1137.2,386.4,1136,386.4L1136,386.4z"/>
			<path class="st54" d="M1134.5,396.7h-64.1v4.9c0,1.4,1.1,2.6,2.6,2.6h59c1.4,0,2.6-1.2,2.6-2.6V396.7L1134.5,396.7z"/>
			<path class="st61" d="M1134.5,396.7h-45v4.9c0,1.4,1.1,2.6,2.6,2.6h39.9c1.4,0,2.6-1.2,2.6-2.6V396.7L1134.5,396.7z"/>
			<path class="st62" d="M1128,398c-1.7,0-3,1.3-3,3c0,1.7,1.3,3,3,3s3-1.3,3-3C1131,399.3,1129.6,398,1128,398L1128,398z"/>
			<path class="st54" d="M1128.4,397.4c-1.7,0-3,1.3-3,3c0,1.7,1.3,3,3,3s3-1.3,3-3C1131.4,398.8,1130.1,397.4,1128.4,397.4
				L1128.4,397.4z"/>
			<polygon class="st62" points="1123.5,404.2 1119.6,404.2 1119.6,419.3 1123.5,419.3 1123.5,404.2 			"/>
			<polygon class="st63" points="1104.3,404.2 1100.4,404.2 1100.4,419.3 1104.3,419.3 1104.3,404.2 			"/>
			<path class="st64" d="M1124.7,404.2h-6.2v7.8c0,0.6,0.5,1.1,1.1,1.1h3.9c0.6,0,1.1-0.5,1.1-1.1V404.2L1124.7,404.2z"/>
			<path class="st54" d="M1124.7,404.2h-4.6v7.8c0,0.6,0.5,1.1,1.1,1.1h2.4c0.6,0,1.1-0.5,1.1-1.1V404.2L1124.7,404.2z"/>
			<path class="st64" d="M1105.5,404.2h-6.2v7.8c0,0.6,0.5,1.1,1.1,1.1h3.9c0.6,0,1.1-0.5,1.1-1.1V404.2L1105.5,404.2z"/>
			<polygon class="st65" points="1085,404.2 1081,404.2 1081,419.3 1085,419.3 1085,404.2 			"/>
			<path class="st66" d="M1086.1,404.2h-6.2v7.8c0,0.6,0.5,1.1,1.1,1.1h3.9c0.6,0,1.1-0.5,1.1-1.1V404.2L1086.1,404.2z"/>
			<polygon class="st61" points="1128.8,398.8 1128,398.8 1128,400.1 1126.7,400.1 1126.7,400.8 1128,400.8 1128,402.1
				1128.8,402.1 1128.8,400.8 1130.1,400.8 1130.1,400.1 1128.8,400.1 1128.8,398.8 			"/>
			<path class="st62" d="M1121.8,398.1h-27.4c-1.3,0-2.3,1.1-2.3,2.3v0c0,1.3,1.1,2.3,2.3,2.3h27.4c1.3,0,2.3-1.1,2.3-2.3v0
				C1124.2,399.1,1123.1,398.1,1121.8,398.1L1121.8,398.1z"/>
			<path class="st67" d="M1065.3,419.3h72.9c2.1,0,3.8,1.7,3.8,3.8v0h-80.4v0C1061.5,421,1063.2,419.3,1065.3,419.3L1065.3,419.3z"
				/>
			<path class="st68" d="M1084,419.3h54.2c2.1,0,3.8,1.7,3.8,3.8v0h-61.7v0C1080.3,421,1082,419.3,1084,419.3L1084,419.3z"/>
			<path class="st57" d="M1136.1,388.9h-51c-0.2,0-0.4,0.2-0.4,0.4l0,0c0,0.2,0.2,0.4,0.4,0.4h51c0.2,0,0.4-0.2,0.4-0.4l0,0
				C1136.5,389.1,1136.3,388.9,1136.1,388.9L1136.1,388.9z"/>
			<path class="st69" d="M1137.2,390.6h-71.7l0,0c0,0.6,0.5,1,1,1h69.7C1136.7,391.6,1137.2,391.1,1137.2,390.6L1137.2,390.6
				L1137.2,390.6z"/>
			<path class="st70" d="M1137.2,390.6h-52.5l0,0c0,0.6,0.5,1,1,1h50.5C1136.7,391.6,1137.2,391.1,1137.2,390.6L1137.2,390.6
				L1137.2,390.6z"/>
			<path class="st54" d="M1122.9,400v1h-8.8v-1H1122.9L1122.9,400z M1102.3,400v1h-8.8v-1H1102.3L1102.3,400z M1112.6,400v1h-8.8v-1
				H1112.6L1112.6,400z"/>
			<path class="st66" d="M1123.5,404.7L1123.5,404.7c-0.2,0-0.4,0.2-0.4,0.4v7c0,0.2,0.2,0.4,0.4,0.4l0,0c0.2,0,0.4-0.2,0.4-0.4v-7
				C1123.9,404.9,1123.7,404.7,1123.5,404.7L1123.5,404.7z"/>
			<path class="st54" d="M1105.5,404.2h-4.6v7.8c0,0.6,0.5,1.1,1.1,1.1h2.4c0.6,0,1.1-0.5,1.1-1.1V404.2L1105.5,404.2z"/>
			<path class="st66" d="M1104.3,404.7L1104.3,404.7c-0.2,0-0.4,0.2-0.4,0.4v7c0,0.2,0.2,0.4,0.4,0.4l0,0c0.2,0,0.4-0.2,0.4-0.4v-7
				C1104.6,404.9,1104.5,404.7,1104.3,404.7L1104.3,404.7z"/>
			<path class="st61" d="M1123.5,413.9h-2c-0.6,0-1.1,0.5-1.1,1.1v4.3h3.2V413.9L1123.5,413.9z"/>
			<path class="st61" d="M1104.3,413.9h-2c-0.6,0-1.1,0.5-1.1,1.1v4.3h3.2V413.9L1104.3,413.9z"/>
			<path class="st71" d="M1086.1,404.2h-4.6v7.8c0,0.6,0.5,1.1,1.1,1.1h2.4c0.6,0,1.1-0.5,1.1-1.1V404.2L1086.1,404.2z"/>
			<path class="st72" d="M1084.7,404.7L1084.7,404.7c-0.2,0-0.4,0.2-0.4,0.4v7c0,0.2,0.2,0.4,0.4,0.4l0,0c0.2,0,0.4-0.2,0.4-0.4v-7
				C1085.1,404.9,1085,404.7,1084.7,404.7L1084.7,404.7z"/>
			<path class="st54" d="M1085,413.9h-2c-0.6,0-1.1,0.5-1.1,1.1v4.3h3.2V413.9L1085,413.9z"/>
			<path class="st67" d="M1138.9,422.3h-55.6c-0.4,0-0.8,0.3-0.8,0.8v0h57.1v0C1139.7,422.6,1139.3,422.3,1138.9,422.3L1138.9,422.3
				z"/>
			<polygon class="st73" points="1114.7,329.1 1091.1,329.1 1091.1,332.3 1114.7,332.3 1114.7,329.1 			"/>
			<polygon class="st73" points="1083.2,329.1 1059.6,329.1 1059.6,332.3 1083.2,332.3 1083.2,329.1 			"/>
			<path class="st60" d="M1137.6,348.6h-12.3c-0.6,0-1.1,0.5-1.1,1.1v12.6c0,0.6,0.5,1.1,1.1,1.1h14.7c3.2,0,5.1-3,3.6-5.8l-3.6-6.6
				C1139.3,349.8,1138.9,348.6,1137.6,348.6L1137.6,348.6z"/>
			<path class="st68" d="M1136.5,348.6h-11.1c-0.7,0-1.2,0.6-1.2,1.2v12.3c0,0.7,0.6,1.2,1.2,1.2h11.1c0.7,0,1.2-0.6,1.2-1.2v-12.3
				C1137.7,349.2,1137.2,348.6,1136.5,348.6L1136.5,348.6z"/>
			<path class="st37" d="M1136.1,349.4h-10.3c-0.5,0-0.9,0.4-0.9,0.9v11.3c0,0.5,0.4,0.9,0.9,0.9h10.3c0.5,0,0.9-0.4,0.9-0.9v-11.3
				C1137,349.8,1136.6,349.4,1136.1,349.4L1136.1,349.4z"/>
			<path class="st60" d="M1135.8,350.2h-7.8c-0.2,0-0.4,0.2-0.4,0.4v10.8c0,0.2,0.2,0.4,0.4,0.4h7.8c0.2,0,0.4-0.2,0.4-0.4v-10.8
				C1136.2,350.4,1136.1,350.2,1135.8,350.2L1135.8,350.2z"/>
			<polygon class="st74" points="1136.2,355.6 1135,355.6 1134.8,355.6 1134.7,355.8 1134,356.9 1132.7,354.3 1132.4,353.7
				1132,354.2 1131.1,355.6 1130.1,355.6 1129.4,355.6 1127.6,355.6 1127.6,356.4 1129.4,356.4 1130.1,356.4 1131.3,356.4
				1131.5,356.4 1131.6,356.2 1132.3,355.2 1133.6,357.9 1133.9,358.5 1134.3,357.9 1135.2,356.4 1136.2,356.4 1136.2,355.6 			"/>
			<path class="st60" d="M1125.7,359.9c-0.3,0.2-0.6,0.5-0.6,0.9c0,0.4,0.2,0.7,0.6,0.9v0.1h0.4c0.5,0,1-0.4,1-1c0-0.5-0.4-1-1-1
				L1125.7,359.9L1125.7,359.9L1125.7,359.9z"/>
			<path class="st60" d="M1125.9,357c-0.2,0.1-0.3,0.3-0.3,0.5c0,0.2,0.1,0.4,0.3,0.5v0.1h0.3c0.3,0,0.6-0.3,0.6-0.6
				c0-0.3-0.3-0.6-0.6-0.6L1125.9,357L1125.9,357L1125.9,357z"/>
			<path class="st71" d="M1125.7,359.8c-0.5,0-1,0.4-1,1c0,0.5,0.4,1,1,1s1-0.4,1-1C1126.7,360.3,1126.3,359.8,1125.7,359.8
				L1125.7,359.8z"/>
			<path class="st71" d="M1125.9,356.9c-0.3,0-0.6,0.3-0.6,0.6c0,0.3,0.3,0.6,0.6,0.6s0.6-0.3,0.6-0.6
				C1126.5,357.2,1126.3,356.9,1125.9,356.9L1125.9,356.9z"/>
			<path class="st60" d="M1125.9,354.2c-0.2,0.1-0.3,0.3-0.3,0.5c0,0.2,0.1,0.4,0.3,0.5v0.1h0.3c0.3,0,0.6-0.3,0.6-0.6
				c0-0.3-0.3-0.6-0.6-0.6L1125.9,354.2L1125.9,354.2L1125.9,354.2z"/>
			<path class="st71" d="M1125.9,354.2c-0.3,0-0.6,0.3-0.6,0.6c0,0.3,0.3,0.6,0.6,0.6s0.6-0.3,0.6-0.6
				C1126.5,354.4,1126.3,354.2,1125.9,354.2L1125.9,354.2z"/>
			<path class="st60" d="M1125.9,351.4c-0.2,0.1-0.3,0.3-0.3,0.5c0,0.2,0.1,0.4,0.3,0.5v0.1h0.3c0.3,0,0.6-0.3,0.6-0.6
				c0-0.3-0.3-0.6-0.6-0.6L1125.9,351.4L1125.9,351.4L1125.9,351.4z"/>
			<path class="st71" d="M1125.9,351.3c-0.3,0-0.6,0.3-0.6,0.6c0,0.3,0.3,0.6,0.6,0.6s0.6-0.3,0.6-0.6
				C1126.5,351.5,1126.3,351.3,1125.9,351.3L1125.9,351.3z"/>
			<g>
				<path class="st75" d="M1135.7,327c-4.1,0-7.4,3.3-7.4,7.4c0,4.1,3.3,7.4,7.4,7.4c4.1,0,7.4-3.3,7.4-7.4
					C1143.1,330.3,1139.8,327,1135.7,327L1135.7,327z"/>
				<path class="st3" d="M1135.7,342.1c-4.3,0-7.8-3.5-7.8-7.8s3.5-7.8,7.8-7.8s7.8,3.5,7.8,7.8S1140,342.1,1135.7,342.1z
					 M1135.7,327.4c-3.8,0-6.9,3.1-6.9,6.9c0,3.8,3.1,6.9,6.9,6.9c3.8,0,6.9-3.1,6.9-6.9C1142.7,330.5,1139.6,327.4,1135.7,327.4z"
					/>
			</g>
			<path class="st8" d="M1133,337.7c-0.3,0.3-0.3,0.8,0,1.1c0.3,0.3,0.8,0.3,1.1,0l3.1-3l0.2-0.2v-0.3v-5c0-0.4-0.3-0.8-0.8-0.8
				c-0.4,0-0.8,0.3-0.8,0.8v4.7L1133,337.7L1133,337.7z"/>
			<path class="st75" d="M1137.3,364.8h-11.1c-0.5,0-0.9,0.4-0.9,0.9v0c0,0.5,0.4,0.9,0.9,0.9h11.1c0.5,0,0.9-0.4,0.9-0.9v0
				C1138.1,365.2,1137.8,364.8,1137.3,364.8L1137.3,364.8z"/>
		</g>
		<path class="st54" d="M1049.3,348.4v4.4v70.7h-2.3v-70.7h0v-6.1c0-1.5-0.6-2.8-1.6-3.8c-1-1-2.3-1.6-3.8-1.6h-6.1V339h6.1
			c2.1,0,4,0.9,5.4,2.3c0.4,0.4,0.8,0.9,1.1,1.4c0.3-0.5,0.7-1,1.1-1.4c1.4-1.4,3.3-2.3,5.4-2.3h6.1v2.3h-6.1
			c-1.5,0-2.8,0.6-3.8,1.6c-1,1-1.6,2.3-1.6,3.8V348.4L1049.3,348.4z"/>
		<path class="st37" d="M1059.9,344.1c0.5,0,0.8,0.4,0.8,0.8v5.2v1.3c0,0.5-0.4,0.9-0.9,0.9c-0.7,0-1.3,0.6-1.3,1.3v0.5h-2.8v-0.5
			c0-0.7-0.6-1.3-1.3-1.3c-0.5,0-0.9-0.4-0.9-0.9v-0.8V345c0-0.5,0.4-0.9,0.9-0.9h2.1v-0.6c0-0.3,0.3-0.6,0.6-0.6l0,0
			c0.3,0,0.6,0.3,0.6,0.6v0.6H1059.9L1059.9,344.1z M1057.2,343.3c0.1,0,0.1,0.1,0.1,0.1v0.5c0,0.1-0.1,0.1-0.1,0.1h0
			c-0.1,0-0.1-0.1-0.1-0.1v-0.5C1057,343.4,1057.1,343.3,1057.2,343.3L1057.2,343.3L1057.2,343.3z"/>
		<path class="st76" d="M1058,353.5h-1.6c0-1-0.9-1.8-1.9-1.8c-0.2,0-0.3-0.1-0.3-0.3V345c0-0.2,0.1-0.3,0.3-0.3h5.4
			c0.1,0,0.2,0.1,0.2,0.2v6.5c0,0.2-0.1,0.3-0.3,0.3C1058.8,351.7,1058,352.5,1058,353.5L1058,353.5z"/>
		<path class="st75" d="M1058,353.5h-1.6c0-1-0.9-1.8-1.9-1.8c-0.2,0-0.3-0.1-0.3-0.3v-3.9h6v3.9c0,0.2-0.1,0.3-0.3,0.3
			C1058.8,351.7,1058,352.5,1058,353.5L1058,353.5z"/>
		<path class="st54" d="M1058.4,353.9h-2.4c-0.1,0-0.2,0.1-0.2,0.2l0,0c0,0.1,0.1,0.2,0.2,0.2h2.4c0.1,0,0.2-0.1,0.2-0.2l0,0
			C1058.6,354,1058.5,353.9,1058.4,353.9L1058.4,353.9z"/>
		<path class="st76" d="M1057.2,338.8L1057.2,338.8c-0.1,0-0.1,0.1-0.1,0.1v4.7c0,0.1,0.1,0.1,0.1,0.1l0,0c0.1,0,0.1-0.1,0.1-0.1
			V339C1057.3,338.9,1057.3,338.8,1057.2,338.8L1057.2,338.8z"/>
		<path class="st56" d="M1058.3,348.1h-2.5c-0.2,0-0.3,0.1-0.3,0.3l0,0c0,0.2,0.1,0.3,0.3,0.3h2.5c0.2,0,0.3-0.1,0.3-0.3l0,0
			C1058.6,348.2,1058.5,348.1,1058.3,348.1L1058.3,348.1z"/>
		<path class="st56" d="M1056,349.3h-0.5c-0.2,0-0.3,0.1-0.3,0.3l0,0c0,0.2,0.1,0.3,0.3,0.3h0.5c0.2,0,0.3-0.1,0.3-0.3l0,0
			C1056.3,349.5,1056.1,349.3,1056,349.3L1056,349.3z"/>
		<path class="st56" d="M1059.2,350h-1.5c-0.2,0-0.3,0.1-0.3,0.3l0,0c0,0.2,0.1,0.3,0.3,0.3h1.5c0.2,0,0.3-0.1,0.3-0.3l0,0
			C1059.5,350.2,1059.3,350,1059.2,350L1059.2,350z"/>
		<path class="st37" d="M1057.2,354L1057.2,354c-0.1,0-0.1,0-0.1,0.1v30.2c0,0,0.1,0.1,0.1,0.1l0,0c0.1,0,0.1,0,0.1-0.1v-30.2
			C1057.3,354,1057.3,354,1057.2,354L1057.2,354z"/>
		<path class="st77" d="M1048.5,346.7L1048.5,346.7c-0.2,0-0.3,0.1-0.3,0.3v38.1c0,0.2,0.1,0.3,0.3,0.3h0c0.2,0,0.3-0.1,0.3-0.3V347
			C1048.8,346.8,1048.7,346.7,1048.5,346.7L1048.5,346.7z"/>
	</g>
	<path class="st78" d="M973.4,361.1c0,0-54.1-24.7-81.4,13.5c-17.9,25.1-70.7,18.4-70.1-7.9c0.2-6.2,7.5-14,15.9-7.7
		c0,0,14,11.2-9,25.4c0,0-98.2,56.5-184.9-12c-10.1-8-27.1-26.5-48.9-21.3c0,0-29.7,11.3-32,30.3c0,0-2.1,18.7,18.7,20
		c8.4,0.5,29.5-12.8,16.5-33.8c-6.9-11.1-23.4-23.9-56.2-4c0,0-61.7,28.5-118.8,0.8c-28.4-13.7-34.4,2.3-34.4,2.3
		c-23.1,32.5-39.6,17.7-39.6,17.7c-21-22.4-5.2-33,0-33.1c7.7-0.2,11.1,3.7,11.1,3.7c5,4.6,1.1,11.7-1.1,13.2
		c-23.1,15.1-36.6-13.8-36.6-13.8c-18.8-18.5-31.1-3.7-31.1-3.7c-30.7,19.4-49.4-3.8-49.4-3.8"/>
	<g>
		<g>
			<path class="st4" d="M286.2,59h-29.7c-1.6-0.4-2.7-1.7-2.7-3.1v-0.8c0-1.8,1.7-3.3,3.9-3.3h7.4v-0.1h2.9c2.9,0,5.3-2.4,5.3-5.3
				c0-2.9-2.4-5.3-5.3-5.3h-2.9h-41.5h-63c-2.9,0-5.3,2.4-5.3,5.3c0,2.9,2.4,5.3,5.3,5.3h63v0.1h9.8c2.1,0,3.9,1.5,3.9,3.3v0.8
				c0,1.5-1.1,2.7-2.7,3.1h-17.8c-2.1,0-3.9,1.7-3.9,3.9v0.9c0,2.1,1.7,3.9,3.9,3.9h69.4c2.1,0,3.9-1.7,3.9-3.9v-0.9
				C290.1,60.7,288.3,59,286.2,59z"/>
			<circle class="st4" cx="284" cy="44.4" r="4.9"/>
		</g>
		<g>
			<path class="st4" d="M1029.6,126.9h24c1.3-0.3,2.2-1.3,2.2-2.5v-0.6c0-1.5-1.4-2.6-3.1-2.6h-6V121h-2.3c-2.3,0-4.3-1.9-4.3-4.3
				c0-2.3,1.9-4.3,4.3-4.3h2.3h33.5h50.9c2.3,0,4.3,1.9,4.3,4.3c0,2.3-1.9,4.3-4.3,4.3h-50.9v0.1h-8c-1.7,0-3.1,1.2-3.1,2.6v0.6
				c0,1.2,0.9,2.2,2.2,2.5h14.4c1.7,0,3.1,1.4,3.1,3.1v0.7c0,1.7-1.4,3.1-3.1,3.1h-56.1c-1.7,0-3.1-1.4-3.1-3.1V130
				C1026.5,128.3,1027.9,126.9,1029.6,126.9z"/>
			<circle class="st4" cx="1031.4" cy="115.1" r="4"/>
		</g>
		<g>
			<path class="st4" d="M157.7,128.3h-11.4c1.6,0,2.9-1.3,2.9-2.9v-0.7c0-1.6-1.3-2.9-2.9-2.9h-22.3c-1.2-0.3-2-1.2-2-2.3v-0.6
				c0-1.4,1.3-2.5,2.9-2.5h5.6v-0.1h2.1c2.2,0,4-1.8,4-4c0-2.2-1.8-4-4-4h-2.1H99.2H51.9c-2.2,0-4,1.8-4,4c0,2.2,1.8,4,4,4h47.3v0.1
				h7.4c1.6,0,2.9,1.1,2.9,2.5v0.6c0,1.1-0.9,2-2,2.3H94.1c-1.6,0-2.9,1.3-2.9,2.9v0.7c0,1.6,1.3,2.9,2.9,2.9H78.5c-2.7,0-5,2.2-5,5
				v0c0,2.7,2.2,5,5,5h79.1c2.7,0,5-2.2,5-5v0C162.6,130.5,160.4,128.3,157.7,128.3z"/>
		</g>
		<g>
			<path class="st4" d="M912.7,45.8h12.5c-1.7,0-3.2-1.4-3.2-3.2v-0.8c0-1.7,1.4-3.2,3.2-3.2h24.5c1.3-0.3,2.2-1.4,2.2-2.6v-0.6
				c0-1.5-1.4-2.7-3.2-2.7h-6.1v-0.1h-2.3c-2.4,0-4.3-1.9-4.3-4.3c0-2.4,1.9-4.3,4.3-4.3h2.3h34.1h51.8c2.4,0,4.3,1.9,4.3,4.3
				c0,2.4-1.9,4.3-4.3,4.3h-51.8v0.1h-8.1c-1.7,0-3.2,1.2-3.2,2.7v0.6c0,1.2,0.9,2.2,2.2,2.6h14.6c1.7,0,3.2,1.4,3.2,3.2v0.8
				c0,1.7-1.4,3.2-3.2,3.2h17.1c3,0,5.4,2.4,5.4,5.4v0c0,3-2.4,5.4-5.4,5.4h-86.6c-3,0-5.4-2.4-5.4-5.4v0
				C907.3,48.2,909.7,45.8,912.7,45.8z"/>
		</g>
		<path class="st4" d="M1114.4,64.1h26.1c2,0,3.6,1.6,3.6,3.6v0c0,0.2,0,0.5-0.1,0.7h13.1c2,0,3.6,1.6,3.6,3.6l0,0
			c0,2-1.6,3.6-3.6,3.6h-26.1c-2,0-3.6-1.6-3.6-3.6l0,0c0-0.2,0-0.5,0.1-0.7h-13.1c-2,0-3.6-1.6-3.6-3.6v0
			C1110.8,65.8,1112.4,64.1,1114.4,64.1z"/>
		<path class="st4" d="M90.8,26.7h-29c-2.2,0-4,1.8-4,4v0c0,0.3,0,0.5,0.1,0.8H43.2c-2.2,0-4,1.8-4,4l0,0c0,2.2,1.8,4,4,4h29
			c2.2,0,4-1.8,4-4l0,0c0-0.3,0-0.5-0.1-0.8h14.6c2.2,0,4-1.8,4-4v0C94.8,28.5,93,26.7,90.8,26.7z"/>
	</g>
	<g>
		<g>
			<path class="st3" d="M202.7,355.2c-0.1,0.1-0.2,0.1-0.4,0.1c-0.2,0.1-0.3,0.1-0.5-0.1c-0.7-0.8-1.4-1.6-2.2-2.4
				c-0.5-0.6-1.1-1.2-1.6-1.8c-0.1-0.1-0.2-0.3-0.1-0.4c0.1-0.2,0.2-0.2,0.4-0.2c5.9-0.4,11.8-0.8,17.7-1.1c0.3,0,0.5,0.1,0.5,0.4
				c0,0.1-0.1,0.2-0.1,0.3c-1.1,1.4-2.3,2.7-3.4,4.1c-1.8,2.2-3.6,4.4-5.5,6.6c0,0-0.1,0.1-0.1,0.1c-0.2,0.2-0.4,0.2-0.6,0
				c-0.4-0.5-0.9-0.9-1.3-1.4c-0.8-0.9-1.7-1.8-2.5-2.7c-0.1-0.1-0.2-0.2-0.2-0.4C202.8,355.9,202.7,355.6,202.7,355.2z
				 M203.8,356.4c1.1,1.2,2.2,2.4,3.3,3.6c2.5-3.1,5.1-6.1,7.6-9.2c0,0,0,0,0,0C211.1,352.7,207.4,354.5,203.8,356.4z M202,354.4
				c0.1-0.2,0.2-0.4,0.3-0.7c0.1-0.2,0.2-0.3,0.5-0.4c3.4-1,6.7-2.1,10-3.1c0.1,0,0.1,0,0.2-0.1c0,0,0,0,0,0
				c-4.7,0.3-9.3,0.6-14,0.9C200,352.2,201,353.3,202,354.4z M212.1,351.3C212.1,351.3,212.1,351.3,212.1,351.3c-3,0.9-6,1.8-9,2.7
				c0.1,0.6,0.2,1.1,0.3,1.7C206.4,354.3,209.3,352.8,212.1,351.3z"/>
			<path class="st4" d="M203.8,356.4c3.6-1.9,7.3-3.7,10.9-5.6c0,0,0,0,0,0c-2.5,3.1-5.1,6.1-7.6,9.2
				C206,358.8,204.9,357.6,203.8,356.4z"/>
			<path class="st4" d="M202,354.4c-1-1.1-2-2.2-3-3.3c4.7-0.3,9.4-0.6,14-0.9c0,0,0,0,0,0c-0.1,0-0.1,0-0.2,0.1
				c-3.3,1-6.7,2.1-10,3.1c-0.2,0.1-0.4,0.2-0.5,0.4C202.3,354,202.1,354.2,202,354.4z"/>
			<path class="st4" d="M212.1,351.3c-2.9,1.5-5.8,3-8.7,4.4c-0.1-0.6-0.2-1.1-0.3-1.7C206.1,353.1,209.1,352.2,212.1,351.3
				C212.1,351.3,212.1,351.3,212.1,351.3z"/>
		</g>
		<g>
			<path class="st3" d="M240.2,351c-0.1,0-0.3,0.1-0.4,0.1c-0.2,0.1-0.3,0-0.5-0.2c-0.7-0.8-1.3-1.7-2-2.5c-0.5-0.6-1-1.2-1.5-1.9
				c-0.1-0.1-0.2-0.3-0.1-0.4c0.1-0.2,0.2-0.2,0.4-0.2c5.9,0,11.8,0,17.8-0.1c0.3,0,0.5,0.2,0.4,0.4c0,0.1-0.1,0.2-0.1,0.2
				c-1.2,1.3-2.4,2.6-3.6,3.9c-2,2.1-3.9,4.2-5.9,6.2c0,0-0.1,0.1-0.1,0.1c-0.2,0.2-0.4,0.2-0.6,0c-0.4-0.5-0.8-1-1.2-1.5
				c-0.8-1-1.5-1.9-2.3-2.9c-0.1-0.1-0.1-0.3-0.2-0.4C240.3,351.7,240.2,351.3,240.2,351z M241.3,352.2c1,1.3,2,2.5,3.1,3.8
				c2.7-2.9,5.4-5.8,8.2-8.7c0,0,0,0,0,0C248.7,349,245,350.6,241.3,352.2z M239.6,350.2c0.1-0.2,0.3-0.4,0.4-0.6
				c0.1-0.2,0.3-0.3,0.5-0.3c3.4-0.8,6.8-1.7,10.2-2.5c0.1,0,0.1,0,0.2,0c0,0,0,0,0,0c-4.7,0-9.4,0-14.1,0
				C237.7,347.9,238.7,349,239.6,350.2z M249.9,347.7C249.9,347.7,249.9,347.6,249.9,347.7c-3.1,0.7-6.1,1.4-9.1,2.2
				c0.1,0.6,0.2,1.1,0.2,1.7C244,350.3,246.9,349,249.9,347.7z"/>
			<path class="st4" d="M241.3,352.2c3.8-1.6,7.5-3.3,11.2-4.9c0,0,0,0,0,0c-2.7,2.9-5.4,5.8-8.2,8.7
				C243.3,354.8,242.3,353.5,241.3,352.2z"/>
			<path class="st4" d="M239.6,350.2c-0.9-1.2-1.9-2.3-2.8-3.5c4.7,0,9.4,0,14.1,0c0,0,0,0,0,0c-0.1,0-0.1,0-0.2,0
				c-3.4,0.8-6.8,1.7-10.2,2.5c-0.2,0.1-0.4,0.1-0.5,0.3C239.9,349.8,239.7,350,239.6,350.2z"/>
			<path class="st4" d="M249.9,347.7c-3,1.3-5.9,2.6-8.9,3.9c-0.1-0.6-0.2-1.1-0.2-1.7C243.8,349.1,246.8,348.4,249.9,347.7
				C249.9,347.6,249.9,347.7,249.9,347.7z"/>
		</g>
	</g>
	<g>
		<path class="st4" d="M34.5,432.5H1165c4.3,0,7.8-2.7,7.8-5.9H26.8C26.8,429.8,30.3,432.5,34.5,432.5z"/>
		<path class="st79" d="M1165,420.6H34.5c-4.3,0-7.8,2.7-7.8,5.9l0,0h1145.9l0,0C1172.7,423.3,1169.2,420.6,1165,420.6z"/>
	</g>
	<g>
		<g>
			<polygon class="st74" points="1054.6,382.3 1067.4,354 1051.5,354 1054,383.7 1054.6,382.3 			"/>
			<path class="st80" d="M1054,383.8l0-0.1l-0.1,0.2c0.8,6.6-4.9,10.9-4.9,10.9h-28.3v1.9h34v-14.4L1054,383.8z"/>
			<polygon class="st80" points="1054.6,382.3 1054.6,382.3 1054,383.7 1054,383.8 			"/>
		</g>
		<polyline class="st3" points="1005.1,380.2 1008.3,380.2 1008.3,380.8 1005.3,380.8 		"/>
		<g>
			<path class="st81" d="M1028.1,343.8c0,0-7.6-1.4-8.9,1.7c-1.7,3.9-2.6,16.6-2.6,16.6l-0.9,9.2l0.1,9.1h5.1l33-0.4
				c0,0-1-35.5-7.8-35.8l-7.1-0.4c0,0-4.3,1.7-7.7,2C1031.4,345.6,1030.5,345.6,1028.1,343.8z"/>
			<polyline class="st82" points="1039.1,343.6 1038.9,344.1 1034.6,357.9 1032,361 1027.5,356.4 1027.5,345.3 			"/>
			<path class="st83" d="M1023.6,322.9c0,0-1.6,7.6-1.4,7.8c0.2,0.2,2.2,0.2,2.2,0.2l0.4,5.8l4.2,0.6l-0.8,6.9l3,2.3
				c0,0,0.7,0.4,1.7-0.1l6.3-2.9l-2.4-1.7l0.4-6.6v-13.4L1023.6,322.9z"/>
			<path class="st3" d="M1023.6,322.9c0,0-0.6-5.9,3.9-6.6c0,0,11.1-0.4,14.7,3c0,0,2.7,5,0,10.3l-3.8,6.4c0,0-0.6,0.5-1.7-1.2
				c-1.1-1.7-3.8-2.7-2.3-4c0,0,1.5-0.3,1.6-1l-0.1-2.6c0,0-0.5-2.2-3.4-1c0,0,0.1,1.8-1.5,1.3c0,0-0.7-2.2-0.8-2.4
				c-0.1-0.2-0.5-2.3-2.7-2.1C1027,323,1024.1,323.5,1023.6,322.9z"/>
			<polygon class="st84" points="1029.4,345.9 1030.5,348.6 1033.6,348.6 1034.6,345.6 			"/>
			<polygon class="st85" points="1036.7,341.9 1031.9,344.5 1031.9,346.8 1039.1,343.6 			"/>
			<path class="st86" d="M1031.9,344.5c-1-0.1-3.5-2.6-3.5-2.6l-0.9,3.4l4.4,1.6V344.5z"/>
			<polygon class="st3" points="1030.5,348.6 1029,358.3 1032,361 1034,358.5 1033.6,348.6 			"/>
			<g>
				<path class="st87" d="M1039.1,343.6c0.7,1.7,1.2,3.4,1.6,5.2c0.2,0.9,0.3,1.8,0.4,2.7c0.1,0.9,0.1,1.9-0.1,2.8l-0.1,0.5
					l-0.4-0.4c-0.4-0.3-0.8-0.6-1.1-0.9c-0.4-0.3-0.8-0.6-1.2-0.8c0,0-0.1-0.1-0.1-0.1l0,0c0,0,0.1,0,0.1,0c0.1,0,0.2-0.1,0.2-0.1
					c0,0,0,0,0,0c0,0,0,0.1,0,0.1c0,0.2,0,0.4,0.1,0.7c0.1,0.5,0.2,0.9,0.4,1.4l0.1,0.2l-0.1,0.2c-1.3,1.9-2.6,4-3.8,6
					c-1.2,2-2.4,4.1-3.5,6.2c-1.1,2.1-2.2,4.2-3.1,6.4c-0.9,2.2-1.8,4.4-2.3,6.7c0.3-2.4,1-4.7,1.8-6.9c0.8-2.2,1.8-4.4,2.9-6.5
					c1.1-2.1,2.2-4.2,3.5-6.2c1.2-2,2.5-4,3.9-6l-0.1,0.4c-0.1-0.5-0.3-1-0.3-1.5c0-0.3-0.1-0.5-0.1-0.8c0-0.1,0-0.2,0-0.3
					c0-0.1,0-0.1,0.1-0.2c0-0.1,0.2-0.2,0.3-0.3c0.1,0,0.3,0,0.3,0l0.1,0c0.1,0,0.1,0.1,0.2,0.1c0.5,0.3,0.9,0.6,1.2,0.9
					c0.4,0.3,0.8,0.6,1.1,1l-0.6,0.2c0.2-0.8,0.2-1.7,0.2-2.6c0-0.9-0.1-1.8-0.3-2.7C1040,347.1,1039.6,345.3,1039.1,343.6z"/>
			</g>
			<g>
				<path class="st87" d="M1027.9,343.8c-1.1,1.2-2.1,2.5-3,3.8c-0.9,1.3-1.7,2.8-2,4.3l-0.4-0.4c0.9-0.2,1.9-0.5,2.9-0.6
					c0.1,0,0.3,0,0.5,0c0.1,0,0.1,0,0.3,0.1c0.1,0.1,0.2,0.3,0.2,0.3c0,0.2,0,0.3-0.1,0.3c-0.1,0.3-0.3,0.5-0.4,0.7
					c-0.3,0.4-0.6,0.8-0.9,1.1l0.1-0.4c0.5,2.2,0.9,4.4,1.2,6.7c0.3,2.2,0.6,4.5,0.8,6.8c0.2,2.3,0.2,4.5,0.1,6.8
					c-0.1,2.3-0.4,4.5-1,6.7c0.5-2.2,0.5-4.5,0.5-6.7c0-2.2-0.2-4.5-0.4-6.7c-0.2-2.2-0.5-4.5-0.9-6.7c-0.4-2.2-0.7-4.4-1.2-6.6
					l0-0.2l0.1-0.2c0.3-0.3,0.6-0.7,0.9-1.1c0.1-0.2,0.3-0.4,0.3-0.5c0,0,0-0.1,0,0c0,0,0,0.1,0.1,0.2c0.1,0.1,0.1,0.1,0.1,0.1
					c0,0-0.1,0-0.2,0c-0.4,0-0.9,0.1-1.4,0.2c-0.5,0.1-0.9,0.2-1.4,0.3l-0.5,0.1l0.1-0.5c0.2-0.9,0.6-1.6,1-2.4
					c0.4-0.7,0.9-1.4,1.4-2.1C1025.6,346.1,1026.7,344.9,1027.9,343.8z"/>
			</g>
			<g>
				<path class="st87" d="M1045.7,355.2c0.9,4.4,1.3,9,0.8,13.6c-0.3,2.3-0.7,4.6-2,6.7c-1.2,2.1-3.1,3.7-5.4,4.3l0-0.1
					c2-1.2,3.4-2.8,4.4-4.8c1-1.9,1.7-4,2.1-6.2c0.4-2.2,0.5-4.4,0.5-6.7c0-2.3-0.1-4.5-0.4-6.8L1045.7,355.2z"/>
			</g>
			<g>
				<g>
					<g>
						<path class="st88" d="M1026.6,368c-0.3,0-0.6,0-1-0.2l0.2-0.4c1.1,0.4,2-0.1,2-0.2c2-1.3,2.5-6.4,2.5-6.4
							c0.3-3.2-1.7-7.3-1.7-7.3l0.4-0.2c0.1,0.2,2,4.3,1.7,7.6c0,0.2-0.5,5.4-2.7,6.8C1027.9,367.6,1027.4,368,1026.6,368z"/>
					</g>
					<g>
						<path class="st89" d="M1025.4,367.5c0,0-1,0-1.5-0.3c-0.5-0.3-0.9-0.8-0.5-1.2c0,0,1.6-0.8,2.2,1.2L1025.4,367.5z"/>
					</g>
				</g>
				<g>
					<g>
						<path class="st88" d="M1023.7,367.9c-0.6,0-1.1-0.3-1.1-0.4c-1.7-1.3-2.1-6.1-2.1-6.3c-0.4-3.1,0.6-6.8,0.6-7l0.4,0.1
							c0,0-1,3.8-0.6,6.9c0,0.1,0.4,4.8,1.9,6c0,0,0.7,0.5,1.5,0.1l0.2,0.3C1024.2,367.9,1023.9,367.9,1023.7,367.9z"/>
					</g>
					<g>
						<path class="st90" d="M1024.3,367.4c0,0,0.6-0.9,1.1-1.1s1.1-0.3,1.3,0.2c0,0-0.2,1.7-2.2,1.2L1024.3,367.4z"/>
					</g>
				</g>
				<g>
					<path class="st90" d="M1027.7,344.6c0,0,0.1-0.5,0.2-0.9c0,0-1.8,0.1-3.1,2.7c-0.3,0.6-0.4,1.1-0.5,2.6c0,0-3.4,0.9-3.5,5.6
						l0.9-0.3c0,0,0-2.7,1.5-3.8c0,0,2-1.4,3.3-0.5c0,0,1.1,0.1,1.7,3.5l0.9-0.1c0,0-0.2-4.4-3.8-4.5
						C1025.2,348.9,1025.3,345.5,1027.7,344.6z"/>
				</g>
			</g>
			<g>
				<g>
					<path class="st90" d="M1040.1,343.6c0,0,0.1,0.2,0.6,2.5c0.4,1.8,0.4,3.2,0.1,7.5c-0.1,2-1.3,7.9-1.3,7.9l-1-0.3
						c0,0,1.3-5.4,1.5-8.5c0,0,0.1-9.1-1-9.1C1039.1,343.6,1039.5,343.6,1040.1,343.6z"/>
				</g>
				<g>
					<ellipse class="st91" cx="1037.7" cy="363" rx="2.2" ry="1.9"/>
				</g>
				<g>
					<ellipse class="st88" cx="1037.7" cy="362.7" rx="2.2" ry="1.9"/>
				</g>
				<g>
					<ellipse class="st92" cx="1037.7" cy="362.7" rx="1.7" ry="1.5"/>
				</g>
			</g>
		</g>
		<g>
			<path class="st4" d="M971.4,372.1c0,0,0.1,0,0.2-0.1c1.1-0.3,2.1-0.5,3.2-0.8c0.3-0.1,0.6,0,0.7,0.3c0.1,0.2,0.1,0.5-0.1,0.7
				c-0.1,0.1-0.2,0.2-0.3,0.2c-1.1,0.3-2.1,0.5-3.2,0.8c-0.3,0.1-0.6-0.1-0.7-0.3C971.1,372.6,971.1,372.3,971.4,372.1z"/>
			<path class="st4" d="M992.2,360.7c-0.3,0.2-0.5,0.2-0.7,0c-0.2-0.2-0.3-0.4-0.2-0.7c0,0,0-0.1,0.1-0.1c0.5-0.9,1-1.9,1.6-2.8
				c0.2-0.4,0.5-0.4,0.9-0.3c0.3,0.2,0.4,0.4,0.2,0.7c-0.5,1-1.1,2-1.6,3C992.3,360.6,992.3,360.7,992.2,360.7z"/>
			<path class="st4" d="M971.6,363.6c0.2,0,0.4-0.1,0.5,0c1,0.3,2,0.6,2.9,0.9c0.3,0.1,0.5,0.4,0.4,0.7c-0.1,0.3-0.4,0.5-0.7,0.4
				c-1-0.3-2-0.6-2.9-0.9c-0.2-0.1-0.4-0.2-0.4-0.5C971.4,364,971.4,363.8,971.6,363.6z"/>
			<path class="st4" d="M978.2,357.6c0.3,0.4,0.6,0.8,0.8,1.2c0.3,0.4,0.1,0.8-0.3,1c-0.2,0.1-0.4,0-0.6-0.2
				c-0.6-0.8-1.2-1.6-1.8-2.4c-0.2-0.3-0.2-0.7,0.1-0.9c0.3-0.2,0.6-0.2,0.9,0.2C977.6,356.8,977.9,357.2,978.2,357.6
				C978.2,357.6,978.2,357.6,978.2,357.6z"/>
			<path class="st4" d="M986.1,357.6c-0.3,0.2-0.5,0.2-0.7,0.1c-0.2-0.1-0.3-0.3-0.3-0.6c0.1-1,0.2-1.9,0.3-2.9
				c0-0.3,0.4-0.6,0.7-0.5c0.3,0,0.5,0.3,0.5,0.7c-0.1,0.9-0.2,1.9-0.3,2.8C986.3,357.3,986.2,357.5,986.1,357.6z"/>
		</g>
		<g>
			<path class="st85" d="M978,363.3c0.5,0,21,0,21,0l5.6,13.9h-22.1L978,363.3z"/>

				<rect x="1004.2" y="376.4" transform="matrix(-1 -4.493129e-11 4.493129e-11 -1 2018.7142 753.6346)" class="st74" width="10.3" height="0.8"/>
		</g>
		<rect x="967.6" y="377.3" class="st93" width="100.4" height="47.1"/>
		<g>
			<path class="st4" d="M990.6,373.1c0.3,0,0.5-0.1,0.7-0.2c0.4-0.2,0.7-0.6,0.7-1.1c0-0.4-0.1-0.7-0.3-1c-0.1-0.1-0.1-0.1-0.2-0.2
				c-0.2-0.2-0.3-0.5-0.4-0.8c0-0.2-0.1-0.4-0.2-0.6c-0.2-0.3-0.5-0.4-0.9-0.3c-0.2,0.1-0.3,0.2-0.4,0.4c-0.1,0.2-0.1,0.4-0.1,0.7
				c0,0.3-0.1,0.5-0.2,0.8c-0.1,0.1-0.2,0.3-0.2,0.4c-0.2,0.5,0,1.3,0.4,1.6c0.2,0.2,0.5,0.2,0.8,0.2
				C990.5,373.1,990.5,373.1,990.6,373.1z"/>
			<path class="st4" d="M990.2,368.6c0.7,0,1.3-0.5,1.2-1.2C990.8,367.4,990.1,368,990.2,368.6z"/>
		</g>
		<g>
			<g>
				<path class="st6" d="M1086.4,421.8c0,1.5-1.2,2.7-2.7,2.7h-23.8c-1.5,0-2.7-1.2-2.7-2.7v-14.3c0-1.5,1.2-2.7,2.7-2.7h23.8
					c1.5,0,2.7,1.2,2.7,2.7V421.8z"/>
			</g>
			<path class="st7" d="M1081.8,404.8c1.4,0,2.5,1.2,2.5,2.7v14.3c0,1.5-1.1,2.7-2.5,2.7h-22.1c-1.4,0-2.5-1.2-2.5-2.7v-14.3
				c0-1.5,1.1-2.7,2.5-2.7H1081.8"/>
			<path class="st8" d="M1082.9,404.8c1.3,0,2.3,1.2,2.3,2.7v14.3c0,1.5-1.1,2.7-2.3,2.7h-20.8c-1.3,0-2.3-1.2-2.3-2.7v-14.3
				c0-1.5,1.1-2.7,2.3-2.7H1082.9"/>
			<g>
				<path class="st6" d="M1059.8,408c-0.3,0-0.5-0.2-0.5-0.5v-0.9c0-0.3,0.2-0.5,0.5-0.5h3c0.3,0,0.5,0.2,0.5,0.5v0.9
					c0,0.3-0.2,0.5-0.5,0.5H1059.8z"/>
			</g>
			<g>
				<path class="st6" d="M1080.8,408c-0.3,0-0.5-0.2-0.5-0.5v-0.9c0-0.3,0.2-0.5,0.5-0.5h3c0.3,0,0.5,0.2,0.5,0.5v0.9
					c0,0.3-0.2,0.5-0.5,0.5H1080.8z"/>
			</g>
			<path class="st9" d="M1070.3,421.1c-0.3,0-0.5-0.2-0.5-0.5v-2.5h-2.5c-0.3,0-0.5-0.2-0.5-0.5v-3.1c0-0.3,0.2-0.5,0.5-0.5h2.5
				v-2.5c0-0.3,0.2-0.5,0.5-0.5h3.1c0.3,0,0.5,0.2,0.5,0.5v2.5h2.5c0.3,0,0.5,0.2,0.5,0.5v3.1c0,0.3-0.2,0.5-0.5,0.5h-2.5v2.5
				c0,0.3-0.2,0.5-0.5,0.5H1070.3z"/>
			<g>
				<path class="st3" d="M1076.4,413.5h-2v-2c0-0.6-0.5-1-1-1h-3.1c-0.6,0-1,0.5-1,1v2h-2c-0.6,0-1,0.5-1,1v3.1c0,0.6,0.5,1,1,1h2v2
					c0,0.6,0.5,1,1,1h3.1c0.6,0,1-0.5,1-1v-2h2c0.6,0,1-0.5,1-1v-3.1C1077.4,413.9,1076.9,413.5,1076.4,413.5z M1076.4,417.5h-3v3
					h-3.1v-3h-3v-3.1h3v-3h3.1v3h3V417.5z"/>
				<path class="st3" d="M1083.7,403.1h-6v-1.2c0-1.6-1.3-2.8-2.8-2.8h-6.1c-1.6,0-2.8,1.3-2.8,2.8v1.2h-6c-2.4,0-4.4,2-4.4,4.4
					v14.3c0,2.4,2,4.4,4.4,4.4h23.8c2.4,0,4.4-2,4.4-4.4v-14.3C1088.1,405.1,1086.1,403.1,1083.7,403.1z M1067.6,401.9
					c0-0.6,0.5-1.2,1.2-1.2h6.1c0.6,0,1.2,0.5,1.2,1.2v1.2h-8.4V401.9z M1059.9,404.8h6v0.4c0,0.5,0.4,0.8,0.8,0.8s0.8-0.4,0.8-0.8
					v-0.4h8.4v0.2c0,0.5,0.4,0.8,0.8,0.8s0.8-0.4,0.8-0.8v-0.2h6c1.4,0,2.6,1.1,2.7,2.5c-0.4-0.4-1-0.7-1.6-0.7c0-0.5-0.5-1-1-1h-3
					c-0.5,0-1,0.4-1,1h-15.9c0-0.5-0.5-1-1-1h-3c-0.6,0-1,0.4-1,1c-0.6,0.1-1.2,0.4-1.6,0.7C1057.3,405.9,1058.5,404.8,1059.9,404.8
					z M1083.8,406.6v0.9h-3v-0.9H1083.8z M1062.8,406.6v0.9h-3v-0.9H1062.8z M1086.4,421.8c0,1.5-1.2,2.7-2.7,2.7h-23.8
					c-1.5,0-2.7-1.2-2.7-2.7v-12.2c0-1,0.7-1.8,1.6-2c0,0.5,0.5,1,1,1h3c0.6,0,1-0.4,1-1h15.9c0,0.6,0.5,1,1,1h3c0.5,0,1-0.4,1-1
					c0.9,0.2,1.6,1,1.6,2V421.8z"/>
			</g>
		</g>
		<polygon class="st94" points="1032,347.3 1032,359.7 1034,357.2 1033.6,347.3 		"/>
		<polygon class="st3" points="1067.4,354 1068,354.8 1058,377.3 1056.9,377.3 		"/>
	</g>
	<g>
		<path class="st3" d="M936.7,355c0,0.1,0,0.3-0.1,0.4c-0.5,1.1-1,2.2-1.5,3.3c-0.3,0.6-0.5,1.2-0.8,1.7c-0.1,0.3-0.3,0.3-0.6,0.2
			c0,0-0.1,0-0.1-0.1c-2.4-1.5-4.8-3.1-7.2-4.6c-1.5-0.9-3-1.9-4.5-2.9c-0.1-0.1-0.2-0.1-0.2-0.2c-0.1-0.2,0-0.4,0.3-0.5
			c5.7-1.5,11.5-2.9,17.2-4.4c0.2,0,0.3,0,0.5,0.1c0.1,0.1,0.1,0.3,0,0.5c-0.3,0.7-0.7,1.4-1,2.2c-0.4,1-0.9,1.9-1.3,2.9
			c-0.1,0.2-0.2,0.3-0.5,0.3c-0.1,0-0.2,0-0.4,0C936.6,354.3,936.6,354.6,936.7,355z M923.7,353.4
			C923.7,353.4,923.7,353.4,923.7,353.4c3.3,2.2,6.7,4.3,10,6.4c0.7-1.5,1.3-3,2-4.4C931.8,354.7,927.7,354.1,923.7,353.4z
			 M938.8,348.9c-4.6,1.2-9.1,2.3-13.6,3.5c0,0,0,0,0,0c0.1,0,0.1,0,0.2,0c3.5,0,7-0.1,10.5-0.1c0.2,0,0.4,0,0.6,0.2
			c0.2,0.2,0.3,0.3,0.5,0.5C937.5,351.6,938.1,350.3,938.8,348.9z M935.9,354.7c-0.1-0.6-0.1-1.1-0.2-1.7c-3.1,0-6.3,0.1-9.4,0.1
			c0,0,0,0,0,0C929.5,353.6,932.7,354.2,935.9,354.7z"/>
		<path class="st4" d="M935.8,355.4c-4-0.7-8.1-1.3-12.1-2c0,0,0,0,0,0c3.3,2.1,6.7,4.3,10.1,6.4
			C934.5,358.4,935.1,356.9,935.8,355.4z"/>
		<path class="st4" d="M936.9,353c0.6-1.4,1.2-2.7,1.9-4.1c-4.6,1.2-9.1,2.3-13.6,3.5c0,0,0,0,0,0c0.1,0,0.1,0,0.2,0
			c3.5,0,7-0.1,10.5-0.1c0.2,0,0.4,0,0.6,0.2C936.5,352.6,936.7,352.8,936.9,353z"/>
		<path class="st4" d="M926.3,353.1c3.2,0.5,6.4,1,9.6,1.6c-0.1-0.6-0.1-1.1-0.2-1.7C932.6,353,929.4,353,926.3,353.1
			C926.3,353.1,926.3,353.1,926.3,353.1z"/>
	</g>
	<g>
		<path class="st3" d="M965.6,359.4c0,0.2-0.1,0.3-0.2,0.4c-0.7,1.1-1.5,2.2-2.2,3.3c-0.4,0.6-0.8,1.1-1.1,1.7
			c-0.2,0.3-0.4,0.3-0.6,0.1c0,0-0.1-0.1-0.1-0.1c-2-2.2-4.1-4.5-6.1-6.7c-1.3-1.4-2.5-2.8-3.8-4.2c-0.1-0.1-0.1-0.2-0.2-0.3
			c-0.1-0.3,0.1-0.5,0.4-0.5c5.9-0.2,11.8-0.5,17.8-0.7c0.2,0,0.3,0,0.4,0.2c0.1,0.2,0,0.3-0.1,0.5c-0.5,0.7-1,1.4-1.4,2.1
			c-0.6,1-1.3,1.9-1.9,2.9c-0.2,0.2-0.3,0.3-0.5,0.2c-0.1,0-0.2-0.1-0.4-0.1C965.6,358.7,965.6,359.1,965.6,359.4z M953.3,354.7
			C953.3,354.7,953.2,354.7,953.3,354.7c2.8,3.2,5.6,6.3,8.5,9.4c1-1.5,1.9-2.9,2.9-4.4C960.8,358,957,356.4,953.3,354.7z
			 M968.9,353.3c-4.7,0.2-9.4,0.4-14.1,0.5c0,0,0,0,0,0c0.1,0,0.1,0,0.2,0c3.4,0.8,6.9,1.6,10.3,2.3c0.2,0,0.4,0.1,0.5,0.4
			c0.1,0.2,0.3,0.5,0.4,0.7C967.1,356,968,354.7,968.9,353.3z M964.9,359c0.1-0.7,0.1-1.3,0.2-1.9c-3.1-0.7-6.1-1.4-9.2-2.1
			c0,0,0,0,0,0C958.9,356.3,961.9,357.6,964.9,359z"/>
		<path class="st4" d="M964.6,359.7c-3.8-1.7-7.6-3.4-11.4-5c0,0,0,0,0,0c2.8,3.1,5.6,6.3,8.5,9.4
			C962.7,362.6,963.7,361.2,964.6,359.7z"/>
		<path class="st4" d="M966.2,357.3c0.9-1.3,1.8-2.7,2.7-4c-4.7,0.2-9.4,0.4-14.1,0.5c0,0,0,0,0,0c0.1,0,0.1,0,0.2,0
			c3.4,0.8,6.9,1.6,10.3,2.3c0.2,0,0.4,0.1,0.5,0.4C966,356.9,966.1,357.1,966.2,357.3z"/>
		<path class="st4" d="M955.8,355c3,1.3,6,2.7,9,4c0.1-0.7,0.1-1.3,0.2-1.9C962,356.3,958.9,355.6,955.8,355
			C955.9,355,955.9,355,955.8,355z"/>
	</g>
	<g>
		<g>
			<g>
				<g>
					<path class="st47" d="M220,398.4l-9.1,29.1c0,0-1.7,1.2-1.7-0.6l5.4-28.6H220z"/>
					<path class="st47" d="M226.1,398.4l9.1,29.1c0,0,1.7,1.2,1.7-0.6l-5.4-28.6H226.1z"/>
				</g>

					<rect x="205.8" y="394.7" transform="matrix(-1 -4.486867e-11 4.486867e-11 -1 446.6506 793.1176)" class="st95" width="35.1" height="3.8"/>
			</g>
			<g>
				<path class="st96" d="M138.6,408.6c-0.2,0.6-8,18.1-8.2,18.2c-0.2,0.1-1.7,0.8-1.7-0.6c0-0.4,4.3-17.6,4.3-17.6H138.6z"/>
				<path class="st96" d="M172.2,408c0.2,0.6,8,18.1,8.2,18.2c0.2,0.1,1.7,0.8,1.7-0.6c0-0.4-4.3-17.6-4.3-17.6H172.2z"/>
				<path class="st93" d="M125.5,376.2c0,0-4.3-11.4-6.2-14.9c-0.7-1.2-2.4-3.3-5-2.5c0,0-1.1,0.5,0,2.4l18.8,47.6l45-0.5l6.2-10.2
					c0,0,1.9-2.8-0.9-3.9l-48.4,0.6c0,0-2.9-0.1-5.1-7L125.5,376.2z"/>
			</g>
			<g>
				<g>
					<polygon class="st96" points="208.2,387.4 211.2,379.3 126.9,380.2 					"/>
					<polygon class="st4" points="210.6,388.4 217.2,388.4 216,394.7 208.2,394.7 					"/>
					<path class="st46" d="M221.2,382.8c0,0,2.7-5.3,5.4-3.9l-6,17.3l-4.6-1.5l1.2-6.2L221.2,382.8z"/>
					<polygon class="st4" points="213.2,383.8 209.7,383.3 207.6,388.4 212.7,388.4 					"/>
					<path class="st46" d="M219.2,373.7c0,0,2.1-3.6,3.3-1.9l-5.3,16.7h-4.5l0.5-4.6C213.2,383.8,216.6,376.9,219.2,373.7z"/>
					<path class="st46" d="M210.9,387.7l-2.7,7l-73.3,0.1c0,0-2.9-0.9-4.2-4.5l-3.8-10.1l41.2-0.3L210.9,387.7z"/>
				</g>
				<g>
					<path class="st46" d="M138.3,351.5h3.6c0,0,1.6,0.1,2.6,2.2l3.5,6.8c0,0,1.3,3,0,5.8l-5.3,9.3h-8.9l-7.1-17.3
						c0,0-4.5-5.9-8.3-0.1c0,0-0.1-6.4,9.3-6.3L138.3,351.5z"/>
					<path class="st3" d="M139.8,345.4h6.1c0,0,1-9.5-6.5-15.1c0,0-6.2-5-13,0c0,0-3.5,2.7-2.5,8.9c0,0,3,7.2,7.2,7.4L139.8,345.4z"
						/>
					<path class="st4" d="M136.8,334.4c0,0,3-1.4,3.5,0.4v2.7l1.1,3H140l-0.3,6.7h-2.5l1.3,5c0,0,2.3,4.9-2.3,5.2
						c0,0-7.7-0.1-8.4-5.2c0,0,4-1.9,3.2-6.5c0,0,3.2-2.4,1.5-3.8c-0.7-0.5-1.6-0.4-2-2.8c0,0-0.1-2.4,2.1-2c0,0,0.4,1.7,1.6,1.2
						L136.8,334.4z"/>
					<path class="st4" d="M145.4,371l3.6,4.7c0,0,3.2,3.1,8.9,1.6l10.6-12.7c0,0,1.5-1.8,2.3-1.8c0.8,0,4.7-0.4,4.7-1.2
						c0-0.8-0.4-2,0-2.2c0.4-0.2,2.7-1.4,2.7-1.5c0-0.2-6.4-0.6-7.5,0c-1.1,0.6-2.7,3.1-2.7,3.3c-0.1,0.3-11.5,9.7-11.5,9.7
						s-1.2,1.3-2.2-0.4l-5.7-8.3L145.4,371z"/>
					<path class="st4" d="M118.4,358.3l7.3,20.9h33.1c0,0-1.9-5.5-5.5-4.9c0,0-1.9,0.1-2.8,1.4h-16.8l-7.1-17.6
						C126.8,358.1,122.5,352.7,118.4,358.3z"/>
				</g>
			</g>
			<g>
				<g>
					<g>
						<path class="st4" d="M201.3,377.7c0,0-0.1-0.1-0.2-0.1c-1-0.4-2-0.9-3-1.3c-0.3-0.1-0.6-0.1-0.7,0.1c-0.2,0.2-0.2,0.5-0.1,0.7
							c0.1,0.1,0.2,0.2,0.3,0.2c1,0.4,2,0.9,3,1.3c0.3,0.1,0.6,0,0.8-0.2C201.5,378.3,201.5,378,201.3,377.7z"/>
						<path class="st4" d="M182.9,363.1c0.2,0.2,0.5,0.3,0.7,0.1c0.2-0.1,0.3-0.3,0.3-0.6c0,0,0-0.1,0-0.1c-0.3-1-0.7-2-1-3
							c-0.1-0.4-0.5-0.5-0.8-0.4c-0.3,0.1-0.4,0.4-0.3,0.7c0.4,1.1,0.7,2.2,1.1,3.2C182.8,363,182.9,363,182.9,363.1z"/>
						<path class="st4" d="M202.5,369.4c-0.2,0-0.4-0.1-0.5-0.1c-1,0.1-2,0.2-3,0.4c-0.3,0-0.5,0.3-0.5,0.7c0,0.3,0.3,0.5,0.6,0.5
							c1-0.1,2-0.3,3-0.4c0.2,0,0.4-0.2,0.5-0.4C202.7,369.8,202.7,369.6,202.5,369.4z"/>
						<path class="st4" d="M197.1,362.4c-0.3,0.3-0.7,0.7-1,1c-0.3,0.3-0.2,0.8,0.2,1c0.2,0.1,0.4,0.1,0.6-0.1
							c0.7-0.7,1.4-1.4,2.1-2.1c0.3-0.3,0.3-0.6,0.1-0.8c-0.3-0.3-0.6-0.3-0.9,0C197.8,361.8,197.5,362.1,197.1,362.4
							C197.1,362.4,197.1,362.4,197.1,362.4z"/>
						<path class="st4" d="M189.4,361.1c0.2,0.2,0.4,0.3,0.7,0.2c0.2-0.1,0.4-0.2,0.4-0.5c0.1-1,0.1-1.9,0.2-2.9
							c0-0.3-0.3-0.6-0.6-0.6c-0.3,0-0.6,0.2-0.6,0.6c-0.1,0.9-0.1,1.9-0.2,2.8C189.3,360.8,189.4,361,189.4,361.1z"/>
					</g>
					<g>
						<path class="st97" d="M193.7,367.6c-0.5,0-20.7,0-20.7,0l-4.6,11.6h21.8L193.7,367.6z"/>
						<rect x="158.4" y="378.4" class="st24" width="10.2" height="0.8"/>
					</g>
				</g>
				<g>
					<path class="st4" d="M181.5,375.7c-0.3,0-0.5-0.1-0.7-0.2c-0.4-0.2-0.6-0.6-0.7-1.1c0-0.4,0.1-0.7,0.4-0.9
						c0.1-0.1,0.1-0.1,0.2-0.2c0.2-0.2,0.3-0.5,0.4-0.8c0-0.2,0.1-0.4,0.2-0.6c0.2-0.3,0.5-0.4,0.9-0.3c0.2,0.1,0.3,0.2,0.4,0.4
						c0.1,0.2,0.1,0.4,0.1,0.7c0,0.3,0.1,0.5,0.2,0.8c0.1,0.1,0.2,0.3,0.2,0.4c0.2,0.5,0,1.2-0.5,1.6c-0.2,0.2-0.5,0.2-0.8,0.2
						C181.7,375.7,181.6,375.7,181.5,375.7z"/>
					<path class="st4" d="M182,371.3c-0.6,0-1.2-0.6-1.2-1.2C181.4,370,182,370.6,182,371.3z"/>
				</g>
			</g>
		</g>
		<polygon class="st93" points="192.1,379.1 190.2,382.3 125.7,382.4 124.4,379.1 		"/>
	</g>
	<g>
		<g>
			<path class="st7" d="M1018.8,232.2c0,7.8,6.3,14.1,14.1,14.1v-28.3C1025.1,218.1,1018.8,224.4,1018.8,232.2z"/>
			<path class="st16" d="M1032.9,218.1v28.3c7.8,0,14.1-6.3,14.1-14.1C1047.1,224.4,1040.7,218.1,1032.9,218.1z"/>
			<g>
				<g>
					<line class="st17" x1="1032.7" y1="239.2" x2="1032.7" y2="256.5"/>
					<line class="st17" x1="1032.7" y1="246.3" x2="1036.7" y2="242.9"/>
					<line class="st17" x1="1032.7" y1="243.3" x2="1029.2" y2="241"/>
				</g>
			</g>
		</g>
		<g>
			<path class="st7" d="M1069.5,216.9c0,13.3,6.7,24.2,14.9,24.2v-48.3C1076.2,192.7,1069.5,203.5,1069.5,216.9z"/>
			<g>
				<path class="st16" d="M1084.4,192.7V241c8.2,0,14.9-10.8,14.9-24.2S1092.6,192.7,1084.4,192.7z"/>
				<g>
					<g>
						<line class="st18" x1="1084.1" y1="229.3" x2="1084.1" y2="257.4"/>
						<line class="st18" x1="1084.1" y1="240.8" x2="1090.4" y2="235.3"/>
						<line class="st18" x1="1084.1" y1="235.9" x2="1078.3" y2="232.2"/>
					</g>
				</g>
			</g>
		</g>
		<g>
			<path class="st7" d="M1114.7,225.5c0,8.7,7,15.7,15.7,15.7v-31.5C1121.7,209.8,1114.7,216.8,1114.7,225.5z"/>
			<path class="st16" d="M1130.4,209.8v31.5c8.7,0,15.7-7.1,15.7-15.7C1146.1,216.8,1139.1,209.8,1130.4,209.8z"/>
			<g>
				<g>
					<line class="st20" x1="1130.2" y1="233.3" x2="1130.2" y2="252.6"/>
					<line class="st20" x1="1130.2" y1="241.2" x2="1134.6" y2="237.4"/>
					<line class="st20" x1="1130.2" y1="237.8" x2="1126.2" y2="235.2"/>
				</g>
			</g>
		</g>
		<g>
			<path class="st7" d="M1046.1,275.2c0,8.7,7,15.7,15.7,15.7v-31.5C1053.1,259.5,1046.1,266.5,1046.1,275.2z"/>
			<path class="st16" d="M1061.8,259.5V291c8.7,0,15.7-7,15.7-15.7S1070.5,259.5,1061.8,259.5z"/>
			<g>
				<g>
					<line class="st20" x1="1061.6" y1="283" x2="1061.6" y2="302.3"/>
					<line class="st20" x1="1061.6" y1="290.9" x2="1066" y2="287.1"/>
					<line class="st20" x1="1061.6" y1="287.5" x2="1057.6" y2="285"/>
				</g>
			</g>
		</g>
		<g>
			<path class="st7" d="M1100.9,284.8c0,7.8,6.3,14.1,14.1,14.1v-28.3C1107.2,270.7,1100.9,277,1100.9,284.8z"/>
			<path class="st16" d="M1115,270.7v28.3c7.8,0,14.1-6.3,14.1-14.1S1122.8,270.7,1115,270.7z"/>
			<g>
				<g>
					<line class="st17" x1="1114.8" y1="291.8" x2="1114.8" y2="309.1"/>
					<line class="st17" x1="1114.8" y1="298.9" x2="1118.7" y2="295.4"/>
					<line class="st17" x1="1114.8" y1="295.8" x2="1111.3" y2="293.5"/>
				</g>
			</g>
		</g>
	</g>
</g>
<g id="TEXT_LIMIT">
	<g class="st98">
		<polygon class="st99" points="1009,154.8 225.2,154.8 226,107.9 1009.7,107.9 		"/>
		<rect x="322.2" y="171.9" class="st99" width="586.9" height="33.4"/>
		<rect x="263.8" y="265.6" class="st99" width="719.5" height="48.5"/>
		<rect x="343.3" y="335.6" class="st99" width="560.4" height="13.6"/>
	</g>
</g>
</svg>
