<?xml version="1.0" encoding="UTF-8"?>
<svg width="27px" height="28px" viewBox="0 0 27 28" version="1.1" xmlns="http://www.w3.org/2000/svg" xmlns:xlink="http://www.w3.org/1999/xlink">
    <!-- Generator: Sketch 47 (45396) - http://www.bohemiancoding.com/sketch -->
    <title>Like</title>
    <desc>Created with Sketch.</desc>
    <defs>
        <polygon id="path-1" points="26.9522601 0.0415846219 26.9522601 22.2536694 0 22.2536694 0 0.0415846219 26.9522601 0.0415846219"></polygon>
    </defs>
    <g id="HOME-DOCTORES" stroke="none" stroke-width="1" fill="none" fill-rule="evenodd">
        <g id="3.-RESULTADO-DE-BÚSQUEDA" transform="translate(-594.000000, -466.000000)">
            <g id="Like" transform="translate(594.000000, 466.000000)">
                <g id="Group-3" transform="translate(0.000000, 5.207841)">
                    <mask id="mask-2" fill="white">
                        <use xlink:href="#path-1"></use>
                    </mask>
                    <g id="Clip-2"></g>
                    <path d="M1.63612923,9.09282882 L6.98082278,9.09282882 L6.98082278,19.829609 C6.98082278,20.3111395 6.56493569,20.7028861 6.05367762,20.7028861 L5.12653246,20.7028861 L5.12653246,18.1856576 C5.12653246,17.7601203 4.76029052,17.4151372 4.30847601,17.4151372 C3.85666149,17.4151372 3.49036512,17.7601203 3.49036512,18.1856576 L3.49036512,20.7028861 L1.63612923,20.7028861 L1.63612923,9.09282882 Z M8.62765948,10.4365095 C8.71279657,10.397745 8.80011109,10.3580576 8.88922198,10.3175498 C10.311349,9.67168061 12.2589962,8.78717416 13.9336494,7.447493 C15.9837442,5.80738731 17.1215002,3.85916572 17.3151272,1.65697541 C17.3174135,1.63087606 17.3708147,1.58272814 17.4147442,1.58272814 L17.4156151,1.58272814 C18.4039458,1.59729045 19.2080123,2.36688798 19.2080123,3.29826044 L19.2080123,3.55627995 C19.2080123,5.15813394 18.764472,6.17159886 17.8368369,7.54163526 L16.5356655,7.54163526 C16.083851,7.54163526 15.7176091,7.88661841 15.7176091,8.31220702 C15.7176091,8.73774435 16.083851,9.08277878 16.5356655,9.08277878 L18.2866917,9.08277878 L18.2891413,9.08277878 L23.516472,9.08277878 L24.3890183,9.08277878 C24.9002764,9.08277878 25.3162179,9.4745254 25.3162179,9.95610711 C25.3162179,10.4376888 24.9002764,10.8293842 24.3890183,10.8293842 L23.516472,10.8293842 L22.6438712,10.8293842 C22.1920567,10.8293842 21.8258147,11.1744699 21.8258147,11.6000072 C21.8258147,12.0255445 22.1920567,12.370579 22.6438712,12.370579 L23.516472,12.370579 L24.3577179,12.370579 C24.868976,12.370579 25.2849175,12.7623256 25.2849175,13.2439073 C25.2849175,13.725489 24.868976,14.1171844 24.3577179,14.1171844 L23.516472,14.1171844 L23.4851716,14.1171844 L22.6438712,14.1171844 C22.1920567,14.1171844 21.8258147,14.4622701 21.8258147,14.8878074 C21.8258147,15.3133447 22.1920567,15.6583792 22.6438712,15.6583792 L23.4851716,15.6583792 C23.9964296,15.6583792 24.4122623,16.0501771 24.4122623,16.5317075 C24.4122623,17.0132892 23.9964296,17.4049846 23.4851716,17.4049846 L22.6125708,17.4049846 C22.1607563,17.4049846 21.7944599,17.7500703 21.7944599,18.1756076 C21.7944599,18.6011962 22.1607563,18.9461794 22.6125708,18.9461794 C23.1237744,18.9461794 23.5397159,19.3379773 23.5397159,19.8195077 C23.5397159,20.3010894 23.1237744,20.692836 22.6125708,20.692836 L20.0260688,20.692836 C19.3922764,20.692836 18.7912542,20.6981687 18.2098833,20.7034501 C14.5631413,20.7358564 11.8839901,20.7598534 8.62765948,19.3357211 L8.62765948,10.4365095 Z M0.818072782,22.2440296 L6.05367762,22.2440296 C7.05643367,22.2440296 7.92609496,21.6985583 8.34699012,20.9062456 C11.2605405,22.0984578 13.791845,22.2536694 16.6986454,22.2536694 C17.1951514,22.2536694 17.7030889,22.2491572 18.2253429,22.2444398 C18.8027946,22.2393635 19.4000063,22.2339796 20.0260143,22.2339796 L22.6125163,22.2339796 C24.0259337,22.2339796 25.1757744,21.1508822 25.1757744,19.8195077 C25.1757744,19.3718705 25.0458369,18.9523324 24.8194942,18.5925819 C25.5559518,18.1678137 26.0483752,17.4029335 26.0483752,16.5317075 C26.0483752,16.0840703 25.9183833,15.6645323 25.692095,15.3047304 C26.4285526,14.8800135 26.920976,14.1151333 26.920976,13.2439073 C26.920976,12.6169076 26.6658913,12.0451319 26.2483712,11.6154412 C26.6841272,11.1824689 26.9522764,10.598387 26.9522764,9.95610711 C26.9522764,8.62473263 25.8023813,7.54163526 24.3890183,7.54163526 L23.5164175,7.54163526 L19.7415889,7.54163526 C20.4613349,6.31429924 20.8440708,5.15598036 20.8440708,3.55627995 L20.8440708,3.29769641 L20.8440708,3.29733748 C20.8437986,2.4367768 20.49073,1.62533828 19.8496978,1.01249068 C19.2089921,0.400002017 18.3536474,0.0552239677 17.4411998,0.0417384491 C17.4324901,0.0416358977 17.423726,0.0415846219 17.4150163,0.0415846219 C16.5305486,0.0415846219 15.7571837,0.704169683 15.6845667,1.52976031 C15.3383571,5.4667626 11.3108933,7.49564092 8.61693569,8.72964278 L8.61693569,8.32225706 C8.61693569,7.89666845 8.25069375,7.5516853 7.79887923,7.5516853 L0.818072782,7.5516853 C0.366258266,7.5516853 -3.81048385e-05,7.89666845 -3.81048385e-05,8.32225706 L-3.81048385e-05,21.4734578 C-3.81048385e-05,21.8990464 0.366258266,22.2440296 0.818072782,22.2440296 L0.818072782,22.2440296 Z" id="Fill-1" fill="#F5A623" mask="url(#mask-2)"></path>
                </g>
                <path d="M22.9089655,6.37447686 L24.6541672,6.37447686 C25.1059272,6.37447686 25.4722236,6.02944243 25.4722236,5.60390509 C25.4722236,5.17831649 25.1059272,4.83333333 24.6541672,4.83333333 L22.9089655,4.83333333 C22.457151,4.83333333 22.0909091,5.17831649 22.0909091,5.60390509 C22.0909091,6.02944243 22.457151,6.37447686 22.9089655,6.37447686" id="Fill-4" fill="#F5A623"></path>
                <path d="M10.6362383,6.37447686 L12.3814943,6.37447686 C12.8332,6.37447686 13.1994963,6.02944243 13.1994963,5.60390509 C13.1994963,5.17831649 12.8332,4.83333333 12.3814943,4.83333333 L10.6362383,4.83333333 C10.1844238,4.83333333 9.81818182,5.17831649 9.81818182,5.60390509 C9.81818182,6.02944243 10.1844238,6.37447686 10.6362383,6.37447686" id="Fill-6" fill="#F5A623"></path>
                <path d="M13.2550641,2.57966127 C13.4065581,2.82691287 13.6815662,2.9650497 13.9642496,2.9650497 C14.1030057,2.9650497 14.2437214,2.93177175 14.3725158,2.86167782 C14.763798,2.64893479 14.8978726,2.1776595 14.6719653,1.80908951 L13.7993645,0.3854187 C13.5734573,0.0168487093 13.0731408,-0.109443428 12.6819129,0.103402152 C12.2906307,0.316145181 12.1565561,0.787471746 12.3824633,1.15599046 L13.2550641,2.57966127 Z" id="Fill-8" fill="#F5A623"></path>
                <g id="Group-12" transform="translate(18.409091, 0.000000)" fill="#F5A623">
                    <path d="M0.446626815,2.86172447 C0.575421169,2.9318184 0.71608246,2.96509635 0.854892944,2.96509635 C1.13757641,2.96509635 1.41263891,2.82690824 1.56407843,2.57970792 L2.43673367,1.15603711 C2.66258649,0.787467116 2.5285119,0.316191826 2.13728407,0.103397522 C1.74600181,-0.109499334 1.24568528,0.016895355 1.01977802,0.385465346 L0.147231653,1.80913616 C-0.0787300403,2.17765487 0.0553445565,2.64893016 0.446626815,2.86172447" id="Fill-10"></path>
                </g>
            </g>
        </g>
    </g>
</svg>