<?xml version="1.0" encoding="utf-8"?>
<!-- Generator: Adobe Illustrator 21.1.0, SVG Export Plug-In . SVG Version: 6.00 Build 0)  -->
<svg version="1.1" id="Layer_1" xmlns="http://www.w3.org/2000/svg" xmlns:xlink="http://www.w3.org/1999/xlink" x="0px" y="0px"
	 viewBox="0 0 27 28" style="enable-background:new 0 0 27 28;" xml:space="preserve">
<style type="text/css">
	.st0{filter:url(#Adobe_OpacityMaskFilter);}
	.st1{fill:#FFFFFF;}
	.st2{mask:url(#mask-2);fill:#F5A623;}
	.st3{fill:#F5A623;}
</style>
<g id="HOME-DOCTORES">
	<g id="_x33_.-RESULTADO-DE-BÚSQUEDA" transform="translate(-594.000000, -466.000000)">
		<g id="Like" transform="translate(594.000000, 466.000000)">
			<g id="Group-3" transform="translate(0.000000, 5.207841)">
				<defs>
					<filter id="Adobe_OpacityMaskFilter" filterUnits="userSpaceOnUse" x="0" y="0" width="27" height="22.2">
						<feColorMatrix  type="matrix" values="1 0 0 0 0  0 1 0 0 0  0 0 1 0 0  0 0 0 1 0"/>
					</filter>
				</defs>
				<mask maskUnits="userSpaceOnUse" x="0" y="0" width="27" height="22.2" id="mask-2">
					<g class="st0">
						<polygon id="path-1" class="st1" points="27,0 27,22.3 0,22.3 0,0 						"/>
					</g>
				</mask>
				<path id="Fill-1" class="st2" d="M1.6,9.1H7v10.7c0,0.5-0.4,0.9-0.9,0.9H5.1v-2.5c0-0.4-0.4-0.8-0.8-0.8s-0.8,0.3-0.8,0.8v2.5
					H1.6V9.1z M8.6,10.4c0.1,0,0.2-0.1,0.3-0.1c1.4-0.6,3.4-1.5,5-2.9c2.1-1.6,3.2-3.6,3.4-5.8c0,0,0.1-0.1,0.1-0.1h0
					c1,0,1.8,0.8,1.8,1.7v0.3c0,1.6-0.4,2.6-1.4,4h-1.3c-0.5,0-0.8,0.3-0.8,0.8c0,0.4,0.4,0.8,0.8,0.8h1.8h0h5.2h0.9
					c0.5,0,0.9,0.4,0.9,0.9s-0.4,0.9-0.9,0.9h-0.9h-0.9c-0.5,0-0.8,0.3-0.8,0.8s0.4,0.8,0.8,0.8h0.9h0.8c0.5,0,0.9,0.4,0.9,0.9
					s-0.4,0.9-0.9,0.9h-0.8h0h-0.8c-0.5,0-0.8,0.3-0.8,0.8c0,0.4,0.4,0.8,0.8,0.8h0.8c0.5,0,0.9,0.4,0.9,0.9c0,0.5-0.4,0.9-0.9,0.9
					h-0.9c-0.5,0-0.8,0.3-0.8,0.8c0,0.4,0.4,0.8,0.8,0.8c0.5,0,0.9,0.4,0.9,0.9c0,0.5-0.4,0.9-0.9,0.9H20c-0.6,0-1.2,0-1.8,0
					c-3.6,0-6.3,0.1-9.6-1.4V10.4z M0.8,22.2h5.2c1,0,1.9-0.5,2.3-1.3c2.9,1.2,5.4,1.3,8.4,1.3c0.5,0,1,0,1.5,0c0.6,0,1.2,0,1.8,0
					h2.6c1.4,0,2.6-1.1,2.6-2.4c0-0.4-0.1-0.9-0.4-1.2c0.7-0.4,1.2-1.2,1.2-2.1c0-0.4-0.1-0.9-0.4-1.2c0.7-0.4,1.2-1.2,1.2-2.1
					c0-0.6-0.3-1.2-0.7-1.6c0.4-0.4,0.7-1,0.7-1.7c0-1.3-1.1-2.4-2.6-2.4h-0.9h-3.8c0.7-1.2,1.1-2.4,1.1-4V3.3v0
					c0-0.9-0.4-1.7-1-2.3c-0.6-0.6-1.5-1-2.4-1c0,0,0,0,0,0c-0.9,0-1.7,0.7-1.7,1.5c-0.3,3.9-4.4,6-7.1,7.2V8.3
					c0-0.4-0.4-0.8-0.8-0.8h-7C0.4,7.6,0,7.9,0,8.3v13.2C0,21.9,0.4,22.2,0.8,22.2L0.8,22.2z"/>
			</g>
			<path id="Fill-4" class="st3" d="M22.9,6.4h1.7c0.5,0,0.8-0.3,0.8-0.8c0-0.4-0.4-0.8-0.8-0.8h-1.7c-0.5,0-0.8,0.3-0.8,0.8
				C22.1,6,22.5,6.4,22.9,6.4"/>
			<path id="Fill-6" class="st3" d="M10.6,6.4h1.7c0.5,0,0.8-0.3,0.8-0.8c0-0.4-0.4-0.8-0.8-0.8h-1.7c-0.5,0-0.8,0.3-0.8,0.8
				C9.8,6,10.2,6.4,10.6,6.4"/>
			<path id="Fill-8" class="st3" d="M13.3,2.6C13.4,2.8,13.7,3,14,3c0.1,0,0.3,0,0.4-0.1c0.4-0.2,0.5-0.7,0.3-1.1l-0.9-1.4
				c-0.2-0.4-0.7-0.5-1.1-0.3c-0.4,0.2-0.5,0.7-0.3,1.1L13.3,2.6z"/>
			<g id="Group-12" transform="translate(18.409091, 0.000000)">
				<path id="Fill-10" class="st3" d="M0.4,2.9C0.6,2.9,0.7,3,0.9,3c0.3,0,0.6-0.1,0.7-0.4l0.9-1.4c0.2-0.4,0.1-0.8-0.3-1.1
					C1.7-0.1,1.2,0,1,0.4L0.1,1.8C-0.1,2.2,0.1,2.6,0.4,2.9"/>
			</g>
		</g>
	</g>
</g>
</svg>
