<?xml version="1.0" encoding="UTF-8"?>
<svg width="143px" height="40px" viewBox="0 0 143 40" version="1.1" xmlns="http://www.w3.org/2000/svg" xmlns:xlink="http://www.w3.org/1999/xlink">
    <!-- Generator: Sketch 47 (45396) - http://www.bohemiancoding.com/sketch -->
    <title>Page 1</title>
    <desc>Created with Sketch.</desc>
    <defs>
        <polygon id="path-1" points="0 39.6969697 142.870848 39.6969697 142.870848 0.00787878788 0 0.00787878788"></polygon>
    </defs>
    <g id="ADMIN-DR." stroke="none" stroke-width="1" fill="none" fill-rule="evenodd">
        <g id="1.-DASHBOARD" transform="translate(-46.000000, -991.000000)">
            <g id="Page-1" transform="translate(46.000000, 991.000000)">
                <polygon id="Fill-1" fill="#FFFFFF" points="42.3102379 27.3367576 43.1143495 27.3367576 43.1143495 31.4146364 45.2352653 31.4146364 45.2352653 32.1228182 42.3102379 32.1228182"></polygon>
                <g id="Group-44" transform="translate(0.000000, 0.295152)">
                    <path d="M47.2837779,30.3122121 C46.7379695,30.3122121 46.4944179,30.4976667 46.4944179,30.8100909 C46.4944179,31.1455455 46.7728916,31.2764545 47.0582895,31.2764545 C47.4659147,31.2764545 47.9463947,31.0076667 47.9463947,30.5964545 L47.9463947,30.3849394 C47.78202,30.3491818 47.5279316,30.3122121 47.2837779,30.3122121 Z M48.8450368,31.8931212 C48.4220579,31.8931212 48.0400221,31.7425152 48.0099168,31.3928182 C47.7841274,31.7443333 47.3539232,31.8955455 46.9393737,31.8955455 C46.2912074,31.8955455 45.7472053,31.5234242 45.7472053,30.8567576 C45.7472053,30.2003939 46.2704347,29.7522121 47.2000853,29.7522121 C47.4701295,29.7522121 47.7449905,29.7922121 47.9463947,29.8325152 L47.9463947,29.6619091 C47.9463947,29.2091818 47.6248705,29.0376667 47.1835274,29.0376667 C46.8466495,29.0376667 46.4920095,29.1373636 46.2249758,29.2840303 L45.9892516,28.7591818 C46.3592453,28.4928182 46.8692284,28.3937273 47.3168937,28.3937273 C48.2113211,28.3937273 48.7116705,28.7882727 48.7116705,29.5770606 L48.7116705,30.8443333 C48.7116705,31.1091818 48.7631505,31.2364545 48.9371589,31.3316061 L48.8450368,31.8931212 Z" id="Fill-2" fill="#FFFFFF"></path>
                    <path d="M51.8044143,28.4614848 L52.4423448,28.4614848 L52.5094796,28.9760303 L52.5164038,28.9784545 C52.7048627,28.5778485 52.9776164,28.3936061 53.4225722,28.3936061 C53.5767112,28.3936061 53.7224206,28.4160303 53.8639154,28.4578485 L53.7428922,29.1784545 C53.6218691,29.1411818 53.5065659,29.122697 53.3834354,29.122697 C52.723528,29.122697 52.5775175,29.6923939 52.5775175,30.3551212 L52.5775175,31.8275455 L51.8044143,31.8275455 L51.8044143,28.4614848 Z" id="Fill-4" fill="#FFFFFF"></path>
                    <path d="M56.77386,29.8458182 C56.7347232,29.4055152 56.4556474,29.0376364 55.9516853,29.0376364 C55.4793337,29.0376364 55.1382411,29.3603636 55.0696011,29.8458182 L56.77386,29.8458182 Z M56.0010579,31.8955152 C55.0545484,31.8955152 54.27994,31.2885455 54.27994,30.1652121 C54.27994,29.0727879 55.0202284,28.393697 55.9528895,28.393697 C56.9255905,28.393697 57.5313084,29.1270303 57.5313084,30.0870303 C57.5313084,30.194303 57.5222768,30.3097576 57.5141484,30.3761212 L55.0593653,30.3761212 C55.1144579,30.9255152 55.4937842,31.2573333 56.0498284,31.2573333 C56.3818895,31.2573333 56.7106389,31.1382424 56.9629211,30.9458182 L57.3127442,31.4309697 C56.9855,31.7212727 56.50502,31.8955152 56.0010579,31.8955152 L56.0010579,31.8955152 Z" id="Fill-6" fill="#FFFFFF"></path>
                    <path d="M60.8414423,30.1337576 C60.8414423,29.5319394 60.4889097,29.0828485 59.924436,29.0828485 C59.3723055,29.0828485 59.0074297,29.5113333 59.0074297,30.1449697 C59.0074297,30.8010303 59.3969918,31.2125455 59.9367792,31.2125455 C60.5437013,31.2125455 60.8414423,30.6919394 60.8414423,30.1337576 L60.8414423,30.1337576 Z M60.8908149,31.3455758 C60.633716,31.7116364 60.2239834,31.8952727 59.7724044,31.8952727 C58.8885139,31.8952727 58.2277034,31.1955758 58.2277034,30.1449697 C58.2277034,29.1867879 58.7858549,28.3937576 59.7724044,28.3937576 C60.1827392,28.3937576 60.5683876,28.5361818 60.8164549,28.8622424 L60.8164549,26.9652727 L61.5934718,26.8201212 L61.5934718,31.827697 L60.9561434,31.827697 L60.8908149,31.3455758 Z" id="Fill-8" fill="#FFFFFF"></path>
                    <path d="M65.7985147,31.2573939 C66.0980621,31.2573939 66.3952011,31.1628485 66.3952011,30.8834545 C66.3952011,30.2170909 64.6484937,30.677697 64.6484937,29.4304242 C64.6484937,28.7201212 65.2120642,28.3937576 65.8927442,28.3937576 C66.3449253,28.3937576 66.7507442,28.538 67.0599253,28.7819394 L66.7685063,29.2692121 C66.5168263,29.107697 66.2007211,29.0152727 65.9421168,29.0152727 C65.6651484,29.0152727 65.4065442,29.1225455 65.4065442,29.3770909 C65.4065442,30.037697 67.1664979,29.6116364 67.1664979,30.8504242 C67.1664979,31.5649697 66.5821547,31.8952727 65.8412642,31.8952727 C65.2897358,31.8952727 64.9308811,31.7095152 64.5274705,31.4001212 L64.8739821,30.9295152 C65.1611863,31.1267879 65.4471863,31.2573939 65.7985147,31.2573939" id="Fill-10" fill="#FFFFFF"></path>
                    <path d="M70.5568623,30.1405758 C70.5568623,29.5211818 70.1507423,29.083 69.6067402,29.083 C69.0630392,29.083 68.6505971,29.5184545 68.6505971,30.1451212 C68.6505971,30.7639091 69.0570181,31.2123939 69.6007192,31.2123939 C70.1396034,31.2123939 70.5568623,30.7639091 70.5568623,30.1405758 M67.8738813,30.1469394 C67.8738813,29.1017879 68.6259107,28.3936061 69.6091486,28.3936061 C70.5851613,28.3936061 71.3405023,29.0920909 71.3405023,30.1354242 C71.3405023,31.1836061 70.5788392,31.8954242 69.6007192,31.8954242 C68.6238034,31.8954242 67.8738813,31.1902727 67.8738813,30.1469394" id="Fill-12" fill="#FFFFFF"></path>
                    <path d="M75.0163549,31.4843636 C74.6767676,31.7425455 74.2510792,31.8952727 73.8007044,31.8952727 C72.9279528,31.8952727 72.0726623,31.318303 72.0726623,30.1649697 C72.0726623,29.0625455 72.8563023,28.3937576 73.8121444,28.3937576 C74.2306076,28.3937576 74.6629192,28.5234545 74.970896,28.7592121 L74.6445549,29.3067879 C74.4250876,29.1610303 74.1417971,29.0749697 73.8750644,29.0749697 C73.2847002,29.0749697 72.8493781,29.5043636 72.8493781,30.1425455 C72.8493781,30.778 73.2783781,31.2125455 73.866936,31.2125455 C74.135776,31.2125455 74.4229802,31.1216364 74.6421465,30.968303 L75.0163549,31.4843636 Z" id="Fill-14" fill="#FFFFFF"></path>
                    <mask id="mask-2" fill="white">
                        <use xlink:href="#path-1"></use>
                    </mask>
                    <g id="Clip-17"></g>
                    <path d="M75.8315453,31.8275758 L76.6070568,31.8275758 L76.6070568,28.4615152 L75.8315453,28.4615152 L75.8315453,31.8275758 Z M75.7352084,27.3836364 C75.7352084,27.1151515 75.9519663,26.8972727 76.2208063,26.8972727 C76.4872379,26.8972727 76.7045979,27.1151515 76.7045979,27.3836364 C76.7045979,27.6548485 76.4872379,27.8730303 76.2208063,27.8730303 C75.9519663,27.8730303 75.7352084,27.6548485 75.7352084,27.3836364 L75.7352084,27.3836364 Z" id="Fill-16" fill="#FFFFFF" mask="url(#mask-2)"></path>
                    <path d="M79.0143941,30.3122121 C78.4691878,30.3122121 78.2250341,30.4976667 78.2250341,30.8100909 C78.2250341,31.1455455 78.5029057,31.2764545 78.7889057,31.2764545 C79.1971331,31.2764545 79.6779141,31.0076667 79.6779141,30.5964545 L79.6779141,30.3849394 C79.5135394,30.3491818 79.2591499,30.3122121 79.0143941,30.3122121 L79.0143941,30.3122121 Z M80.5762552,31.8931212 C80.1535773,31.8931212 79.7721436,31.7425152 79.740232,31.3928182 C79.5156467,31.7443333 79.0851415,31.8955455 78.6699899,31.8955455 C78.0224257,31.8955455 77.4778215,31.5234242 77.4778215,30.8567576 C77.4778215,30.2003939 78.0019541,29.7522121 78.9304004,29.7522121 C79.2022509,29.7522121 79.4762088,29.7922121 79.6779141,29.8325152 L79.6779141,29.6619091 C79.6779141,29.2091818 79.3554867,29.0376667 78.9141436,29.0376667 C78.5778678,29.0376667 78.2232278,29.1373636 77.9570973,29.2840303 L77.7207709,28.7591818 C78.0898615,28.4928182 78.6004467,28.3937273 79.048112,28.3937273 C79.9425394,28.3937273 80.4422867,28.7882727 80.4422867,29.5770606 L80.4422867,30.8443333 C80.4422867,31.1091818 80.4937667,31.2364545 80.6683773,31.3316061 L80.5762552,31.8931212 Z" id="Fill-18" fill="#FFFFFF" mask="url(#mask-2)"></path>
                    <path d="M81.5930604,26.9652727 L82.3664646,26.8201212 L82.3664646,30.7807273 C82.3664646,31.0440606 82.4131278,31.1764848 82.6103173,31.277697 L82.5091636,31.8955758 C82.0344036,31.8955758 81.5930604,31.6310303 81.5930604,31.077697 L81.5930604,26.9652727 Z" id="Fill-19" fill="#FFFFFF" mask="url(#mask-2)"></path>
                    <path d="M87.9008958,30.1337576 C87.9008958,29.5319394 87.5483632,29.0828485 86.9832874,29.0828485 C86.4326621,29.0828485 86.0674853,29.5113333 86.0674853,30.1449697 C86.0674853,30.8010303 86.4564453,31.2125455 86.9962326,31.2125455 C87.6025526,31.2125455 87.9008958,30.6919394 87.9008958,30.1337576 L87.9008958,30.1337576 Z M87.9496663,31.3455758 C87.6934705,31.7116364 87.2828347,31.8952727 86.8318579,31.8952727 C85.9470642,31.8952727 85.2871568,31.1955758 85.2871568,30.1449697 C85.2871568,29.1867879 85.8447063,28.3937576 86.8318579,28.3937576 C87.2415905,28.3937576 87.6278411,28.5361818 87.8759084,28.8622424 L87.8759084,26.9652727 L88.6529253,26.8201212 L88.6529253,31.827697 L88.0155968,31.827697 L87.9496663,31.3455758 Z" id="Fill-20" fill="#FFFFFF" mask="url(#mask-2)"></path>
                    <path d="M92.0769775,29.8458182 C92.0384427,29.4055152 91.7593669,29.0376364 91.2551038,29.0376364 C90.7833543,29.0376364 90.4422617,29.3603636 90.3736217,29.8458182 L92.0769775,29.8458182 Z M91.3038743,31.8955152 C90.3585691,31.8955152 89.5830575,31.2885455 89.5830575,30.1652121 C89.5830575,29.0727879 90.3233459,28.393697 91.2575122,28.393697 C92.2290091,28.393697 92.8338238,29.1270303 92.8338238,30.0870303 C92.8338238,30.194303 92.8256954,30.3097576 92.8181691,30.3761212 L90.3624827,30.3761212 C90.4181775,30.9255152 90.7972027,31.2573333 91.3532469,31.2573333 C91.685308,31.2573333 92.0131543,31.1382424 92.2660385,30.9458182 L92.6173669,31.4309697 C92.2889185,31.7212727 91.8090406,31.8955152 91.3038743,31.8955152 L91.3038743,31.8955152 Z" id="Fill-21" fill="#FFFFFF" mask="url(#mask-2)"></path>
                    <path d="M95.3567954,26.9652727 L96.1301996,26.8201212 L96.1301996,30.7807273 C96.1301996,31.0440606 96.1777659,31.1764848 96.3749554,31.277697 L96.2744038,31.8955758 C95.7987406,31.8955758 95.3567954,31.6310303 95.3567954,31.077697 L95.3567954,26.9652727 Z" id="Fill-22" fill="#FFFFFF" mask="url(#mask-2)"></path>
                    <path d="M98.6022331,30.3122121 C98.0564246,30.3122121 97.8122709,30.4976667 97.8122709,30.8100909 C97.8122709,31.1455455 98.0913467,31.2764545 98.3761425,31.2764545 C98.784972,31.2764545 99.2648499,31.0076667 99.2648499,30.5964545 L99.2648499,30.3849394 C99.1013783,30.3491818 98.8466878,30.3122121 98.6022331,30.3122121 L98.6022331,30.3122121 Z M100.163492,31.8931212 C99.7393088,31.8931212 99.3596815,31.7425152 99.3289741,31.3928182 C99.1025825,31.7443333 98.6714752,31.8955455 98.2578288,31.8955455 C97.6096625,31.8955455 97.0656604,31.5234242 97.0656604,30.8567576 C97.0656604,30.2003939 97.5888899,29.7522121 98.5182394,29.7522121 C98.7891867,29.7522121 99.0640478,29.7922121 99.2648499,29.8325152 L99.2648499,29.6619091 C99.2648499,29.2091818 98.9430246,29.0376667 98.5019825,29.0376667 C98.1642015,29.0376667 97.8104646,29.1373636 97.5428288,29.2840303 L97.3071046,28.7591818 C97.6767973,28.4928182 98.1870815,28.3937273 98.6359509,28.3937273 C99.5294752,28.3937273 100.030126,28.7882727 100.030126,29.5770606 L100.030126,30.8443333 C100.030126,31.1091818 100.081606,31.2364545 100.255614,31.3316061 L100.163492,31.8931212 Z" id="Fill-23" fill="#FFFFFF" mask="url(#mask-2)"></path>
                    <path d="M103.595763,31.2573939 C103.894106,31.2573939 104.191546,31.1628485 104.191546,30.8834545 C104.191546,30.2170909 102.443635,30.677697 102.443635,29.4304242 C102.443635,28.7201212 103.007807,28.3937576 103.68939,28.3937576 C104.140969,28.3937576 104.546487,28.538 104.85627,28.7819394 L104.565152,29.2692121 C104.312569,29.107697 103.996464,29.0152727 103.738763,29.0152727 C103.461795,29.0152727 103.20319,29.1225455 103.20319,29.3770909 C103.20319,30.037697 104.962241,29.6116364 104.962241,30.8504242 C104.962241,31.5649697 104.377898,31.8952727 103.637007,31.8952727 C103.086382,31.8952727 102.726624,31.7095152 102.323213,31.4001212 L102.669725,30.9295152 C102.956929,31.1267879 103.242929,31.2573939 103.595763,31.2573939" id="Fill-24" fill="#FFFFFF" mask="url(#mask-2)"></path>
                    <path d="M107.155199,30.3122121 C106.609691,30.3122121 106.364935,30.4976667 106.364935,30.8100909 C106.364935,31.1455455 106.64371,31.2764545 106.92971,31.2764545 C107.337335,31.2764545 107.818116,31.0076667 107.818116,30.5964545 L107.818116,30.3849394 C107.653742,30.3491818 107.399954,30.3122121 107.155199,30.3122121 L107.155199,30.3122121 Z M108.715855,31.8931212 C108.29378,31.8931212 107.911443,31.7425152 107.881337,31.3928182 C107.655849,31.7443333 107.225344,31.8955455 106.810794,31.8955455 C106.161123,31.8955455 105.618325,31.5234242 105.618325,30.8567576 C105.618325,30.2003939 106.141855,29.7522121 107.071506,29.7522121 C107.34155,29.7522121 107.616411,29.7922121 107.818116,29.8325152 L107.818116,29.6619091 C107.818116,29.2091818 107.495388,29.0376667 107.054346,29.0376667 C106.71807,29.0376667 106.36343,29.1373636 106.096396,29.2840303 L105.860973,28.7591818 C106.229161,28.4928182 106.740047,28.3937273 107.187411,28.3937273 C108.081236,28.3937273 108.582489,28.7882727 108.582489,29.5770606 L108.582489,30.8443333 C108.582489,31.1091818 108.633367,31.2364545 108.807977,31.3316061 L108.715855,31.8931212 Z" id="Fill-25" fill="#FFFFFF" mask="url(#mask-2)"></path>
                    <path d="M109.731788,26.9652727 L110.505794,26.8201212 L110.505794,30.7807273 C110.505794,31.0440606 110.55336,31.1764848 110.75055,31.277697 L110.649396,31.8955758 C110.173733,31.8955758 109.731788,31.6310303 109.731788,31.077697 L109.731788,26.9652727 Z" id="Fill-26" fill="#FFFFFF" mask="url(#mask-2)"></path>
                    <path d="M114.660049,31.8276364 L114.020011,31.8276364 L113.957392,31.3815758 C113.706013,31.744303 113.31615,31.8955152 112.887752,31.8955152 C112.058653,31.8955152 111.651028,31.3385455 111.651028,30.5012727 L111.651028,28.4615758 L112.427142,28.4615758 L112.427142,30.4646061 C112.427142,30.9167273 112.654136,31.193697 113.109929,31.193697 C113.609677,31.193697 113.883032,30.8555152 113.883032,30.3452121 L113.883032,28.4615758 L114.660049,28.4615758 L114.660049,31.8276364 Z" id="Fill-27" fill="#FFFFFF" mask="url(#mask-2)"></path>
                    <path d="M118.206509,30.1337576 C118.206509,29.5319394 117.853977,29.0828485 117.289503,29.0828485 C116.737975,29.0828485 116.373099,29.5113333 116.373099,30.1449697 C116.373099,30.8010303 116.762059,31.2125455 117.301846,31.2125455 C117.908768,31.2125455 118.206509,30.6919394 118.206509,30.1337576 L118.206509,30.1337576 Z M118.255882,31.3455758 C117.999686,31.7116364 117.589051,31.8952727 117.137472,31.8952727 C116.252678,31.8952727 115.593373,31.1955758 115.593373,30.1449697 C115.593373,29.1867879 116.150922,28.3937576 117.137472,28.3937576 C117.547806,28.3937576 117.934057,28.5361818 118.181522,28.8622424 L118.181522,26.9652727 L118.958539,26.8201212 L118.958539,31.827697 L118.321813,31.827697 L118.255882,31.3455758 Z" id="Fill-28" fill="#FFFFFF" mask="url(#mask-2)"></path>
                    <path d="M119.972575,31.3914545 C119.972575,31.1126667 120.195956,30.8884242 120.472924,30.8884242 C120.750495,30.8884242 120.972671,31.1126667 120.972671,31.3914545 C120.972671,31.6723636 120.750495,31.8953939 120.472924,31.8953939 C120.195956,31.8953939 119.972575,31.6723636 119.972575,31.3914545" id="Fill-29" fill="#FFFFFF" mask="url(#mask-2)"></path>
                    <polygon id="Fill-30" fill="#FFFFFF" mask="url(#mask-2)" points="37.2775411 34.5639394 38.3616316 34.5639394 38.3616316 24.1521212 37.2775411 24.1521212"></polygon>
                    <polygon id="Fill-31" fill="#FFFFFF" mask="url(#mask-2)" points="37.2775411 21.0109091 40.4912779 21.0109091 40.4912779 6.34272727 37.2775411 6.34272727"></polygon>
                    <path d="M41.9220305,6.34263636 L44.8822811,6.34263636 L44.8822811,8.84293939 L44.9370726,8.89839394 C45.4124347,8.10778788 46.0335063,7.48627273 46.8008895,7.03657576 C47.5682726,6.58536364 48.4181442,6.36051515 49.3499021,6.36051515 C50.9030326,6.36051515 52.1277147,6.76475758 53.0236474,7.57445455 C53.9189779,8.38324242 54.3660411,9.59809091 54.3660411,11.2168788 L54.3660411,21.0108182 L51.2414158,21.0108182 L51.2414158,12.0441515 C51.2043863,10.9226364 50.9671568,10.1077879 50.5294263,9.60233333 C50.0901905,9.0959697 49.4055968,8.84293939 48.4729358,8.84293939 C47.9427821,8.84293939 47.46742,8.93960606 47.0477526,9.13263636 C46.6271821,9.3259697 46.2707358,9.59324242 45.9787147,9.93354545 C45.6857905,10.2741515 45.4578937,10.6741515 45.2935189,11.1335455 C45.1288432,11.5935455 45.0466558,12.0814242 45.0466558,12.5959697 L45.0466558,21.0108182 L41.9220305,21.0108182 L41.9220305,6.34263636 Z" id="Fill-32" fill="#FFFFFF" mask="url(#mask-2)"></path>
                    <path d="M72.9042901,12.4621212 C72.8684648,11.9778788 72.7661069,11.5118182 72.5969154,11.0636364 C72.4274227,10.6160606 72.1962143,10.2257576 71.9029891,9.89454545 C71.6091617,9.56272727 71.2530164,9.29454545 70.8342522,9.08818182 C70.4157891,8.88181818 69.9482543,8.77848485 69.431648,8.77848485 C68.8972796,8.77848485 68.4128859,8.87242424 67.9763596,9.06060606 C67.5398333,9.24878788 67.1659259,9.50939394 66.8546375,9.84121212 C66.5427469,10.1727273 66.2937764,10.5624242 66.1068227,11.01 C65.9198691,11.4584848 65.8169091,11.9424242 65.8000501,12.4621212 L72.9042901,12.4621212 Z M65.8000501,14.4778788 C65.8000501,15.0163636 65.8756143,15.5357576 66.0267427,16.0372727 C66.1778712,16.539697 66.4045638,16.9784848 66.7080248,17.3548485 C67.0102817,17.7312121 67.3932206,18.0312121 67.8565406,18.2548485 C68.3189575,18.4793939 68.8713891,18.5915152 69.5123301,18.5915152 C70.4019406,18.5915152 71.1187469,18.3984848 71.662448,18.0130303 C72.2046438,17.6281818 72.6104627,17.0506061 72.8774964,16.2793939 L75.7618817,16.2793939 C75.6011196,17.0327273 75.3250543,17.7039394 74.9339869,18.2960606 C74.5417154,18.8875758 74.0702669,19.3845455 73.5184375,19.7875758 C72.9669091,20.1909091 72.3479448,20.4960606 71.662448,20.7015152 C70.9766501,20.9072727 70.2601448,21.0109091 69.5123301,21.0109091 C68.4258312,21.0109091 67.4642691,20.8315152 66.6279448,20.4736364 C65.7907175,20.1148485 65.0829427,19.6130303 64.5043196,18.9675758 C63.9250943,18.3230303 63.4894712,17.5518182 63.1956438,16.6557576 C62.9012143,15.76 62.7546017,14.7736364 62.7546017,13.6984848 C62.7546017,12.7130303 62.9102459,11.7757576 63.2221364,10.8893939 C63.5337259,10.0021212 63.9786817,9.22212121 64.5585091,8.55030303 C65.1362291,7.87757576 65.8352733,7.34515152 66.6538354,6.95090909 C67.4726985,6.55636364 68.3990375,6.35909091 69.431648,6.35909091 C70.5181469,6.35909091 71.4926543,6.58848485 72.3569764,7.04515152 C73.2200943,7.50181818 73.9365996,8.10636364 74.5058901,8.85939394 C75.0760838,9.61212121 75.4903322,10.4769697 75.7483343,11.4536364 C76.0063364,12.4306061 76.072568,13.4390909 75.9488354,14.4778788 L65.8000501,14.4778788 Z" id="Fill-33" fill="#FFFFFF" mask="url(#mask-2)"></path>
                    <path d="M77.1525341,6.34233333 L80.0877973,6.34233333 L80.0877973,9.49051515 L80.143492,9.49051515 C80.2344099,9.10415152 80.4129341,8.72627273 80.6778604,8.35778788 C80.9421846,7.98990909 81.2628057,7.65384848 81.6382183,7.35051515 C82.0130288,7.04687879 82.4290836,6.80293939 82.8860815,6.61748485 C83.3430794,6.43475758 83.810012,6.34233333 84.2850731,6.34233333 C84.6511531,6.34233333 84.902532,6.3520303 85.0404141,6.36960606 C85.177092,6.38839394 85.3182857,6.40718182 85.4651994,6.42475758 L85.4651994,9.46263636 C85.2460331,9.42627273 85.0217488,9.39354545 84.7929488,9.36627273 C84.5641488,9.33809091 84.3404667,9.32475758 84.1203973,9.32475758 C83.5905446,9.32475758 83.0920015,9.43081818 82.6256709,9.6420303 C82.1587383,9.85384848 81.7526183,10.1659697 81.4046015,10.5811212 C81.0565846,10.9953636 80.7832288,11.5056667 80.5815236,12.1135455 C80.3804204,12.7205152 80.2798688,13.4211212 80.2798688,14.2123333 L80.2798688,21.0053636 L77.1525341,21.0053636 L77.1525341,6.34233333 Z" id="Fill-34" fill="#FFFFFF" mask="url(#mask-2)"></path>
                    <path d="M86.8960122,6.35593939 L89.8586712,6.35593939 L89.8586712,8.72927273 L89.9408585,8.72927273 C90.1774859,8.37957576 90.4342838,8.05745455 90.7085427,7.76351515 C90.9828017,7.46927273 91.287768,7.22078788 91.6258501,7.01836364 C91.9651364,6.81593939 92.3534943,6.65412121 92.7915259,6.53563636 C93.2316648,6.41563636 93.7338206,6.35593939 94.3010038,6.35593939 C95.1605091,6.35593939 95.9601048,6.5489697 96.7003933,6.9350303 C97.4400796,7.322 97.9663196,7.91987879 98.2761027,8.72927273 C98.8068585,7.99351515 99.4188985,7.41351515 100.113126,6.99078788 C100.808557,6.56715152 101.67589,6.35593939 102.719037,6.35593939 C104.217075,6.35593939 105.381848,6.72412121 106.21456,7.46018182 C107.045766,8.19624242 107.461821,9.42927273 107.461821,11.1577576 L107.461821,21.0107879 L104.336292,21.0107879 L104.336292,12.6756364 C104.336292,12.1062424 104.318229,11.5859394 104.280597,11.1168485 C104.244471,10.6468485 104.138802,10.2432121 103.965696,9.90230303 C103.791688,9.562 103.532181,9.29987879 103.184465,9.11593939 C102.838254,8.932 102.361989,8.83927273 101.759583,8.83927273 C100.698071,8.83927273 99.9309891,9.17078788 99.4556269,9.83381818 C98.9802648,10.4950303 98.7436375,11.4338182 98.7436375,12.6489697 L98.7436375,21.0107879 L95.6163027,21.0107879 L95.6163027,11.8477576 C95.6163027,10.8547273 95.4380796,10.1044242 95.0819343,9.5989697 C94.7263912,9.09230303 94.0722038,8.83927273 93.1205764,8.83927273 C92.7186712,8.83927273 92.3303133,8.92260606 91.9558038,9.08775758 C91.5800901,9.25381818 91.2522438,9.49321212 90.9686522,9.80563636 C90.6850606,10.1186667 90.4565617,10.5044242 90.2831554,10.9650303 C90.109448,11.4250303 90.0218417,11.9495758 90.0218417,12.5380606 L90.0218417,21.0107879 L86.8960122,21.0107879 L86.8960122,6.35593939 Z" id="Fill-35" fill="#FFFFFF" mask="url(#mask-2)"></path>
                    <path d="M118.725855,12.4585758 C118.689428,11.9743333 118.587672,11.5085758 118.419083,11.0603939 C118.248988,10.6128182 118.01778,10.2228182 117.724253,9.89160606 C117.431028,9.55978788 117.074281,9.29160606 116.656721,9.08524242 C116.238559,8.87887879 115.770422,8.77584848 115.254719,8.77584848 C114.719748,8.77584848 114.235354,8.86978788 113.799129,9.05766667 C113.362904,9.24584848 112.988695,9.50645455 112.677708,9.83827273 C112.366721,10.1694848 112.116245,10.5591818 111.929291,11.0067576 C111.74294,11.4549394 111.641485,11.9388788 111.622519,12.4585758 L118.725855,12.4585758 Z M111.622519,14.4737273 C111.622519,15.0122121 111.698685,15.531303 111.850415,16.0328182 C112.000942,16.5352424 112.227634,16.9737273 112.530192,17.3500909 C112.833051,17.7264545 113.215388,18.0261515 113.678407,18.2500909 C114.142028,18.4749394 114.693255,18.5864545 115.334799,18.5864545 C116.224409,18.5864545 116.940613,18.3934242 117.484013,18.0082727 C118.026209,17.6234242 118.432028,17.0461515 118.699062,16.2749394 L121.582243,16.2749394 C121.423287,17.0282727 121.14662,17.6991818 120.75495,18.291 C120.363582,18.8822121 119.891531,19.3794848 119.340003,19.7822121 C118.788474,20.1855455 118.168908,20.4903939 117.484013,20.6964545 C116.798817,20.9016061 116.082914,21.0052424 115.334799,21.0052424 C114.248902,21.0052424 113.286436,20.8258485 112.451015,20.4685758 C111.613487,20.1094848 110.906013,19.6079697 110.327691,18.9625152 C109.74967,18.3179697 109.312542,17.5470606 109.018714,16.651303 C108.72579,15.7555455 108.578575,14.7694848 108.578575,13.6943333 C108.578575,12.7094848 108.73422,11.7722121 109.04611,10.8864545 C109.358001,9.99887879 109.802354,9.21918182 110.380676,8.54766667 C110.958999,7.87493939 111.658946,7.34251515 112.476906,6.94827273 C113.295468,6.55433333 114.222409,6.35706061 115.254719,6.35706061 C116.340314,6.35706061 117.315123,6.58615152 118.178843,7.04281818 C119.04166,7.49948485 119.758165,8.10372727 120.327756,8.85645455 C120.897649,9.60918182 121.310693,10.4737273 121.568996,11.4503939 C121.826396,12.4270606 121.894735,13.4352424 121.770401,14.4737273 L111.622519,14.4737273 Z" id="Fill-36" fill="#FFFFFF" mask="url(#mask-2)"></path>
                    <path d="M126.018012,13.8287273 C126.018012,14.4199394 126.094179,15.0026667 126.245307,15.5753939 C126.395833,16.1502424 126.627644,16.6605455 126.938932,17.1084242 C127.250221,17.556 127.646406,17.9141818 128.127488,18.1835758 C128.608269,18.4520606 129.17756,18.586303 129.835962,18.586303 C130.51333,18.586303 131.096168,18.4432727 131.585379,18.156 C132.07489,17.8702424 132.474989,17.4938788 132.788084,17.0281212 C133.098168,16.5614545 133.329979,16.0375152 133.481709,15.4547879 C133.632838,14.8723636 133.708402,14.2766061 133.708402,13.6675152 C133.708402,12.126303 133.365202,10.9253939 132.679404,10.0653939 C131.995412,9.206 131.065461,8.77509091 129.88985,8.77509091 C129.17756,8.77509091 128.577562,8.9229697 128.086545,9.21872727 C127.598238,9.51509091 127.197537,9.90024242 126.886248,10.3753939 C126.574358,10.8502424 126.352181,11.3875152 126.218815,11.9878182 C126.084545,12.5875152 126.018012,13.2017576 126.018012,13.8287273 L126.018012,13.8287273 Z M136.646977,21.0053939 L133.761989,21.0053939 L133.761989,18.7478182 L133.708402,18.7478182 C133.29897,19.5541818 132.702886,20.1320606 131.919547,20.4811515 C131.136509,20.8308485 130.308615,21.0053939 129.435261,21.0053939 C128.350267,21.0053939 127.402855,20.8126667 126.591819,20.4278182 C125.781686,20.0429697 125.110941,19.5187273 124.576873,18.8550909 C124.042806,18.1926667 123.640901,17.4084242 123.373867,16.5032727 C123.106833,15.5987273 122.974069,14.6269091 122.974069,13.5869091 C122.974069,12.3329697 123.142659,11.2481212 123.481343,10.3347879 C123.819425,9.42054545 124.269198,8.66812121 124.829457,8.07660606 C125.390318,7.48509091 126.030958,7.05054545 126.751979,6.77266667 C127.473,6.496 128.207568,6.35660606 128.955985,6.35660606 C129.382577,6.35660606 129.819705,6.39690909 130.26436,6.47690909 C130.707509,6.55781818 131.136509,6.68812121 131.54564,6.86630303 C131.954469,7.04690909 132.332892,7.27418182 132.679404,7.55236364 C133.028625,7.83024242 133.316431,8.15690909 133.548242,8.53327273 L133.601528,8.53327273 L133.601528,1.86145455 L136.646977,1.86145455 L136.646977,21.0053939 Z" id="Fill-37" fill="#FFFFFF" mask="url(#mask-2)"></path>
                    <path d="M140.885286,18.175303 C140.885286,18.2528788 140.858191,18.3131818 140.800991,18.3598485 C140.760349,18.3937879 140.663711,18.4340909 140.433707,18.4340909 L140.084787,18.4340909 L140.084787,17.9240909 L140.407816,17.9240909 C140.606511,17.9240909 140.693214,17.9416667 140.730244,17.9562121 C140.779616,17.9759091 140.818151,18.005303 140.844644,18.0443939 C140.87204,18.0831818 140.885286,18.1259091 140.885286,18.175303 M140.941583,18.8189394 C140.931347,18.8095455 140.92081,18.8004545 140.910273,18.7916667 C141.02648,18.755303 141.125827,18.6943939 141.207412,18.6086364 C141.331747,18.4783333 141.395269,18.3225758 141.395269,18.1456061 C141.395269,18.0195455 141.357336,17.8995455 141.282374,17.7883333 C141.20681,17.6765152 141.104151,17.5971212 140.977107,17.5513636 C140.856385,17.5092424 140.663711,17.4874242 140.405408,17.4874242 L139.595576,17.4874242 L139.595576,19.7959091 L140.084787,19.7959091 L140.084787,18.8762121 L140.21725,18.8762121 C140.322016,18.8762121 140.400892,18.8965152 140.453576,18.9371212 C140.511077,18.9789394 140.616446,19.0968182 140.795271,19.4183333 L141.006911,19.7959091 L141.600587,19.7959091 L141.270934,19.2619697 C141.141482,19.054697 141.034307,18.9101515 140.941583,18.8189394" id="Fill-38" fill="#FFFFFF" mask="url(#mask-2)"></path>
                    <path d="M142.3366,18.6085455 C142.3366,18.9188485 142.256219,19.2221818 142.098769,19.5103636 C141.941619,19.7955152 141.717636,20.0206667 141.433443,20.1797576 C140.862647,20.5000606 140.209363,20.5000606 139.638567,20.1797576 C139.353771,20.0203636 139.130089,19.7952121 138.972036,19.5100606 C138.812478,19.2224848 138.731796,18.9191515 138.731796,18.6085455 C138.731796,18.2964242 138.813984,17.9900606 138.976251,17.6979394 C139.137615,17.4088485 139.364007,17.183697 139.649405,17.0285455 C139.935104,16.8724848 140.233748,16.7933939 140.536005,16.7933939 C140.836455,16.7933939 141.134497,16.8724848 141.421701,17.0285455 C141.707701,17.184 141.934093,17.4088485 142.093952,17.6979394 C142.256821,17.9927879 142.3366,18.2906667 142.3366,18.6085455 M142.558777,17.4300606 C142.351051,17.0533939 142.056923,16.7600606 141.683918,16.5585455 C140.940619,16.1555152 140.129584,16.1564242 139.38779,16.5582424 C139.01599,16.7594545 138.720356,17.0527879 138.510824,17.4297576 C138.303398,17.8046061 138.19803,18.2009697 138.19803,18.6085455 C138.19803,19.013697 138.302194,19.4067273 138.507211,19.7767273 C138.712228,20.1497576 139.003948,20.4430909 139.373941,20.6494545 C139.742731,20.8546061 140.133497,20.9588485 140.536005,20.9588485 C140.93791,20.9588485 141.328676,20.8546061 141.697466,20.6494545 C142.066255,20.4446061 142.357975,20.1506667 142.562992,19.7767273 C142.767407,19.4058182 142.870969,19.0127879 142.870969,18.6085455 C142.870969,18.2003636 142.7656,17.804 142.558777,17.4300606" id="Fill-39" fill="#FFFFFF" mask="url(#mask-2)"></path>
                    <polygon id="Fill-40" fill="#FFFFFF" mask="url(#mask-2)" points="37.2775411 5.08212121 40.4912779 5.08212121 40.4912779 1.8469697 37.2775411 1.8469697"></polygon>
                    <path d="M60.8884968,18.3475455 C60.5109768,18.3220909 60.1144905,18.1987576 59.8808737,17.8990606 C59.7667747,17.7523939 59.6999411,17.5739091 59.6586968,17.393 C59.5343621,16.8466364 59.6313011,16.2845152 59.6264842,15.7317879 C59.6225705,15.2572424 59.6162484,14.782697 59.6162484,14.3078485 L59.6162484,11.7942121 L59.6162484,9.55027273 L59.6162484,8.6760303 L62.5120737,8.65845455 L62.5120737,6.27178788 L59.5855411,6.27178788 L59.6162484,1.78542424 L56.4100379,1.78542424 L56.4100379,6.26512121 L54.8367368,6.283 L54.83764,8.6760303 L56.4100379,8.6760303 L56.4100379,17.2117879 C56.4398421,18.1854242 56.5000526,19.2366364 57.1912695,19.9878485 C58.4689368,21.3763333 60.8592947,20.9536061 62.5120737,20.7781515 L62.5120737,18.2878485 C61.9789095,18.3408788 61.4237684,18.3836061 60.8884968,18.3475455" id="Fill-41" fill="#FFFFFF" mask="url(#mask-2)"></path>
                    <path d="M29.6886665,15.8324545 L29.6886665,27.3433636 C29.6886665,28.9212424 28.4061823,30.2121515 26.8386013,30.2121515 L13.8439655,30.2121515 C13.5992097,30.2121515 13.3646897,30.3112424 13.1936918,30.4876061 L6.06898021,37.8218485 C5.94855916,37.9463939 5.73962863,37.8482121 5.75678863,37.6751818 L6.44108126,30.7539697 C6.46968126,30.4639697 6.24328968,30.2121515 5.95367705,30.2121515 L4.65794653,30.2121515 C3.08976337,30.2121515 1.80697811,28.9209394 1.80697811,27.3424545 L1.80697811,15.8315455 L1.80697811,4.69609091 C1.80697811,3.11790909 3.08976337,1.82669697 4.65794653,1.82669697 L26.8386013,1.82669697 C28.4064834,1.82669697 29.6886665,3.11790909 29.6886665,4.69609091 L29.6886665,15.8324545 Z M26.8386013,0.00760606061 L4.65794653,0.00760606061 C2.08966653,0.00760606061 6.02105263e-05,2.11124242 6.02105263e-05,4.69609091 L6.02105263e-05,15.8315455 L6.02105263e-05,27.3427576 C6.02105263e-05,29.8742727 2.00386653,31.9436667 4.49899074,32.0282121 L3.95860126,37.4954848 C3.90320758,38.0579091 4.08654863,38.6191212 4.46226232,39.037 C4.83948126,39.4560909 5.37836547,39.697 5.94012968,39.697 C6.47931495,39.697 6.98418021,39.4824545 7.36109811,39.0936667 L14.2220876,32.0309394 L26.8386013,32.0309394 C29.4065802,32.0309394 31.4955844,29.9282121 31.4955844,27.3433636 L31.4955844,15.8327576 L31.4955844,4.69609091 C31.4955844,2.11124242 29.4065802,0.00760606061 26.8386013,0.00760606061 L26.8386013,0.00760606061 Z" id="Fill-42" fill="#FFFFFF" mask="url(#mask-2)"></path>
                    <path d="M19.0969124,12.6674848 L19.0969124,6.65475758 C19.0969124,6.44354545 18.9268177,6.27293939 18.7172851,6.27293939 L12.7778177,6.27293939 C12.5688872,6.27293939 12.3987924,6.44354545 12.3987924,6.65475758 L12.3987924,12.6674848 L6.424704,12.6674848 C6.21577347,12.6674848 6.04658189,12.8377879 6.04658189,13.0496061 L6.04658189,19.0277879 C6.04658189,19.2380909 6.21577347,19.408697 6.424704,19.408697 L12.3987924,19.408697 L12.3987924,25.4226364 C12.3987924,25.6332424 12.5688872,25.8032424 12.7778177,25.8032424 L18.7172851,25.8032424 C18.9268177,25.8032424 19.0969124,25.6332424 19.0969124,25.4226364 L19.0969124,19.408697 L25.0710008,19.408697 C25.2790282,19.408697 25.4491229,19.2380909 25.4491229,19.0277879 L25.4491229,13.0496061 C25.4491229,12.8377879 25.2790282,12.6674848 25.0710008,12.6674848 L19.0969124,12.6674848 Z" id="Fill-43" fill="#FFFFFF" mask="url(#mask-2)"></path>
                </g>
            </g>
        </g>
    </g>
</svg>