<?xml version="1.0" encoding="UTF-8"?>
<svg width="30px" height="23px" viewBox="0 0 30 23" version="1.1" xmlns="http://www.w3.org/2000/svg" xmlns:xlink="http://www.w3.org/1999/xlink">
    <!-- Generator: Sketch 47 (45396) - http://www.bohemiancoding.com/sketch -->
    <title>Mail Icon</title>
    <desc>Created with Sketch.</desc>
    <defs></defs>
    <g id="Page-1" stroke="none" stroke-width="1" fill="none" fill-rule="evenodd">
        <g id="Mobile-Dr-Profile" transform="translate(-16.000000, -632.000000)" fill="#FFFFFF">
            <g id="Mail-Icon" transform="translate(16.000000, 632.000000)">
                <path d="M28.4362791,18.7008196 C28.4362791,20.3096755 27.1255131,21.6183994 25.5150586,21.6183994 L4.03392513,21.6183994 C2.42347065,21.6183994 1.11270462,20.3096755 1.11270462,18.7008196 L1.11270462,4.02992102 C1.11270462,2.42106509 2.42347065,1.11160013 4.03392513,1.11160013 L25.5209931,1.11160013 C26.2991445,1.11160013 27.0305623,1.41617857 27.5832056,1.9682733 C28.1351071,2.52185017 28.4385046,3.25550626 28.4362791,4.03510849 L28.4362791,18.7008196 Z M28.3710005,1.18348361 C27.6091687,0.420925917 26.5973493,0 25.5209931,0 L4.03392513,0 C1.8092577,0 0,1.80820288 0,4.02992102 L0,18.7008196 C0,20.9225377 1.8092577,22.7299995 4.03392513,22.7299995 L25.5150586,22.7299995 C27.7397261,22.7299995 29.5489838,20.9225377 29.5489838,18.7008196 L29.5489838,4.03659062 C29.551951,2.96056169 29.1328322,1.94752343 28.3710005,1.18348361 L28.3710005,1.18348361 Z" id="Fill-1"></path>
                <path d="M26.3221015,3.64702302 L15.1321818,13.1184527 L4.37382506,3.55593722 C4.13961387,3.34763446 3.77562664,3.36331316 3.55984518,3.59177426 C3.34559953,3.82023535 3.36249345,4.17412608 3.59670464,4.38317545 L11.6504981,11.5408766 L4.25019227,18.3536463 C4.0190527,18.5664287 4.00906992,18.921066 4.22792301,19.1450475 C4.34080512,19.2615178 4.49361833,19.3204996 4.64566363,19.3204996 C4.78849406,19.3204996 4.93132449,19.2697305 5.04190289,19.166699 L12.5028732,12.297934 L14.7344067,14.2824098 C14.8442172,14.3794684 14.9832081,14.4287443 15.122967,14.4287443 C15.2581183,14.4287443 15.3932697,14.3824548 15.5007765,14.2906224 L18.024882,12.1538392 L25.643273,19.166699 C25.7546193,19.2697305 25.8966818,19.3204996 26.0395123,19.3204996 C26.1915576,19.3204996 26.3443708,19.2615178 26.4580208,19.1450475 C26.676106,18.921066 26.6661232,18.5664287 26.4349836,18.3536463 L18.8979906,11.415447 L27.0777206,4.49143316 C27.318075,4.28835662 27.3434159,3.9344659 27.1345456,3.70152518 C26.9249074,3.46858445 26.5609201,3.44319988 26.3221015,3.64702302" id="Fill-4"></path>
            </g>
        </g>
    </g>
</svg>