<?xml version="1.0" encoding="utf-8"?>
<!-- Generator: Adobe Illustrator 21.1.0, SVG Export Plug-In . SVG Version: 6.00 Build 0)  -->
<svg version="1.1" id="Layer_1" xmlns="http://www.w3.org/2000/svg" xmlns:xlink="http://www.w3.org/1999/xlink" x="0px" y="0px"
	 viewBox="0 0 12.7 9.7" style="enable-background:new 0 0 12.7 9.7;" xml:space="preserve">
<style type="text/css">
	.st0{fill:#959699;}
</style>
<title>Mail Icon</title>
<desc>Created with Sketch.</desc>
<g id="HOME-DOCTORES">
	<g id="_x34_.-PERFIL-DOCTOR-" transform="translate(-517.000000, -504.000000)">
		<g id="Mail-Icon" transform="translate(517.906475, 504.000000)">
			<path id="Fill-1" class="st0" d="M11.3,8c0,0.7-0.6,1.2-1.3,1.2H0.8C0.1,9.3-0.4,8.7-0.4,8V1.7c0-0.7,0.6-1.2,1.3-1.2h9.2
				c0.3,0,0.6,0.1,0.9,0.4c0.2,0.2,0.4,0.6,0.4,0.9V8z M11.3,0.5C11,0.2,10.5,0,10.1,0H0.8c-1,0-1.7,0.8-1.7,1.7V8
				c0,0.9,0.8,1.7,1.7,1.7h9.2c1,0,1.7-0.8,1.7-1.7V1.8C11.8,1.3,11.6,0.9,11.3,0.5L11.3,0.5z"/>
			<path id="Fill-4" class="st0" d="M10,1.6l-4.6,4L0.9,1.6c-0.1-0.1-0.2-0.1-0.3,0C0.5,1.7,0.5,1.9,0.6,2l3.3,3L0.8,7.9
				C0.7,8,0.7,8.1,0.8,8.2c0,0,0.1,0.1,0.2,0.1c0.1,0,0.1,0,0.2-0.1l3.1-2.9l0.9,0.8c0,0,0.1,0.1,0.2,0.1c0.1,0,0.1,0,0.2-0.1l1-0.9
				l3.2,3c0,0,0.1,0.1,0.2,0.1c0.1,0,0.1,0,0.2-0.1c0.1-0.1,0.1-0.2,0-0.3L6.9,4.9L10.3,2c0.1-0.1,0.1-0.2,0-0.3
				C10.3,1.6,10.1,1.6,10,1.6"/>
		</g>
	</g>
</g>
</svg>
