<?xml version="1.0" encoding="UTF-8"?>
<svg width="26px" height="33px" viewBox="0 0 26 33" version="1.1" xmlns="http://www.w3.org/2000/svg" xmlns:xlink="http://www.w3.org/1999/xlink">
    <!-- Generator: Sketch 47 (45396) - http://www.bohemiancoding.com/sketch -->
    <title>Page 1</title>
    <desc>Created with Sketch.</desc>
    <defs></defs>
    <g id="HOME-DOCTORES" stroke="none" stroke-width="1" fill="none" fill-rule="evenodd">
        <g id="4.-PERFIL-DOCTOR-SECCIONES" transform="translate(-391.000000, -704.000000)">
            <g id="Group-19" transform="translate(118.000000, 644.000000)">
                <g id="Page-1" transform="translate(273.000000, 60.000000)">
                    <path d="M3.63258919,31.8059016 C2.9772585,31.0469945 2.65699979,30.0286339 2.75339036,29.0104918 L2.95409973,26.8990164 C1.1942416,25.9919126 0,24.0996721 0,21.9029508 L0,5.56765027 C0,2.49770492 2.38389318,0 5.31441686,0 L20.6862091,0 C23.6163155,0 26,2.49770492 26,5.56765027 L26,21.903388 C26,24.9731148 23.6163155,27.4703825 20.6862091,27.4703825 L12.820363,27.4703825 L8.67953265,31.9071038 C8.02420196,32.6111475 7.14395994,33 6.20300438,33 C5.22574588,33 4.28896307,32.5648087 3.63258919,31.8059016 Z" id="Fill-1" fill="#A0DEF9"></path>
                    <path d="M22.7378463,13.5628021 L22.7378463,21.9735217 C22.7378463,23.1264363 21.8420157,24.0696698 20.7470416,24.0696698 L11.6701332,24.0696698 C11.4991684,24.0696698 11.3353534,24.1420729 11.2159093,24.2709372 L6.23921314,29.6298759 C6.15509759,29.720878 6.00915712,29.6491391 6.02114359,29.5227104 L6.49913017,24.4655621 C6.51910761,24.2536667 6.36097039,24.0696698 6.1586725,24.0696698 L5.25358925,24.0696698 C4.15819457,24.0696698 3.26215374,23.1262149 3.26215374,21.9728574 L3.26215374,13.5621378 L3.26215374,5.42575301 C3.26215374,4.27261691 4.15819457,3.32916205 5.25358925,3.32916205 L20.7470416,3.32916205 C21.842226,3.32916205 22.7378463,4.27261691 22.7378463,5.42575301 L22.7378463,13.5628021 Z M20.7470416,2 L5.25358925,2 C3.45961498,2 2,3.53707196 2,5.42575301 L2,13.5621378 L2,21.9730788 C2,23.8227906 3.39968265,25.3348425 5.14255673,25.3966177 L4.76508823,29.3914106 C4.72639508,29.8023592 4.85446099,30.2124222 5.11690149,30.5177553 C5.38039343,30.823974 5.75681049,31 6.14920951,31 C6.52583685,31 6.87849127,30.8432373 7.14177293,30.5591601 L11.9342561,25.3986104 L20.7470416,25.3986104 C22.5408056,25.3986104 24,23.8622027 24,21.9735217 L24,13.5630235 L24,5.42575301 C24,3.53707196 22.5408056,2 20.7470416,2 L20.7470416,2 Z" id="Fill-3" fill="#FFFFFF"></path>
                    <path d="M18.7466524,11.5838324 L14.7439216,11.5838324 L14.7439216,7.27370054 C14.7439216,7.12229635 14.6299555,7 14.4895654,7 L10.5100312,7 C10.3700445,7 10.2560784,7.12229635 10.2560784,7.27370054 L10.2560784,11.5838324 L6.25334761,11.5838324 C6.11336095,11.5838324 6,11.7059116 6,11.8577502 L6,16.1431187 C6,16.2938712 6.11336095,16.4161676 6.25334761,16.4161676 L10.2560784,16.4161676 L10.2560784,20.7271683 C10.2560784,20.8781381 10.3700445,21 10.5100312,21 L14.4895654,21 C14.6299555,21 14.7439216,20.8781381 14.7439216,20.7271683 L14.7439216,16.4161676 L18.7466524,16.4161676 C18.8860339,16.4161676 19,16.2938712 19,16.1431187 L19,11.8577502 C19,11.7059116 18.8860339,11.5838324 18.7466524,11.5838324" id="Fill-5" fill="#FFFFFF"></path>
                </g>
            </g>
        </g>
    </g>
</svg>