<?xml version="1.0" encoding="UTF-8"?>
<svg width="29px" height="21px" viewBox="0 0 29 21" version="1.1" xmlns="http://www.w3.org/2000/svg" xmlns:xlink="http://www.w3.org/1999/xlink">
    <!-- Generator: Sketch 48 (47235) - http://www.bohemiancoding.com/sketch -->
    <title>Page 1</title>
    <desc>Created with Sketch.</desc>
    <defs></defs>
    <g id="3.-PACIENTES.-EXPEDIENTES" stroke="none" stroke-width="1" fill="none" fill-rule="evenodd" transform="translate(-509.000000, -173.000000)">
        <g id="Page-1" transform="translate(509.000000, 173.000000)" fill="#929292">
            <path d="M2.63568805,15.7599051 C1.18060989,15.7599051 0,16.9329925 0,18.3789382 C0,19.8279269 1.18060989,21 2.63568805,21 C4.09324336,21 5.27385325,19.8279269 5.27385325,18.3789382 C5.27385325,16.9329925 4.09324336,15.7599051 2.63568805,15.7599051 M2.63568805,7.87817743 C1.18060989,7.87817743 0,9.0527864 0,10.5012679 C0,11.9492423 1.18060989,13.1223297 2.63568805,13.1223297 C4.09324336,13.1223297 5.27385325,11.9492423 5.27385325,10.5012679 C5.27385325,9.0527864 4.09324336,7.87817743 2.63568805,7.87817743 M2.63568805,0 C1.18060989,0 0,1.17511614 0,2.62106181 C0,4.06751466 1.18060989,5.24212363 2.63568805,5.24212363 C4.09324336,5.24212363 5.27385325,4.06751466 5.27385325,2.62106181 C5.27385325,1.17511614 4.09324336,0 2.63568805,0 M27.3784573,16.7681618 L10.7483557,16.7681618 C9.85261809,16.7681618 9.12681302,17.4913882 9.12681302,18.3789382 C9.12681302,19.2705455 9.85261809,19.9937719 10.7483557,19.9937719 L27.3784573,19.9937719 C28.2741949,19.9937719 29,19.2705455 29,18.3789382 C29,17.4913882 28.2741949,16.7681618 27.3784573,16.7681618 M27.3784573,8.88846286 L10.7483557,8.88846286 C9.85261809,8.88846286 9.12681302,9.6096606 9.12681302,10.5012679 C9.12681302,11.3923681 9.85261809,12.1155945 10.7483557,12.1155945 L27.3784573,12.1155945 C28.2741949,12.1155945 29,11.3923681 29,10.5012679 C29,9.6096606 28.2741949,8.88846286 27.3784573,8.88846286 M27.3784573,4.23589556 C28.2741949,4.23589556 29,3.51266914 29,2.62106181 C29,1.72945449 28.2741949,1.01028544 27.3784573,1.01028544 L10.7483557,1.01028544 C9.85261809,1.01028544 9.12681302,1.72945449 9.12681302,2.62106181 C9.12681302,3.51266914 9.85261809,4.23589556 10.7483557,4.23589556 L27.3784573,4.23589556 Z" id="Fill-1"></path>
        </g>
    </g>
</svg>