<?xml version="1.0" encoding="utf-8"?>
<!-- Generator: Adobe Illustrator 21.1.0, SVG Export Plug-In . SVG Version: 6.00 Build 0)  -->
<svg version="1.1" id="Layer_1" xmlns="http://www.w3.org/2000/svg" xmlns:xlink="http://www.w3.org/1999/xlink" x="0px" y="0px"
	 viewBox="0 0 18 17" style="enable-background:new 0 0 18 17;" xml:space="preserve">
<style type="text/css">
	.st0{fill:#F5A623;}
</style>
<g id="HOME-DOCTORES">
	<g id="_x34_.-PERFIL-DOCTOR-" transform="translate(-374.000000, -435.000000)">
		<g id="Group-2" transform="translate(374.000000, 435.000000)">
			<path id="Fill-4" class="st0" d="M15.2,8.3v6.8H1.8V1.8h10.5c0.5,0,0.9-0.4,0.9-0.9c0-0.5-0.4-0.9-0.9-0.9H0.9C0.4,0,0,0.4,0,0.9
				v15.2C0,16.6,0.4,17,0.9,17h15.2c0.5,0,0.9-0.4,0.9-0.9V8.3c0-0.5-0.4-0.9-0.9-0.9C15.6,7.4,15.2,7.8,15.2,8.3z"/>
			<path id="Fill-1" class="st0" d="M16.5,1.3L8.3,9.7L4.5,5.8c-0.4-0.4-0.9-0.4-1.3,0c-0.4,0.4-0.4,1,0,1.3l4.4,4.6
				C7.8,11.9,8.1,12,8.3,12s0.5-0.1,0.6-0.3l8.8-9.1c0.4-0.4,0.4-1,0-1.3S16.8,0.9,16.5,1.3z"/>
		</g>
	</g>
</g>
</svg>
