<?xml version="1.0" encoding="UTF-8"?>
<svg width="112px" height="123px" viewBox="0 0 112 123" version="1.1" xmlns="http://www.w3.org/2000/svg" xmlns:xlink="http://www.w3.org/1999/xlink">
    <!-- Generator: Sketch 47 (45396) - http://www.bohemiancoding.com/sketch -->
    <title>Page 1</title>
    <desc>Created with Sketch.</desc>
    <defs>
        <filter x="-3.3%" y="-3.9%" width="111.4%" height="111.2%" filterUnits="objectBoundingBox" id="filter-1">
            <feOffset dx="5" dy="5" in="SourceAlpha" result="shadowOffsetOuter1"></feOffset>
            <feColorMatrix values="0 0 0 0 0   0 0 0 0 0   0 0 0 0 0  0 0 0 0.3 0" type="matrix" in="shadowOffsetOuter1" result="shadowMatrixOuter1"></feColorMatrix>
            <feMerge>
                <feMergeNode in="shadowMatrixOuter1"></feMergeNode>
                <feMergeNode in="SourceGraphic"></feMergeNode>
            </feMerge>
        </filter>
    </defs>
    <g id="ADMIN-DR." stroke="none" stroke-width="1" fill="none" fill-rule="evenodd">
        <g id="1.-DASHBOARD" transform="translate(-791.000000, -240.000000)">
            <g id="Page-1" filter="url(#filter-1)" transform="translate(792.000000, 241.000000)">
                <path d="M35.3475262,45.2257522 C35.4762405,45.7376652 35.6062167,46.2483174 35.7563833,46.7539261 C35.4850738,46.2432739 35.3159786,45.894013 35.2692881,45.7944043 C35.3084071,45.624187 35.3349071,45.4350565 35.3475262,45.2257522 Z M73.0393595,45.6721 C73.0709071,45.9532739 73.1327405,46.1953609 73.2299071,46.3920565 C73.1756452,46.5118391 73.0532405,46.7715783 72.8652167,47.1447957 C72.9081214,46.9821435 72.9598595,46.8257957 73.0002405,46.6618826 C72.992669,46.3693609 73.0115976,46.0339696 73.0393595,45.6721 Z M33.402931,34.5234913 C33.348669,34.7907957 33.2603357,35.0454913 33.1290976,35.2737087 C33.2603357,35.0454913 33.348669,34.7907957 33.402931,34.5234913 C33.6729786,33.1857087 33.0647405,31.5074913 32.4035024,30.785013 C33.0647405,31.5074913 33.6729786,33.1857087 33.402931,34.5234913 Z M33.0167881,42.5325348 C33.0647405,42.2059696 33.1025976,41.7861 33.1253119,41.2439261 C33.1025976,41.7861 33.0647405,42.2059696 33.0167881,42.5325348 Z M32.6987881,43.429013 C32.8161452,43.3558826 32.9145738,43.1163174 32.99155,42.6813174 C32.9145738,43.1163174 32.8161452,43.3558826 32.6987881,43.429013 Z M31.0292881,40.6979696 C31.1201452,40.8707087 31.2173119,41.0812739 31.3195262,41.3069696 C31.2173119,41.0812739 31.1201452,40.8707087 31.0292881,40.6979696 Z M31.1315024,30.8177957 C30.9346452,31.0712304 30.7668119,31.4280565 30.6254786,31.8252304 C30.7668119,31.4280565 30.9346452,31.0712304 31.1315024,30.8177957 Z M31.8154548,30.4294478 C31.9151452,30.4344913 32.0211452,30.4824043 32.1271452,30.5517522 C32.0211452,30.4824043 31.9151452,30.4344913 31.8154548,30.4294478 Z M32.1662643,38.4309261 C32.1448119,38.3414043 32.1397643,38.2594478 32.1258833,38.1737087 C32.1397643,38.2594478 32.1448119,38.3414043 32.1662643,38.4309261 C32.3088595,39.0298391 32.5082405,39.4118826 32.6886929,39.7409696 C32.5082405,39.4118826 32.3088595,39.0298391 32.1662643,38.4309261 Z M76.1032643,31.0334043 C76.0906452,31.046013 76.0792881,31.0636652 76.067931,31.0762739 C76.0792881,31.0636652 76.0906452,31.046013 76.1032643,31.0334043 Z M76.6950976,30.6828826 C76.5865738,30.6866652 76.4704786,30.7396217 76.3531214,30.8190565 C76.4704786,30.7396217 76.5865738,30.6866652 76.6950976,30.6828826 Z M77.8270262,31.9828391 C77.5860024,31.3234043 77.2642167,30.8190565 76.8503119,30.7244913 C77.2642167,30.8190565 77.5860024,31.3234043 77.8270262,31.9828391 Z M77.9771929,32.4506217 C78.0163119,32.5880565 78.055431,32.7217087 78.0895024,32.8616652 C78.055431,32.7217087 78.0163119,32.5880565 77.9771929,32.4506217 Z M77.9405976,39.418187 C77.790431,39.998187 77.6024071,40.5327957 77.3752643,40.9589696 C76.9613595,41.7331435 76.3935024,43.2562739 75.9518357,43.623187 C76.3935024,43.2562739 76.9613595,41.7331435 77.3752643,40.9589696 C77.6024071,40.5327957 77.790431,39.998187 77.9405976,39.418187 C78.3910976,37.6706217 78.5109786,35.4905783 78.3898357,34.5108826 C78.5109786,35.4905783 78.3910976,37.6706217 77.9405976,39.418187 Z M75.7045024,36.0289696 C75.9165024,36.3126652 76.1701452,36.7312739 76.2887643,37.2684043 C76.1701452,36.7312739 75.9165024,36.3126652 75.7045024,36.0289696 Z M75.2741929,41.4834913 C75.3107881,42.6308826 75.4142643,43.2587957 75.5593833,43.5324043 C75.4142643,43.2587957 75.3107881,42.6308826 75.2741929,41.4834913 Z M71.7307643,71.1139261 C71.6033119,70.9638826 71.4922643,70.8062739 71.3786929,70.6486652 C71.323169,70.5742739 71.2600738,70.5011435 71.2083357,70.4229696 C71.0972881,70.2565348 71.0039071,70.0787522 70.9105262,69.9009696 C70.8688833,69.8253174 70.819669,69.7547087 70.7830738,69.6777957 C70.688431,69.4811 70.6152405,69.2743174 70.5433119,69.0675348 C70.5193357,69.0007087 70.4877881,68.940187 70.4663357,68.8721 C70.3817881,68.592187 70.316169,68.3034478 70.2732643,68.0021 C70.0852405,66.6643174 69.9842881,65.3416652 69.9300262,64.2749696 C69.8732405,63.178013 69.865669,62.3508826 69.8644071,62.0608826 C69.8555738,60.7848826 69.8694548,59.4924913 69.9136214,58.1786652 C70.0208833,58.0689696 70.1256214,57.9681 70.2328833,57.8571435 C72.8298833,53.4037522 72.6317643,50.728187 73.2500976,46.4399696 C73.4532643,46.8169696 73.7914548,47.045187 74.3618357,47.083013 C76.6585024,47.2330565 77.6516214,43.1238826 79.2630738,38.5834913 C80.7824071,34.3003174 79.935669,29.7170565 77.9065262,29.0866217 C77.7853833,29.0500565 77.6604548,29.0210565 77.5317405,29.0134913 C76.2294548,28.9277522 75.2678833,30.2806652 74.6129548,32.4518826 C74.6079071,32.4682739 74.6028595,32.4859261 74.5990738,32.5010565 C74.5082167,32.8036652 74.4312405,33.1390565 74.3530024,33.4706652 C73.9025024,27.5407957 72.0159548,17.9304478 71.2020262,15.5057957 C69.3116929,13.9410565 66.9809548,10.7359261 47.0971214,11.3285348 C44.7853119,10.6640565 38.4530738,15.464187 38.3760976,15.5864913 C37.6719548,16.7023609 36.7116452,18.924013 36.1261214,22.2174043 C34.1853119,33.1466217 35.16455,30.0751435 34.5209786,34.082187 C34.4679786,34.0468826 34.3758595,33.9561 34.2559786,33.8262304 C34.1827881,33.453013 34.1058119,33.0861 34.0187405,32.7444043 C33.9291452,32.3901 33.8307167,32.0572304 33.7259786,31.742013 C33.09755,29.848187 32.1978119,28.6844043 30.9964786,28.7499696 C30.6936214,28.7663609 30.4122167,28.8697522 30.1547881,29.0399696 C28.4575262,30.1596217 27.8089071,34.3469696 29.1667167,38.3035783 C30.7302167,42.8591 31.6816929,46.9783609 33.9796214,46.851013 C34.7304548,46.8106652 35.1001929,46.4563609 35.2591929,45.8259261 C36.1400024,51.2274913 36.2560976,51.3308826 38.6978833,57.2317522 C38.861931,59.1394478 38.9830738,61.0244478 39.03355,62.8905348 C39.0373357,63.0367957 39.0020024,64.0744913 38.9641452,65.179013 C38.8013595,69.9362739 33.54805,73.3544913 28.8853119,74.9658826 C40.8330262,95.765187 67.533669,96.2165783 80.4290738,76.1801 C78.1298833,75.1209696 73.9655976,73.7365348 71.7307643,71.1139261 Z" id="Stroke-1" stroke="#0F50A4" stroke-width="2" stroke-linecap="round" stroke-linejoin="round"></path>
                <path d="M86.2920095,78.3949435 C86.3601524,78.408813 86.4232476,78.4214217 86.4926524,78.4352913 C86.4232476,78.4214217 86.3601524,78.408813 86.2907476,78.3949435 L86.2920095,78.3949435 Z" id="Fill-5" fill="#333533"></path>
                <path d="M22.494269,76.7917478 C22.5687214,76.7652696 22.6419119,76.7400522 22.7151024,76.7148348 C22.6419119,76.7400522 22.5687214,76.7652696 22.494269,76.7917478" id="Fill-7" fill="#333533"></path>
                <path d="M78.8092929,74.6172522 C75.9271024,73.2882957 69.9141262,71.4171652 69.2869595,66.9486435 C68.9298405,64.401687 68.9071262,61.9139913 68.9033405,61.3756 C68.8856738,58.9421217 68.9538167,56.4506435 69.1784357,53.8431652 C65.9201976,59.9104696 60.53565,63.7863826 52.7093167,63.6237304 C47.2301262,63.5089913 42.4033405,58.9559913 39.270031,52.917687 C39.6826738,56.0976 39.9098167,59.1388174 39.9918405,62.1548174 C39.9956262,62.2922522 39.9628167,63.2656435 39.9274833,64.3008174 C39.7747929,68.760513 34.8483167,71.9656435 30.4758167,73.478687 C41.6790071,92.9830783 66.7177214,93.4054696 78.8092929,74.6172522" id="Fill-9" fill="#E5F4F9"></path>
                <path d="M52.721431,64.177 C60.6941452,64.3434348 66.1796452,60.3943913 69.4997167,54.2136087 C70.6467881,52.0789565 71.5313833,49.6782609 72.1749548,47.0896957 C72.1421452,45.733 72.5939071,43.5743913 72.7844548,40.668087 C72.9283119,38.4514783 73.231169,36.4277826 73.7018595,34.847913 C73.7031214,34.8353043 73.7031214,34.8264783 73.7043833,34.8151304 C73.6438119,34.8958261 73.5807167,34.9803043 73.51005,35.0660435 C73.16555,29.4677826 71.2613357,19.72 70.4575024,17.3268696 C68.6517167,15.8314783 66.4257167,12.770087 47.4290024,13.3349565 C45.220669,12.6994783 39.1710976,17.2865217 39.0966452,17.4025217 C38.42405,18.4692174 37.5066452,20.5925217 36.9476214,23.7371304 C35.0926214,34.1796522 36.0289548,31.2456087 35.4144071,35.0736087 C35.310931,35.003 35.0560262,34.7167826 34.7165738,34.346087 C34.74055,34.5894348 34.7632643,34.8327826 34.7885024,35.0786522 C35.1721214,36.5904348 35.415669,38.4426522 35.5267167,40.4562609 C35.6137881,42.0323478 35.7790976,43.3877826 35.9052881,44.5162609 C36.5513833,47.5587391 37.6227405,50.5596087 39.0285024,53.2704783 C42.2211214,59.4222609 47.1375024,64.061 52.721431,64.177 Z" id="Fill-11" fill="#E5F4F9"></path>
                <path d="M34.87305,34.2066348 C34.9449786,34.2835478 35.0105976,34.3554174 35.0762167,34.4260261 C35.4093595,34.7904174 35.6604786,35.0715913 35.761431,35.1396783 C36.3646214,31.3835478 35.4459548,34.2633739 37.2656214,24.0137652 C37.81455,20.9258957 38.71555,18.8429391 39.3755262,17.7964174 C40.6185024,15.8345043 69.6473595,21.3054174 69.7369548,21.3798087 C70.5269071,23.7288087 72.0752643,30.4404174 73.1554548,35.132113 C73.2235976,35.0488957 73.284169,34.9682 73.3447405,34.8862435 C73.3485262,34.8812 73.3523119,34.8761565 73.3560976,34.8723739 C73.9706452,32.8360696 74.8729071,31.5676348 76.093169,31.6470696 C76.2143119,31.6558957 76.331669,31.681113 76.4439786,31.7164174 C76.835169,27.5643739 76.6976214,23.0782 76.4969786,18.5050261 C76.6193833,5.29867826 61.8513119,0.116504348 51.2462643,0.77846087 C32.6230738,1.94098261 29.1641929,14.6656783 32.01105,31.6697652 C33.7083119,31.6697652 34.4376929,32.8953304 34.87305,34.2066348" id="Fill-13" fill="#53BBEC"></path>
                <path d="M71.1380476,19.4530739 C71.1229048,19.4745087 71.1115476,19.4959435 71.092619,19.5148565 C71.1178571,19.4997261 71.1317381,19.4795522 71.1380476,19.4530739" id="Fill-15" fill="#7F7F7E"></path>
                <path d="M69.5298762,21.2839826 C69.6005429,21.3167652 69.6649,21.3470261 69.7368286,21.3798087 C69.7254714,21.3533304 69.651019,21.3205478 69.5298762,21.2839826" id="Fill-17" fill="#7F7F7E"></path>
                <path d="M36.6050143,28.1006217 C36.5785143,28.1018826 36.5545381,28.0943174 36.5293,28.0905348 C36.5520143,28.1044043 36.5772524,28.1107087 36.6050143,28.1006217" id="Fill-19" fill="#7F7F7E"></path>
                <path d="M103.81444,84.7620826 C95.3293929,79.0881696 78.7605833,74.9563 72.5621071,71.2884304 C65.885369,91.650213 37.743631,87.3178652 34.3011548,70.9631261 C27.0616071,73.6096913 7.80115476,78.1399957 0.26127381,84.7797348 L0.26127381,115.935822 L104.826488,115.935822 L104.826488,85.4858217 C104.504702,85.2386913 104.166512,84.9978652 103.81444,84.7620826" id="Fill-21" fill="#B0E2F6"></path>
                <path d="M70.6635714,69.8791565 C56.5415952,71.7288522 41.877,61.2485043 39.3178571,53.0099826 L39.3254286,53.0238522 L39.3266905,53.0276348 L39.3292143,53.0326783 L39.3317381,53.0364609 L39.3342619,53.0402435 L39.3367857,53.0440261 L39.3380476,53.0478087 L39.3405714,53.0515913 L39.3430952,53.0566348 L39.3443571,53.0604174 L39.346881,53.0642 L39.3494048,53.0679826 L39.3519286,53.0730261 L39.3531905,53.0768087 L39.3544524,53.0805913 L39.3569762,53.0856348 L39.3595,53.0894174 L39.3620238,53.0932 L39.3632857,53.0969826 L39.3658095,53.1007652 L39.3683333,53.1045478 L39.3708571,53.1095913 L39.372119,53.1133739 L39.3746429,53.1171565 C39.4011429,53.1675913 39.4276429,53.2180261 39.4541429,53.2672 L39.4566667,53.2709826 L39.4579286,53.2760261 L39.4604524,53.2798087 L39.4629762,53.2835913 L39.4730714,53.3012435 L39.4743333,53.3050261 L39.4768571,53.3088087 L39.479381,53.3125913 L39.4819048,53.3176348 L39.4856905,53.3252 L39.4869524,53.3289826 L39.492,53.3378087 L39.4945238,53.3415913 L39.4957857,53.3466348 L39.4983095,53.3504174 L39.5008333,53.3542 L39.5033571,53.3567217 L39.505881,53.3617652 L39.5071429,53.3655478 L39.5096667,53.3693304 L39.5109286,53.3743739 L39.5134524,53.3781565 L39.5159762,53.3819391 L39.5185,53.3869826 L39.5197619,53.3907652 L39.5222857,53.3945478 L39.5248095,53.3983304 L39.5273333,53.4033739 L39.5298571,53.4071565 L39.531119,53.4096783 L39.5336429,53.4134609 L39.5361667,53.4185043 C39.557619,53.460113 39.5790714,53.5004609 39.6017857,53.5395478 L39.6043095,53.5445913 L39.610619,53.5559391 L39.6131429,53.5609826 L39.6245,53.5824174 L39.6270238,53.5862 L39.6295476,53.5899826 L39.6320714,53.5937652 L39.6345952,53.5988087 L39.637119,53.6025913 L39.651,53.6290696 L39.6535238,53.634113 L39.6560476,53.6378957 L39.6585714,53.6416783 L39.6598333,53.6454609 L39.6623571,53.6505043 L39.664881,53.654287 L39.6674048,53.6580696 L39.6686667,53.6618522 L39.6711905,53.6656348 L39.6737143,53.6706783 L39.6749762,53.6732 L39.6775,53.6769826 L39.6800238,53.6820261 L39.6825476,53.6858087 L39.6850714,53.6895913 L39.6863333,53.6933739 L39.6888571,53.6971565 L39.7481667,53.8043304 L39.7506905,53.8093739 L39.7532143,53.8131565 L39.7557381,53.8169391 L39.757,53.8207217 L39.7595238,53.8245043 L39.7620476,53.8295478 L39.7645714,53.8320696 L39.7670952,53.8358522 L39.7759286,53.8535043 L39.7784524,53.857287 L39.7809762,53.8623304 L39.7835,53.866113 L39.7860238,53.8698957 L39.7872857,53.8749391 L39.7898095,53.8787217 L39.7923333,53.8812435 L39.7948571,53.8850261 L39.797381,53.8900696 L39.7999048,53.8938522 L39.8011667,53.8976348 L39.8062143,53.9064609 L39.8087381,53.9102435 L39.81,53.9140261 L39.8125238,53.9190696 L39.8150476,53.9228522 L39.8175714,53.9266348 L39.8200952,53.9304174 L39.822619,53.9342 L39.823881,53.9379826 L39.8264048,53.9417652 L39.8289286,53.9468087 L39.8327143,53.9543739 L39.8352381,53.9594174 L39.9134762,54.0943304 L39.916,54.0993739 L39.9185238,54.1031565 L39.9210476,54.1069391 L39.9235714,54.1107217 L39.9311429,54.1245913 L39.9324048,54.1283739 L39.9349286,54.1321565 L39.9374524,54.1359391 L39.9412381,54.1447652 L39.9437619,54.147287 L39.9715238,54.1964609 L39.9740476,54.1989826 L39.9790952,54.2065478 L39.981619,54.2115913 L39.982881,54.2153739 L39.9854048,54.2191565 L39.9879286,54.2229391 L39.9891905,54.2267217 L39.9917143,54.2317652 L39.9942381,54.2355478 L39.9967619,54.2393304 L39.9992857,54.243113 L40.0018095,54.2468957 L40.0030714,54.2506783 L40.0068571,54.2544609 L40.008119,54.2582435 L40.0712143,54.3641565 L40.0724762,54.3692 L40.075,54.3729826 L40.0775238,54.3767652 L40.0939286,54.4057652 L40.0964524,54.408287 L40.0989762,54.4120696 L40.1015,54.4158522 L40.1040238,54.4196348 L40.1052857,54.4234174 L40.1078095,54.4284609 L40.1103333,54.4322435 L40.1128571,54.4360261 L40.115381,54.4398087 L40.1166429,54.4435913 L40.1191667,54.4473739 L40.1216905,54.4511565 L40.1242143,54.4549391 L40.1254762,54.4587217 L40.128,54.4612435 L40.1305238,54.4650261 L40.1330476,54.4688087 L40.1355714,54.4725913 L40.1380952,54.4776348 L40.1393571,54.4814174 L40.141881,54.4852 L40.1431429,54.4889826 L40.1456667,54.4927652 L40.1481905,54.4965478 C40.1759524,54.5432 40.2037143,54.5885913 40.2314762,54.6352435 L40.234,54.6390261 L40.2365238,54.6428087 L40.2390476,54.6465913 L40.2516667,54.669287 L40.2541905,54.6718087 L40.2567143,54.6755913 L40.2592381,54.6806348 L40.2617619,54.6844174 L40.2642857,54.6882 L40.2668095,54.6919826 L40.2693333,54.6957652 L40.2705952,54.6995478 L40.273119,54.7033304 L40.2756429,54.707113 L40.2781667,54.7121565 L40.2794286,54.7159391 L40.2819524,54.7197217 L40.2857381,54.7222435 L40.287,54.7260261 L40.2895238,54.7298087 L40.2920476,54.7335913 L40.2945714,54.7373739 L40.2970952,54.7424174 L40.299619,54.7462 L40.300881,54.7499826 L40.3034048,54.7537652 L40.3059286,54.7575478 L40.3084524,54.7613304 L40.3109762,54.765113 L40.3135,54.7688957 L40.3160238,54.7739391 L40.3172857,54.7764609 C40.3425238,54.8180696 40.3677619,54.8584174 40.393,54.8987652 L40.3955238,54.9025478 L40.3980476,54.9063304 L40.4005714,54.910113 L40.4030952,54.9151565 L40.4131905,54.9315478 L40.4144524,54.9340696 L40.4169762,54.9378522 L40.4195,54.9416348 L40.4220238,54.9454174 L40.4245476,54.9492 L40.4295952,54.9567652 L40.4308571,54.9605478 L40.4548333,54.9983739 L40.4573571,55.0021565 L40.4611429,55.0097217 L40.4636667,55.0135043 L40.4661905,55.017287 L40.4687143,55.0210696 L40.4712381,55.0248522 L40.4737619,55.0286348 L40.4762857,55.0336783 L40.4788095,55.0374609 L40.4813333,55.0399826 L40.4825952,55.0437652 L40.5545238,55.1559826 L40.5570476,55.1597652 L40.5595714,55.1635478 L40.5620952,55.1685913 L40.5633571,55.1723739 L40.5860714,55.2064174 L40.5885952,55.2102 L40.5898571,55.2139826 L40.592381,55.2177652 L40.5949048,55.220287 L40.5974286,55.2240696 L40.5999524,55.2278522 L40.6012143,55.2316348 L40.6062619,55.2392 L40.6087857,55.2417217 L40.6113095,55.2455043 L40.6138333,55.2480261 L40.6150952,55.2518087 L40.617619,55.2555913 L40.6214048,55.2631565 L40.6239286,55.2669391 L40.6264524,55.2694609 L40.6289762,55.2732435 L40.6302381,55.2770261 L40.6327619,55.2808087 L40.6352857,55.2845913 L40.6378095,55.2883739 L40.6403333,55.2921565 L40.6415952,55.2946783 L40.644119,55.2984609 L40.6466429,55.3009826 L40.6491667,55.3047652 L40.6504286,55.3085478 L40.6529524,55.3123304 C40.6744048,55.3463739 40.697119,55.3804174 40.7185714,55.4132 L40.7198333,55.4169826 L40.7223571,55.4207652 L40.724881,55.4245478 L40.7274048,55.4270696 L40.7299286,55.4308522 L40.7551667,55.4686783 L40.7576905,55.4724609 L40.7602143,55.4762435 L40.7614762,55.4800261 L40.764,55.4838087 L40.7665238,55.4863304 L40.7690476,55.490113 L40.7703095,55.4938957 L40.7728333,55.4976783 L40.7753571,55.5002 L40.777881,55.5039826 L40.7791429,55.5077652 L40.7816667,55.510287 L40.7841905,55.5140696 L40.7867143,55.5165913 L40.7892381,55.5203739 L40.7905,55.5241565 L40.7930238,55.5279391 L40.7955476,55.5304609 L40.7980714,55.5342435 L40.7993333,55.5380261 L40.8018571,55.5418087 L40.804381,55.5443304 L40.8069048,55.548113 L40.8081667,55.5518957 L40.8106905,55.5556783 L40.8132143,55.5582 L40.8157381,55.5619826 L40.817,55.5645043 L40.8195238,55.568287 L40.8220476,55.5720696 L40.8245714,55.5745913 L40.8864048,55.6691565 L40.8889286,55.6729391 L40.8914524,55.6767217 L40.8939762,55.6805043 L40.8965,55.6830261 L40.8977619,55.6868087 L40.9255238,55.7271565 L40.9280476,55.7296783 L40.9293095,55.7334609 L40.9318333,55.7372435 L40.9343571,55.7410261 L40.936881,55.7448087 L40.9381429,55.7473304 L40.9406667,55.751113 L40.9431905,55.7548957 L40.9457143,55.7586783 L40.9482381,55.7624609 L40.9507619,55.7649826 L40.9532857,55.7687652 L40.9545476,55.7725478 L40.9570714,55.7750696 L40.9595952,55.7775913 L40.9608571,55.7813739 L40.963381,55.7851565 L40.9659048,55.7889391 L40.9684286,55.7927217 L40.9709524,55.7965043 L40.9734762,55.7990261 L40.976,55.8028087 L40.9785238,55.8065913 L40.9797857,55.8103739 L40.9823095,55.8128957 L40.9848333,55.8166783 L40.9873571,55.8204609 L40.988619,55.8242435 L40.9911429,55.8267652 L40.9936667,55.829287 L41.0592857,55.9263739 L41.0605476,55.9301565 L41.0630714,55.9326783 L41.0655952,55.9352 L41.068119,55.9389826 L41.069381,55.9427652 L41.0719048,55.9465478 L41.0908333,55.9730261 L41.0933571,55.9768087 L41.095881,55.9805913 L41.0984048,55.983113 L41.0996667,55.9868957 L41.1021905,55.9906783 L41.1047143,55.9932 L41.1072381,55.9969826 L41.1097619,56.0007652 L41.1122857,56.0045478 L41.1148095,56.0083304 L41.1173333,56.012113 L41.122381,56.0196783 L41.1249048,56.0222 L41.1274286,56.0259826 L41.1299524,56.0297652 L41.1324762,56.0335478 L41.135,56.0360696 L41.1375238,56.0398522 L41.1387857,56.0436348 L41.1413095,56.0474174 L41.1438333,56.0512 L41.1463571,56.0537217 L41.148881,56.0575043 L41.1514048,56.061287 L41.1539286,56.0650696 L41.1564524,56.0688522 L41.1589762,56.0726348 L41.1615,56.0764174 L41.1640238,56.0789391 L41.1665476,56.0827217 L41.2346905,56.1823304 L41.2372143,56.1848522 L41.2397381,56.1886348 L41.2422619,56.1924174 L41.2447857,56.1949391 L41.2460476,56.1987217 L41.2611905,56.2201565 L41.2637143,56.2239391 L41.2662381,56.2264609 L41.2687619,56.2302435 L41.2712857,56.2340261 L41.2738095,56.2378087 L41.2763333,56.2415913 L41.2788571,56.2453739 L41.281381,56.2478957 L41.2839048,56.2516783 L41.2864286,56.2542 L41.2889524,56.2579826 L41.2914762,56.2617652 L41.294,56.2655478 L41.2965238,56.2693304 L41.2990476,56.273113 L41.3015714,56.2768957 L41.3040952,56.2806783 L41.306619,56.2844609 L41.3091429,56.2882435 L41.3116667,56.2920261 L41.3141905,56.2945478 L41.3167143,56.2983304 L41.3192381,56.3008522 L41.3217619,56.3046348 L41.3242857,56.3084174 L41.3255476,56.3122 L41.3280714,56.3159826 L41.4164048,56.4395478 L41.4201905,56.4433304 L41.4227143,56.447113 L41.440381,56.4723304 L41.4429048,56.4748522 L41.4454286,56.4786348 L41.4479524,56.4824174 L41.4504762,56.4862 L41.453,56.4899826 L41.4555238,56.4937652 L41.4567857,56.496287 L41.4593095,56.5000696 L41.466881,56.5088957 L41.4706667,56.5126783 L41.4731905,56.5164609 L41.4757143,56.5202435 L41.492119,56.5442 L41.4946429,56.5479826 L41.4971667,56.5517652 L41.4996905,56.5555478 L41.5022143,56.5580696 L41.5047381,56.5605913 L41.5072619,56.5643739 L41.5097857,56.5681565 L41.5123095,56.5719391 L41.5148333,56.5744609 L41.5173571,56.5782435 L41.519881,56.5820261 L41.5224048,56.5858087 L41.5249286,56.5895913 L41.5867619,56.6740696 L41.5892857,56.6778522 L41.5918095,56.6803739 L41.5943333,56.6841565 L41.5968571,56.6879391 L41.599381,56.6917217 L41.6195714,56.7194609 L41.6220952,56.7232435 L41.624619,56.7257652 L41.6271429,56.7295478 L41.6296667,56.7333304 L41.6321905,56.7358522 L41.6347143,56.7396348 L41.6372381,56.7434174 L41.6687857,56.786287 L41.6713095,56.7900696 L41.6738333,56.7925913 L41.6763571,56.7963739 L41.678881,56.8001565 L41.6839286,56.8064609 L41.6864524,56.8102435 L41.6889762,56.8127652 L41.6915,56.8165478 L41.6940238,56.8203304 L41.6952857,56.824113 L41.6990714,56.8253739 L41.7015952,56.8291565 L41.704119,56.8329391 L41.7066429,56.8354609 L41.771,56.9224609 L41.7722619,56.9262435 L41.7747857,56.9287652 L41.7773095,56.931287 L41.8063333,56.9703739 L41.8088571,56.9728957 L41.810119,56.9766783 L41.8126429,56.9792 L41.8151667,56.9817217 L41.8176905,56.9842435 L41.8202143,56.9880261 L41.8227381,56.9905478 L41.824,56.9943304 L41.8265238,56.9968522 L41.8290476,57.0006348 L41.8315714,57.0031565 L41.8340952,57.0069391 L41.836619,57.0107217 L41.8391429,57.0132435 L41.8416667,57.0170261 L41.8467143,57.0233304 L41.8479762,57.0258522 L41.8505,57.0296348 L41.8530238,57.0321565 L41.8555476,57.0346783 L41.8580714,57.0372 L41.8605952,57.0409826 L41.863119,57.0435043 L41.8656429,57.047287 L41.8669048,57.0498087 L41.8694286,57.0535913 L41.8719524,57.056113 L41.8744762,57.0598957 L41.877,57.0624174 L41.8782619,57.0662 L41.8833095,57.0725043 L41.8858333,57.076287 L41.8883571,57.0788087 C41.9072857,57.1040261 41.9274762,57.1305043 41.9476667,57.1557217 L41.9501905,57.1595043 L41.9527143,57.1620261 L41.9552381,57.1658087 L41.9565,57.1683304 L41.9918333,57.2137217 L41.9943571,57.2162435 L41.996881,57.2200261 L41.9994048,57.2225478 L42.0019286,57.2263304 L42.0044524,57.2288522 L42.0069762,57.2326348 L42.0082381,57.2351565 L42.0107619,57.2389391 L42.0132857,57.2414609 L42.0158095,57.2439826 L42.0183333,57.2477652 L42.0208571,57.250287 L42.023381,57.2528087 L42.0259048,57.2565913 L42.0284286,57.259113 L42.0309524,57.2628957 L42.0334762,57.2666783 L42.0347381,57.2692 L42.0372619,57.2717217 L42.0397857,57.2755043 L42.0423095,57.279287 L42.0448333,57.2818087 L42.0473571,57.2855913 L42.049881,57.288113 L42.0524048,57.2918957 L42.0549286,57.2944174 L42.0574524,57.2969391 C42.0852143,57.3335043 42.1129762,57.3688087 42.1407381,57.404113 L42.1432619,57.4078957 L42.1457857,57.4104174 L42.1647143,57.433113 L42.1659762,57.4368957 L42.1697619,57.4394174 L42.1722857,57.4432 L42.1748095,57.4469826 L42.1773333,57.4507652 L42.1798571,57.453287 L42.1849048,57.4583304 L42.1874286,57.462113 L42.2202381,57.5049826 L42.2240238,57.5075043 L42.2265476,57.511287 L42.2290714,57.5138087 L42.2315952,57.5175913 L42.234119,57.5213739 L42.2366429,57.5238957 L42.2391667,57.5276783 L42.2416905,57.5314609 L42.2442143,57.5339826 L42.2467381,57.5377652 L42.2492619,57.5415478 L42.2517857,57.5440696 L42.2555714,57.5478522 L42.2580952,57.5503739 C42.2795476,57.578113 42.301,57.6058522 42.3224524,57.6310696 L42.3249762,57.6348522 L42.3275,57.6386348 L42.3300238,57.6411565 L42.3577857,57.6752 L42.3603095,57.6777217 L42.3640952,57.6815043 L42.366619,57.6840261 L42.367881,57.6878087 L42.3704048,57.6903304 L42.3729286,57.694113 L42.3754524,57.6966348 L42.3779762,57.7004174 L42.3805,57.7029391 L42.3830238,57.7054609 L42.3855476,57.7092435 L42.3880714,57.7117652 L42.3905952,57.7155478 L42.393119,57.7168087 L42.3956429,57.7205913 L42.3981667,57.723113 L42.4019524,57.7294174 L42.4044762,57.7319391 L42.407,57.7357217 L42.4107857,57.7382435 L42.4133095,57.7420261 L42.4145714,57.7445478 L42.4183571,57.7483304 L42.420881,57.7508522 L42.4234048,57.7546348 L42.4259286,57.7571565 L42.4284524,57.7609391 L42.4297143,57.7634609 L42.4322381,57.7672435 L42.4347619,57.7697652 L42.4372857,57.7710261 L42.4398095,57.7748087 L42.4423333,57.7773304 L42.447381,57.7836348 L42.4499048,57.7874174 L42.4524286,57.7899391 L42.5092143,57.859287 L42.5117381,57.8630696 L42.5142619,57.8655913 L42.5167857,57.8693739 L42.5508571,57.9084609 L42.6139524,57.9853739 L42.6177381,57.9878957 L42.6202619,57.9904174 L42.6227857,57.9942 L42.6240476,57.9967217 L42.6278333,58.0005043 L42.6303571,58.0030261 L42.632881,58.0068087 L42.6341429,58.0093304 L42.6366667,58.0118522 L42.6985,58.0849826 L42.7010238,58.0875043 L42.7035476,58.0900261 L42.7060714,58.0938087 L42.7085952,58.0963304 L42.737619,58.1303739 L42.7401429,58.1341565 L42.7426667,58.1366783 L42.7451905,58.1379391 L42.7477143,58.1417217 L42.7502381,58.1442435 L42.7527619,58.1467652 L42.7552857,58.1505478 L42.7578095,58.1530696 L42.7603333,58.1568522 L42.7628571,58.1593739 L42.7956667,58.1972 L42.7969286,58.1997217 L42.7994524,58.2022435 L42.8019762,58.2060261 L42.8057619,58.2085478 L42.8082857,58.2110696 L42.8108095,58.2148522 L42.8133333,58.2173739 L42.8145952,58.2198957 L42.818381,58.2236783 L42.8209048,58.2262 L42.8234286,58.2287217 L42.8246905,58.2325043 L42.8272143,58.2350261 L42.8877857,58.303113 L42.8903095,58.3068957 L42.8928333,58.3094174 L42.8953571,58.3119391 L42.897881,58.3157217 L42.9407857,58.3636348 L42.9433095,58.3661565 L42.9458333,58.3699391 L42.9483571,58.3724609 L42.950881,58.3749826 L42.9534048,58.3775043 L42.9546667,58.3800261 L42.9571905,58.3838087 L42.9597143,58.3863304 L42.9647619,58.3913739 L42.9660238,58.3938957 L42.9698095,58.3964174 L42.9710714,58.4002 L42.9735952,58.4014609 L42.976119,58.4039826 L42.9786429,58.4065043 L42.9811667,58.4090261 L42.9849524,58.4153304 L42.9874762,58.4178522 L42.99,58.4203739 L42.9925238,58.4228957 L42.9950476,58.4254174 L42.9975714,58.4279391 L43.0000952,58.4317217 L43.002619,58.4342435 L43.0051429,58.4367652 L43.0064048,58.439287 L43.0089286,58.4418087 L43.0114524,58.4455913 L43.0139762,58.4468522 L43.0165,58.4506348 L43.0190238,58.4518957 C43.0417381,58.4783739 43.0631905,58.5048522 43.0871667,58.5300696 L43.0896905,58.5325913 L43.0922143,58.535113 L43.136381,58.5830261 L43.1389048,58.5855478 L43.1401667,58.5880696 L43.1426905,58.5905913 L43.1452143,58.593113 L43.1477381,58.5968957 L43.1502619,58.5994174 L43.1527857,58.6019391 L43.1553095,58.6044609 L43.1565714,58.6069826 L43.1590952,58.6095043 L43.161619,58.6107652 L43.1641429,58.613287 L43.1666667,58.6170696 L43.1691905,58.6195913 L43.1704524,58.622113 L43.1742381,58.6246348 L43.1780238,58.6296783 L43.1805476,58.6322 L43.1830714,58.6347217 L43.1855952,58.6385043 L43.188119,58.6410261 L43.1906429,58.6435478 L43.1919048,58.6460696 L43.1956905,58.6485913 L43.1982143,58.651113 L43.1994762,58.6536348 L43.202,58.6574174 L43.2045238,58.6599391 L43.2070476,58.6624609 L43.2095714,58.6637217 L43.2120952,58.6662435 L43.214619,58.6687652 L43.2171429,58.671287 L43.2196667,58.6750696 L43.2209286,58.6775913 C43.242381,58.700287 43.2625714,58.7217217 43.2840238,58.7456783 L43.2865476,58.7482 L43.2890714,58.7507217 L43.3332381,58.7986348 L43.3357619,58.8011565 L43.3382857,58.8036783 L43.3408095,58.8062 L43.3433333,58.8087217 L43.3445952,58.8112435 L43.347119,58.8137652 L43.3496429,58.816287 L43.3521667,58.8188087 L43.3534286,58.8200696 L43.3559524,58.8225913 L43.3584762,58.825113 L43.361,58.8288957 L43.3635238,58.8301565 L43.3660476,58.8339391 L43.3685714,58.8364609 L43.3710952,58.8389826 L43.373619,58.8415043 L43.374881,58.8440261 L43.3774048,58.8465478 L43.3799286,58.8490696 L43.3824524,58.8515913 L43.3849762,58.854113 L43.3875,58.8566348 L43.3900238,58.8591565 L43.3925476,58.8616783 L43.3950714,58.8642 L43.3963333,58.8667217 L43.3988571,58.8692435 L43.401381,58.8717652 L43.4039048,58.8730261 L43.4064286,58.8755478 L43.4089524,58.8793304 L43.4102143,58.8818522 L43.4127381,58.8843739 L43.4152619,58.8868957 C43.4341905,58.9083304 43.454381,58.9285043 43.4745714,58.9499391 L43.4770952,58.9524609 L43.479619,58.9549826 L43.480881,58.9575043 L43.4834048,58.9600261 L43.5364048,59.0142435 L43.5389286,59.0167652 L43.5414524,59.019287 L43.5439762,59.0218087 L43.5465,59.0243304 L43.5490238,59.0268522 L43.5502857,59.0293739 L43.5528095,59.0306348 L43.5553333,59.0331565 L43.5578571,59.0356783 L43.560381,59.0382 L43.5629048,59.0407217 L43.5641667,59.0432435 L43.5666905,59.0457652 L43.5692143,59.048287 L43.5717381,59.0508087 L43.5742619,59.0533304 L43.5767857,59.0558522 L43.5793095,59.0583739 L43.5818333,59.0608957 L43.5843571,59.0634174 L43.585619,59.0659391 L43.5881429,59.0684609 L43.5906667,59.0709826 L43.5931905,59.0735043 L43.5957143,59.0760261 L43.5982381,59.0785478 L43.6007619,59.0810696 L43.6020238,59.0823304 L43.6058095,59.0848522 L43.6070714,59.0873739 L43.6095952,59.0898957 L43.612119,59.0924174 L43.6146429,59.0949391 L43.6171667,59.0974609 L43.6184286,59.0999826 L43.6209524,59.1025043 C43.638619,59.1214174 43.6575476,59.1403304 43.6752143,59.1592435 L43.6777381,59.1617652 L43.6802619,59.164287 L43.6827857,59.1668087 L43.6853095,59.1693304 L43.6878333,59.1718522 L43.7256905,59.2096783 L43.7282143,59.2122 L43.7307381,59.2147217 L43.7332619,59.2172435 L43.7357857,59.2197652 L43.7383095,59.222287 L43.7408333,59.2248087 L43.7433571,59.2285913 L43.745881,59.231113 L43.7559762,59.2399391 L43.7585,59.2424609 L43.7635476,59.2487652 L43.7660714,59.251287 L43.7736429,59.2588522 L43.7761667,59.2613739 L43.7875238,59.2727217 L43.7900476,59.2752435 L43.7950952,59.280287 L43.7963571,59.2828087 L43.8001429,59.2853304 L43.8026667,59.2878522 L43.8051905,59.2916348 L43.8077143,59.2928957 L43.8102381,59.2954174 L43.8127619,59.2979391 L43.8152857,59.3004609 L43.8203333,59.3055043 L43.8228571,59.3080261 L43.8821667,59.3685478 L43.8846905,59.3710696 L43.8872143,59.3735913 L43.8897381,59.376113 L43.9288571,59.4139391 L43.931381,59.4164609 L43.9339048,59.4189826 L43.9364286,59.4215043 L43.9389524,59.4240261 L44.0083571,59.4933739 L44.010881,59.4958957 L44.0134048,59.4984174 L44.0159286,59.5009391 L44.0197143,59.5034609 L44.0209762,59.5047217 L44.0247619,59.5072435 L44.0272857,59.5097652 L44.0285476,59.512287 L44.0323333,59.5148087 L44.0335952,59.5173304 L44.036119,59.5198522 L44.0386429,59.5223739 L44.0815476,59.5639826 L44.0840714,59.5665043 L44.0865952,59.5690261 L44.089119,59.5715478 L44.1471667,59.6270261 L44.1496905,59.6295478 L44.1522143,59.6320696 L44.1534762,59.6345913 L44.156,59.6358522 L44.1585238,59.6383739 L44.1610476,59.6408957 L44.1635714,59.6434174 L44.1660952,59.6459391 L44.1673571,59.6484609 L44.169881,59.6497217 L44.1724048,59.6522435 L44.1749286,59.6547652 L44.1774524,59.657287 L44.1799762,59.6598087 L44.1825,59.6610696 L44.1850238,59.6623304 L44.1875476,59.6648522 L44.1888095,59.6673739 L44.1913333,59.6698957 L44.1938571,59.6724174 L44.196381,59.6736783 L44.1989048,59.6762 L44.2014286,59.6787217 L44.2026905,59.6812435 L44.2052143,59.6837652 L44.2077381,59.6850261 L44.2102619,59.6875478 L44.2127857,59.6900696 L44.2153095,59.6925913 L44.2165714,59.695113 L44.2190952,59.6976348 L44.221619,59.6988957 L44.2922857,59.7657217 L44.2948095,59.7669826 L44.2973333,59.7695043 L44.3452857,59.8161565 L44.3478095,59.8186783 L44.3503333,59.8199391 L44.3528571,59.8212 L44.355381,59.8237217 L44.3579048,59.8262435 L44.3604286,59.8287652 L44.3629524,59.831287 L44.3654762,59.8338087 L44.368,59.8363304 L44.3869286,59.8552435 L44.3894524,59.8577652 L44.3919762,59.8590261 L44.3945,59.8615478 L44.3970238,59.8640696 L44.4197381,59.8842435 L44.4222619,59.8867652 L44.4247857,59.889287 L44.4260476,59.8905478 L44.4285714,59.8930696 L44.4310952,59.8955913 L44.433619,59.898113 L44.4374048,59.9006348 L44.4386667,59.9031565 L44.4411905,59.9056783 L44.4437143,59.9069391 L44.4462381,59.9094609 L44.4487619,59.9119826 L44.4512857,59.9145043 L44.4929286,59.9523304 L44.4967143,59.9548522 L44.4992381,59.9573739 L44.5017619,59.9598957 L44.5042857,59.9624174 L44.5560238,60.0090696 L44.5585476,60.0115913 L44.5610714,60.014113 L44.5635952,60.0166348 L44.566119,60.0191565 L44.5686429,60.0204174 L44.5711667,60.0229391 L44.5736905,60.0254609 L44.5762143,60.0279826 L44.5787381,60.0292435 L44.5812619,60.0305043 L44.5837857,60.0330261 L44.5850476,60.0355478 L44.5875714,60.0380696 L44.5900952,60.0405913 L44.592619,60.043113 L44.5951429,60.0443739 L44.5976667,60.0468957 L44.6001905,60.0494174 L44.6027143,60.0519391 L44.6052381,60.0544609 L44.6077619,60.0557217 L44.6102857,60.0582435 L44.6128095,60.0607652 L44.6153333,60.063287 L44.6178571,60.0658087 L44.620381,60.0670696 L44.6229048,60.0695913 L44.6254286,60.072113 L44.6279524,60.0746348 L44.6304762,60.0771565 L44.633,60.0796783 L44.6355238,60.0809391 L44.6367857,60.0822 L44.6393095,60.0847217 L44.6418333,60.0872435 L44.6443571,60.0885043 C44.6670714,60.1099391 44.6897857,60.130113 44.7112381,60.1490261 L44.7137619,60.1515478 L44.7617143,60.1918957 L44.7642381,60.1944174 L44.7667619,60.1969391 L44.7680238,60.1994609 L44.7705476,60.2007217 L44.7730714,60.2032435 L44.7743333,60.2045043 L44.779381,60.208287 L44.7819048,60.2108087 L44.8424762,60.2637652 L44.845,60.266287 L44.8475238,60.2675478 L44.8538333,60.275113 L44.8563571,60.2776348 L44.8601429,60.2788957 L44.8626667,60.2814174 L44.8651905,60.2839391 L44.8677143,60.2864609 L44.8702381,60.2889826 L44.9131429,60.3255478 L44.9156667,60.3268087 L44.9181905,60.3293304 L44.9207143,60.3318522 L44.9232381,60.3343739 L44.9825476,60.3848087 L44.9850714,60.3873304 L44.9875952,60.3885913 L44.990119,60.391113 L44.9926429,60.3936348 L44.9951667,60.3948957 L44.9976905,60.3961565 L45.0002143,60.3986783 L45.0052619,60.4024609 L45.0065238,60.4037217 L45.0090476,60.4062435 L45.0115714,60.4087652 L45.0153571,60.4125478 L45.017881,60.4150696 L45.0204048,60.4163304 L45.0279762,60.4226348 L45.0305,60.4251565 L45.0317619,60.4264174 L45.0418571,60.4352435 L45.044381,60.4365043 L45.0469048,60.4390261 L45.0532143,60.4453304 L45.0557381,60.4465913 L45.0582619,60.449113 L45.0607857,60.4503739 L45.0620476,60.4516348 L45.0645714,60.4541565 L45.0670952,60.4554174 L45.069619,60.4579391 L45.0721429,60.4604609 L45.0746667,60.4617217 L45.0771905,60.4642435 L45.0797143,60.4655043 L45.0822381,60.4680261 L45.123881,60.5033304 L45.1264048,60.5045913 L45.1289286,60.507113 L45.1314524,60.5096348 L45.1339762,60.5108957 L45.2059048,60.5701565 L45.2071667,60.5726783 L45.2096905,60.5739391 L45.2122143,60.5764609 L45.2147381,60.5777217 L45.216,60.5802435 L45.2185238,60.5815043 L45.2210476,60.5840261 L45.2235714,60.585287 L45.2361905,60.5966348 L45.2387143,60.5991565 L45.2425,60.6016783 L45.2450238,60.6042 L45.2475476,60.6067217 L45.2626905,60.6180696 L45.2652143,60.6193304 L45.2740476,60.6268957 L45.2765714,60.6294174 L45.2790952,60.6306783 L45.2803571,60.6332 L45.282881,60.6344609 L45.2854048,60.6369826 L45.2879286,60.6382435 L45.2904524,60.6407652 L45.2917143,60.6420261 L45.2942381,60.6445478 L45.2992857,60.6483304 L45.3005476,60.6495913 L45.3030714,60.6508522 L45.3055952,60.6533739 L45.3434524,60.6836348 L45.3459762,60.6848957 L45.3472381,60.6874174 L45.3485,60.6886783 L45.3497619,60.6886783 L45.3989762,60.7277652 L45.4002381,60.7290261 L45.4027619,60.730287 L45.4040238,60.7315478 L45.4052857,60.7328087 L45.4065476,60.7340696 L45.4065476,60.7340696 L45.4078095,60.7353304 L45.4090714,60.7365913 L45.4103333,60.7378522 L45.4115952,60.7378522 L45.4128571,60.739113 L45.414119,60.7403739 L45.415381,60.7403739 L45.4166429,60.7416348 L45.4179048,60.7428957 L45.4191667,60.7428957 L45.4204286,60.7441565 L45.4216905,60.7466783 L45.4242143,60.7479391 L45.4254762,60.7504609 L45.428,60.7517217 L45.4305238,60.7542435 L45.4330476,60.7555043 L45.4355714,60.7567652 L45.4368333,60.759287 L45.4393571,60.7605478 L45.441881,60.7630696 L45.4444048,60.7643304 L45.4469286,60.7655913 L45.4494524,60.7668522 L45.4570238,60.7744174 L45.4595476,60.7756783 L45.4645952,60.7794609 L45.467119,60.7819826 L45.468381,60.7832435 L45.4709048,60.7857652 L45.4734286,60.7870261 L45.4759524,60.7895478 L45.4784762,60.7908087 L45.4797381,60.7920696 L45.4847857,60.7958522 L45.4873095,60.7983739 L45.4885714,60.7996348 L45.4910952,60.8021565 L45.493619,60.8034174 L45.4961429,60.8059391 L45.4986667,60.8072 L45.5011905,60.8084609 L45.5024524,60.8109826 L45.5049762,60.8122435 L45.5075,60.8147652 L45.5087619,60.8160261 L45.5112857,60.817287 L45.5567143,60.8525913 L45.5592381,60.855113 L45.5605,60.8563739 L45.5630238,60.8588957 L45.5642857,60.8588957 L45.5655476,60.8601565 L45.5668095,60.8614174 L45.5680714,60.8614174 L45.5693333,60.8626783 L45.5705952,60.8639391 L45.5718571,60.8652 L45.5718571,60.8652 L45.574381,60.8677217 L45.5756429,60.8677217 L45.6097143,60.8942 L45.6109762,60.8954609 L45.6147619,60.8979826 L45.6160238,60.8992435 L45.6185476,60.9005043 L45.6198095,60.9017652 L45.6210714,60.9017652 L45.6223333,60.904287 L45.6235952,60.904287 L45.6248571,60.9055478 L45.626119,60.9068087 L45.627381,60.9080696 L45.6286429,60.9080696 L45.6299048,60.9093304 L45.6311667,60.9105913 L45.6324286,60.9105913 L45.6336905,60.9118522 L45.6336905,60.913113 L45.6349524,60.913113 L45.6374762,60.9156348 L45.64,60.9168957 L45.6425238,60.9194174 L45.6437857,60.9206783 L45.6463095,60.9219391 L45.6488333,60.9232 L45.6513571,60.9244609 L45.653881,60.9269826 L45.6564048,60.9282435 L45.6589286,60.9307652 L45.6614524,60.9320261 L45.6627143,60.9345478 L45.6652381,60.9358087 L45.6677619,60.9370696 L45.6702857,60.9395913 L45.6715476,60.9408522 L45.6740714,60.9433739 L45.6765952,60.9446348 L45.6816429,60.9484174 L45.6841667,60.9509391 L45.6879524,60.9547217 L45.6904762,60.9559826 L45.693,60.9572435 L45.6955238,60.9597652 L45.6980476,60.9610261 L45.6993095,60.9635478 L45.7018333,60.9648087 L45.7043571,60.9673304 L45.706881,60.9685913 L45.7094048,60.971113 L45.7119286,60.9723739 L45.7144524,60.9736348 L45.7157143,60.9748957 L45.7182381,60.9761565 L45.7207619,60.9786783 L45.7232857,60.9799391 L45.7258095,60.9812 L45.7270714,60.9837217 L45.7295952,60.9849826 L45.732119,60.9875043 L45.7346429,60.9887652 L45.7788095,61.0228087 L45.7813333,61.0253304 L45.7838571,61.0265913 L45.8456905,61.0732435 L45.8482143,61.0757652 L45.8507381,61.0770261 L45.8532619,61.078287 L45.8557857,61.0795478 L45.8583095,61.0808087 L45.8608333,61.0833304 L45.8633571,61.0845913 L45.865881,61.087113 L45.8684048,61.0883739 L45.8709286,61.0908957 L45.8721905,61.0921565 L45.8747143,61.0946783 L45.9012143,61.1148522 L45.9037381,61.116113 L45.9239286,61.1312435 L45.9264524,61.1325043 L45.9277143,61.1337652 L45.9302381,61.1350261 L45.9327619,61.1375478 L45.9352857,61.1388087 L45.9390714,61.1413304 L45.9403333,61.1425913 L45.9428571,61.145113 L45.945381,61.1463739 L45.9479048,61.1488957 L45.9504286,61.1501565 L45.9529524,61.1526783 L45.9554762,61.1539391 L45.958,61.1552 L45.9945952,61.1829391 L45.997119,61.1842 L45.9996429,61.1854609 L46.0021667,61.1879826 L46.0034286,61.1879826 L46.0034286,61.1892435 L46.0046905,61.1892435 L46.0059524,61.1905043 L46.0072143,61.1917652 L46.0084762,61.1930261 L46.0425476,61.2169826 L46.0438095,61.2182435 L46.0438095,61.2182435 L46.0450714,61.2195043 L46.0475952,61.2207652 L46.0488571,61.2220261 L46.050119,61.2220261 L46.051381,61.223287 L46.0526429,61.2245478 L46.0539048,61.2258087 L46.0551667,61.2258087 L46.0564286,61.2270696 L46.0564286,61.2283304 L46.0576905,61.2283304 L46.0589524,61.2295913 L46.0589524,61.2295913 L46.0602143,61.2308522 L46.0614762,61.2308522 L46.0627381,61.232113 L46.064,61.2333739 L46.064,61.2333739 L46.0652619,61.2346348 L46.0665238,61.2358957 L46.0690476,61.2371565 L46.0715714,61.2371565 L46.076619,61.2409391 L46.0791429,61.2434609 L46.0816667,61.2447217 L46.0841905,61.2459826 L46.0867143,61.2485043 L46.0955476,61.2548087 L46.0980714,61.2573304 L46.1018571,61.2585913 L46.1207857,61.2737217 L46.1233095,61.2749826 L46.1371905,61.2863304 L46.1397143,61.2875913 L46.1422381,61.290113 L46.1447619,61.290113 L46.1472857,61.2913739 L46.1498095,61.2938957 L46.1523333,61.2951565 L46.1548571,61.2976783 L46.157381,61.2989391 L46.1599048,61.3002 L46.1624286,61.3027217 L46.1649524,61.3039826 L46.1674762,61.3065043 L46.17,61.3077652 L46.1725238,61.310287 L46.1750476,61.3115478 L46.2242619,61.3455913 L46.2873571,61.3909826 L46.289881,61.3922435 L46.2924048,61.3935043 L46.2936667,61.3947652 L46.2961905,61.3960261 L46.2987143,61.397287 L46.3012381,61.3998087 L46.3037619,61.4010696 C46.3315238,61.4212435 46.3592857,61.4414174 46.3870476,61.4590696 L46.3908333,61.4603304 L46.3933571,61.4628522 L46.395881,61.464113 L46.3971429,61.4666348 L46.3996667,61.4678957 L46.4021905,61.4691565 L46.4047143,61.4716783 L46.4072381,61.4729391 L46.4097619,61.4742 L46.4337381,61.4918522 L46.4362619,61.493113 L46.4387857,61.4956348 L46.4413095,61.4968957 L46.4450952,61.4981565 L46.4450952,61.4994174 L46.4463571,61.4994174 L46.447619,61.4994174 L46.4514048,61.5032 L46.4526667,61.5032 L46.4829524,61.5246348 L46.4842143,61.5246348 L46.4854762,61.5258957 L46.4905238,61.5284174 L46.4917857,61.5296783 L46.4930476,61.5296783 L46.4943095,61.5309391 L46.4955714,61.5322 L46.4968333,61.5322 L46.4980952,61.5334609 L46.4980952,61.5334609 L46.4993571,61.5347217 L46.500619,61.5359826 L46.501881,61.5359826 L46.5031429,61.5372435 L46.5031429,61.5372435 L46.5044048,61.5385043 L46.5056667,61.5397652 L46.5069286,61.5397652 L46.5081905,61.5410261 L46.5094524,61.5410261 L46.5107143,61.542287 L46.5119762,61.5435478 L46.5132381,61.5435478 L46.5145,61.5448087 L46.5157619,61.5448087 L46.5157619,61.5460696 L46.5182857,61.5485913 L46.5208095,61.5498522 L46.5233333,61.551113 L46.5258571,61.5523739 L46.528381,61.5536348 L46.5309048,61.5548957 L46.5334286,61.5561565 L46.5346905,61.5574174 L46.5372143,61.5599391 L46.541,61.5612 L46.5422619,61.5624609 L46.5447857,61.5649826 L46.5473095,61.5662435 L46.5523571,61.5700261 L46.554881,61.571287 L46.5637143,61.5775913 L46.5662381,61.5788522 L46.5826429,61.5902 L46.5851667,61.5927217 L46.5876905,61.5939826 L46.5977857,61.600287 L46.6003095,61.6015478 L46.6028333,61.6040696 L46.6053571,61.6053304 L46.607881,61.6053304 L46.6091429,61.6065913 L46.6116667,61.609113 L46.6141905,61.6103739 L46.6167143,61.6116348 L46.6192381,61.6141565 L46.6217619,61.6154174 L46.6242857,61.6166783 L46.6268095,61.6179391 L46.6293333,61.6204609 L46.6621429,61.6418957 L46.6646667,61.6444174 L46.6671905,61.6456783 L46.6697143,61.6469391 L46.6709762,61.6482 L46.6709762,61.6482 L46.6722381,61.6494609 L46.6735,61.6507217 L46.6747619,61.6507217 L46.6760238,61.6519826 L46.6772857,61.6519826 L46.7050476,61.6696348 L46.7063095,61.6696348 L46.7075714,61.6708957 L46.712619,61.6734174 L46.712619,61.6746783 L46.713881,61.6746783 L46.7151429,61.6759391 L46.7164048,61.6759391 L46.7176667,61.6772 L46.7176667,61.6784609 L46.7189286,61.6784609 L46.7201905,61.6797217 L46.7214524,61.6797217 L46.7227143,61.6809826 L46.7239762,61.6809826 L46.7252381,61.6822435 L46.7265,61.6822435 L46.7277619,61.6835043 L46.7277619,61.6847652 L46.7290238,61.6847652 L46.7302857,61.6860261 L46.7315476,61.687287 L46.7328095,61.687287 L46.7340714,61.6885478 L46.7353333,61.6885478 L46.7365952,61.6898087 L46.7378571,61.6898087 L46.739119,61.6910696 L46.740381,61.6923304 L46.740381,61.6923304 L46.7429048,61.6935913 L46.7454286,61.696113 L46.7479524,61.6973739 L46.7504762,61.6986348 L46.753,61.6998957 L46.7555238,61.7024174 L46.845119,61.7591565 L46.8476429,61.7616783 L46.8501667,61.7629391 L46.8526905,61.7629391 L46.8552143,61.7642 L46.8577381,61.7667217 L46.8602619,61.7679826 L46.8615238,61.7692435 L46.8829762,61.783113 L46.8867619,61.7843739 L46.8880238,61.7856348 L46.8905476,61.7881565 L46.8930714,61.7894174 L46.8943333,61.7894174 L46.8955952,61.7906783 C46.9132619,61.8020261 46.9296667,61.812113 46.9460714,61.8209391 L46.9485952,61.8222 L46.9498571,61.8234609 L46.9498571,61.8234609 L46.951119,61.8247217 L46.952381,61.8259826 L46.9536429,61.8259826 L46.9549048,61.8272435 L46.9561667,61.8272435 L46.9574286,61.8285043 L46.9586905,61.8297652 L46.9599524,61.8297652 L46.9612143,61.8310261 L46.9624762,61.832287 L46.9637381,61.832287 L46.965,61.8335478 L46.9662619,61.8335478 L46.9687857,61.8348087 L46.9700476,61.8360696 L46.9713095,61.8360696 L46.9725714,61.8373304 L46.9738333,61.8385913 L46.9750952,61.8385913 L46.9763571,61.8398522 L46.978881,61.841113 L46.9814048,61.8436348 L46.9839286,61.8448957 L46.9851905,61.8461565 L46.9877143,61.8474174 L46.9902381,61.8486783 L46.9927619,61.8499391 L46.9952857,61.8524609 L46.9978095,61.8537217 L46.9990714,61.8549826 L47.0015952,61.8562435 L47.004119,61.8575043 L47.0697381,61.8978522 L47.0722619,61.899113 L47.0747857,61.9003739 L47.0773095,61.9016348 L47.0798333,61.9028957 L47.0810952,61.9054174 L47.083619,61.9066783 L47.0861429,61.9079391 L47.0886667,61.9092 L47.1126429,61.9230696 L47.1151667,61.9243304 L47.1176905,61.9255913 L47.1202143,61.9268522 L47.1214762,61.928113 L47.1227381,61.9293739 L47.124,61.9306348 L47.1934048,61.9709826 L47.1946667,61.9722435 L47.1959286,61.9722435 L47.1971905,61.9722435 L47.1997143,61.9735043 L47.2009762,61.9747652 L47.2022381,61.9747652 L47.2035,61.9760261 L47.2047619,61.977287 L47.2060238,61.977287 L47.2072857,61.9785478 L47.2098095,61.9798087 L47.2110714,61.9798087 L47.2123333,61.9810696 L47.2148571,61.9823304 L47.217381,61.9835913 L47.2186429,61.9848522 L47.2211667,61.9873739 L47.2236905,61.9886348 L47.2249524,61.9898957 L47.2274762,61.9911565 L47.23,61.9924174 L47.2325238,61.9924174 L47.2337857,61.9949391 L47.2388333,61.9974609 L47.2400952,61.9987217 L47.243881,62.0012435 L47.2464048,62.0025043 L47.2489286,62.0037652 L47.2514524,62.0050261 L47.2552381,62.0075478 L47.2577619,62.0088087 L47.2615476,62.0113304 L47.2640714,62.0125913 L47.2653333,62.0138522 L47.2678571,62.015113 L47.2880476,62.0252 L47.2893095,62.0264609 L47.2930952,62.0289826 L47.295619,62.0302435 L47.2981429,62.0315043 L47.2994048,62.0327652 L47.3019286,62.0340261 L47.3044524,62.035287 L47.3069762,62.0365478 L47.3082381,62.0378087 L47.3107619,62.0390696 L47.3132857,62.0403304 L47.3158095,62.0415913 L47.3410476,62.0567217 L47.3435714,62.0579826 L47.3448333,62.0592435 L47.3473571,62.0605043 L47.348619,62.0617652 L47.349881,62.0630261 L47.4091905,62.0945478 L47.4104524,62.0958087 L47.4117143,62.0970696 L47.4155,62.0983304 L47.4167619,62.0995913 L47.4180238,62.1008522 L47.4192857,62.1008522 L47.4218095,62.102113 L47.4230714,62.1033739 L47.4243333,62.1033739 L47.4255952,62.1046348 L47.4268571,62.1058957 L47.428119,62.1058957 L47.429381,62.1071565 L47.4319048,62.1084174 L47.4331667,62.1084174 L47.4344286,62.1096783 L47.4369524,62.1109391 L47.4382143,62.1122 L47.4394762,62.1122 L47.4407381,62.1134609 L47.442,62.1147217 L47.4445238,62.1147217 L47.4457857,62.1159826 L47.4483095,62.1172435 L47.4495714,62.1185043 L47.4508333,62.1197652 L47.4533571,62.1210261 L47.455881,62.122287 L47.4584048,62.1235478 L47.4596667,62.1248087 L47.4621905,62.1260696 L47.4634524,62.1273304 L47.4659762,62.1285913 L47.4685,62.1285913 L47.4710238,62.1298522 L47.4722857,62.1298522 L47.4748095,62.131113 L47.4760714,62.1323739 L47.4785952,62.1336348 L47.4798571,62.1348957 L47.482381,62.1361565 L47.4849048,62.1374174 L47.4886905,62.1399391 L47.4912143,62.1412 L47.4937381,62.1424609 L47.495,62.1437217 L47.4975238,62.1449826 L47.4987857,62.1462435 L47.5114048,62.1525478 L47.5139286,62.1538087 L47.5151905,62.1550696 L47.5177143,62.1563304 L47.5202381,62.1575913 L47.5240238,62.160113 L47.5265476,62.1613739 L47.5278095,62.1626348 L47.5303333,62.1638957 L47.5315952,62.1638957 L47.534119,62.1651565 L47.5366429,62.1664174 L47.5379048,62.1676783 L47.5404286,62.1689391 L47.5429524,62.1702 L47.5442143,62.1714609 L47.5467381,62.1727217 L47.5492619,62.1739826 L47.5505238,62.1752435 L47.5530476,62.1765043 L47.5555714,62.1777652 L47.5694524,62.1840696 L47.5707143,62.1853304 L47.5732381,62.1865913 L47.5757619,62.1878522 L47.5782857,62.189113 L47.5795476,62.1903739 L47.5808095,62.1903739 L47.640119,62.2231565 L47.641381,62.2244174 L47.6451667,62.2256783 L47.6464286,62.2269391 L47.6489524,62.2282 L47.6502143,62.2294609 L47.6527381,62.2307217 L47.654,62.2307217 L47.6552619,62.2319826 L47.6565238,62.2319826 L47.6577857,62.2332435 L47.6603095,62.2345043 L47.6603095,62.2345043 L47.6615714,62.2357652 L47.6640952,62.2357652 L47.6653571,62.2357652 L47.666619,62.2370261 L47.6691429,62.238287 L47.6704048,62.238287 L47.6716667,62.2395478 L47.6729286,62.2395478 L47.6754524,62.2408087 L47.6767143,62.2420696 L47.6792381,62.2433304 L47.6817619,62.2445913 L47.6842857,62.2458522 L47.6855476,62.247113 L47.6880714,62.2483739 L47.6905952,62.2496348 L47.6918571,62.2508957 L47.694381,62.2521565 L47.6969048,62.2534174 L47.6994286,62.2546783 L47.7006905,62.2546783 L47.7032143,62.2572 L47.7057381,62.2584609 L47.707,62.2584609 L47.7095238,62.2597217 L47.7120476,62.2609826 L47.7133095,62.2622435 L47.7158333,62.2635043 L47.7183571,62.2647652 L47.719619,62.2660261 L47.7221429,62.267287 L47.7246667,62.2685478 L47.7271905,62.2698087 L47.7284524,62.2710696 L47.7309762,62.2723304 L47.7335,62.2735913 L47.7360238,62.2748522 L47.7372857,62.276113 L47.7398095,62.276113 L47.7410714,62.2773739 L47.7435952,62.2786348 L47.746119,62.2798957 L47.7486429,62.2811565 L47.7499048,62.2824174 L47.7524286,62.2836783 L47.7549524,62.2849391 L47.7574762,62.2862 L47.7587381,62.2874609 L47.7612619,62.2874609 L47.7637857,62.2887217 L47.7650476,62.2899826 L47.7675714,62.2912435 L47.7700952,62.2912435 C47.7814524,62.2988087 47.7915476,62.305113 47.8041667,62.3101565 L47.8066905,62.3114174 L47.8092143,62.3126783 L47.8104762,62.3139391 L47.8117381,62.3152 L47.813,62.3152 L47.8142619,62.3164609 L47.8155238,62.3164609 L47.8167857,62.3177217 L47.8180476,62.3177217 L47.8193095,62.3189826 L47.8205714,62.3189826 L47.8685238,62.3429391 L47.8697857,62.3429391 L47.8710476,62.3442 L47.8710476,62.3442 L47.8723095,62.3454609 L47.8735714,62.3454609 L47.8748333,62.3467217 L47.8760952,62.3479826 L47.8773571,62.3479826 L47.878619,62.3492435 L47.879881,62.3492435 L47.8824048,62.3505043 L47.8824048,62.3505043 L47.8849286,62.3517652 L47.8861905,62.3517652 L47.8874524,62.3530261 L47.8887143,62.3530261 L47.8899762,62.354287 L47.8912381,62.354287 L47.8925,62.3555478 L47.8950238,62.3568087 L47.9013333,62.3605913 L47.9038571,62.3618522 L47.906381,62.363113 L47.9089048,62.3643739 L47.9177381,62.3694174 L47.9215238,62.3706783 L47.9921905,62.4059826 L47.9947143,62.4072435 L47.9972381,62.4085043 L47.9997619,62.4097652 L48.0022857,62.4110261 L48.0035476,62.412287 L48.0060714,62.4135478 L48.0085952,62.4148087 L48.011119,62.4160696 L48.0136429,62.4173304 L48.0414048,62.4324609 L48.0439286,62.4337217 L48.0451905,62.4337217 L48.0464524,62.4349826 L48.0477143,62.4349826 L48.0502381,62.4362435 L48.0515,62.4362435 L48.0527619,62.4375043 L48.0540238,62.4375043 L48.1007143,62.4602 L48.1019762,62.4614609 L48.1070238,62.4639826 L48.1082857,62.4639826 L48.1095476,62.4639826 L48.1108095,62.4652435 L48.1120714,62.4652435 L48.1133333,62.4665043 L48.1145952,62.4665043 L48.1158571,62.4677652 L48.117119,62.4690261 L48.118381,62.4690261 L48.1196429,62.470287 L48.1209048,62.470287 L48.1221667,62.470287 L48.1234286,62.4715478 L48.1246905,62.4715478 L48.1272143,62.4728087 L48.1297381,62.4740696 L48.1322619,62.4753304 L48.1347857,62.4765913 L48.1360476,62.4778522 L48.2344762,62.5257652 L48.237,62.5270261 L48.2395238,62.528287 L48.2420476,62.5295478 L48.2445714,62.5308087 L48.2470952,62.5308087 L48.249619,62.5320696 L48.2521429,62.5333304 L48.2546667,62.5345913 L48.2710714,62.5434174 L48.2735952,62.5446783 L48.2748571,62.5459391 L48.277381,62.5459391 L48.2799048,62.5472 L48.3366905,62.5724174 L48.3379524,62.5736783 L48.3392143,62.5736783 L48.3404762,62.5749391 L48.3417381,62.5749391 L48.3442619,62.5762 L48.3442619,62.5762 L48.3455238,62.5774609 L48.3467857,62.5774609 L48.3480476,62.5787217 L48.3505714,62.5787217 L48.3518333,62.5799826 L48.3530952,62.5799826 L48.3543571,62.5812435 L48.355619,62.5812435 L48.356881,62.5825043 L48.3581429,62.5825043 L48.3594048,62.5837652 L48.3619286,62.5850261 L48.3631905,62.5850261 L48.3644524,62.586287 L48.3657143,62.586287 L48.3682381,62.5875478 L48.3695,62.5888087 L48.3720238,62.5900696 L48.3745476,62.5900696 L48.3770714,62.5913304 L48.3783333,62.5925913 L48.382119,62.5938522 L48.3846429,62.595113 L48.3859048,62.5963739 L48.3884286,62.5976348 L48.3909524,62.5988957 L48.3934762,62.5988957 L48.396,62.6001565 L48.3972619,62.6014174 L48.3997857,62.6026783 L48.4023095,62.6026783 L48.4048333,62.6039391 L48.4073571,62.6052 L48.4553095,62.6278957 L48.4578333,62.6291565 L48.4603571,62.6304174 L48.4654048,62.6316783 L48.4679286,62.6329391 L48.4704524,62.6342 L48.4729762,62.6354609 L48.4742381,62.6367217 L48.4767619,62.6379826 L48.4792857,62.6379826 L48.4805476,62.6392435 L48.4830714,62.6405043 L48.4855952,62.6417652 L48.5095714,62.653113 L48.5108333,62.653113 L48.514619,62.6543739 L48.515881,62.6556348 L48.5171429,62.6556348 L48.5184048,62.6556348 L48.5196667,62.6556348 L48.5221905,62.6568957 L48.5234524,62.6581565 L48.5890714,62.6871565 L48.5903333,62.6871565 L48.5915952,62.6884174 L48.5928571,62.6884174 L48.595381,62.6896783 L48.5966429,62.6896783 L48.5979048,62.6909391 L48.5991667,62.6909391 L48.6016905,62.6922 L48.6029524,62.6934609 L48.6042143,62.6934609 L48.6054762,62.6947217 L48.6067381,62.6947217 L48.6092619,62.6959826 L48.6105238,62.6959826 L48.6117857,62.6972435 L48.6130476,62.6972435 L48.6155714,62.6985043 L48.6180952,62.6997652 L48.6193571,62.7010261 L48.621881,62.7010261 L48.6244048,62.702287 L48.6256667,62.7035478 L48.6281905,62.7048087 L48.6307143,62.7048087 L48.6345,62.7073304 L48.6357619,62.7085913 L48.6382857,62.7085913 L48.6408095,62.7085913 L48.6433333,62.7098522 L48.6496429,62.7123739 L48.6509048,62.7136348 L48.6534286,62.7148957 L48.701381,62.7363304 L48.7039048,62.7363304 L48.7064286,62.7375913 L48.7076905,62.7388522 L48.7102143,62.740113 L48.7127381,62.740113 L48.714,62.7413739 L48.7165238,62.7426348 L48.7190476,62.7438957 L48.7203095,62.7438957 L48.7228333,62.7451565 L48.7253571,62.7464174 L48.726619,62.7476783 L48.7291429,62.7476783 L48.7455476,62.7552435 L48.7480714,62.7565043 L48.7505952,62.7565043 L48.7518571,62.7577652 L48.753119,62.7590261 L48.7556429,62.7590261 L48.7581667,62.760287 C48.780881,62.769113 48.8035952,62.7779391 48.8263095,62.7880261 L48.8288333,62.789287 L48.8300952,62.789287 L48.8364048,62.7918087 L48.8376667,62.7930696 L48.8401905,62.7930696 L48.8427143,62.7943304 L48.8452381,62.7955913 L48.8465,62.7968522 L48.8490238,62.7968522 L48.8502857,62.798113 L48.8528095,62.7993739 L48.8540714,62.7993739 L48.8565952,62.8006348 L48.859119,62.8018957 L48.860381,62.8018957 L48.8629048,62.8031565 L48.8641667,62.8031565 L48.8666905,62.8044174 L48.8679524,62.8056783 L48.8692143,62.8056783 L48.8717381,62.8069391 L48.873,62.8082 L48.8755238,62.8082 L48.8767857,62.8094609 L48.8793095,62.8094609 L48.8805714,62.8107217 L48.8830952,62.8119826 L48.8843571,62.8119826 L48.886881,62.8132435 L48.8881429,62.8132435 L48.8906667,62.8132435 L48.8919286,62.8145043 L48.8944524,62.8145043 L48.8957143,62.8157652 L48.8969762,62.8170261 L48.8995,62.8170261 L48.9007619,62.818287 L48.9032857,62.818287 L48.9045476,62.8195478 L48.9070714,62.8208087 L48.9095952,62.8208087 L48.9108571,62.8220696 L48.913381,62.8233304 L48.9146429,62.8233304 L48.9171667,62.8245913 L48.9184286,62.8245913 L48.9209524,62.8258522 L48.9234762,62.827113 L48.926,62.8283739 L48.9272619,62.8296348 L48.9297857,62.8296348 L48.9348333,62.8321565 L48.9373571,62.8334174 L48.938619,62.8334174 L48.9449286,62.8359391 L48.9461905,62.8372 L48.9487143,62.8372 L48.9499762,62.8384609 L48.9512381,62.8397217 L48.9537619,62.8397217 L48.9550238,62.8409826 L48.9575476,62.8409826 L48.9588095,62.8422435 L48.9613333,62.8435043 L48.9625952,62.8435043 L48.965119,62.8447652 L48.966381,62.8460261 L48.9840476,62.8523304 L48.9853095,62.8535913 L48.9878333,62.8535913 L48.9890952,62.8548522 L48.991619,62.8548522 L48.992881,62.856113 L48.9954048,62.8573739 L49.0786905,62.8888957 L49.0799524,62.8888957 L49.0862619,62.8914174 L49.0875238,62.8926783 L49.0900476,62.8926783 L49.0938333,62.8952 L49.0963571,62.8952 L49.097619,62.8964609 L49.1001429,62.8964609 L49.1014048,62.8977217 L49.1039286,62.8977217 L49.1051905,62.8989826 L49.1077143,62.9002435 L49.1089762,62.9002435 L49.1102381,62.9015043 L49.1127619,62.9015043 L49.1140238,62.9027652 L49.1165476,62.9040261 L49.1178095,62.9040261 L49.1203333,62.905287 L49.1215952,62.905287 L49.124119,62.9065478 L49.125381,62.9078087 L49.1279048,62.9078087 L49.1291667,62.9090696 L49.1316905,62.9090696 L49.1329524,62.9103304 L49.1342143,62.9103304 L49.1443095,62.914113 L49.1455714,62.9153739 L49.1480952,62.9153739 L49.1493571,62.9166348 L49.2010952,62.9355478 L49.2023571,62.9355478 L49.204881,62.9368087 L49.2061429,62.9380696 L49.2086667,62.9380696 L49.2099286,62.9393304 L49.2111905,62.9393304 L49.2124524,62.9405913 L49.2149762,62.9418522 L49.2225476,62.9443739 L49.2250714,62.9443739 L49.2263333,62.9456348 L49.2288571,62.9456348 L49.230119,62.9468957 L49.2326429,62.9481565 C49.2654524,62.9607652 49.2995238,62.972113 49.3348571,62.9834609 L49.336119,62.9847217 L49.3386429,62.9859826 L49.3411667,62.9859826 L49.3424286,62.9872435 L49.3462143,62.9885043 L49.3487381,62.9885043 L49.35,62.9897652 L49.3525238,62.9910261 L49.3537857,62.9910261 L49.3563095,62.992287 L49.3575714,62.992287 L49.3600952,62.9935478 L49.3613571,62.9935478 L49.363881,62.9948087 L49.3651429,62.9948087 L49.3676667,62.9960696 L49.3689286,62.9960696 L49.3701905,62.9973304 L49.3714524,62.9973304 L49.3739762,62.9985913 L49.3752381,62.9985913 L49.3777619,62.9998522 L49.3790238,62.9998522 L49.3815476,63.001113 L49.3853333,63.0023739 L49.3865952,63.0036348 L49.3878571,63.0036348 L49.390381,63.0048957 L49.3916429,63.0048957 L49.3941667,63.0061565 L49.4004762,63.0086783 L49.4017381,63.0086783 L49.4042619,63.0099391 L49.4130952,63.0124609 L49.4143571,63.0137217 L49.4231905,63.0162435 L49.4244524,63.0175043 L49.4320238,63.0200261 L49.4345476,63.0200261 L49.4358095,63.021287 L49.4395952,63.0225478 L49.4408571,63.0238087 L49.443381,63.0238087 L49.4446429,63.0238087 L49.4471667,63.0238087 L49.4484286,63.0250696 L49.4496905,63.0250696 L49.4522143,63.0263304 L49.4534762,63.0263304 L49.4623095,63.030113 L49.4648333,63.030113 L49.4660952,63.0313739 L49.468619,63.0313739 L49.469881,63.0313739 L49.4724048,63.0326348 L49.4736667,63.0338957 L49.4749286,63.0338957 L49.4774524,63.0351565 C49.5077381,63.0452435 49.5380238,63.0553304 49.5683095,63.0666783 L49.5708333,63.0666783 L49.5720952,63.0679391 L49.575881,63.0692 L49.5784048,63.0692 L49.5796667,63.0704609 L49.5821905,63.0704609 L49.5834524,63.0717217 L49.5859762,63.0717217 L49.5885,63.0729826 L49.5897619,63.0729826 L49.5922857,63.0742435 L49.5935476,63.0742435 L49.5960714,63.0755043 L49.5973333,63.0755043 L49.5998571,63.0755043 L49.601119,63.0755043 L49.6036429,63.0767652 L49.6049048,63.0767652 L49.6061667,63.0780261 L49.6086905,63.0780261 L49.6099524,63.079287 L49.6124762,63.079287 L49.6137381,63.0805478 L49.6162619,63.0805478 L49.6175238,63.0818087 L49.6187857,63.0818087 L49.6213095,63.0830696 L49.6225714,63.0830696 L49.6250952,63.0843304 L49.627619,63.0843304 L49.628881,63.0855913 L49.6869286,63.1057652 L49.6881905,63.1057652 L49.6907143,63.1070261 L49.6919762,63.1070261 L49.6945,63.108287 L49.6957619,63.108287 L49.6970238,63.108287 L49.6995476,63.1095478 L49.7008095,63.1108087 L49.7033333,63.1108087 L49.7045952,63.1108087 L49.707119,63.1120696 L49.708381,63.1120696 L49.7109048,63.1133304 L49.7121667,63.1133304 C49.7487619,63.1259391 49.7840952,63.1360261 49.8206905,63.1473739 L49.8219524,63.1473739 L49.8244762,63.1486348 L49.827,63.1486348 L49.8295238,63.1498957 L49.8307857,63.1498957 L49.8333095,63.1511565 L49.8345714,63.1511565 L49.8370952,63.1524174 L49.839619,63.1524174 L49.840881,63.1536783 L49.8421429,63.1536783 L49.8434048,63.1549391 L49.8459286,63.1549391 L49.8471905,63.1562 L49.8497143,63.1562 L49.8509762,63.1562 L49.8535,63.1574609 L49.8547619,63.1574609 L49.8572857,63.1587217 L49.8585476,63.1587217 L49.8610714,63.1599826 L49.8623333,63.1599826 L49.8648571,63.1612435 L49.866119,63.1612435 L49.867381,63.1612435 L49.8686429,63.1625043 L49.8711667,63.1625043 L49.8724286,63.1637652 L49.8749524,63.1637652 L49.8762143,63.1650261 L49.8787381,63.1650261 L49.88,63.166287 L49.8825238,63.166287 L49.8837857,63.1675478 L49.8863095,63.1675478 L49.892619,63.1700696 L49.8951429,63.1700696 L49.8976667,63.1713304 L49.9001905,63.1725913 L49.9229048,63.1788957 L49.9241667,63.1801565 L49.9266905,63.1801565 L49.9279524,63.1814174 L49.9304762,63.1814174 L49.9317381,63.1814174 L49.9342619,63.1814174 L49.9355238,63.1826783 L49.9380476,63.1826783 L49.9393095,63.1839391 L49.9418333,63.1839391 L49.9519286,63.1877217 L49.9531905,63.1877217 L49.9557143,63.1877217 L49.9569762,63.1889826 C49.9822143,63.1965478 50.0087143,63.204113 50.0339524,63.2116783 L50.0364762,63.2116783 L50.0377381,63.2129391 L50.0440476,63.2142 L50.0453095,63.2142 L50.0478333,63.2154609 L50.0490952,63.2154609 L50.0503571,63.2154609 L50.052881,63.2167217 L50.0541429,63.2167217 L50.0554048,63.2179826 L50.0579286,63.2179826 L50.0591905,63.2179826 L50.0617143,63.2192435 L50.0629762,63.2192435 L50.0655,63.2205043 L50.0667619,63.2205043 L50.0692857,63.2217652 L50.0705476,63.2217652 L50.0730714,63.2217652 L50.0743333,63.2230261 L50.0768571,63.2230261 L50.079381,63.224287 L50.0806429,63.2255478 L50.0831667,63.2255478 L50.0844286,63.2255478 L50.0869524,63.2268087 L50.0894762,63.2268087 L50.0907381,63.2280696 L50.0932619,63.2280696 L50.0957857,63.2293304 L50.0970476,63.2293304 L50.0995714,63.2305913 L50.1020952,63.2305913 L50.104619,63.2318522 L50.1071429,63.233113 L50.1096667,63.233113 L50.1765476,63.2507652 L50.1778095,63.2520261 L50.1803333,63.2520261 L50.1828571,63.253287 L50.184119,63.253287 L50.1866429,63.2545478 L50.1879048,63.2545478 L50.1967381,63.2570696 L50.1992619,63.2583304 L50.2005238,63.2583304 L50.2030476,63.2583304 L50.2043095,63.2595913 L50.2055714,63.2595913 L50.263619,63.2747217 L50.264881,63.2747217 L50.2686667,63.2759826 L50.2711905,63.2772435 L50.2724524,63.2772435 L50.2737143,63.2772435 L50.2775,63.2785043 L50.2787619,63.2785043 L50.2800238,63.2797652 L50.2825476,63.2797652 L50.2838095,63.2797652 L50.2850714,63.2810261 L50.2863333,63.2810261 L50.2888571,63.2810261 L50.2888571,63.282287 L50.291381,63.282287 L50.2926429,63.282287 L50.2939048,63.2835478 L50.2951667,63.2835478 L50.2976905,63.2835478 L50.2989524,63.2848087 L50.3002143,63.2848087 L50.3027381,63.2860696 L50.3052619,63.2860696 L50.3077857,63.2860696 L50.3103095,63.2860696 L50.3115714,63.2873304 L50.3140952,63.2873304 L50.316619,63.2873304 L50.317881,63.2885913 L50.3229286,63.2898522 L50.3254524,63.2898522 L50.3279762,63.291113 L50.3292381,63.291113 L50.3317619,63.2923739 C50.3620476,63.2999391 50.3923333,63.3087652 50.422619,63.3163304 L50.4251429,63.3163304 L50.4276667,63.3175913 L50.4289286,63.3175913 L50.4314524,63.3188522 L50.4339762,63.3188522 L50.4365,63.320113 L50.4390238,63.320113 L50.4415476,63.3213739 L50.4440714,63.3213739 L50.4453333,63.3226348 L50.4478571,63.3226348 L50.449119,63.3226348 C50.4844524,63.3314609 50.5185238,63.3390261 50.5525952,63.3465913 L50.555119,63.3465913 L50.556381,63.3478522 L50.5589048,63.3478522 L50.5614286,63.3478522 L50.5626905,63.349113 L50.5652143,63.349113 L50.5677381,63.3503739 L50.5702619,63.3503739 L50.5715238,63.3503739 L50.5740476,63.3516348 L50.5765714,63.3516348 L50.5778333,63.3528957 L50.5803571,63.3528957 L50.582881,63.3541565 L50.5841429,63.3541565 L50.5854048,63.3541565 L50.5879286,63.3541565 L50.5904524,63.3554174 L50.5929762,63.3554174 L50.5942381,63.3566783 L50.5967619,63.3566783 L50.5980238,63.3566783 L50.5992857,63.3579391 L50.6018095,63.3579391 L50.6030714,63.3592 L50.6043333,63.3592 L50.6055952,63.3592 L50.608119,63.3604609 L50.609381,63.3604609 L50.6106429,63.3604609 L50.6131667,63.3604609 L50.6144286,63.3617217 L50.6169524,63.3617217 L50.6182143,63.3617217 L50.6194762,63.3629826 L50.6232619,63.3629826 L50.6245238,63.3642435 L50.6270476,63.3642435 L50.6775238,63.3768522 L50.6800476,63.3768522 L50.6813095,63.3768522 L50.6825714,63.378113 L50.6838333,63.378113 L50.6863571,63.378113 L50.687619,63.378113 L50.688881,63.3793739 L50.6914048,63.3793739 L50.6939286,63.3806348 C50.7355714,63.3894609 50.7772143,63.3970261 50.8175952,63.4058522 L50.820119,63.4058522 L50.8226429,63.407113 L50.8251667,63.407113 L50.8276905,63.407113 L50.8289524,63.4083739 L50.8314762,63.4083739 L50.8327381,63.4083739 L50.8352619,63.4096348 L50.8365238,63.4096348 L50.8377857,63.4096348 L50.8403095,63.4108957 L50.8415714,63.4108957 L50.8428333,63.4108957 L50.8453571,63.4108957 L50.846619,63.4121565 L50.847881,63.4121565 L50.8504048,63.4121565 L50.8516667,63.4134174 L50.8541905,63.4134174 L50.8554524,63.4134174 L50.8579762,63.4134174 L50.8605,63.4146783 L50.8630238,63.4146783 L50.8668095,63.4159391 L50.8680714,63.4159391 L50.9210714,63.427287 L50.9235952,63.4285478 L50.9248571,63.4285478 L50.927381,63.4285478 L50.9286429,63.4298087 L50.9299048,63.4298087 L50.9324286,63.4298087 L50.9362143,63.4310696 L50.9362143,63.4310696 L50.9374762,63.4310696 L50.94,63.4310696 L50.9412619,63.4323304 L50.9437857,63.4323304 C50.993,63.4424174 51.0422143,63.4499826 51.0914286,63.4588087 L51.0939524,63.4600696 L51.0964762,63.4600696 L51.099,63.4600696 L51.1015238,63.4613304 L51.1040476,63.4613304 L51.1065714,63.4625913 L51.1090952,63.4625913 L51.1103571,63.4625913 L51.111619,63.4625913 L51.112881,63.4625913 L51.1141429,63.4638522 L51.1166667,63.4638522 L51.1179286,63.4638522 L51.1191905,63.4638522 L51.1204524,63.465113 L51.1217143,63.465113 L51.1229762,63.465113 L51.1242381,63.465113 L51.1255,63.465113 L51.1267619,63.465113 L51.1280238,63.4663739 L51.1292857,63.4663739 L51.1305476,63.4663739 L51.1318095,63.4663739 L51.1330714,63.4663739 L51.1343333,63.4676348 L51.1355952,63.4676348 L51.1368571,63.4676348 L51.138119,63.4676348 L51.139381,63.4676348 L51.1406429,63.4688957 L51.1419048,63.4688957 L51.1431667,63.4688957 L51.1785,63.4752 L51.1797619,63.4752 L51.1810238,63.4764609 L51.1822857,63.4764609 L51.1835476,63.4764609 L51.1848095,63.4764609 L51.1860714,63.4764609 L51.1860714,63.4764609 L51.1860714,63.4777217 L51.1885952,63.4777217 L51.1898571,63.4777217 C51.2302381,63.485287 51.2693571,63.4903304 51.3097381,63.4966348 L51.3122619,63.4966348 L51.3160476,63.4966348 L51.3173095,63.4966348 L51.3198333,63.4978957 L51.3223571,63.4978957 L51.324881,63.4978957 L51.3261429,63.4991565 L51.3286667,63.4991565 L51.3311905,63.4991565 L51.3324524,63.4991565 L51.3349762,63.5004174 L51.3362381,63.5004174 L51.3387619,63.5004174 L51.3400238,63.5004174 L51.3412857,63.5016783 L51.3425476,63.5016783 L51.3450714,63.5016783 L51.3463333,63.5016783 L51.3475952,63.5016783 L51.350119,63.5029391 L51.351381,63.5029391 L51.3539048,63.5029391 L51.3551667,63.5029391 L51.3576905,63.5042 L51.3589524,63.5042 L51.3614762,63.5042 L51.3627381,63.5042 L51.3652619,63.5054609 L51.3665238,63.5054609 L51.3677857,63.5054609 L51.3690476,63.5054609 L51.4258333,63.5155478 L51.4283571,63.5155478 L51.429619,63.5155478 L51.430881,63.5155478 L51.4334048,63.5155478 L51.4346667,63.5168087 L51.4371905,63.5168087 L51.4384524,63.5168087 L51.4384524,63.5168087 L51.4409762,63.5168087 L51.4422381,63.5180696 L51.4447619,63.5180696 L51.6895714,63.5508522 L51.6920952,63.5508522 L51.694619,63.5508522 L51.6971429,63.5508522 L51.7009286,63.5508522 C51.7551905,63.5584174 51.8094524,63.5634609 51.8637143,63.5697652 L51.8662381,63.5697652 L51.8687619,63.5697652 L51.8700238,63.5697652 L51.8712857,63.5710261 L51.8725476,63.5710261 L51.8725476,63.5710261 L51.8738095,63.5710261 L51.8763333,63.5710261 L51.8763333,63.5710261 L51.8775952,63.5710261 L51.8788571,63.5710261 L51.880119,63.5710261 L51.881381,63.572287 L51.8826429,63.572287 L51.8839048,63.572287 L51.8851667,63.572287 L51.8864286,63.572287 L51.8876905,63.572287 L51.8889524,63.572287 L51.8902143,63.572287 L51.8914762,63.572287 L51.8927381,63.5735478 L51.8927381,63.5735478 L51.894,63.5735478 L51.8952619,63.5735478 L51.8965238,63.5735478 L51.8977857,63.5735478 L51.8990476,63.5735478 L51.9003095,63.5735478 L51.9015714,63.5735478 L51.9028333,63.5735478 L51.9040952,63.5735478 L51.9040952,63.5748087 L51.9356429,63.5773304 L51.9369048,63.5773304 L51.9381667,63.5785913 L51.9394286,63.5785913 L51.9406905,63.5785913 L51.9419524,63.5785913 L51.9419524,63.5785913 L51.9432143,63.5785913 L51.947,63.5785913 C52.0302857,63.5874174 52.1135714,63.5949826 52.198119,63.601287 L52.2006429,63.601287 C52.2851905,63.6063304 52.3684762,63.6113739 52.4530238,63.6151565 L52.4542857,63.6151565 C52.5388333,63.6189391 52.6246429,63.6214609 52.7091905,63.6239826 C60.5355238,63.7866348 65.9188095,59.9107217 69.1783095,53.8434174 C68.9549524,56.4508957 68.8855476,58.9423739 68.9032143,61.3758522 C68.907,61.9142435 68.9297143,64.4019391 69.2868333,66.9488957 C69.4458333,68.0811565 69.9518571,69.0469826 70.6635714,69.8791565" id="Fill-23" fill="#1988BF"></path>
                <path d="M52.08745,33.5417783 C51.7921643,31.6958652 38.4601405,29.6343435 38.3919976,33.3097783 C38.346569,35.7356913 38.67845,38.0859522 40.5851881,39.1665174 C41.7347833,39.818387 43.6427833,40.001213 46.430331,40.0806478 C53.83645,40.2886913 52.1025929,33.5720391 52.08745,33.5417783 M56.4511167,33.5417783 C56.578569,31.9530826 70.0784262,29.5460826 70.146569,33.3097783 C70.1907357,35.7356913 69.8601167,38.0859522 67.9521167,39.1665174 C66.8025214,39.818387 64.8945214,40.001213 62.1082357,40.0806478 C54.7008548,40.2886913 56.4511167,33.5417783 56.4511167,33.5417783 M35.2561643,31.9833435 C36.0663071,31.7715174 36.4183786,31.6819957 37.3736405,31.3983 C42.6017119,29.8461696 49.1762357,30.5106478 52.154331,32.191387 C52.6717119,32.4826478 53.4679738,32.5822565 54.2692833,32.5910826 C55.0705929,32.5822565 55.8655929,32.4826478 56.3829738,32.191387 C59.361069,30.5106478 65.9368548,29.8461696 71.1636643,31.3983 C71.8312119,31.5962565 72.4621643,31.7664739 73.0577833,31.9240826 C73.3202595,32.5898217 73.4350929,33.7170391 72.9076167,35.2603435 L71.2519976,35.3170826 C71.2519976,35.3170826 70.836831,36.6800826 69.2316881,38.8084304 C67.6252833,40.9342565 60.9094262,40.7186478 58.8335929,40.2369957 C56.7577595,39.7540826 54.92295,35.0371696 54.92295,35.0371696 C54.4232357,34.9917783 54.115331,34.9917783 53.6143548,35.0371696 C53.6143548,35.0371696 51.7795452,39.7540826 49.7037119,40.2369957 C47.6291405,40.717387 40.9120214,40.9342565 39.3068786,38.8084304 C37.7017357,36.6800826 37.2853071,35.3296913 37.2853071,35.3296913 C36.6543548,34.3197348 36.2038548,34.0499087 35.0567833,34.1810391 C34.9570929,32.1800391 35.0429024,33.5279087 35.2561643,31.9833435" id="Fill-25" fill="#0F50A4"></path>
                <path d="M52.08745,33.5417783 C51.7921643,31.6958652 38.4601405,29.6343435 38.3919976,33.3097783 C38.346569,35.7356913 38.67845,38.0859522 40.5851881,39.1665174 C41.7347833,39.818387 43.6427833,40.001213 46.430331,40.0806478 C53.83645,40.2886913 52.1025929,33.5720391 52.08745,33.5417783 Z M56.4511167,33.5417783 C56.578569,31.9530826 70.0784262,29.5460826 70.146569,33.3097783 C70.1907357,35.7356913 69.8601167,38.0859522 67.9521167,39.1665174 C66.8025214,39.818387 64.8945214,40.001213 62.1082357,40.0806478 C54.7008548,40.2886913 56.4511167,33.5417783 56.4511167,33.5417783 Z M35.2561643,31.9833435 C36.0663071,31.7715174 36.4183786,31.6819957 37.3736405,31.3983 C42.6017119,29.8461696 49.1762357,30.5106478 52.154331,32.191387 C52.6717119,32.4826478 53.4679738,32.5822565 54.2692833,32.5910826 C55.0705929,32.5822565 55.8655929,32.4826478 56.3829738,32.191387 C59.361069,30.5106478 65.9368548,29.8461696 71.1636643,31.3983 C71.8312119,31.5962565 72.4621643,31.7664739 73.0577833,31.9240826 C73.3202595,32.5898217 73.4350929,33.7170391 72.9076167,35.2603435 L71.2519976,35.3170826 C71.2519976,35.3170826 70.836831,36.6800826 69.2316881,38.8084304 C67.6252833,40.9342565 60.9094262,40.7186478 58.8335929,40.2369957 C56.7577595,39.7540826 54.92295,35.0371696 54.92295,35.0371696 C54.4232357,34.9917783 54.115331,34.9917783 53.6143548,35.0371696 C53.6143548,35.0371696 51.7795452,39.7540826 49.7037119,40.2369957 C47.6291405,40.717387 40.9120214,40.9342565 39.3068786,38.8084304 C37.7017357,36.6800826 37.2853071,35.3296913 37.2853071,35.3296913 C36.6543548,34.3197348 36.2038548,34.0499087 35.0567833,34.1810391 C34.9570929,32.1800391 35.0429024,33.5279087 35.2561643,31.9833435 Z" id="Stroke-27" stroke="#0F50A4" stroke-width="0.5" stroke-linecap="round" stroke-linejoin="round"></path>
                <path d="M46.3466667,52.7515043 L47.958119,54.4700696 C50.1172381,56.7736783 49.6490714,58.3295913 53.9647857,58.6347217 C54.1528095,58.6347217 54.3307381,58.6334609 54.4998333,58.6284174 C54.6701905,58.6334609 54.848119,58.6347217 55.034881,58.6347217 C59.3518571,58.3283304 58.8824286,56.7736783 61.0428095,54.4700696 L62.6542619,52.7515043 C57.4224048,49.1920696 51.6643333,49.1870261 46.3466667,52.7527652 L46.3466667,52.7515043 Z M36.4407143,46.0802435 C36.5290476,46.2769391 40.6933333,54.9517217 42.8347857,51.8777217 C44.9762381,48.8012 50.1702381,46.1243739 51.3059524,46.6186348 C53.7603571,47.303287 55.3718095,47.0460696 57.6949762,46.6186348 C58.8306905,46.1243739 64.0246905,48.8012 66.1661429,51.8777217 C68.3075952,54.9517217 72.0062381,46.8014609 72.0945714,46.6047652 C71.491381,50.7025913 71.7096905,53.2142435 69.2477143,57.4343739 C64.9357857,61.9987217 60.8358571,64.9743739 56.1958333,65.0941565 C55.6191429,65.109287 55.0525476,65.0966783 54.4998333,65.0689391 C53.947119,65.0966783 53.3817857,65.1067652 52.8050952,65.0941565 C48.2218571,64.9983304 42.764119,61.2220261 39.8213571,57.1960696 C37.3745238,51.2725043 37.2975476,51.3305043 36.4407143,46.0802435 L36.4407143,46.0802435 Z" id="Fill-29" fill="#8FD3F7"></path>
                <path d="M52.9075619,2.19731739 C57.7318238,1.89596957 63.414181,2.80883913 68.1677762,5.13136087 C63.1239429,2.14940435 56.6465857,0.965447826 51.2468952,1.30336087 C32.6237048,2.46588261 29.1635619,15.1918391 32.010419,32.1946652 C32.6855381,32.1946652 33.2016571,32.3926217 33.6130381,32.7078391 C30.8810143,15.8966652 34.4244429,3.35101304 52.9075619,2.19731739" id="Fill-31" fill="#1988BF"></path>
                <path d="M34.0738857,34.8900261 C34.1483381,34.9682 34.2177429,35.045113 34.2846238,35.1195043 C34.6329095,35.4977652 34.8928619,35.7915478 34.9988619,35.8621565 C35.6272905,31.9471565 34.6695048,34.949287 36.5674095,24.2684609 C37.1390524,21.0507217 38.0779095,18.8820261 38.7656476,17.790113 C40.0603619,15.7462435 70.3069571,21.4466348 70.4028619,21.5235478 C71.2243619,23.9734174 72.8383381,30.9649391 73.9626952,35.8558522 C74.0346238,35.7675913 74.097719,35.683113 74.1608143,35.5986348 C74.1646,35.5935913 74.1696476,35.5885478 74.1734333,35.5835043 C74.813219,33.4627217 75.7533381,32.1400696 77.0240762,32.223287 C77.1502667,32.232113 77.2726714,32.2585913 77.3912905,32.2951565 C77.7976238,27.969113 77.6550286,23.2950696 77.4455524,18.5277217 C77.5730048,4.76785217 62.1840762,-0.632452174 51.1348381,0.0585043478 C31.7292667,1.2702 28.1252667,14.5295043 31.0920048,32.2459826 C32.8599333,32.2459826 33.6196,33.5232435 34.0738857,34.8900261 Z" id="Stroke-33" stroke="#0F50A4" stroke-width="2" stroke-linecap="round" stroke-linejoin="round"></path>
                <path d="M75.3082643,31.9520739 C74.3782405,31.9899 72.9497643,35.2542913 74.2406929,36.7912913 C74.5801452,37.1935087 75.2338119,38.1152043 74.901931,39.452987 C74.5687881,40.7907696 73.9403595,40.9748565 73.9756929,42.0806391 C74.1132405,46.3865087 75.2565262,42.8800304 75.9467881,41.5901609 C76.8010976,39.9926391 77.0509548,36.7673348 76.8982643,35.5430304 C76.7468357,34.3174652 76.279931,31.912987 75.3082643,31.9520739" id="Fill-35" fill="#8FD3F7"></path>
                <path d="M75.9465357,41.5896565 C75.2562738,42.8795261 74.1129881,46.3872652 73.9754405,42.0813957 C73.941369,40.975613 74.5685357,40.7902652 74.9016786,39.4537435 C75.2348214,38.1147 74.5798929,37.1942652 74.2404405,36.790787 C72.9495119,35.2550478 74.3779881,31.9906565 75.3080119,31.9515696 C76.2809405,31.9112217 76.7465833,34.3169609 76.8980119,35.5425261 C77.0507024,36.7668304 76.8008452,39.9921348 75.9465357,41.5896565 M73.3558452,33.6108739 C73.3520595,33.6272652 73.3470119,33.6423957 73.3432262,33.658787 C72.881369,35.2083957 72.5835595,37.196787 72.4422262,39.371787 C72.2542024,42.2238739 71.8112738,44.3433957 71.8440833,45.6748739 C71.8680595,46.7100478 72.17975,47.2698739 73.121131,47.3316565 C75.2752024,47.471613 76.2064881,43.6183957 77.7157262,39.3617 C79.1404167,35.3445696 78.3479405,31.0475261 76.4449881,30.4561783 C76.3314167,30.4208739 76.2140595,30.3943957 76.0929167,30.3855696 C74.8726548,30.3073957 73.9716548,31.5770913 73.3558452,33.6108739" id="Fill-37" fill="#E5F4F9"></path>
                <path d="M33.2229833,31.7132652 C32.2525786,31.6640913 31.7604357,34.064787 31.5963881,35.2878304 C31.4323405,36.5108739 31.6493881,39.7374391 32.4872929,41.343787 C33.1636738,42.6424826 34.2716262,46.1603087 34.4520786,41.8557 C34.498769,40.7511783 33.8716024,40.5595261 33.5523405,39.2179609 C33.2343405,37.8776565 33.8981024,36.9622652 34.2413405,36.5638304 C35.5486738,35.0407 34.1530071,31.7611783 33.2229833,31.7132652" id="Fill-39" fill="#8FD3F7"></path>
                <path d="M33.5525929,39.218087 C33.8718548,40.5583913 34.4977595,40.7513043 34.451069,41.8558261 C34.2706167,46.1604348 33.1639262,42.6426087 32.4862833,41.343913 C31.6496405,39.7375652 31.4325929,36.511 31.5966405,35.2879565 C31.76195,34.064913 32.252831,31.6642174 33.2232357,31.7133913 C34.1532595,31.7613043 35.5489262,35.0408261 34.240331,36.5639565 C33.8970929,36.9623913 33.2345929,37.8777826 33.5525929,39.218087 L33.5525929,39.218087 Z M35.2902357,33.8858696 C35.2056881,33.5542609 35.113569,33.2415652 35.0164024,32.9452609 C34.425831,31.1699565 33.5828786,30.0780435 32.4547357,30.1398261 C32.1708071,30.1562174 31.908331,30.2533043 31.6660452,30.4121739 C30.0747833,31.4624783 29.4665452,35.3888261 30.7398071,39.0983043 C32.2061405,43.3701304 33.0983071,47.2321739 35.2523786,47.114913 C36.7502595,47.0316957 36.6682357,45.6712174 36.385569,43.1482174 C36.2619024,42.039913 36.0991167,40.7109565 36.014569,39.1626087 C35.9047833,37.1868261 35.6662833,35.3673913 35.2889738,33.8858696 L35.2902357,33.8858696 Z" id="Fill-41" fill="#E5F4F9"></path>
                <path d="M103.81444,84.7620826 C102.616893,83.9614304 101.246464,83.1948217 99.778869,82.4521696 L99.778869,112.153213 L0.26127381,112.153213 L0.26127381,115.935822 L104.826488,115.935822 L104.826488,85.4858217 C104.504702,85.2386913 104.166512,84.9978652 103.81444,84.7620826" id="Fill-43" fill="#1988BF"></path>
                <path d="M103.81444,84.7620826 C95.3293929,79.0881696 78.7605833,74.9563 72.5621071,71.2884304 C65.885369,91.650213 37.743631,87.3178652 34.3011548,70.9631261 C27.0616071,73.6096913 7.80115476,78.1399957 0.26127381,84.7797348 L0.26127381,115.935822 L104.826488,115.935822 L104.826488,85.4858217 C104.504702,85.2386913 104.166512,84.9978652 103.81444,84.7620826 Z" id="Stroke-45" stroke="#0F50A4" stroke-width="2" stroke-linecap="round" stroke-linejoin="round"></path>
            </g>
        </g>
    </g>
</svg>