<?xml version="1.0" encoding="UTF-8"?>
<svg width="106px" height="123px" viewBox="0 0 106 123" version="1.1" xmlns="http://www.w3.org/2000/svg" xmlns:xlink="http://www.w3.org/1999/xlink">
    <!-- Generator: Sketch 47 (45396) - http://www.bohemiancoding.com/sketch -->
    <title>Page 1</title>
    <desc>Created with Sketch.</desc>
    <defs>
        <filter x="-3.5%" y="-3.0%" width="112.1%" height="110.3%" filterUnits="objectBoundingBox" id="filter-1">
            <feOffset dx="5" dy="5" in="SourceAlpha" result="shadowOffsetOuter1"></feOffset>
            <feColorMatrix values="0 0 0 0 0   0 0 0 0 0   0 0 0 0 0  0 0 0 0.3 0" type="matrix" in="shadowOffsetOuter1" result="shadowMatrixOuter1"></feColorMatrix>
            <feMerge>
                <feMergeNode in="shadowMatrixOuter1"></feMergeNode>
                <feMergeNode in="SourceGraphic"></feMergeNode>
            </feMerge>
        </filter>
    </defs>
    <g id="ADMIN-DR." stroke="none" stroke-width="1" fill="none" fill-rule="evenodd">
        <g id="1.-DASHBOARD" transform="translate(-1044.000000, -237.000000)">
            <g id="Page-1" filter="url(#filter-1)" transform="translate(1045.000000, 238.000000)">
                <polygon id="Fill-1" fill="#2AA3D3" points="9.18814286 115.977491 93.8095714 115.977491 93.8095714 8.367784 9.18814286 8.367784"></polygon>
                <polygon id="Fill-2" fill="#96E8FF" points="51.3574286 115.977491 98.6527143 115.977491 98.6527143 8.367784 51.3574286 8.367784"></polygon>
                <polygon id="Fill-3" fill="#00F8FE" points="70.2260429 108.185872 89.4681857 88.9204053 70.2260429 88.9204053"></polygon>
                <polygon id="Fill-4" fill="#00F8FE" points="70.2260429 108.185872 89.4681857 88.9204053 70.2260429 88.9204053"></polygon>
                <polygon id="Stroke-5" stroke="#0F50A4" stroke-width="2" stroke-linecap="round" stroke-linejoin="round" points="93.8081571 8.368256 51.3575857 8.368256 9.18672857 8.368256 9.18672857 115.977963 51.3575857 115.977963 93.8081571 115.977963 98.6528714 115.977963 98.6528714 8.368256"></polygon>
                <polygon id="Fill-7" fill="#FFFFFF" points="-0.000157142857 0.573805333 -0.000157142857 108.185085 65.3791286 108.185085 89.4691286 88.9227653 84.6228429 0.573805333"></polygon>
                <polygon id="Fill-8" fill="#F1F2F2" points="89.4699143 0.573805333 89.4699143 88.9196187 70.2262 108.183512 47.1576286 108.183512 47.1576286 0.573805333"></polygon>
                <polygon id="Fill-9" fill="#2AA3D3" points="89.4691286 88.921664 70.2254143 108.185557 70.2254143 88.921664"></polygon>
                <g id="Group-48" transform="translate(0.000000, 0.552397)">
                    <path d="M73.6489286,31.69544 L17.1010714,31.69544 C16.2556429,31.69544 15.5705,32.3829867 15.5705,33.22944 C15.5705,34.0758933 16.2556429,34.7618667 17.1010714,34.7618667 L73.6489286,34.7618667 C74.4943571,34.7618667 75.1810714,34.0758933 75.1810714,33.22944 C75.1810714,32.3829867 74.4943571,31.69544 73.6489286,31.69544" id="Fill-10" fill="#B0E2F6"></path>
                    <path d="M73.6489286,40.075328 L17.1010714,40.075328 C16.2556429,40.075328 15.5705,40.7628747 15.5705,41.609328 C15.5705,42.4557813 16.2556429,43.1417547 17.1010714,43.1417547 L73.6489286,43.1417547 C74.4943571,43.1417547 75.1810714,42.4557813 75.1810714,41.609328 C75.1810714,40.7628747 74.4943571,40.075328 73.6489286,40.075328" id="Fill-12" fill="#B0E2F6"></path>
                    <path d="M73.6489286,48.455216 L17.1010714,48.455216 C16.2556429,48.455216 15.5705,49.1427627 15.5705,49.989216 C15.5705,50.8356693 16.2556429,51.5216427 17.1010714,51.5216427 L73.6489286,51.5216427 C74.4943571,51.5216427 75.1810714,50.8356693 75.1810714,49.989216 C75.1810714,49.1427627 74.4943571,48.455216 73.6489286,48.455216" id="Fill-14" fill="#B0E2F6"></path>
                    <path d="M72.3683714,30.412544 L15.8205143,30.412544 C14.9750857,30.412544 14.2883714,31.1000907 14.2883714,31.946544 C14.2883714,32.7929973 14.9750857,33.4789707 15.8205143,33.4789707 L72.3683714,33.4789707 C73.2138,33.4789707 73.8989429,32.7929973 73.8989429,31.946544 C73.8989429,31.1000907 73.2138,30.412544 72.3683714,30.412544" id="Fill-16" fill="#0F50A4"></path>
                    <path d="M72.3683714,38.792432 L15.8205143,38.792432 C14.9750857,38.792432 14.2883714,39.4799787 14.2883714,40.326432 C14.2883714,41.1728853 14.9750857,41.8588587 15.8205143,41.8588587 L72.3683714,41.8588587 C73.2138,41.8588587 73.8989429,41.1728853 73.8989429,40.326432 C73.8989429,39.4799787 73.2138,38.792432 72.3683714,38.792432" id="Fill-18" fill="#0F50A4"></path>
                    <path d="M72.3683714,47.173736 L15.8205143,47.173736 C14.9750857,47.173736 14.2883714,47.8597093 14.2883714,48.7061627 C14.2883714,49.552616 14.9750857,50.2385893 15.8205143,50.2385893 L72.3683714,50.2385893 C73.2138,50.2385893 73.8989429,49.552616 73.8989429,48.7061627 C73.8989429,47.8597093 73.2138,47.173736 72.3683714,47.173736" id="Fill-20" fill="#0F50A4"></path>
                    <path d="M73.6489286,57.3513147 L17.1010714,57.3513147 C16.2556429,57.3513147 15.5705,58.0388613 15.5705,58.8853147 C15.5705,59.731768 16.2556429,60.4177413 17.1010714,60.4177413 L73.6489286,60.4177413 C74.4943571,60.4177413 75.1810714,59.731768 75.1810714,58.8853147 C75.1810714,58.0388613 74.4943571,57.3513147 73.6489286,57.3513147" id="Fill-22" fill="#B0E2F6"></path>
                    <path d="M73.6489286,65.7310453 L17.1010714,65.7310453 C16.2556429,65.7310453 15.5705,66.418592 15.5705,67.2650453 C15.5705,68.1114987 16.2556429,68.797472 17.1010714,68.797472 L73.6489286,68.797472 C74.4943571,68.797472 75.1810714,68.1114987 75.1810714,67.2650453 C75.1810714,66.418592 74.4943571,65.7310453 73.6489286,65.7310453" id="Fill-24" fill="#B0E2F6"></path>
                    <path d="M73.6489286,74.1125067 L17.1010714,74.1125067 C16.2556429,74.1125067 15.5705,74.79848 15.5705,75.6449333 C15.5705,76.4913867 16.2556429,77.17736 17.1010714,77.17736 L73.6489286,77.17736 C74.4943571,77.17736 75.1810714,76.4913867 75.1810714,75.6449333 C75.1810714,74.79848 74.4943571,74.1125067 73.6489286,74.1125067" id="Fill-26" fill="#B0E2F6"></path>
                    <path d="M72.3683714,56.0682613 L15.8205143,56.0682613 C14.9750857,56.0682613 14.2883714,56.755808 14.2883714,57.6022613 C14.2883714,58.4487147 14.9750857,59.134688 15.8205143,59.134688 L72.3683714,59.134688 C73.2138,59.134688 73.8989429,58.4487147 73.8989429,57.6022613 C73.8989429,56.755808 73.2138,56.0682613 72.3683714,56.0682613" id="Fill-28" fill="#0F50A4"></path>
                    <path d="M72.3683714,64.4497227 L15.8205143,64.4497227 C14.9750857,64.4497227 14.2883714,65.135696 14.2883714,65.9821493 C14.2883714,66.8286027 14.9750857,67.514576 15.8205143,67.514576 L72.3683714,67.514576 C73.2138,67.514576 73.8989429,66.8286027 73.8989429,65.9821493 C73.8989429,65.135696 73.2138,64.4497227 72.3683714,64.4497227" id="Fill-30" fill="#0F50A4"></path>
                    <path d="M72.3683714,72.8296107 L15.8205143,72.8296107 C14.9750857,72.8296107 14.2883714,73.515584 14.2883714,74.3620373 C14.2883714,75.2084907 14.9750857,75.894464 15.8205143,75.894464 L72.3683714,75.894464 C73.2138,75.894464 73.8989429,75.2084907 73.8989429,74.3620373 C73.8989429,73.515584 73.2138,72.8296107 72.3683714,72.8296107" id="Fill-32" fill="#0F50A4"></path>
                    <path d="M48.0242714,17.5846853 L17.1001286,17.5846853 C16.2547,17.5846853 15.5695571,18.272232 15.5695571,19.1186853 C15.5695571,19.9651387 16.2547,20.651112 17.1001286,20.651112 L48.0242714,20.651112 C48.8697,20.651112 49.5564143,19.9651387 49.5564143,19.1186853 C49.5564143,18.272232 48.8697,17.5846853 48.0242714,17.5846853" id="Fill-34" fill="#B0E2F6"></path>
                    <path d="M46.7429286,16.3017893 L15.8203571,16.3017893 C14.9749286,16.3017893 14.2882143,16.989336 14.2882143,17.8357893 C14.2882143,18.6822427 14.9749286,19.368216 15.8203571,19.368216 L46.7429286,19.368216 C47.5883571,19.368216 48.2750714,18.6822427 48.2750714,17.8357893 C48.2750714,16.989336 47.5883571,16.3017893 46.7429286,16.3017893" id="Fill-36" fill="#0F50A4"></path>
                    <path d="M48.0242714,83.007032 L17.1001286,83.007032 C16.2547,83.007032 15.5695571,83.6945787 15.5695571,84.541032 C15.5695571,85.3874853 16.2547,86.0734587 17.1001286,86.0734587 L48.0242714,86.0734587 C48.8697,86.0734587 49.5564143,85.3874853 49.5564143,84.541032 C49.5564143,83.6945787 48.8697,83.007032 48.0242714,83.007032" id="Fill-38" fill="#B0E2F6"></path>
                    <path d="M46.7429286,81.7257093 L15.8203571,81.7257093 C14.9749286,81.7257093 14.2882143,82.4116827 14.2882143,83.258136 C14.2882143,84.1045893 14.9749286,84.7905627 15.8203571,84.7905627 L46.7429286,84.7905627 C47.5883571,84.7905627 48.2750714,84.1045893 48.2750714,83.258136 C48.2750714,82.4116827 47.5883571,81.7257093 46.7429286,81.7257093" id="Fill-40" fill="#0F50A4"></path>
                    <path d="M48.0242714,90.7047227 L17.1001286,90.7047227 C16.2547,90.7047227 15.5695571,91.390696 15.5695571,92.2371493 C15.5695571,93.0836027 16.2547,93.769576 17.1001286,93.769576 L48.0242714,93.769576 C48.8697,93.769576 49.5564143,93.0836027 49.5564143,92.2371493 C49.5564143,91.390696 48.8697,90.7047227 48.0242714,90.7047227" id="Fill-42" fill="#B0E2F6"></path>
                    <path d="M46.7429286,89.4218267 L15.8203571,89.4218267 C14.9749286,89.4218267 14.2882143,90.1093733 14.2882143,90.9558267 C14.2882143,91.80228 14.9749286,92.48668 15.8203571,92.48668 L46.7429286,92.48668 C47.5883571,92.48668 48.2750714,91.80228 48.2750714,90.9558267 C48.2750714,90.1093733 47.5883571,89.4218267 46.7429286,89.4218267" id="Fill-44" fill="#0F50A4"></path>
                    <polygon id="Stroke-46" stroke="#0F50A4" stroke-width="2" stroke-linecap="round" stroke-linejoin="round" points="84.6228429 0.021408 47.1568429 0.021408 -0.000157142857 0.021408 -0.000157142857 107.632688 65.3791286 107.632688 65.3791286 107.631115 70.2254143 107.631115 70.2254143 107.632688 70.2254143 107.631115 89.4691286 88.3672213 89.4691286 0.021408"></polygon>
                </g>
            </g>
        </g>
    </g>
</svg>