<?xml version="1.0" encoding="UTF-8"?>
<svg width="12px" height="12px" viewBox="0 0 12 12" version="1.1" xmlns="http://www.w3.org/2000/svg" xmlns:xlink="http://www.w3.org/1999/xlink">
    <!-- Generator: Sketch 47 (45396) - http://www.bohemiancoding.com/sketch -->
    <title>phoneicon</title>
    <desc>Created with Sketch.</desc>
    <defs></defs>
    <g id="Page-1" stroke="none" stroke-width="1" fill="none" fill-rule="evenodd">
        <g id="phoneicon" transform="translate(-1.000000, 0.000000)" fill-rule="nonzero" fill="#231F20">
            <path d="M12.5,8.6 L11,7.1 C10.8,6.9 10.5,6.7 10.1,6.7 C9.8,6.7 9.5,6.8 9.2,7.1 L8.4,8 C8.3,8 8.2,7.9 8.2,7.9 C8.1,7.8 8,7.8 7.9,7.7 C7.1,7.2 6.4,6.5 5.7,5.7 C5.4,5.3 5.1,4.9 5,4.6 C5.2,4.4 5.4,4.2 5.6,4 C5.7,3.9 5.8,3.8 5.8,3.8 C6.4,3.2 6.4,2.5 5.8,1.9 L5.1,1.2 C5,1.1 4.9,1 4.8,0.9 C4.7,0.7 4.5,0.6 4.3,0.4 C4.1,0.1 3.8,0 3.4,0 C3.1,0 2.8,0.1 2.5,0.4 L2.5,0.4 L1.6,1.3 C1.3,1.7 1.1,2.1 1,2.6 C0.9,3.4 1.2,4.1 1.3,4.6 C1.8,5.7 2.4,6.8 3.4,8 C4.6,9.4 6,10.5 7.6,11.3 C8.2,11.6 9.1,11.9 10,12 C10.1,12 10.1,12 10.2,12 C10.8,12 11.3,11.8 11.8,11.3 C11.8,11.3 11.8,11.3 11.8,11.3 C11.9,11.1 12.1,11 12.3,10.8 C12.4,10.7 12.5,10.6 12.6,10.5 C12.9,10.2 13,9.9 13,9.6 C12.9,9.2 12.8,8.9 12.5,8.6 Z M12,10 C11.9,10.1 11.8,10.2 11.7,10.3 C11.5,10.5 11.3,10.6 11.2,10.8 C10.9,11.1 10.6,11.2 10.2,11.2 C10.2,11.2 10.1,11.2 10.1,11.2 C9.3,11.1 8.6,10.8 8,10.6 C6.4,9.9 5.1,8.9 4,7.5 C3.1,6.4 2.4,5.4 2,4.3 C1.8,3.6 1.7,3.1 1.7,2.6 C1.7,2.3 1.8,2 2.1,1.8 L3,0.9 C3.1,0.8 3.3,0.7 3.4,0.7 C3.6,0.7 3.7,0.8 3.8,0.9 L3.8,0.9 C4,1.1 4.2,1.2 4.3,1.4 C4.4,1.5 4.5,1.6 4.6,1.7 L5.3,2.4 C5.6,2.7 5.6,2.9 5.3,3.2 C5.2,3.3 5.2,3.4 5.1,3.5 C4.8,3.7 4.6,3.9 4.4,4.1 C4.4,4.1 4.4,4.1 4.4,4.1 C4.2,4.4 4.2,4.6 4.2,4.7 L4.2,4.7 C4.4,5.2 4.7,5.6 5.1,6.1 L5.1,6.1 C5.8,7 6.6,7.7 7.5,8.3 C7.6,8.4 7.7,8.4 7.8,8.5 C7.9,8.5 8,8.6 8.1,8.6 C8.1,8.6 8.1,8.6 8.1,8.6 C8.2,8.6 8.3,8.7 8.4,8.7 C8.6,8.7 8.8,8.6 8.8,8.5 L9.7,7.6 C9.8,7.6 10,7.5 10.1,7.5 C10.3,7.5 10.4,7.6 10.5,7.7 L12,9.1 C12.3,9.4 12.3,9.7 12,10 Z" id="Shape"></path>
        </g>
    </g>
</svg>