<svg id="Layer_1" data-name="Layer 1" xmlns="http://www.w3.org/2000/svg" viewBox="0 0 12 12"><defs><style>.cls-1{fill:#fff;}</style></defs><title>Artboard 1</title><path class="cls-1" d="M11.5,8.6,10,7.1a1.27,1.27,0,0,0-.9-.4,1.22,1.22,0,0,0-.9.4L7.4,8a.35.35,0,0,1-.2-.1c-.1-.1-.2-.1-.3-.2a10.23,10.23,0,0,1-2.2-2A4.89,4.89,0,0,1,4,4.6L4.6,4l.2-.2a1.23,1.23,0,0,0,0-1.9l-.7-.7L3.8.9C3.7.7,3.5.6,3.3.4A1,1,0,0,0,2.4,0a1.22,1.22,0,0,0-.9.4l-.9.9A3.1,3.1,0,0,0,0,2.6a5.62,5.62,0,0,0,.3,2A14.29,14.29,0,0,0,2.4,8a13.36,13.36,0,0,0,4.2,3.3A7.56,7.56,0,0,0,9,12h.2a2.13,2.13,0,0,0,1.6-.7c.1-.2.3-.3.5-.5l.3-.3a1.22,1.22,0,0,0,.4-.9A1.91,1.91,0,0,0,11.5,8.6ZM11,10l-.3.3c-.2.2-.4.3-.5.5a1.28,1.28,0,0,1-1,.4H9.1A10.52,10.52,0,0,1,7,10.6,10.09,10.09,0,0,1,3,7.5,11.24,11.24,0,0,1,1,4.3,6.09,6.09,0,0,1,.7,2.6a.91.91,0,0,1,.4-.8L2,.9A.76.76,0,0,1,2.4.7a.52.52,0,0,1,.4.2c.2.2.4.3.5.5l.3.3.7.7c.3.3.3.5,0,.8-.1.1-.1.2-.2.3a4.35,4.35,0,0,0-.7.6,1,1,0,0,0-.2.6,5.51,5.51,0,0,0,.9,1.4A10,10,0,0,0,6.5,8.3c.1.1.2.1.3.2s.2.1.3.1.2.1.3.1.4-.1.4-.2l.9-.9c.1,0,.3-.1.4-.1a.52.52,0,0,1,.4.2L11,9.1A.56.56,0,0,1,11,10Z"/></svg>