<?xml version="1.0" encoding="UTF-8"?>
<svg width="23px" height="23px" viewBox="0 0 23 23" version="1.1" xmlns="http://www.w3.org/2000/svg" xmlns:xlink="http://www.w3.org/1999/xlink">
    <!-- Generator: Sketch 48 (47235) - http://www.bohemiancoding.com/sketch -->
    <title>Group 4</title>
    <desc>Created with Sketch.</desc>
    <defs></defs>
    <g id="3.-PACIENTES.-NUEVA-CONSULTA" stroke="none" stroke-width="1" fill="none" fill-rule="evenodd" transform="translate(-273.000000, -1076.000000)">
        <g id="Group-6" transform="translate(248.000000, 1060.000000)" fill="#959699">
            <g id="Group-4" transform="translate(25.000000, 16.000000)">
                <path d="M11.5,20.4824869 C6.54697273,20.4824869 2.51751313,16.4530273 2.51751313,11.5 C2.51751313,6.54697273 6.54697273,2.51751313 11.5,2.51751313 C16.4530273,2.51751313 20.4824869,6.54697273 20.4824869,11.5 C20.4824869,16.4530273 16.4530273,20.4824869 11.5,20.4824869 M11.5,0 C5.15874406,0 0,5.15874406 0,11.5 C0,17.8412559 5.15874406,23 11.5,23 C17.8412559,23 23,17.8412559 23,11.5 C23,5.15874406 17.8412559,0 11.5,0" id="Fill-4"></path>
                <path d="M12.9205818,10.5010182 L12.9205818,6.20909091 C12.9205818,5.54029091 12.3789091,5 11.7114909,5 C11.0426909,5 10.5024,5.54029091 10.5024,6.20909091 L10.5024,10.5010182 L6.20909091,10.5010182 C5.54167273,10.5010182 5,11.0426909 5,11.7101091 C5,12.3775273 5.54167273,12.9192 6.20909091,12.9192 L10.5024,12.9192 L10.5024,17.2111273 C10.5024,17.8799273 11.0426909,18.4202182 11.7114909,18.4202182 C12.3789091,18.4202182 12.9205818,17.8799273 12.9205818,17.2111273 L12.9205818,12.9192 L17.2125091,12.9192 C17.8799273,12.9192 18.4216,12.3775273 18.4216,11.7101091 C18.4216,11.0426909 17.8799273,10.5010182 17.2125091,10.5010182 L12.9205818,10.5010182 Z" id="Fill-6"></path>
            </g>
        </g>
    </g>
</svg>