<?xml version="1.0" encoding="UTF-8"?>
<svg width="45px" height="7px" viewBox="0 0 45 7" version="1.1" xmlns="http://www.w3.org/2000/svg" xmlns:xlink="http://www.w3.org/1999/xlink">
    <!-- Generator: Sketch 47 (45396) - http://www.bohemiancoding.com/sketch -->
    <title>Untitled</title>
    <desc>Created with Sketch.</desc>
    <defs></defs>
    <g id="Page-1" stroke="none" stroke-width="1" fill="none" fill-rule="evenodd">
        <g id="stars-5" fill-rule="nonzero" fill="#F5A623">
            <path d="M6.5,2.3 L4.3,2.3 L3.5,0.1 C3.5,0 3.4,0 3.3,0 C3.3,0 3.2,0 3.2,0.1 L2.4,2.3 L0.2,2.3 C0.1,2.3 0,2.4 0,2.5 C0,2.6 0,2.6 0.1,2.7 L1.9,4.1 L1,6.4 C1,6.5 1,6.5 1,6.6 C1.1,6.6 1.1,6.6 1.2,6.6 L3.3,5.3 L5.4,6.6 C5.4,6.6 5.5,6.6 5.5,6.6 C5.5,6.6 5.6,6.6 5.6,6.6 C5.7,6.6 5.7,6.5 5.6,6.4 L4.9,4.1 L6.7,2.7 C6.8,2.7 6.8,2.6 6.8,2.5 C6.7,2.4 6.6,2.3 6.5,2.3 Z" id="Shape"></path>
            <path d="M15.9,2.3 L13.6,2.3 L12.8,0.1 C12.8,0 12.8,0 12.7,0 C12.6,0 12.6,0 12.5,0.1 L11.7,2.3 L9.5,2.3 C9.4,2.3 9.4,2.3 9.3,2.4 C9.3,2.5 9.3,2.5 9.4,2.6 L11.2,4 L10.4,6.3 C10.4,6.4 10.4,6.4 10.4,6.5 C10.5,6.5 10.5,6.5 10.6,6.5 L12.7,5.2 L14.8,6.5 C14.8,6.5 14.9,6.5 14.9,6.5 C14.9,6.5 15,6.5 15,6.5 C15.1,6.5 15.1,6.4 15,6.3 L14.2,4 L16,2.6 C16.1,2.6 16.1,2.5 16.1,2.4 C16,2.4 15.9,2.3 15.9,2.3 Z" id="Shape_1_"></path>
            <path d="M25.2,2.3 L23,2.3 L22.2,0.1 C22.2,0 22.1,0 22.1,0 C22,0 22,0 21.9,0.1 L21.1,2.3 L18.8,2.3 C18.7,2.3 18.7,2.3 18.6,2.4 C18.6,2.5 18.6,2.5 18.7,2.6 L20.5,4 L19.7,6.3 C19.7,6.4 19.7,6.4 19.7,6.5 C19.8,6.5 19.8,6.5 19.9,6.5 L22,5.2 L24.1,6.5 C24.1,6.5 24.2,6.5 24.2,6.5 C24.2,6.5 24.3,6.5 24.3,6.5 C24.4,6.5 24.4,6.4 24.3,6.3 L23.5,4 L25.3,2.6 C25.4,2.6 25.4,2.5 25.4,2.4 C25.4,2.4 25.3,2.3 25.2,2.3 Z" id="Shape_2_"></path>
            <path d="M34.6,2.3 L32.3,2.3 L31.5,0.1 C31.5,0 31.5,0 31.4,0 C31.3,0 31.3,0 31.2,0.1 L30.4,2.3 L28.1,2.3 C28,2.3 28,2.3 27.9,2.4 C27.9,2.5 27.9,2.5 28,2.6 L29.8,4 L29,6.3 C29,6.4 29,6.4 29,6.5 C29.1,6.5 29.1,6.5 29.2,6.5 L31.3,5.2 L33.4,6.5 C33.4,6.5 33.5,6.5 33.5,6.5 C33.5,6.5 33.6,6.5 33.6,6.5 C33.7,6.5 33.7,6.4 33.6,6.3 L32.8,4 L34.6,2.6 C34.7,2.6 34.7,2.5 34.7,2.4 C34.7,2.4 34.7,2.3 34.6,2.3 Z" id="Shape_3_"></path>
            <path d="M43.9,2.3 L41.6,2.3 L40.8,0.1 C40.9,0 40.8,0 40.8,0 C40.7,0 40.7,0 40.6,0.1 L39.8,2.3 L37.5,2.3 C37.4,2.3 37.4,2.3 37.3,2.4 C37.3,2.5 37.3,2.5 37.4,2.6 L39.2,4 L38.4,6.3 C38.4,6.4 38.4,6.4 38.4,6.5 C38.5,6.5 38.5,6.5 38.6,6.5 L40.7,5.2 L42.8,6.5 C42.8,6.5 42.9,6.5 42.9,6.5 C42.9,6.5 43,6.5 43,6.5 C43.1,6.5 43.1,6.4 43,6.3 L42.2,4 L44,2.6 C44.1,2.6 44.1,2.5 44.1,2.4 C44.1,2.4 44,2.3 43.9,2.3 Z" id="Shape_4_"></path>
        </g>
    </g>
</svg>