<?xml version="1.0" encoding="UTF-8"?>
<svg width="45px" height="7px" viewBox="0 0 45 7" version="1.1" xmlns="http://www.w3.org/2000/svg" xmlns:xlink="http://www.w3.org/1999/xlink">
    <!-- Generator: Sketch 47 (45396) - http://www.bohemiancoding.com/sketch -->
    <title>Group 8</title>
    <desc>Created with Sketch.</desc>
    <defs></defs>
    <g id="HOME-DOCTORES" stroke="none" stroke-width="1" fill="none" fill-rule="evenodd">
        <g id="3.-RESULTADO-DE-BÚSQUEDA" transform="translate(-327.000000, -494.000000)" fill="#F5A623">
            <g id="Group-8" transform="translate(327.000000, 494.000000)">
                <path d="M6.5216522,2.34676697 L4.26224608,2.34676697 L3.49228939,0.109872149 C3.46950438,0.0440641676 3.40893156,0 3.34097769,0 C3.27310405,0 3.212451,0.0439818047 3.18974623,0.109872149 L2.4197093,2.34676697 L0.160543872,2.34676697 C0.0922690829,2.34676697 0.0314555812,2.39116059 0.00883103303,2.45738038 C-0.0134725995,2.52360018 0.00738691293,2.59723264 0.0610600431,2.64072027 L1.82497251,4.07457652 L1.03552019,6.36805467 C1.01297587,6.4335332 1.0330331,6.50658912 1.08526211,6.55048856 C1.1377318,6.59463509 1.21146216,6.60015341 1.26954787,6.56424317 L3.34089746,5.28860611 L5.41224705,6.56424317 C5.43767961,6.57997449 5.46656201,6.58771661 5.49504327,6.58771661 C5.53090558,6.58771661 5.56708882,6.57519744 5.59661305,6.55048856 C5.64884206,6.50658912 5.66889928,6.4335332 5.64635496,6.36805467 L4.85690265,4.07457652 L6.62129648,2.64072027 C6.67480916,2.59723264 6.69566867,2.52360018 6.67312435,2.45738038 C6.65082072,2.39116059 6.59000722,2.34676697 6.5216522,2.34676697 Z" id="Shape"></path>
                <path d="M15.8765987,2.34676697 L13.6171926,2.34676697 L12.8472359,0.109872149 C12.8244509,0.0440641676 12.7638781,0 12.6959242,0 C12.6280506,0 12.5673975,0.0439818047 12.5446928,0.109872149 L11.7746558,2.34676697 L9.5154904,2.34676697 C9.44721561,2.34676697 9.38640211,2.39116059 9.36377756,2.45738038 C9.34147392,2.52360018 9.36233344,2.59723264 9.41600657,2.64072027 L11.179919,4.07457652 L10.3904667,6.36805467 C10.3679224,6.4335332 10.3879796,6.50658912 10.4402086,6.55048856 C10.4926783,6.59463509 10.5664087,6.60015341 10.6244944,6.56424317 L12.695844,5.28860611 L14.7671936,6.56424317 C14.7926261,6.57997449 14.8215085,6.58771661 14.8499898,6.58771661 C14.8858521,6.58771661 14.9220353,6.57519744 14.9515596,6.55048856 C15.0037886,6.50658912 15.0238458,6.4335332 15.0013015,6.36805467 L14.2118492,4.07457652 L15.976243,2.64072027 C16.0297557,2.59723264 16.0506152,2.52360018 16.0280709,2.45738038 C16.0057672,2.39116059 15.9449537,2.34676697 15.8765987,2.34676697 Z" id="Shape"></path>
                <path d="M25.2315452,2.34676697 L22.9721391,2.34676697 L22.2021824,0.109872149 C22.1793974,0.0440641676 22.1188246,0 22.0508707,0 C21.9829971,0 21.9223441,0.0439818047 21.8996393,0.109872149 L21.1296023,2.34676697 L18.8704369,2.34676697 C18.8021621,2.34676697 18.7413486,2.39116059 18.7187241,2.45738038 C18.6964204,2.52360018 18.71728,2.59723264 18.7709531,2.64072027 L20.5348656,4.07457652 L19.7454132,6.36805467 C19.7228689,6.4335332 19.7429261,6.50658912 19.7951552,6.55048856 C19.8476248,6.59463509 19.9213552,6.60015341 19.9794409,6.56424317 L22.0507905,5.28860611 L24.1221401,6.56424317 C24.1475727,6.57997449 24.1764551,6.58771661 24.2049363,6.58771661 C24.2407986,6.58771661 24.2769819,6.57519744 24.3065061,6.55048856 C24.3587351,6.50658912 24.3787923,6.4335332 24.356248,6.36805467 L23.5667957,4.07457652 L25.3311895,2.64072027 C25.3847022,2.59723264 25.4055617,2.52360018 25.3830174,2.45738038 C25.3607138,2.39116059 25.2999003,2.34676697 25.2315452,2.34676697 Z" id="Shape"></path>
                <path d="M34.5864918,2.34676697 L32.3270857,2.34676697 L31.557129,0.109872149 C31.534344,0.0440641676 31.4737711,0 31.4058173,0 C31.3379436,0 31.2772906,0.0439818047 31.2545858,0.109872149 L30.4845489,2.34676697 L28.2253834,2.34676697 C28.1571087,2.34676697 28.0962952,2.39116059 28.0736706,2.45738038 C28.051367,2.52360018 28.0722265,2.59723264 28.1258996,2.64072027 L29.8898121,4.07457652 L29.1003598,6.36805467 C29.0778154,6.4335332 29.0978727,6.50658912 29.1501017,6.55048856 C29.2025714,6.59463509 29.2763017,6.60015341 29.3343874,6.56424317 L31.405737,5.28860611 L33.4770866,6.56424317 C33.5025192,6.57997449 33.5314016,6.58771661 33.5598828,6.58771661 C33.5957452,6.58771661 33.6319284,6.57519744 33.6614526,6.55048856 C33.7136816,6.50658912 33.7337389,6.4335332 33.7111945,6.36805467 L32.9217422,4.07457652 L34.6861361,2.64072027 C34.7396487,2.59723264 34.7605082,2.52360018 34.7379639,2.45738038 C34.7156603,2.39116059 34.6548468,2.34676697 34.5864918,2.34676697 Z" id="Shape"></path>
                <path d="M43.9414383,2.34676697 L41.6820322,2.34676697 L40.9120755,0.109872149 C40.8892905,0.0440641676 40.8287177,0 40.7607638,0 C40.6928901,0 40.6322371,0.0439818047 40.6095323,0.109872149 L39.8394954,2.34676697 L37.58033,2.34676697 C37.5120552,2.34676697 37.4512417,2.39116059 37.4286171,2.45738038 C37.4063135,2.52360018 37.427173,2.59723264 37.4808461,2.64072027 L39.2447586,4.07457652 L38.4553063,6.36805467 C38.432762,6.4335332 38.4528192,6.50658912 38.5050482,6.55048856 C38.5575179,6.59463509 38.6312483,6.60015341 38.689334,6.56424317 L40.7606836,5.28860611 L42.8320331,6.56424317 C42.8574657,6.57997449 42.8863481,6.58771661 42.9148294,6.58771661 C42.9506917,6.58771661 42.9868749,6.57519744 43.0163991,6.55048856 C43.0686282,6.50658912 43.0886854,6.4335332 43.0661411,6.36805467 L42.2766887,4.07457652 L44.0410826,2.64072027 C44.0945953,2.59723264 44.1154548,2.52360018 44.0929104,2.45738038 C44.0706068,2.39116059 44.0097933,2.34676697 43.9414383,2.34676697 Z" id="Shape"></path>
            </g>
        </g>
    </g>
</svg>