<?xml version="1.0" encoding="utf-8"?>
<!-- Generator: Adobe Illustrator 21.1.0, SVG Export Plug-In . SVG Version: 6.00 Build 0)  -->
<svg version="1.1" id="Layer_1" xmlns="http://www.w3.org/2000/svg" xmlns:xlink="http://www.w3.org/1999/xlink" x="0px" y="0px"
	 viewBox="0 0 13 12" style="enable-background:new 0 0 13 12;" xml:space="preserve">
<style type="text/css">
	.st0{fill:none;stroke:#959699;stroke-width:0.6;stroke-linecap:round;stroke-linejoin:round;}
</style>
<g id="HOME-DOCTORES">
	<g id="_x34_.-PERFIL-DOCTOR-" transform="translate(-461.000000, -503.000000)">
		<path id="Shape" class="st0" d="M471.8,505.7c0.5-0.3,0.9-0.8,1.1-1.4c-0.5,0.3-1,0.5-1.6,0.6c-0.5-0.5-1.1-0.8-1.8-0.8
			c-1.4,0-2.5,1.1-2.5,2.5c0,0.2,0,0.4,0.1,0.6c-2.1-0.1-3.9-1.1-5.1-2.6c-0.2,0.4-0.3,0.8-0.3,1.2c0,0.9,0.4,1.6,1.1,2.1
			c-0.4,0-0.8-0.1-1.1-0.3c0,0,0,0,0,0c0,1.2,0.9,2.2,2,2.4c-0.2,0.1-0.4,0.1-0.7,0.1c-0.2,0-0.3,0-0.5,0c0.3,1,1.2,1.7,2.3,1.7
			c-0.9,0.7-1.9,1.1-3.1,1.1c-0.2,0-0.4,0-0.6,0c1.1,0.7,2.4,1.1,3.8,1.1c4.6,0,7.1-3.8,7.1-7c0-0.1,0-0.2,0-0.3
			c0.5-0.3,0.9-0.8,1.2-1.3C472.8,505.5,472.3,505.6,471.8,505.7z"/>
	</g>
</g>
</svg>
