<?xml version="1.0" encoding="UTF-8"?>
<svg width="14px" height="12px" viewBox="0 0 14 12" version="1.1" xmlns="http://www.w3.org/2000/svg" xmlns:xlink="http://www.w3.org/1999/xlink">
    <!-- Generator: Sketch 47 (45396) - http://www.bohemiancoding.com/sketch -->
    <title>Shape</title>
    <desc>Created with Sketch.</desc>
    <defs></defs>
    <g id="Page-1" stroke="none" stroke-width="1" fill="none" fill-rule="evenodd" stroke-linecap="round" stroke-linejoin="round">
        <g id="Mobile-Dr-Profile" transform="translate(-353.000000, -651.000000)" stroke="#FFFFFF" stroke-width="0.6">
            <g id="Group" transform="translate(354.000000, 623.000000)">
                <path d="M10.5860811,30.5811174 C11.0942691,30.2686973 11.4847993,29.7739389 11.6683766,29.1847354 C11.1927587,29.4739836 10.6657143,29.6842879 10.1051647,29.7971107 C9.65619521,29.3068269 9.01632404,29 8.30819578,29 C6.94866434,29 5.84626573,30.1301457 5.84626573,31.5246101 C5.84626573,31.7222897 5.86808306,31.9151751 5.91015934,32.1000703 C3.8640053,31.9947584 2.05005,30.9895807 0.835759646,29.4619982 C0.623819851,29.8349847 0.502421984,30.2688571 0.502421984,30.7313347 C0.502421984,31.6072296 0.9370544,32.3797302 1.59765204,32.8326195 C1.19418724,32.8193557 0.814565666,32.7057338 0.482630547,32.5168435 C0.482318871,32.5273907 0.482318871,32.5377781 0.482318871,32.5486448 C0.482318871,33.7714779 1.33085724,34.7918371 2.45694324,35.0240348 C2.25045777,35.081405 2.03306365,35.1124073 1.80850097,35.1124073 C1.64970196,35.1124073 1.49557809,35.0967464 1.34519434,35.0671823 C1.65842889,36.0699629 2.56758828,36.8001151 3.64489695,36.8205702 C2.80228043,37.497507 1.74086724,37.901336 0.587353739,37.901336 C0.388660182,37.901336 0.19277171,37.8895104 0,37.8660189 C1.08946405,38.582268 2.3835435,39 3.77377505,39 C8.3021181,39 10.7783853,35.1533176 10.7783853,31.8175339 C10.7783853,31.7082268 10.7758918,31.5990795 10.7712167,31.4905715 C11.2526005,31.134844 11.6700908,30.6901048 12,30.1838405 C11.5585107,30.3845564 11.0841396,30.5202314 10.5860811,30.5811174 Z" id="Shape"></path>
            </g>
        </g>
    </g>
</svg>