<?xml version="1.0" encoding="utf-8"?>
<!-- Generator: Adobe Illustrator 21.1.0, SVG Export Plug-In . SVG Version: 6.00 Build 0)  -->
<svg version="1.1" id="Layer_1" xmlns="http://www.w3.org/2000/svg" xmlns:xlink="http://www.w3.org/1999/xlink" x="0px" y="0px"
	 viewBox="0 0 17 22" style="enable-background:new 0 0 17 22;" xml:space="preserve">
<style type="text/css">
	.st0{fill:#959699;}
</style>
<g id="HOME-DOCTORES">
	<g id="_x33_.-RESULTADO-DE-BÚSQUEDA" transform="translate(-219.000000, -249.000000)">
		<g id="Page-1" transform="translate(219.000000, 249.000000)">
			<path id="Fill-1" class="st0" d="M12.7,19.2c-0.1-0.1-0.3-0.1-0.5,0l-3.7,1.6l-3.7-1.6c-0.1-0.1-0.3-0.1-0.5,0l-2.6,1.1L4,15.7
				l1.4-0.6L7,17.8c0.3,0.5,0.8,0.8,1.4,0.8c0.6,0,1.1-0.3,1.4-0.8l1.7-2.7l1.4,0.6l2.2,4.6L12.7,19.2z M2.6,6.8
				c0-3.1,2.6-5.7,5.8-5.7c1.6,0,3.1,0.6,4.2,1.7s1.8,2.5,1.8,4.1c0,0.9-0.2,1.8-0.6,2.6L9,17.3c-0.1,0.2-0.4,0.3-0.5,0.3
				s-0.3,0-0.5-0.3L3.2,9.4C2.8,8.6,2.6,7.7,2.6,6.8L2.6,6.8z M16.9,21.2l-3-6.1c-0.1-0.1-0.2-0.2-0.3-0.3l-1.5-0.6l2.6-4.2l0,0
				c0.5-1,0.8-2,0.8-3.1c0-1.8-0.7-3.6-2.1-4.9s-3.1-2-5-2S4.8,0.7,3.5,2s-2,3-2,4.8C1.4,7.9,1.7,9,2.2,10l0,0l2.6,4.2l-1.5,0.6
				C3.2,14.9,3.1,15,3,15.1l-3,6.1c0,0.2,0,0.5,0.2,0.6C0.3,22,0.6,22,0.8,22l3.7-1.6L8.3,22c0.1,0,0.3,0,0.4,0l3.7-1.6l3.7,1.6
				c0.1,0,0.2,0,0.2,0c0.1,0,0.3-0.1,0.4-0.2C17,21.7,17,21.4,16.9,21.2L16.9,21.2z"/>
			<path id="Fill-4" class="st0" d="M7,6.8C7,6,7.6,5.4,8.4,5.4S9.8,6,9.8,6.8S9.3,8.2,8.5,8.2S7,7.6,7,6.8 M11,6.8
				c0-1.4-1.1-2.5-2.5-2.5S6,5.4,6,6.8s1.1,2.5,2.5,2.5S11,8.2,11,6.8"/>
		</g>
	</g>
</g>
</svg>
