<?xml version="1.0" encoding="UTF-8"?>
<svg width="17px" height="22px" viewBox="0 0 17 22" version="1.1" xmlns="http://www.w3.org/2000/svg" xmlns:xlink="http://www.w3.org/1999/xlink">
    <!-- Generator: Sketch 47 (45396) - http://www.bohemiancoding.com/sketch -->
    <title>Page 1</title>
    <desc>Created with Sketch.</desc>
    <defs></defs>
    <g id="HOME-DOCTORES" stroke="none" stroke-width="1" fill="none" fill-rule="evenodd">
        <g id="3.-RESULTADO-DE-BÚSQUEDA" transform="translate(-219.000000, -249.000000)" fill="#959699">
            <g id="Page-1" transform="translate(219.000000, 249.000000)">
                <path d="M12.6665234,19.2453422 C12.5220896,19.1828227 12.3571675,19.1828227 12.2127779,19.2453422 L8.47904805,20.8629438 L4.74527403,19.2453422 C4.60088442,19.1828227 4.43591818,19.1828227 4.29152857,19.2453422 L1.70496753,20.3659672 L3.95417792,15.7361273 L5.37855714,15.119268 L7.04181948,17.8320141 C7.34667143,18.3292484 7.88395974,18.6261195 8.47895974,18.6261195 C9.07395974,18.6261195 9.61124805,18.3292484 9.9161,17.832057 L11.5794065,15.1193539 L13.0039182,15.7364281 L15.2529519,20.3660102 L12.6665234,19.2453422 Z M2.5622974,6.80855313 C2.5811961,3.69636953 5.19778312,1.12937344 8.39501948,1.08627578 C9.99195974,1.06535 11.4975416,1.65342031 12.6336714,2.74379531 C13.7701545,3.83447109 14.3959753,5.29042422 14.3959753,6.84352969 C14.3959753,7.76129922 14.1809805,8.63777578 13.7569078,9.44911172 L8.95813896,17.2757836 C8.81162987,17.5146898 8.57433636,17.5404711 8.47909221,17.5404711 C8.3838039,17.5404711 8.14651039,17.5146898 8.0000013,17.2757836 L3.20123247,9.44911172 C2.7715961,8.62703359 2.5566013,7.73874063 2.5622974,6.80855313 L2.5622974,6.80855313 Z M16.9045571,21.2250844 L13.9240377,15.0900063 C13.8646039,14.9675883 13.7615,14.8737875 13.6379519,14.8226117 L12.1551987,14.1802719 L14.7243623,9.99004531 C14.7305,9.97999063 14.7363286,9.96976406 14.7418481,9.95940859 C15.2526429,8.98921719 15.511661,7.94086563 15.511661,6.84352969 C15.511661,4.99763516 14.7677675,3.26715469 13.4170844,1.97083047 C12.0666662,0.674764063 10.2775156,-0.0252398437 8.37952078,0.00071328125 C6.5361026,0.0255921875 4.80038052,0.746135156 3.49213117,2.02969766 C2.18397013,3.31317422 1.45747403,5.00803359 1.44656753,6.80206484 C1.4399,7.89845547 1.70607143,8.9901625 2.21629221,9.95936563 C2.22172338,9.96972109 2.22750779,9.97994766 2.23368961,9.99000234 L4.80280909,14.180143 L3.31148961,14.8260063 C3.18953117,14.8788578 3.09106364,14.9724867 3.03401429,15.0899633 L0.0535831169,21.2250844 C-0.0461649351,21.4303031 -0.00412857143,21.6742367 0.158983117,21.8365727 C0.322050649,21.9988656 0.571619481,22.0453148 0.78475974,21.9530609 L4.51848961,20.3354594 L8.25221948,21.9530609 C8.39660909,22.0155805 8.56157532,22.0155805 8.70600909,21.9530609 L12.4396948,20.3354594 L16.1734688,21.9530609 C16.2464143,21.984643 16.3235987,21.9999828 16.4002091,21.9999828 C16.5473364,21.9999828 16.6919909,21.943393 16.7992455,21.8366156 C16.9622247,21.6742367 17.004261,21.4303891 16.9045571,21.2250844 L16.9045571,21.2250844 Z" id="Fill-1"></path>
                <path d="M7.04891974,6.84344375 C7.04891974,6.07597891 7.69054831,5.4516 8.47926,5.4516 C9.26788338,5.4516 9.90951195,6.07597891 9.90951195,6.84344375 C9.90951195,7.61090859 9.26788338,8.2352875 8.47926,8.2352875 C7.69059247,8.23533047 7.04891974,7.61095156 7.04891974,6.84344375 M11.0251535,6.84344375 C11.0251535,5.47733828 9.8830626,4.36595156 8.47926,4.36595156 C7.07536909,4.36595156 5.93323403,5.47733828 5.93323403,6.84344375 C5.93323403,8.20954922 7.07536909,9.32093594 8.47926,9.32093594 C9.8830626,9.32097891 11.0251535,8.20954922 11.0251535,6.84344375" id="Fill-4"></path>
            </g>
        </g>
    </g>
</svg>