<?xml version="1.0" encoding="UTF-8"?>
<svg width="13px" height="13px" viewBox="0 0 13 13" version="1.1" xmlns="http://www.w3.org/2000/svg" xmlns:xlink="http://www.w3.org/1999/xlink">
    <!-- Generator: Sketch 47 (45396) - http://www.bohemiancoding.com/sketch -->
    <title>Fill 6</title>
    <desc>Created with Sketch.</desc>
    <defs></defs>
    <g id="ADMIN-DR." stroke="none" stroke-width="1" fill="none" fill-rule="evenodd">
        <g id="1.-DASHBOARD" transform="translate(-1172.000000, -14.000000)" fill="#C0C0C0">
            <g id="Banner" transform="translate(216.000000, 0.000000)">
                <g id="Page-1-Copy" transform="translate(951.000000, 8.190476)">
                    <path d="M13.1046982,10.7154494 L13.1046982,5.81038961 C13.1046982,5.04604675 12.4546909,4.42857143 11.6537891,4.42857143 C10.8512291,4.42857143 10.20288,5.04604675 10.20288,5.81038961 L10.20288,10.7154494 L5.05090909,10.7154494 C4.25000727,10.7154494 3.6,11.3345039 3.6,12.0972675 C3.6,12.8600312 4.25000727,13.4790857 5.05090909,13.4790857 L10.20288,13.4790857 L10.20288,18.3841455 C10.20288,19.1484883 10.8512291,19.7659636 11.6537891,19.7659636 C12.4546909,19.7659636 13.1046982,19.1484883 13.1046982,18.3841455 L13.1046982,13.4790857 L18.2550109,13.4790857 C19.0559127,13.4790857 19.70592,12.8600312 19.70592,12.0972675 C19.70592,11.3345039 19.0559127,10.7154494 18.2550109,10.7154494 L13.1046982,10.7154494 Z" id="Fill-6" transform="translate(11.652960, 12.097268) rotate(-135.000000) translate(-11.652960, -12.097268) "></path>
                </g>
            </g>
        </g>
    </g>
</svg>